M48
;DRILL file {KiCad (5.0.2)-1} date 03/15/22 14:54:59
;FORMAT={-:-/ absolute / inch / decimal}
FMAT,2
INCH,TZ
T1C0.0394
T2C0.0402
T3C0.0421
T4C0.0787
T5C0.1181
T6C0.1201
%
G90
G05
T2
X4.3394Y-4.3739
X4.3394Y-4.492
X4.4576Y-4.3739
X4.4576Y-4.492
X4.5757Y-4.3739
X4.5757Y-4.492
X4.6938Y-4.3739
X4.6938Y-4.492
X4.8119Y-4.3739
X4.8119Y-4.492
X4.93Y-4.3739
X4.93Y-4.492
T3
X5.5512Y-1.7323
X5.6693Y-1.7323
X5.7874Y-1.7323
X5.9055Y-1.7323
X6.0236Y-1.7323
T4
X5.6299Y-2.4606
X5.6299Y-3.7008
X5.8465Y-3.7008
X6.063Y-2.4606
X6.063Y-3.7008
X4.8425Y-2.4606
X4.8425Y-3.7008
X5.0591Y-3.7008
X5.2756Y-2.4606
X5.2756Y-3.7008
X3.2677Y-2.4606
X3.2677Y-3.7008
X3.4843Y-3.7008
X3.7008Y-2.4606
X3.7008Y-3.7008
X4.0551Y-2.4606
X4.0551Y-3.7008
X4.2717Y-3.7008
X4.4882Y-2.4606
X4.4882Y-3.7008
T5
X3.1377Y-1.4686
X3.1377Y-2.1414
X4.4245Y-4.8278
X4.845Y-4.8278
T6
X5.6358Y-1.5622
X5.939Y-1.5622
T1
X3.7997Y-1.6578G85X3.6343Y-1.6578
G05
X3.7997Y-1.9522G85X3.6343Y-1.9522
G05
T0
M30
