G04 #@! TF.GenerationSoftware,KiCad,Pcbnew,(5.0.2)-1*
G04 #@! TF.CreationDate,2022-03-17T12:51:48+05:30*
G04 #@! TF.ProjectId,4ESC_board,34455343-5f62-46f6-9172-642e6b696361,rev?*
G04 #@! TF.SameCoordinates,Original*
G04 #@! TF.FileFunction,Paste,Top*
G04 #@! TF.FilePolarity,Positive*
%FSLAX46Y46*%
G04 Gerber Fmt 4.6, Leading zero omitted, Abs format (unit mm)*
G04 Created by KiCad (PCBNEW (5.0.2)-1) date 03/17/22 12:51:48*
%MOMM*%
%LPD*%
G01*
G04 APERTURE LIST*
%ADD10C,0.100000*%
%ADD11C,1.425000*%
%ADD12R,1.000000X5.000000*%
G04 APERTURE END LIST*
D10*
G04 #@! TO.C,R1*
G36*
X109277004Y-35306204D02*
X109301273Y-35309804D01*
X109325071Y-35315765D01*
X109348171Y-35324030D01*
X109370349Y-35334520D01*
X109391393Y-35347133D01*
X109411098Y-35361747D01*
X109429277Y-35378223D01*
X109445753Y-35396402D01*
X109460367Y-35416107D01*
X109472980Y-35437151D01*
X109483470Y-35459329D01*
X109491735Y-35482429D01*
X109497696Y-35506227D01*
X109501296Y-35530496D01*
X109502500Y-35555000D01*
X109502500Y-36805000D01*
X109501296Y-36829504D01*
X109497696Y-36853773D01*
X109491735Y-36877571D01*
X109483470Y-36900671D01*
X109472980Y-36922849D01*
X109460367Y-36943893D01*
X109445753Y-36963598D01*
X109429277Y-36981777D01*
X109411098Y-36998253D01*
X109391393Y-37012867D01*
X109370349Y-37025480D01*
X109348171Y-37035970D01*
X109325071Y-37044235D01*
X109301273Y-37050196D01*
X109277004Y-37053796D01*
X109252500Y-37055000D01*
X108327500Y-37055000D01*
X108302996Y-37053796D01*
X108278727Y-37050196D01*
X108254929Y-37044235D01*
X108231829Y-37035970D01*
X108209651Y-37025480D01*
X108188607Y-37012867D01*
X108168902Y-36998253D01*
X108150723Y-36981777D01*
X108134247Y-36963598D01*
X108119633Y-36943893D01*
X108107020Y-36922849D01*
X108096530Y-36900671D01*
X108088265Y-36877571D01*
X108082304Y-36853773D01*
X108078704Y-36829504D01*
X108077500Y-36805000D01*
X108077500Y-35555000D01*
X108078704Y-35530496D01*
X108082304Y-35506227D01*
X108088265Y-35482429D01*
X108096530Y-35459329D01*
X108107020Y-35437151D01*
X108119633Y-35416107D01*
X108134247Y-35396402D01*
X108150723Y-35378223D01*
X108168902Y-35361747D01*
X108188607Y-35347133D01*
X108209651Y-35334520D01*
X108231829Y-35324030D01*
X108254929Y-35315765D01*
X108278727Y-35309804D01*
X108302996Y-35306204D01*
X108327500Y-35305000D01*
X109252500Y-35305000D01*
X109277004Y-35306204D01*
X109277004Y-35306204D01*
G37*
D11*
X108790000Y-36180000D03*
D10*
G36*
X106302004Y-35306204D02*
X106326273Y-35309804D01*
X106350071Y-35315765D01*
X106373171Y-35324030D01*
X106395349Y-35334520D01*
X106416393Y-35347133D01*
X106436098Y-35361747D01*
X106454277Y-35378223D01*
X106470753Y-35396402D01*
X106485367Y-35416107D01*
X106497980Y-35437151D01*
X106508470Y-35459329D01*
X106516735Y-35482429D01*
X106522696Y-35506227D01*
X106526296Y-35530496D01*
X106527500Y-35555000D01*
X106527500Y-36805000D01*
X106526296Y-36829504D01*
X106522696Y-36853773D01*
X106516735Y-36877571D01*
X106508470Y-36900671D01*
X106497980Y-36922849D01*
X106485367Y-36943893D01*
X106470753Y-36963598D01*
X106454277Y-36981777D01*
X106436098Y-36998253D01*
X106416393Y-37012867D01*
X106395349Y-37025480D01*
X106373171Y-37035970D01*
X106350071Y-37044235D01*
X106326273Y-37050196D01*
X106302004Y-37053796D01*
X106277500Y-37055000D01*
X105352500Y-37055000D01*
X105327996Y-37053796D01*
X105303727Y-37050196D01*
X105279929Y-37044235D01*
X105256829Y-37035970D01*
X105234651Y-37025480D01*
X105213607Y-37012867D01*
X105193902Y-36998253D01*
X105175723Y-36981777D01*
X105159247Y-36963598D01*
X105144633Y-36943893D01*
X105132020Y-36922849D01*
X105121530Y-36900671D01*
X105113265Y-36877571D01*
X105107304Y-36853773D01*
X105103704Y-36829504D01*
X105102500Y-36805000D01*
X105102500Y-35555000D01*
X105103704Y-35530496D01*
X105107304Y-35506227D01*
X105113265Y-35482429D01*
X105121530Y-35459329D01*
X105132020Y-35437151D01*
X105144633Y-35416107D01*
X105159247Y-35396402D01*
X105175723Y-35378223D01*
X105193902Y-35361747D01*
X105213607Y-35347133D01*
X105234651Y-35334520D01*
X105256829Y-35324030D01*
X105279929Y-35315765D01*
X105303727Y-35309804D01*
X105327996Y-35306204D01*
X105352500Y-35305000D01*
X106277500Y-35305000D01*
X106302004Y-35306204D01*
X106302004Y-35306204D01*
G37*
D11*
X105815000Y-36180000D03*
G04 #@! TD*
D12*
G04 #@! TO.C,U4*
X147500000Y-63000000D03*
X149500000Y-63000000D03*
G04 #@! TD*
G04 #@! TO.C,U3*
X127500000Y-63000000D03*
X129500000Y-63000000D03*
G04 #@! TD*
G04 #@! TO.C,U2*
X107500000Y-63000000D03*
X109500000Y-63000000D03*
G04 #@! TD*
G04 #@! TO.C,U1*
X87500000Y-63000000D03*
X89500000Y-63000000D03*
G04 #@! TD*
D10*
G04 #@! TO.C,D1*
G36*
X100472004Y-35316204D02*
X100496273Y-35319804D01*
X100520071Y-35325765D01*
X100543171Y-35334030D01*
X100565349Y-35344520D01*
X100586393Y-35357133D01*
X100606098Y-35371747D01*
X100624277Y-35388223D01*
X100640753Y-35406402D01*
X100655367Y-35426107D01*
X100667980Y-35447151D01*
X100678470Y-35469329D01*
X100686735Y-35492429D01*
X100692696Y-35516227D01*
X100696296Y-35540496D01*
X100697500Y-35565000D01*
X100697500Y-36815000D01*
X100696296Y-36839504D01*
X100692696Y-36863773D01*
X100686735Y-36887571D01*
X100678470Y-36910671D01*
X100667980Y-36932849D01*
X100655367Y-36953893D01*
X100640753Y-36973598D01*
X100624277Y-36991777D01*
X100606098Y-37008253D01*
X100586393Y-37022867D01*
X100565349Y-37035480D01*
X100543171Y-37045970D01*
X100520071Y-37054235D01*
X100496273Y-37060196D01*
X100472004Y-37063796D01*
X100447500Y-37065000D01*
X99522500Y-37065000D01*
X99497996Y-37063796D01*
X99473727Y-37060196D01*
X99449929Y-37054235D01*
X99426829Y-37045970D01*
X99404651Y-37035480D01*
X99383607Y-37022867D01*
X99363902Y-37008253D01*
X99345723Y-36991777D01*
X99329247Y-36973598D01*
X99314633Y-36953893D01*
X99302020Y-36932849D01*
X99291530Y-36910671D01*
X99283265Y-36887571D01*
X99277304Y-36863773D01*
X99273704Y-36839504D01*
X99272500Y-36815000D01*
X99272500Y-35565000D01*
X99273704Y-35540496D01*
X99277304Y-35516227D01*
X99283265Y-35492429D01*
X99291530Y-35469329D01*
X99302020Y-35447151D01*
X99314633Y-35426107D01*
X99329247Y-35406402D01*
X99345723Y-35388223D01*
X99363902Y-35371747D01*
X99383607Y-35357133D01*
X99404651Y-35344520D01*
X99426829Y-35334030D01*
X99449929Y-35325765D01*
X99473727Y-35319804D01*
X99497996Y-35316204D01*
X99522500Y-35315000D01*
X100447500Y-35315000D01*
X100472004Y-35316204D01*
X100472004Y-35316204D01*
G37*
D11*
X99985000Y-36190000D03*
D10*
G36*
X103447004Y-35316204D02*
X103471273Y-35319804D01*
X103495071Y-35325765D01*
X103518171Y-35334030D01*
X103540349Y-35344520D01*
X103561393Y-35357133D01*
X103581098Y-35371747D01*
X103599277Y-35388223D01*
X103615753Y-35406402D01*
X103630367Y-35426107D01*
X103642980Y-35447151D01*
X103653470Y-35469329D01*
X103661735Y-35492429D01*
X103667696Y-35516227D01*
X103671296Y-35540496D01*
X103672500Y-35565000D01*
X103672500Y-36815000D01*
X103671296Y-36839504D01*
X103667696Y-36863773D01*
X103661735Y-36887571D01*
X103653470Y-36910671D01*
X103642980Y-36932849D01*
X103630367Y-36953893D01*
X103615753Y-36973598D01*
X103599277Y-36991777D01*
X103581098Y-37008253D01*
X103561393Y-37022867D01*
X103540349Y-37035480D01*
X103518171Y-37045970D01*
X103495071Y-37054235D01*
X103471273Y-37060196D01*
X103447004Y-37063796D01*
X103422500Y-37065000D01*
X102497500Y-37065000D01*
X102472996Y-37063796D01*
X102448727Y-37060196D01*
X102424929Y-37054235D01*
X102401829Y-37045970D01*
X102379651Y-37035480D01*
X102358607Y-37022867D01*
X102338902Y-37008253D01*
X102320723Y-36991777D01*
X102304247Y-36973598D01*
X102289633Y-36953893D01*
X102277020Y-36932849D01*
X102266530Y-36910671D01*
X102258265Y-36887571D01*
X102252304Y-36863773D01*
X102248704Y-36839504D01*
X102247500Y-36815000D01*
X102247500Y-35565000D01*
X102248704Y-35540496D01*
X102252304Y-35516227D01*
X102258265Y-35492429D01*
X102266530Y-35469329D01*
X102277020Y-35447151D01*
X102289633Y-35426107D01*
X102304247Y-35406402D01*
X102320723Y-35388223D01*
X102338902Y-35371747D01*
X102358607Y-35357133D01*
X102379651Y-35344520D01*
X102401829Y-35334030D01*
X102424929Y-35325765D01*
X102448727Y-35319804D01*
X102472996Y-35316204D01*
X102497500Y-35315000D01*
X103422500Y-35315000D01*
X103447004Y-35316204D01*
X103447004Y-35316204D01*
G37*
D11*
X102960000Y-36190000D03*
G04 #@! TD*
M02*
