G04 #@! TF.GenerationSoftware,KiCad,Pcbnew,(5.0.2)-1*
G04 #@! TF.CreationDate,2022-03-17T12:51:48+05:30*
G04 #@! TF.ProjectId,4ESC_board,34455343-5f62-46f6-9172-642e6b696361,rev?*
G04 #@! TF.SameCoordinates,Original*
G04 #@! TF.FileFunction,Legend,Bot*
G04 #@! TF.FilePolarity,Positive*
%FSLAX46Y46*%
G04 Gerber Fmt 4.6, Leading zero omitted, Abs format (unit mm)*
G04 Created by KiCad (PCBNEW (5.0.2)-1) date 03/17/22 12:51:48*
%MOMM*%
%LPD*%
G01*
G04 APERTURE LIST*
%ADD10C,0.300000*%
%ADD11C,0.200000*%
%ADD12C,0.120000*%
G04 APERTURE END LIST*
D10*
X90142857Y-51250000D02*
X90285714Y-51178571D01*
X90500000Y-51178571D01*
X90714285Y-51250000D01*
X90857142Y-51392857D01*
X90928571Y-51535714D01*
X91000000Y-51821428D01*
X91000000Y-52035714D01*
X90928571Y-52321428D01*
X90857142Y-52464285D01*
X90714285Y-52607142D01*
X90500000Y-52678571D01*
X90357142Y-52678571D01*
X90142857Y-52607142D01*
X90071428Y-52535714D01*
X90071428Y-52035714D01*
X90357142Y-52035714D01*
X89428571Y-52678571D02*
X89428571Y-51178571D01*
X88571428Y-52678571D01*
X88571428Y-51178571D01*
X87857142Y-52678571D02*
X87857142Y-51178571D01*
X87500000Y-51178571D01*
X87285714Y-51250000D01*
X87142857Y-51392857D01*
X87071428Y-51535714D01*
X87000000Y-51821428D01*
X87000000Y-52035714D01*
X87071428Y-52321428D01*
X87142857Y-52464285D01*
X87285714Y-52607142D01*
X87500000Y-52678571D01*
X87857142Y-52678571D01*
X90642857Y-37678571D02*
X90142857Y-39178571D01*
X89642857Y-37678571D01*
X89142857Y-39178571D02*
X89142857Y-37678571D01*
X88428571Y-39178571D02*
X88428571Y-37678571D01*
X87571428Y-39178571D01*
X87571428Y-37678571D01*
D11*
X155357142Y-42452380D02*
X155357142Y-41452380D01*
X155023809Y-42166666D01*
X154690476Y-41452380D01*
X154690476Y-42452380D01*
X153690476Y-41500000D02*
X153785714Y-41452380D01*
X153928571Y-41452380D01*
X154071428Y-41500000D01*
X154166666Y-41595238D01*
X154214285Y-41690476D01*
X154261904Y-41880952D01*
X154261904Y-42023809D01*
X154214285Y-42214285D01*
X154166666Y-42309523D01*
X154071428Y-42404761D01*
X153928571Y-42452380D01*
X153833333Y-42452380D01*
X153690476Y-42404761D01*
X153642857Y-42357142D01*
X153642857Y-42023809D01*
X153833333Y-42023809D01*
X153214285Y-42452380D02*
X153214285Y-41452380D01*
X152642857Y-42452380D01*
X152642857Y-41452380D01*
X152166666Y-42452380D02*
X152166666Y-41452380D01*
X151928571Y-41452380D01*
X151785714Y-41500000D01*
X151690476Y-41595238D01*
X151642857Y-41690476D01*
X151595238Y-41880952D01*
X151595238Y-42023809D01*
X151642857Y-42214285D01*
X151690476Y-42309523D01*
X151785714Y-42404761D01*
X151928571Y-42452380D01*
X152166666Y-42452380D01*
X150690476Y-42404761D02*
X150595238Y-42452380D01*
X150404761Y-42452380D01*
X150309523Y-42404761D01*
X150261904Y-42309523D01*
X150261904Y-42261904D01*
X150309523Y-42166666D01*
X150404761Y-42119047D01*
X150547619Y-42119047D01*
X150642857Y-42071428D01*
X150690476Y-41976190D01*
X150690476Y-41928571D01*
X150642857Y-41833333D01*
X150547619Y-41785714D01*
X150404761Y-41785714D01*
X150309523Y-41833333D01*
X149404761Y-41785714D02*
X149404761Y-42452380D01*
X149642857Y-41404761D02*
X149880952Y-42119047D01*
X149261904Y-42119047D01*
X147690476Y-42404761D02*
X147595238Y-42452380D01*
X147404761Y-42452380D01*
X147309523Y-42404761D01*
X147261904Y-42309523D01*
X147261904Y-42261904D01*
X147309523Y-42166666D01*
X147404761Y-42119047D01*
X147547619Y-42119047D01*
X147642857Y-42071428D01*
X147690476Y-41976190D01*
X147690476Y-41928571D01*
X147642857Y-41833333D01*
X147547619Y-41785714D01*
X147404761Y-41785714D01*
X147309523Y-41833333D01*
X146928571Y-41452380D02*
X146309523Y-41452380D01*
X146642857Y-41833333D01*
X146500000Y-41833333D01*
X146404761Y-41880952D01*
X146357142Y-41928571D01*
X146309523Y-42023809D01*
X146309523Y-42261904D01*
X146357142Y-42357142D01*
X146404761Y-42404761D01*
X146500000Y-42452380D01*
X146785714Y-42452380D01*
X146880952Y-42404761D01*
X146928571Y-42357142D01*
X144690476Y-42404761D02*
X144595238Y-42452380D01*
X144404761Y-42452380D01*
X144309523Y-42404761D01*
X144261904Y-42309523D01*
X144261904Y-42261904D01*
X144309523Y-42166666D01*
X144404761Y-42119047D01*
X144547619Y-42119047D01*
X144642857Y-42071428D01*
X144690476Y-41976190D01*
X144690476Y-41928571D01*
X144642857Y-41833333D01*
X144547619Y-41785714D01*
X144404761Y-41785714D01*
X144309523Y-41833333D01*
X143880952Y-41547619D02*
X143833333Y-41500000D01*
X143738095Y-41452380D01*
X143500000Y-41452380D01*
X143404761Y-41500000D01*
X143357142Y-41547619D01*
X143309523Y-41642857D01*
X143309523Y-41738095D01*
X143357142Y-41880952D01*
X143928571Y-42452380D01*
X143309523Y-42452380D01*
X141690476Y-42404761D02*
X141595238Y-42452380D01*
X141404761Y-42452380D01*
X141309523Y-42404761D01*
X141261904Y-42309523D01*
X141261904Y-42261904D01*
X141309523Y-42166666D01*
X141404761Y-42119047D01*
X141547619Y-42119047D01*
X141642857Y-42071428D01*
X141690476Y-41976190D01*
X141690476Y-41928571D01*
X141642857Y-41833333D01*
X141547619Y-41785714D01*
X141404761Y-41785714D01*
X141309523Y-41833333D01*
X140309523Y-42452380D02*
X140880952Y-42452380D01*
X140595238Y-42452380D02*
X140595238Y-41452380D01*
X140690476Y-41595238D01*
X140785714Y-41690476D01*
X140880952Y-41738095D01*
X157047619Y-119261904D02*
X157047619Y-118690476D01*
X156047619Y-118976190D02*
X157047619Y-118976190D01*
X156571428Y-118023809D02*
X156523809Y-117880952D01*
X156476190Y-117833333D01*
X156380952Y-117785714D01*
X156238095Y-117785714D01*
X156142857Y-117833333D01*
X156095238Y-117880952D01*
X156047619Y-117976190D01*
X156047619Y-118357142D01*
X157047619Y-118357142D01*
X157047619Y-118023809D01*
X157000000Y-117928571D01*
X156952380Y-117880952D01*
X156857142Y-117833333D01*
X156761904Y-117833333D01*
X156666666Y-117880952D01*
X156619047Y-117928571D01*
X156571428Y-118023809D01*
X156571428Y-118357142D01*
X157047619Y-117452380D02*
X157047619Y-116833333D01*
X156666666Y-117166666D01*
X156666666Y-117023809D01*
X156619047Y-116928571D01*
X156571428Y-116880952D01*
X156476190Y-116833333D01*
X156238095Y-116833333D01*
X156142857Y-116880952D01*
X156095238Y-116928571D01*
X156047619Y-117023809D01*
X156047619Y-117309523D01*
X156095238Y-117404761D01*
X156142857Y-117452380D01*
X153047619Y-119333333D02*
X153047619Y-118761904D01*
X152047619Y-119047619D02*
X153047619Y-119047619D01*
X153047619Y-118523809D02*
X152047619Y-118285714D01*
X152761904Y-118095238D01*
X152047619Y-117904761D01*
X153047619Y-117666666D01*
X153047619Y-117380952D02*
X153047619Y-116761904D01*
X152666666Y-117095238D01*
X152666666Y-116952380D01*
X152619047Y-116857142D01*
X152571428Y-116809523D01*
X152476190Y-116761904D01*
X152238095Y-116761904D01*
X152142857Y-116809523D01*
X152095238Y-116857142D01*
X152047619Y-116952380D01*
X152047619Y-117238095D01*
X152095238Y-117333333D01*
X152142857Y-117380952D01*
X155047619Y-119261904D02*
X155047619Y-118690476D01*
X154047619Y-118976190D02*
X155047619Y-118976190D01*
X155000000Y-117833333D02*
X155047619Y-117928571D01*
X155047619Y-118071428D01*
X155000000Y-118214285D01*
X154904761Y-118309523D01*
X154809523Y-118357142D01*
X154619047Y-118404761D01*
X154476190Y-118404761D01*
X154285714Y-118357142D01*
X154190476Y-118309523D01*
X154095238Y-118214285D01*
X154047619Y-118071428D01*
X154047619Y-117976190D01*
X154095238Y-117833333D01*
X154142857Y-117785714D01*
X154476190Y-117785714D01*
X154476190Y-117976190D01*
X155047619Y-117452380D02*
X155047619Y-116833333D01*
X154666666Y-117166666D01*
X154666666Y-117023809D01*
X154619047Y-116928571D01*
X154571428Y-116880952D01*
X154476190Y-116833333D01*
X154238095Y-116833333D01*
X154142857Y-116880952D01*
X154095238Y-116928571D01*
X154047619Y-117023809D01*
X154047619Y-117309523D01*
X154095238Y-117404761D01*
X154142857Y-117452380D01*
X150547619Y-119261904D02*
X150547619Y-118690476D01*
X149547619Y-118976190D02*
X150547619Y-118976190D01*
X150071428Y-118023809D02*
X150023809Y-117880952D01*
X149976190Y-117833333D01*
X149880952Y-117785714D01*
X149738095Y-117785714D01*
X149642857Y-117833333D01*
X149595238Y-117880952D01*
X149547619Y-117976190D01*
X149547619Y-118357142D01*
X150547619Y-118357142D01*
X150547619Y-118023809D01*
X150500000Y-117928571D01*
X150452380Y-117880952D01*
X150357142Y-117833333D01*
X150261904Y-117833333D01*
X150166666Y-117880952D01*
X150119047Y-117928571D01*
X150071428Y-118023809D01*
X150071428Y-118357142D01*
X150452380Y-117404761D02*
X150500000Y-117357142D01*
X150547619Y-117261904D01*
X150547619Y-117023809D01*
X150500000Y-116928571D01*
X150452380Y-116880952D01*
X150357142Y-116833333D01*
X150261904Y-116833333D01*
X150119047Y-116880952D01*
X149547619Y-117452380D01*
X149547619Y-116833333D01*
X145047619Y-119333333D02*
X145047619Y-118761904D01*
X144047619Y-119047619D02*
X145047619Y-119047619D01*
X145047619Y-118523809D02*
X144047619Y-118285714D01*
X144761904Y-118095238D01*
X144047619Y-117904761D01*
X145047619Y-117666666D01*
X144952380Y-117333333D02*
X145000000Y-117285714D01*
X145047619Y-117190476D01*
X145047619Y-116952380D01*
X145000000Y-116857142D01*
X144952380Y-116809523D01*
X144857142Y-116761904D01*
X144761904Y-116761904D01*
X144619047Y-116809523D01*
X144047619Y-117380952D01*
X144047619Y-116761904D01*
X147547619Y-119261904D02*
X147547619Y-118690476D01*
X146547619Y-118976190D02*
X147547619Y-118976190D01*
X147500000Y-117833333D02*
X147547619Y-117928571D01*
X147547619Y-118071428D01*
X147500000Y-118214285D01*
X147404761Y-118309523D01*
X147309523Y-118357142D01*
X147119047Y-118404761D01*
X146976190Y-118404761D01*
X146785714Y-118357142D01*
X146690476Y-118309523D01*
X146595238Y-118214285D01*
X146547619Y-118071428D01*
X146547619Y-117976190D01*
X146595238Y-117833333D01*
X146642857Y-117785714D01*
X146976190Y-117785714D01*
X146976190Y-117976190D01*
X147452380Y-117404761D02*
X147500000Y-117357142D01*
X147547619Y-117261904D01*
X147547619Y-117023809D01*
X147500000Y-116928571D01*
X147452380Y-116880952D01*
X147357142Y-116833333D01*
X147261904Y-116833333D01*
X147119047Y-116880952D01*
X146547619Y-117452380D01*
X146547619Y-116833333D01*
X143952380Y-121238095D02*
X143952380Y-121809523D01*
X144952380Y-121523809D02*
X143952380Y-121523809D01*
X144428571Y-122476190D02*
X144476190Y-122619047D01*
X144523809Y-122666666D01*
X144619047Y-122714285D01*
X144761904Y-122714285D01*
X144857142Y-122666666D01*
X144904761Y-122619047D01*
X144952380Y-122523809D01*
X144952380Y-122142857D01*
X143952380Y-122142857D01*
X143952380Y-122476190D01*
X144000000Y-122571428D01*
X144047619Y-122619047D01*
X144142857Y-122666666D01*
X144238095Y-122666666D01*
X144333333Y-122619047D01*
X144380952Y-122571428D01*
X144428571Y-122476190D01*
X144428571Y-122142857D01*
X144952380Y-123666666D02*
X144952380Y-123095238D01*
X144952380Y-123380952D02*
X143952380Y-123380952D01*
X144095238Y-123285714D01*
X144190476Y-123190476D01*
X144238095Y-123095238D01*
X146452380Y-121238095D02*
X146452380Y-121809523D01*
X147452380Y-121523809D02*
X146452380Y-121523809D01*
X146500000Y-122666666D02*
X146452380Y-122571428D01*
X146452380Y-122428571D01*
X146500000Y-122285714D01*
X146595238Y-122190476D01*
X146690476Y-122142857D01*
X146880952Y-122095238D01*
X147023809Y-122095238D01*
X147214285Y-122142857D01*
X147309523Y-122190476D01*
X147404761Y-122285714D01*
X147452380Y-122428571D01*
X147452380Y-122523809D01*
X147404761Y-122666666D01*
X147357142Y-122714285D01*
X147023809Y-122714285D01*
X147023809Y-122523809D01*
X147452380Y-123666666D02*
X147452380Y-123095238D01*
X147452380Y-123380952D02*
X146452380Y-123380952D01*
X146595238Y-123285714D01*
X146690476Y-123190476D01*
X146738095Y-123095238D01*
X149452380Y-121166666D02*
X149452380Y-121738095D01*
X150452380Y-121452380D02*
X149452380Y-121452380D01*
X149452380Y-121976190D02*
X150452380Y-122214285D01*
X149738095Y-122404761D01*
X150452380Y-122595238D01*
X149452380Y-122833333D01*
X150452380Y-123738095D02*
X150452380Y-123166666D01*
X150452380Y-123452380D02*
X149452380Y-123452380D01*
X149595238Y-123357142D01*
X149690476Y-123261904D01*
X149738095Y-123166666D01*
X153952380Y-121238095D02*
X153952380Y-121809523D01*
X154952380Y-121523809D02*
X153952380Y-121523809D01*
X154000000Y-122666666D02*
X153952380Y-122571428D01*
X153952380Y-122428571D01*
X154000000Y-122285714D01*
X154095238Y-122190476D01*
X154190476Y-122142857D01*
X154380952Y-122095238D01*
X154523809Y-122095238D01*
X154714285Y-122142857D01*
X154809523Y-122190476D01*
X154904761Y-122285714D01*
X154952380Y-122428571D01*
X154952380Y-122523809D01*
X154904761Y-122666666D01*
X154857142Y-122714285D01*
X154523809Y-122714285D01*
X154523809Y-122523809D01*
X154285714Y-123571428D02*
X154952380Y-123571428D01*
X153904761Y-123333333D02*
X154619047Y-123095238D01*
X154619047Y-123714285D01*
X155952380Y-121166666D02*
X155952380Y-121738095D01*
X156952380Y-121452380D02*
X155952380Y-121452380D01*
X155952380Y-121976190D02*
X156952380Y-122214285D01*
X156238095Y-122404761D01*
X156952380Y-122595238D01*
X155952380Y-122833333D01*
X156285714Y-123642857D02*
X156952380Y-123642857D01*
X155904761Y-123404761D02*
X156619047Y-123166666D01*
X156619047Y-123785714D01*
X151952380Y-121238095D02*
X151952380Y-121809523D01*
X152952380Y-121523809D02*
X151952380Y-121523809D01*
X152428571Y-122476190D02*
X152476190Y-122619047D01*
X152523809Y-122666666D01*
X152619047Y-122714285D01*
X152761904Y-122714285D01*
X152857142Y-122666666D01*
X152904761Y-122619047D01*
X152952380Y-122523809D01*
X152952380Y-122142857D01*
X151952380Y-122142857D01*
X151952380Y-122476190D01*
X152000000Y-122571428D01*
X152047619Y-122619047D01*
X152142857Y-122666666D01*
X152238095Y-122666666D01*
X152333333Y-122619047D01*
X152380952Y-122571428D01*
X152428571Y-122476190D01*
X152428571Y-122142857D01*
X152285714Y-123571428D02*
X152952380Y-123571428D01*
X151904761Y-123333333D02*
X152619047Y-123095238D01*
X152619047Y-123714285D01*
D12*
G04 #@! TO.C,F1*
X117909299Y-45830000D02*
G75*
G03X117909299Y-45830000I-381000J0D01*
G01*
G04 #@! TD*
M02*
