G04 #@! TF.GenerationSoftware,KiCad,Pcbnew,(5.0.2)-1*
G04 #@! TF.CreationDate,2022-03-15T14:53:39+05:30*
G04 #@! TF.ProjectId,4ESC_board,34455343-5f62-46f6-9172-642e6b696361,rev?*
G04 #@! TF.SameCoordinates,Original*
G04 #@! TF.FileFunction,Copper,L2,Bot*
G04 #@! TF.FilePolarity,Positive*
%FSLAX46Y46*%
G04 Gerber Fmt 4.6, Leading zero omitted, Abs format (unit mm)*
G04 Created by KiCad (PCBNEW (5.0.2)-1) date 03/15/22 14:53:39*
%MOMM*%
%LPD*%
G01*
G04 APERTURE LIST*
G04 #@! TA.AperFunction,ComponentPad*
%ADD10R,4.000000X10.000000*%
G04 #@! TD*
G04 #@! TA.AperFunction,ComponentPad*
%ADD11C,1.605000*%
G04 #@! TD*
G04 #@! TA.AperFunction,ComponentPad*
%ADD12C,1.530000*%
G04 #@! TD*
G04 #@! TA.AperFunction,Conductor*
%ADD13C,0.100000*%
G04 #@! TD*
G04 #@! TA.AperFunction,ComponentPad*
%ADD14C,2.350000*%
G04 #@! TD*
G04 #@! TA.AperFunction,Conductor*
%ADD15C,4.000000*%
G04 #@! TD*
G04 #@! TA.AperFunction,Conductor*
%ADD16C,2.000000*%
G04 #@! TD*
G04 APERTURE END LIST*
D10*
G04 #@! TO.P,U4,3*
G04 #@! TO.N,/TW4*
X143000000Y-97000000D03*
G04 #@! TO.P,U4,2*
G04 #@! TO.N,/TG4*
X148500000Y-97000000D03*
G04 #@! TO.P,U4,1*
G04 #@! TO.N,/TB4*
X154000000Y-97000000D03*
G04 #@! TO.P,U4,6*
G04 #@! TO.N,/VIN*
X143000000Y-62500000D03*
G04 #@! TO.P,U4,7*
G04 #@! TO.N,/GND*
X154000000Y-62500000D03*
G04 #@! TD*
G04 #@! TO.P,U3,3*
G04 #@! TO.N,/TW3*
X123000000Y-97000000D03*
G04 #@! TO.P,U3,2*
G04 #@! TO.N,/TG3*
X128500000Y-97000000D03*
G04 #@! TO.P,U3,1*
G04 #@! TO.N,/TB3*
X134000000Y-97000000D03*
G04 #@! TO.P,U3,6*
G04 #@! TO.N,/VIN*
X123000000Y-62500000D03*
G04 #@! TO.P,U3,7*
G04 #@! TO.N,/GND*
X134000000Y-62500000D03*
G04 #@! TD*
G04 #@! TO.P,U2,3*
G04 #@! TO.N,/TW2*
X103000000Y-97000000D03*
G04 #@! TO.P,U2,2*
G04 #@! TO.N,/TG2*
X108500000Y-97000000D03*
G04 #@! TO.P,U2,1*
G04 #@! TO.N,/TB2*
X114000000Y-97000000D03*
G04 #@! TO.P,U2,6*
G04 #@! TO.N,/VIN*
X103000000Y-62500000D03*
G04 #@! TO.P,U2,7*
G04 #@! TO.N,/GND*
X114000000Y-62500000D03*
G04 #@! TD*
G04 #@! TO.P,U1,3*
G04 #@! TO.N,/TW1*
X83000000Y-97000000D03*
G04 #@! TO.P,U1,2*
G04 #@! TO.N,/TG1*
X88500000Y-97000000D03*
G04 #@! TO.P,U1,1*
G04 #@! TO.N,/TB1*
X94000000Y-97000000D03*
G04 #@! TO.P,U1,6*
G04 #@! TO.N,/VIN*
X83000000Y-62500000D03*
G04 #@! TO.P,U1,7*
G04 #@! TO.N,/GND*
X94000000Y-62500000D03*
G04 #@! TD*
D11*
G04 #@! TO.P,C2,1*
G04 #@! TO.N,/SPEED1*
X141000000Y-44000000D03*
G04 #@! TO.P,C2,2*
G04 #@! TO.N,/SPEED2*
X144000000Y-44000000D03*
G04 #@! TO.P,C2,3*
G04 #@! TO.N,/SPEED3*
X147000000Y-44000000D03*
G04 #@! TO.P,C2,4*
G04 #@! TO.N,/SPEED4*
X150000000Y-44000000D03*
G04 #@! TO.P,C2,5*
G04 #@! TO.N,/MGND*
X153000000Y-44000000D03*
G04 #@! TD*
D12*
G04 #@! TO.P,C3,1*
G04 #@! TO.N,/TW4*
X125222000Y-114096800D03*
G04 #@! TO.P,C3,2*
G04 #@! TO.N,/TG4*
X122222000Y-114096800D03*
G04 #@! TO.P,C3,3*
G04 #@! TO.N,/TB4*
X119222000Y-114096800D03*
G04 #@! TO.P,C3,4*
G04 #@! TO.N,/TW1*
X116222000Y-114096800D03*
G04 #@! TO.P,C3,5*
G04 #@! TO.N,/TG1*
X113222000Y-114096800D03*
G04 #@! TO.P,C3,6*
G04 #@! TO.N,/TB1*
X110222000Y-114096800D03*
G04 #@! TO.P,C3,7*
G04 #@! TO.N,/TB3*
X125222000Y-111096800D03*
G04 #@! TO.P,C3,8*
G04 #@! TO.N,/TG3*
X122222000Y-111096800D03*
G04 #@! TO.P,C3,9*
G04 #@! TO.N,/TW3*
X119222000Y-111096800D03*
G04 #@! TO.P,C3,10*
G04 #@! TO.N,/TB2*
X116222000Y-111096800D03*
G04 #@! TO.P,C3,11*
G04 #@! TO.N,/TG2*
X113222000Y-111096800D03*
G04 #@! TO.P,C3,12*
G04 #@! TO.N,/TW2*
X110222000Y-111096800D03*
G04 #@! TD*
D13*
G04 #@! TO.N,/GND*
G04 #@! TO.C,C1*
G36*
X97381885Y-48414829D02*
X97438916Y-48423289D01*
X97494842Y-48437298D01*
X97549127Y-48456721D01*
X97601246Y-48481371D01*
X97650698Y-48511012D01*
X97697006Y-48545356D01*
X97739725Y-48584075D01*
X97778444Y-48626794D01*
X97812788Y-48673102D01*
X97842429Y-48722554D01*
X97867079Y-48774673D01*
X97886502Y-48828958D01*
X97900511Y-48884884D01*
X97908971Y-48941915D01*
X97911800Y-48999500D01*
X97911800Y-50174500D01*
X97908971Y-50232085D01*
X97900511Y-50289116D01*
X97886502Y-50345042D01*
X97867079Y-50399327D01*
X97842429Y-50451446D01*
X97812788Y-50500898D01*
X97778444Y-50547206D01*
X97739725Y-50589925D01*
X97697006Y-50628644D01*
X97650698Y-50662988D01*
X97601246Y-50692629D01*
X97549127Y-50717279D01*
X97494842Y-50736702D01*
X97438916Y-50750711D01*
X97381885Y-50759171D01*
X97324300Y-50762000D01*
X91499300Y-50762000D01*
X91441715Y-50759171D01*
X91384684Y-50750711D01*
X91328758Y-50736702D01*
X91274473Y-50717279D01*
X91222354Y-50692629D01*
X91172902Y-50662988D01*
X91126594Y-50628644D01*
X91083875Y-50589925D01*
X91045156Y-50547206D01*
X91010812Y-50500898D01*
X90981171Y-50451446D01*
X90956521Y-50399327D01*
X90937098Y-50345042D01*
X90923089Y-50289116D01*
X90914629Y-50232085D01*
X90911800Y-50174500D01*
X90911800Y-48999500D01*
X90914629Y-48941915D01*
X90923089Y-48884884D01*
X90937098Y-48828958D01*
X90956521Y-48774673D01*
X90981171Y-48722554D01*
X91010812Y-48673102D01*
X91045156Y-48626794D01*
X91083875Y-48584075D01*
X91126594Y-48545356D01*
X91172902Y-48511012D01*
X91222354Y-48481371D01*
X91274473Y-48456721D01*
X91328758Y-48437298D01*
X91384684Y-48423289D01*
X91441715Y-48414829D01*
X91499300Y-48412000D01*
X97324300Y-48412000D01*
X97381885Y-48414829D01*
X97381885Y-48414829D01*
G37*
D14*
G04 #@! TD*
G04 #@! TO.P,C1,2*
G04 #@! TO.N,/GND*
X94411800Y-49587000D03*
D13*
G04 #@! TO.N,/VIN*
G04 #@! TO.C,C1*
G36*
X97381885Y-40934829D02*
X97438916Y-40943289D01*
X97494842Y-40957298D01*
X97549127Y-40976721D01*
X97601246Y-41001371D01*
X97650698Y-41031012D01*
X97697006Y-41065356D01*
X97739725Y-41104075D01*
X97778444Y-41146794D01*
X97812788Y-41193102D01*
X97842429Y-41242554D01*
X97867079Y-41294673D01*
X97886502Y-41348958D01*
X97900511Y-41404884D01*
X97908971Y-41461915D01*
X97911800Y-41519500D01*
X97911800Y-42694500D01*
X97908971Y-42752085D01*
X97900511Y-42809116D01*
X97886502Y-42865042D01*
X97867079Y-42919327D01*
X97842429Y-42971446D01*
X97812788Y-43020898D01*
X97778444Y-43067206D01*
X97739725Y-43109925D01*
X97697006Y-43148644D01*
X97650698Y-43182988D01*
X97601246Y-43212629D01*
X97549127Y-43237279D01*
X97494842Y-43256702D01*
X97438916Y-43270711D01*
X97381885Y-43279171D01*
X97324300Y-43282000D01*
X91499300Y-43282000D01*
X91441715Y-43279171D01*
X91384684Y-43270711D01*
X91328758Y-43256702D01*
X91274473Y-43237279D01*
X91222354Y-43212629D01*
X91172902Y-43182988D01*
X91126594Y-43148644D01*
X91083875Y-43109925D01*
X91045156Y-43067206D01*
X91010812Y-43020898D01*
X90981171Y-42971446D01*
X90956521Y-42919327D01*
X90937098Y-42865042D01*
X90923089Y-42809116D01*
X90914629Y-42752085D01*
X90911800Y-42694500D01*
X90911800Y-41519500D01*
X90914629Y-41461915D01*
X90923089Y-41404884D01*
X90937098Y-41348958D01*
X90956521Y-41294673D01*
X90981171Y-41242554D01*
X91010812Y-41193102D01*
X91045156Y-41146794D01*
X91083875Y-41104075D01*
X91126594Y-41065356D01*
X91172902Y-41031012D01*
X91222354Y-41001371D01*
X91274473Y-40976721D01*
X91328758Y-40957298D01*
X91384684Y-40943289D01*
X91441715Y-40934829D01*
X91499300Y-40932000D01*
X97324300Y-40932000D01*
X97381885Y-40934829D01*
X97381885Y-40934829D01*
G37*
D14*
G04 #@! TD*
G04 #@! TO.P,C1,1*
G04 #@! TO.N,/VIN*
X94411800Y-42107000D03*
D15*
G04 #@! TO.N,/GND*
X94000000Y-49998800D02*
X94411800Y-49587000D01*
X94000000Y-62500000D02*
X94000000Y-49998800D01*
X110087000Y-49587000D02*
X105994200Y-49587000D01*
X114000000Y-53500000D02*
X110087000Y-49587000D01*
X114000000Y-62500000D02*
X114000000Y-53500000D01*
X94411800Y-49587000D02*
X105994200Y-49587000D01*
X130087000Y-49587000D02*
X124053600Y-49587000D01*
X134000000Y-53500000D02*
X130087000Y-49587000D01*
X134000000Y-62500000D02*
X134000000Y-53500000D01*
X105994200Y-49587000D02*
X124053600Y-49587000D01*
X124053600Y-49587000D02*
X144087000Y-49587000D01*
X154000000Y-59500000D02*
X154000000Y-62500000D01*
X144087000Y-49587000D02*
X154000000Y-59500000D01*
G04 #@! TO.N,/VIN*
X83296801Y-62203199D02*
X83000000Y-62500000D01*
X83296801Y-49621999D02*
X83296801Y-62203199D01*
X94411800Y-42107000D02*
X90811800Y-42107000D01*
X90811800Y-42107000D02*
X83296801Y-49621999D01*
X83000000Y-71500000D02*
X92348200Y-80848200D01*
X83000000Y-62500000D02*
X83000000Y-71500000D01*
X143000000Y-62500000D02*
X143000000Y-71500000D01*
X143000000Y-71500000D02*
X133651800Y-80848200D01*
X123000000Y-62500000D02*
X123000000Y-65500000D01*
X103000000Y-75790600D02*
X97942400Y-80848200D01*
X103000000Y-62500000D02*
X103000000Y-75790600D01*
X107651800Y-80848200D02*
X97942400Y-80848200D01*
X97942400Y-80848200D02*
X92348200Y-80848200D01*
X113651800Y-80848200D02*
X111658400Y-80848200D01*
X123000000Y-71500000D02*
X113651800Y-80848200D01*
X123000000Y-62500000D02*
X123000000Y-71500000D01*
X133651800Y-80848200D02*
X111658400Y-80848200D01*
X111658400Y-80848200D02*
X92348200Y-80848200D01*
D16*
G04 #@! TO.N,/TB3*
X134000000Y-102318800D02*
X125222000Y-111096800D01*
X134000000Y-94000000D02*
X134000000Y-102318800D01*
G04 #@! TO.N,/TG3*
X122222000Y-110014927D02*
X122222000Y-111096800D01*
X122222000Y-109705400D02*
X122222000Y-110014927D01*
X128500000Y-94000000D02*
X128500000Y-103427400D01*
X128500000Y-103427400D02*
X122222000Y-109705400D01*
G04 #@! TO.N,/TW3*
X119222000Y-97778000D02*
X119222000Y-111096800D01*
X123000000Y-94000000D02*
X119222000Y-97778000D01*
G04 #@! TO.N,/TB2*
X116222000Y-96222000D02*
X116222000Y-111096800D01*
X114000000Y-94000000D02*
X116222000Y-96222000D01*
G04 #@! TO.N,/TG2*
X113222000Y-110014927D02*
X113222000Y-111096800D01*
X113222000Y-109854146D02*
X113222000Y-110014927D01*
X108500000Y-94000000D02*
X108500000Y-105132146D01*
X108500000Y-105132146D02*
X113222000Y-109854146D01*
G04 #@! TO.N,/TW2*
X103000000Y-103874800D02*
X110222000Y-111096800D01*
X103000000Y-94000000D02*
X103000000Y-103874800D01*
G04 #@! TO.N,/TW4*
X126303873Y-114096800D02*
X125222000Y-114096800D01*
X127503202Y-114096800D02*
X126303873Y-114096800D01*
X143000000Y-94000000D02*
X143000000Y-98600002D01*
X143000000Y-98600002D02*
X127503202Y-114096800D01*
G04 #@! TO.N,/TG4*
X122222000Y-115178673D02*
X122222000Y-114096800D01*
X122222000Y-115659000D02*
X122222000Y-115178673D01*
X123659810Y-117096810D02*
X122222000Y-115659000D01*
X133503192Y-117096810D02*
X123659810Y-117096810D01*
X148500000Y-94000000D02*
X148500000Y-102100002D01*
X148500000Y-102100002D02*
X133503192Y-117096810D01*
G04 #@! TO.N,/TB4*
X136003182Y-120096820D02*
X125526800Y-120096820D01*
X154000000Y-94000000D02*
X154000000Y-102100002D01*
X154000000Y-102100002D02*
X136003182Y-120096820D01*
X125089380Y-119659400D02*
X120319800Y-119659400D01*
X125526800Y-120096820D02*
X125089380Y-119659400D01*
X119222000Y-118561600D02*
X119222000Y-114096800D01*
X120319800Y-119659400D02*
X119222000Y-118561600D01*
G04 #@! TO.N,/TW1*
X116222000Y-117762800D02*
X116222000Y-114096800D01*
X83000000Y-94000000D02*
X83000000Y-102100002D01*
X83000000Y-102100002D02*
X100996818Y-120096820D01*
X100996818Y-120096820D02*
X109784420Y-120096820D01*
X109784420Y-120096820D02*
X109891640Y-119989600D01*
X109891640Y-119989600D02*
X113995200Y-119989600D01*
X113995200Y-119989600D02*
X116222000Y-117762800D01*
G04 #@! TO.N,/TG1*
X113222000Y-115178673D02*
X113222000Y-114096800D01*
X113222000Y-115339454D02*
X113222000Y-115178673D01*
X111464644Y-117096810D02*
X113222000Y-115339454D01*
X103496808Y-117096810D02*
X111464644Y-117096810D01*
X88500000Y-94000000D02*
X88500000Y-102100002D01*
X88500000Y-102100002D02*
X103496808Y-117096810D01*
G04 #@! TO.N,/TB1*
X109140127Y-114096800D02*
X110222000Y-114096800D01*
X108979346Y-114096800D02*
X109140127Y-114096800D01*
X94000000Y-94000000D02*
X94000000Y-99117454D01*
X94000000Y-99117454D02*
X108979346Y-114096800D01*
G04 #@! TD*
M02*
