G04 #@! TF.GenerationSoftware,KiCad,Pcbnew,(5.0.2)-1*
G04 #@! TF.CreationDate,2022-03-15T14:53:39+05:30*
G04 #@! TF.ProjectId,4ESC_board,34455343-5f62-46f6-9172-642e6b696361,rev?*
G04 #@! TF.SameCoordinates,Original*
G04 #@! TF.FileFunction,Soldermask,Top*
G04 #@! TF.FilePolarity,Negative*
%FSLAX46Y46*%
G04 Gerber Fmt 4.6, Leading zero omitted, Abs format (unit mm)*
G04 Created by KiCad (PCBNEW (5.0.2)-1) date 03/15/22 14:53:39*
%MOMM*%
%LPD*%
G01*
G04 APERTURE LIST*
%ADD10C,0.150000*%
%ADD11C,0.100000*%
G04 APERTURE END LIST*
D10*
G36*
X84500000Y-102000000D02*
X101500000Y-119000000D01*
X113500000Y-119000000D01*
X115000000Y-117500000D01*
X115000000Y-113000000D01*
X117500000Y-113000000D01*
X117500000Y-118500000D01*
X115000000Y-121000000D01*
X100000000Y-121000000D01*
X82000000Y-103000000D01*
X82000000Y-102000000D01*
X84500000Y-102000000D01*
G37*
X84500000Y-102000000D02*
X101500000Y-119000000D01*
X113500000Y-119000000D01*
X115000000Y-117500000D01*
X115000000Y-113000000D01*
X117500000Y-113000000D01*
X117500000Y-118500000D01*
X115000000Y-121000000D01*
X100000000Y-121000000D01*
X82000000Y-103000000D01*
X82000000Y-102000000D01*
X84500000Y-102000000D01*
G36*
X90000000Y-102000000D02*
X104000000Y-116000000D01*
X111000000Y-116000000D01*
X112000000Y-115000000D01*
X112000000Y-113000000D01*
X114500000Y-113000000D01*
X114500000Y-116000000D01*
X112500000Y-118000000D01*
X112000000Y-118500000D01*
X103000000Y-118500000D01*
X87500000Y-103000000D01*
X87500000Y-102000000D01*
X90000000Y-102000000D01*
G37*
X90000000Y-102000000D02*
X104000000Y-116000000D01*
X111000000Y-116000000D01*
X112000000Y-115000000D01*
X112000000Y-113000000D01*
X114500000Y-113000000D01*
X114500000Y-116000000D01*
X112500000Y-118000000D01*
X112000000Y-118500000D01*
X103000000Y-118500000D01*
X87500000Y-103000000D01*
X87500000Y-102000000D01*
X90000000Y-102000000D01*
G36*
X96000000Y-99500000D02*
X109500000Y-113000000D01*
X111000000Y-113000000D01*
X111000000Y-115000000D01*
X111000000Y-115500000D01*
X108500000Y-115500000D01*
X95000000Y-102000000D01*
X96000000Y-99500000D01*
G37*
X96000000Y-99500000D02*
X109500000Y-113000000D01*
X111000000Y-113000000D01*
X111000000Y-115000000D01*
X111000000Y-115500000D01*
X108500000Y-115500000D01*
X95000000Y-102000000D01*
X96000000Y-99500000D01*
G36*
X104000000Y-102000000D02*
X104000000Y-103500000D01*
X111500000Y-111000000D01*
X110000000Y-112500000D01*
X102000000Y-104500000D01*
X102000000Y-102000000D01*
X104000000Y-102000000D01*
G37*
X104000000Y-102000000D02*
X104000000Y-103500000D01*
X111500000Y-111000000D01*
X110000000Y-112500000D01*
X102000000Y-104500000D01*
X102000000Y-102000000D01*
X104000000Y-102000000D01*
G36*
X109500000Y-101500000D02*
X109500000Y-104500000D01*
X114500000Y-109500000D01*
X114500000Y-112000000D01*
X112000000Y-112000000D01*
X112000000Y-110500000D01*
X107500000Y-106000000D01*
X107500000Y-101500000D01*
X109500000Y-101500000D01*
G37*
X109500000Y-101500000D02*
X109500000Y-104500000D01*
X114500000Y-109500000D01*
X114500000Y-112000000D01*
X112000000Y-112000000D01*
X112000000Y-110500000D01*
X107500000Y-106000000D01*
X107500000Y-101500000D01*
X109500000Y-101500000D01*
G36*
X116000000Y-94500000D02*
X117500000Y-96000000D01*
X117500000Y-112000000D01*
X115000000Y-112000000D01*
X115000000Y-102000000D01*
X115000000Y-94500000D01*
X116000000Y-94500000D01*
G37*
X116000000Y-94500000D02*
X117500000Y-96000000D01*
X117500000Y-112000000D01*
X115000000Y-112000000D01*
X115000000Y-102000000D01*
X115000000Y-94500000D01*
X116000000Y-94500000D01*
G36*
X121000000Y-97500000D02*
X120500000Y-98000000D01*
X120500000Y-112000000D01*
X118000000Y-112000000D01*
X118000000Y-97500000D01*
X121000000Y-94500000D01*
X121000000Y-97500000D01*
G37*
X121000000Y-97500000D02*
X120500000Y-98000000D01*
X120500000Y-112000000D01*
X118000000Y-112000000D01*
X118000000Y-97500000D01*
X121000000Y-94500000D01*
X121000000Y-97500000D01*
G36*
X129500000Y-102000000D02*
X129500000Y-104000000D01*
X123000000Y-110500000D01*
X123000000Y-112000000D01*
X121000000Y-112000000D01*
X121000000Y-109500000D01*
X127500000Y-103000000D01*
X127500000Y-102000000D01*
X129500000Y-102000000D01*
G37*
X129500000Y-102000000D02*
X129500000Y-104000000D01*
X123000000Y-110500000D01*
X123000000Y-112000000D01*
X121000000Y-112000000D01*
X121000000Y-109500000D01*
X127500000Y-103000000D01*
X127500000Y-102000000D01*
X129500000Y-102000000D01*
G36*
X135000000Y-102000000D02*
X135000000Y-103000000D01*
X126000000Y-112000000D01*
X124000000Y-112000000D01*
X124000000Y-110500000D01*
X132000000Y-102500000D01*
X132000000Y-102000000D01*
X135000000Y-102000000D01*
G37*
X135000000Y-102000000D02*
X135000000Y-103000000D01*
X126000000Y-112000000D01*
X124000000Y-112000000D01*
X124000000Y-110500000D01*
X132000000Y-102500000D01*
X132000000Y-102000000D01*
X135000000Y-102000000D01*
G36*
X141000000Y-102500000D02*
X128500000Y-115000000D01*
X124000000Y-115000000D01*
X124000000Y-113000000D01*
X127000000Y-113000000D01*
X141000000Y-99000000D01*
X141000000Y-102500000D01*
G37*
X141000000Y-102500000D02*
X128500000Y-115000000D01*
X124000000Y-115000000D01*
X124000000Y-113000000D01*
X127000000Y-113000000D01*
X141000000Y-99000000D01*
X141000000Y-102500000D01*
G36*
X149500000Y-101500000D02*
X149500000Y-102500000D01*
X149500000Y-103000000D01*
X134000000Y-118500000D01*
X126000000Y-118500000D01*
X125500000Y-118000000D01*
X123000000Y-118000000D01*
X121000000Y-116000000D01*
X121000000Y-113000000D01*
X123500000Y-113000000D01*
X123500000Y-115500000D01*
X124000000Y-116000000D01*
X133000000Y-116000000D01*
X147000000Y-102000000D01*
X147000000Y-101500000D01*
X149500000Y-101500000D01*
G37*
X149500000Y-101500000D02*
X149500000Y-102500000D01*
X149500000Y-103000000D01*
X134000000Y-118500000D01*
X126000000Y-118500000D01*
X125500000Y-118000000D01*
X123000000Y-118000000D01*
X121000000Y-116000000D01*
X121000000Y-113000000D01*
X123500000Y-113000000D01*
X123500000Y-115500000D01*
X124000000Y-116000000D01*
X133000000Y-116000000D01*
X147000000Y-102000000D01*
X147000000Y-101500000D01*
X149500000Y-101500000D01*
G36*
X155000000Y-101500000D02*
X155000000Y-103000000D01*
X136500000Y-121500000D01*
X125000000Y-121500000D01*
X125000000Y-121000000D01*
X120000000Y-121000000D01*
X118000000Y-119000000D01*
X118000000Y-113000000D01*
X120500000Y-113000000D01*
X120500000Y-118000000D01*
X121000000Y-118500000D01*
X125500000Y-118500000D01*
X126000000Y-119000000D01*
X135500000Y-119000000D01*
X152000000Y-102500000D01*
X152000000Y-100500000D01*
X155000000Y-100500000D01*
X155000000Y-101500000D01*
G37*
X155000000Y-101500000D02*
X155000000Y-103000000D01*
X136500000Y-121500000D01*
X125000000Y-121500000D01*
X125000000Y-121000000D01*
X120000000Y-121000000D01*
X118000000Y-119000000D01*
X118000000Y-113000000D01*
X120500000Y-113000000D01*
X120500000Y-118000000D01*
X121000000Y-118500000D01*
X125500000Y-118500000D01*
X126000000Y-119000000D01*
X135500000Y-119000000D01*
X152000000Y-102500000D01*
X152000000Y-100500000D01*
X155000000Y-100500000D01*
X155000000Y-101500000D01*
D11*
G36*
X123414527Y-121115536D02*
X123514410Y-121135404D01*
X123796674Y-121252321D01*
X124050705Y-121422059D01*
X124266741Y-121638095D01*
X124436479Y-121892126D01*
X124553396Y-122174390D01*
X124613000Y-122474040D01*
X124613000Y-122779560D01*
X124553396Y-123079210D01*
X124436479Y-123361474D01*
X124266741Y-123615505D01*
X124050705Y-123831541D01*
X123796674Y-124001279D01*
X123514410Y-124118196D01*
X123414527Y-124138064D01*
X123214762Y-124177800D01*
X122909238Y-124177800D01*
X122709473Y-124138064D01*
X122609590Y-124118196D01*
X122327326Y-124001279D01*
X122073295Y-123831541D01*
X121857259Y-123615505D01*
X121687521Y-123361474D01*
X121570604Y-123079210D01*
X121511000Y-122779560D01*
X121511000Y-122474040D01*
X121570604Y-122174390D01*
X121687521Y-121892126D01*
X121857259Y-121638095D01*
X122073295Y-121422059D01*
X122327326Y-121252321D01*
X122609590Y-121135404D01*
X122709473Y-121115536D01*
X122909238Y-121075800D01*
X123214762Y-121075800D01*
X123414527Y-121115536D01*
X123414527Y-121115536D01*
G37*
G36*
X112734527Y-121115536D02*
X112834410Y-121135404D01*
X113116674Y-121252321D01*
X113370705Y-121422059D01*
X113586741Y-121638095D01*
X113756479Y-121892126D01*
X113873396Y-122174390D01*
X113933000Y-122474040D01*
X113933000Y-122779560D01*
X113873396Y-123079210D01*
X113756479Y-123361474D01*
X113586741Y-123615505D01*
X113370705Y-123831541D01*
X113116674Y-124001279D01*
X112834410Y-124118196D01*
X112734527Y-124138064D01*
X112534762Y-124177800D01*
X112229238Y-124177800D01*
X112029473Y-124138064D01*
X111929590Y-124118196D01*
X111647326Y-124001279D01*
X111393295Y-123831541D01*
X111177259Y-123615505D01*
X111007521Y-123361474D01*
X110890604Y-123079210D01*
X110831000Y-122779560D01*
X110831000Y-122474040D01*
X110890604Y-122174390D01*
X111007521Y-121892126D01*
X111177259Y-121638095D01*
X111393295Y-121422059D01*
X111647326Y-121252321D01*
X111929590Y-121135404D01*
X112029473Y-121115536D01*
X112229238Y-121075800D01*
X112534762Y-121075800D01*
X112734527Y-121115536D01*
X112734527Y-121115536D01*
G37*
G36*
X116460016Y-113312158D02*
X116460019Y-113312159D01*
X116460018Y-113312159D01*
X116608521Y-113373670D01*
X116742170Y-113462972D01*
X116855828Y-113576630D01*
X116945130Y-113710279D01*
X116996087Y-113833303D01*
X117006642Y-113858784D01*
X117038000Y-114016430D01*
X117038000Y-114177170D01*
X117006642Y-114334816D01*
X117006641Y-114334818D01*
X116945130Y-114483321D01*
X116855828Y-114616970D01*
X116742170Y-114730628D01*
X116608521Y-114819930D01*
X116485497Y-114870887D01*
X116460016Y-114881442D01*
X116302370Y-114912800D01*
X116141630Y-114912800D01*
X115983984Y-114881442D01*
X115958503Y-114870887D01*
X115835479Y-114819930D01*
X115701830Y-114730628D01*
X115588172Y-114616970D01*
X115498870Y-114483321D01*
X115437359Y-114334818D01*
X115437358Y-114334816D01*
X115406000Y-114177170D01*
X115406000Y-114016430D01*
X115437358Y-113858784D01*
X115447913Y-113833303D01*
X115498870Y-113710279D01*
X115588172Y-113576630D01*
X115701830Y-113462972D01*
X115835479Y-113373670D01*
X115983982Y-113312159D01*
X115983981Y-113312159D01*
X115983984Y-113312158D01*
X116141630Y-113280800D01*
X116302370Y-113280800D01*
X116460016Y-113312158D01*
X116460016Y-113312158D01*
G37*
G36*
X125460016Y-113312158D02*
X125460019Y-113312159D01*
X125460018Y-113312159D01*
X125608521Y-113373670D01*
X125742170Y-113462972D01*
X125855828Y-113576630D01*
X125945130Y-113710279D01*
X125996087Y-113833303D01*
X126006642Y-113858784D01*
X126038000Y-114016430D01*
X126038000Y-114177170D01*
X126006642Y-114334816D01*
X126006641Y-114334818D01*
X125945130Y-114483321D01*
X125855828Y-114616970D01*
X125742170Y-114730628D01*
X125608521Y-114819930D01*
X125485497Y-114870887D01*
X125460016Y-114881442D01*
X125302370Y-114912800D01*
X125141630Y-114912800D01*
X124983984Y-114881442D01*
X124958503Y-114870887D01*
X124835479Y-114819930D01*
X124701830Y-114730628D01*
X124588172Y-114616970D01*
X124498870Y-114483321D01*
X124437359Y-114334818D01*
X124437358Y-114334816D01*
X124406000Y-114177170D01*
X124406000Y-114016430D01*
X124437358Y-113858784D01*
X124447913Y-113833303D01*
X124498870Y-113710279D01*
X124588172Y-113576630D01*
X124701830Y-113462972D01*
X124835479Y-113373670D01*
X124983982Y-113312159D01*
X124983981Y-113312159D01*
X124983984Y-113312158D01*
X125141630Y-113280800D01*
X125302370Y-113280800D01*
X125460016Y-113312158D01*
X125460016Y-113312158D01*
G37*
G36*
X122460016Y-113312158D02*
X122460019Y-113312159D01*
X122460018Y-113312159D01*
X122608521Y-113373670D01*
X122742170Y-113462972D01*
X122855828Y-113576630D01*
X122945130Y-113710279D01*
X122996087Y-113833303D01*
X123006642Y-113858784D01*
X123038000Y-114016430D01*
X123038000Y-114177170D01*
X123006642Y-114334816D01*
X123006641Y-114334818D01*
X122945130Y-114483321D01*
X122855828Y-114616970D01*
X122742170Y-114730628D01*
X122608521Y-114819930D01*
X122485497Y-114870887D01*
X122460016Y-114881442D01*
X122302370Y-114912800D01*
X122141630Y-114912800D01*
X121983984Y-114881442D01*
X121958503Y-114870887D01*
X121835479Y-114819930D01*
X121701830Y-114730628D01*
X121588172Y-114616970D01*
X121498870Y-114483321D01*
X121437359Y-114334818D01*
X121437358Y-114334816D01*
X121406000Y-114177170D01*
X121406000Y-114016430D01*
X121437358Y-113858784D01*
X121447913Y-113833303D01*
X121498870Y-113710279D01*
X121588172Y-113576630D01*
X121701830Y-113462972D01*
X121835479Y-113373670D01*
X121983982Y-113312159D01*
X121983981Y-113312159D01*
X121983984Y-113312158D01*
X122141630Y-113280800D01*
X122302370Y-113280800D01*
X122460016Y-113312158D01*
X122460016Y-113312158D01*
G37*
G36*
X119460016Y-113312158D02*
X119460019Y-113312159D01*
X119460018Y-113312159D01*
X119608521Y-113373670D01*
X119742170Y-113462972D01*
X119855828Y-113576630D01*
X119945130Y-113710279D01*
X119996087Y-113833303D01*
X120006642Y-113858784D01*
X120038000Y-114016430D01*
X120038000Y-114177170D01*
X120006642Y-114334816D01*
X120006641Y-114334818D01*
X119945130Y-114483321D01*
X119855828Y-114616970D01*
X119742170Y-114730628D01*
X119608521Y-114819930D01*
X119485497Y-114870887D01*
X119460016Y-114881442D01*
X119302370Y-114912800D01*
X119141630Y-114912800D01*
X118983984Y-114881442D01*
X118958503Y-114870887D01*
X118835479Y-114819930D01*
X118701830Y-114730628D01*
X118588172Y-114616970D01*
X118498870Y-114483321D01*
X118437359Y-114334818D01*
X118437358Y-114334816D01*
X118406000Y-114177170D01*
X118406000Y-114016430D01*
X118437358Y-113858784D01*
X118447913Y-113833303D01*
X118498870Y-113710279D01*
X118588172Y-113576630D01*
X118701830Y-113462972D01*
X118835479Y-113373670D01*
X118983982Y-113312159D01*
X118983981Y-113312159D01*
X118983984Y-113312158D01*
X119141630Y-113280800D01*
X119302370Y-113280800D01*
X119460016Y-113312158D01*
X119460016Y-113312158D01*
G37*
G36*
X113460016Y-113312158D02*
X113460019Y-113312159D01*
X113460018Y-113312159D01*
X113608521Y-113373670D01*
X113742170Y-113462972D01*
X113855828Y-113576630D01*
X113945130Y-113710279D01*
X113996087Y-113833303D01*
X114006642Y-113858784D01*
X114038000Y-114016430D01*
X114038000Y-114177170D01*
X114006642Y-114334816D01*
X114006641Y-114334818D01*
X113945130Y-114483321D01*
X113855828Y-114616970D01*
X113742170Y-114730628D01*
X113608521Y-114819930D01*
X113485497Y-114870887D01*
X113460016Y-114881442D01*
X113302370Y-114912800D01*
X113141630Y-114912800D01*
X112983984Y-114881442D01*
X112958503Y-114870887D01*
X112835479Y-114819930D01*
X112701830Y-114730628D01*
X112588172Y-114616970D01*
X112498870Y-114483321D01*
X112437359Y-114334818D01*
X112437358Y-114334816D01*
X112406000Y-114177170D01*
X112406000Y-114016430D01*
X112437358Y-113858784D01*
X112447913Y-113833303D01*
X112498870Y-113710279D01*
X112588172Y-113576630D01*
X112701830Y-113462972D01*
X112835479Y-113373670D01*
X112983982Y-113312159D01*
X112983981Y-113312159D01*
X112983984Y-113312158D01*
X113141630Y-113280800D01*
X113302370Y-113280800D01*
X113460016Y-113312158D01*
X113460016Y-113312158D01*
G37*
G36*
X110460016Y-113312158D02*
X110460019Y-113312159D01*
X110460018Y-113312159D01*
X110608521Y-113373670D01*
X110742170Y-113462972D01*
X110855828Y-113576630D01*
X110945130Y-113710279D01*
X110996087Y-113833303D01*
X111006642Y-113858784D01*
X111038000Y-114016430D01*
X111038000Y-114177170D01*
X111006642Y-114334816D01*
X111006641Y-114334818D01*
X110945130Y-114483321D01*
X110855828Y-114616970D01*
X110742170Y-114730628D01*
X110608521Y-114819930D01*
X110485497Y-114870887D01*
X110460016Y-114881442D01*
X110302370Y-114912800D01*
X110141630Y-114912800D01*
X109983984Y-114881442D01*
X109958503Y-114870887D01*
X109835479Y-114819930D01*
X109701830Y-114730628D01*
X109588172Y-114616970D01*
X109498870Y-114483321D01*
X109437359Y-114334818D01*
X109437358Y-114334816D01*
X109406000Y-114177170D01*
X109406000Y-114016430D01*
X109437358Y-113858784D01*
X109447913Y-113833303D01*
X109498870Y-113710279D01*
X109588172Y-113576630D01*
X109701830Y-113462972D01*
X109835479Y-113373670D01*
X109983982Y-113312159D01*
X109983981Y-113312159D01*
X109983984Y-113312158D01*
X110141630Y-113280800D01*
X110302370Y-113280800D01*
X110460016Y-113312158D01*
X110460016Y-113312158D01*
G37*
G36*
X122460016Y-110312158D02*
X122460019Y-110312159D01*
X122460018Y-110312159D01*
X122608521Y-110373670D01*
X122742170Y-110462972D01*
X122855828Y-110576630D01*
X122945130Y-110710279D01*
X122996087Y-110833303D01*
X123006642Y-110858784D01*
X123038000Y-111016430D01*
X123038000Y-111177170D01*
X123006642Y-111334816D01*
X123006641Y-111334818D01*
X122945130Y-111483321D01*
X122855828Y-111616970D01*
X122742170Y-111730628D01*
X122608521Y-111819930D01*
X122485497Y-111870887D01*
X122460016Y-111881442D01*
X122302370Y-111912800D01*
X122141630Y-111912800D01*
X121983984Y-111881442D01*
X121958503Y-111870887D01*
X121835479Y-111819930D01*
X121701830Y-111730628D01*
X121588172Y-111616970D01*
X121498870Y-111483321D01*
X121437359Y-111334818D01*
X121437358Y-111334816D01*
X121406000Y-111177170D01*
X121406000Y-111016430D01*
X121437358Y-110858784D01*
X121447913Y-110833303D01*
X121498870Y-110710279D01*
X121588172Y-110576630D01*
X121701830Y-110462972D01*
X121835479Y-110373670D01*
X121983982Y-110312159D01*
X121983981Y-110312159D01*
X121983984Y-110312158D01*
X122141630Y-110280800D01*
X122302370Y-110280800D01*
X122460016Y-110312158D01*
X122460016Y-110312158D01*
G37*
G36*
X110460016Y-110312158D02*
X110460019Y-110312159D01*
X110460018Y-110312159D01*
X110608521Y-110373670D01*
X110742170Y-110462972D01*
X110855828Y-110576630D01*
X110945130Y-110710279D01*
X110996087Y-110833303D01*
X111006642Y-110858784D01*
X111038000Y-111016430D01*
X111038000Y-111177170D01*
X111006642Y-111334816D01*
X111006641Y-111334818D01*
X110945130Y-111483321D01*
X110855828Y-111616970D01*
X110742170Y-111730628D01*
X110608521Y-111819930D01*
X110485497Y-111870887D01*
X110460016Y-111881442D01*
X110302370Y-111912800D01*
X110141630Y-111912800D01*
X109983984Y-111881442D01*
X109958503Y-111870887D01*
X109835479Y-111819930D01*
X109701830Y-111730628D01*
X109588172Y-111616970D01*
X109498870Y-111483321D01*
X109437359Y-111334818D01*
X109437358Y-111334816D01*
X109406000Y-111177170D01*
X109406000Y-111016430D01*
X109437358Y-110858784D01*
X109447913Y-110833303D01*
X109498870Y-110710279D01*
X109588172Y-110576630D01*
X109701830Y-110462972D01*
X109835479Y-110373670D01*
X109983982Y-110312159D01*
X109983981Y-110312159D01*
X109983984Y-110312158D01*
X110141630Y-110280800D01*
X110302370Y-110280800D01*
X110460016Y-110312158D01*
X110460016Y-110312158D01*
G37*
G36*
X116460016Y-110312158D02*
X116460019Y-110312159D01*
X116460018Y-110312159D01*
X116608521Y-110373670D01*
X116742170Y-110462972D01*
X116855828Y-110576630D01*
X116945130Y-110710279D01*
X116996087Y-110833303D01*
X117006642Y-110858784D01*
X117038000Y-111016430D01*
X117038000Y-111177170D01*
X117006642Y-111334816D01*
X117006641Y-111334818D01*
X116945130Y-111483321D01*
X116855828Y-111616970D01*
X116742170Y-111730628D01*
X116608521Y-111819930D01*
X116485497Y-111870887D01*
X116460016Y-111881442D01*
X116302370Y-111912800D01*
X116141630Y-111912800D01*
X115983984Y-111881442D01*
X115958503Y-111870887D01*
X115835479Y-111819930D01*
X115701830Y-111730628D01*
X115588172Y-111616970D01*
X115498870Y-111483321D01*
X115437359Y-111334818D01*
X115437358Y-111334816D01*
X115406000Y-111177170D01*
X115406000Y-111016430D01*
X115437358Y-110858784D01*
X115447913Y-110833303D01*
X115498870Y-110710279D01*
X115588172Y-110576630D01*
X115701830Y-110462972D01*
X115835479Y-110373670D01*
X115983982Y-110312159D01*
X115983981Y-110312159D01*
X115983984Y-110312158D01*
X116141630Y-110280800D01*
X116302370Y-110280800D01*
X116460016Y-110312158D01*
X116460016Y-110312158D01*
G37*
G36*
X119460016Y-110312158D02*
X119460019Y-110312159D01*
X119460018Y-110312159D01*
X119608521Y-110373670D01*
X119742170Y-110462972D01*
X119855828Y-110576630D01*
X119945130Y-110710279D01*
X119996087Y-110833303D01*
X120006642Y-110858784D01*
X120038000Y-111016430D01*
X120038000Y-111177170D01*
X120006642Y-111334816D01*
X120006641Y-111334818D01*
X119945130Y-111483321D01*
X119855828Y-111616970D01*
X119742170Y-111730628D01*
X119608521Y-111819930D01*
X119485497Y-111870887D01*
X119460016Y-111881442D01*
X119302370Y-111912800D01*
X119141630Y-111912800D01*
X118983984Y-111881442D01*
X118958503Y-111870887D01*
X118835479Y-111819930D01*
X118701830Y-111730628D01*
X118588172Y-111616970D01*
X118498870Y-111483321D01*
X118437359Y-111334818D01*
X118437358Y-111334816D01*
X118406000Y-111177170D01*
X118406000Y-111016430D01*
X118437358Y-110858784D01*
X118447913Y-110833303D01*
X118498870Y-110710279D01*
X118588172Y-110576630D01*
X118701830Y-110462972D01*
X118835479Y-110373670D01*
X118983982Y-110312159D01*
X118983981Y-110312159D01*
X118983984Y-110312158D01*
X119141630Y-110280800D01*
X119302370Y-110280800D01*
X119460016Y-110312158D01*
X119460016Y-110312158D01*
G37*
G36*
X125460016Y-110312158D02*
X125460019Y-110312159D01*
X125460018Y-110312159D01*
X125608521Y-110373670D01*
X125742170Y-110462972D01*
X125855828Y-110576630D01*
X125945130Y-110710279D01*
X125996087Y-110833303D01*
X126006642Y-110858784D01*
X126038000Y-111016430D01*
X126038000Y-111177170D01*
X126006642Y-111334816D01*
X126006641Y-111334818D01*
X125945130Y-111483321D01*
X125855828Y-111616970D01*
X125742170Y-111730628D01*
X125608521Y-111819930D01*
X125485497Y-111870887D01*
X125460016Y-111881442D01*
X125302370Y-111912800D01*
X125141630Y-111912800D01*
X124983984Y-111881442D01*
X124958503Y-111870887D01*
X124835479Y-111819930D01*
X124701830Y-111730628D01*
X124588172Y-111616970D01*
X124498870Y-111483321D01*
X124437359Y-111334818D01*
X124437358Y-111334816D01*
X124406000Y-111177170D01*
X124406000Y-111016430D01*
X124437358Y-110858784D01*
X124447913Y-110833303D01*
X124498870Y-110710279D01*
X124588172Y-110576630D01*
X124701830Y-110462972D01*
X124835479Y-110373670D01*
X124983982Y-110312159D01*
X124983981Y-110312159D01*
X124983984Y-110312158D01*
X125141630Y-110280800D01*
X125302370Y-110280800D01*
X125460016Y-110312158D01*
X125460016Y-110312158D01*
G37*
G36*
X113460016Y-110312158D02*
X113460019Y-110312159D01*
X113460018Y-110312159D01*
X113608521Y-110373670D01*
X113742170Y-110462972D01*
X113855828Y-110576630D01*
X113945130Y-110710279D01*
X113996087Y-110833303D01*
X114006642Y-110858784D01*
X114038000Y-111016430D01*
X114038000Y-111177170D01*
X114006642Y-111334816D01*
X114006641Y-111334818D01*
X113945130Y-111483321D01*
X113855828Y-111616970D01*
X113742170Y-111730628D01*
X113608521Y-111819930D01*
X113485497Y-111870887D01*
X113460016Y-111881442D01*
X113302370Y-111912800D01*
X113141630Y-111912800D01*
X112983984Y-111881442D01*
X112958503Y-111870887D01*
X112835479Y-111819930D01*
X112701830Y-111730628D01*
X112588172Y-111616970D01*
X112498870Y-111483321D01*
X112437359Y-111334818D01*
X112437358Y-111334816D01*
X112406000Y-111177170D01*
X112406000Y-111016430D01*
X112437358Y-110858784D01*
X112447913Y-110833303D01*
X112498870Y-110710279D01*
X112588172Y-110576630D01*
X112701830Y-110462972D01*
X112835479Y-110373670D01*
X112983982Y-110312159D01*
X112983981Y-110312159D01*
X112983984Y-110312158D01*
X113141630Y-110280800D01*
X113302370Y-110280800D01*
X113460016Y-110312158D01*
X113460016Y-110312158D01*
G37*
G36*
X150551000Y-102051000D02*
X146449000Y-102051000D01*
X146449000Y-91949000D01*
X150551000Y-91949000D01*
X150551000Y-102051000D01*
X150551000Y-102051000D01*
G37*
G36*
X96051000Y-102051000D02*
X91949000Y-102051000D01*
X91949000Y-91949000D01*
X96051000Y-91949000D01*
X96051000Y-102051000D01*
X96051000Y-102051000D01*
G37*
G36*
X90551000Y-102051000D02*
X86449000Y-102051000D01*
X86449000Y-91949000D01*
X90551000Y-91949000D01*
X90551000Y-102051000D01*
X90551000Y-102051000D01*
G37*
G36*
X85051000Y-102051000D02*
X80949000Y-102051000D01*
X80949000Y-91949000D01*
X85051000Y-91949000D01*
X85051000Y-102051000D01*
X85051000Y-102051000D01*
G37*
G36*
X116051000Y-102051000D02*
X111949000Y-102051000D01*
X111949000Y-91949000D01*
X116051000Y-91949000D01*
X116051000Y-102051000D01*
X116051000Y-102051000D01*
G37*
G36*
X110551000Y-102051000D02*
X106449000Y-102051000D01*
X106449000Y-91949000D01*
X110551000Y-91949000D01*
X110551000Y-102051000D01*
X110551000Y-102051000D01*
G37*
G36*
X105051000Y-102051000D02*
X100949000Y-102051000D01*
X100949000Y-91949000D01*
X105051000Y-91949000D01*
X105051000Y-102051000D01*
X105051000Y-102051000D01*
G37*
G36*
X136051000Y-102051000D02*
X131949000Y-102051000D01*
X131949000Y-91949000D01*
X136051000Y-91949000D01*
X136051000Y-102051000D01*
X136051000Y-102051000D01*
G37*
G36*
X130551000Y-102051000D02*
X126449000Y-102051000D01*
X126449000Y-91949000D01*
X130551000Y-91949000D01*
X130551000Y-102051000D01*
X130551000Y-102051000D01*
G37*
G36*
X125051000Y-102051000D02*
X120949000Y-102051000D01*
X120949000Y-91949000D01*
X125051000Y-91949000D01*
X125051000Y-102051000D01*
X125051000Y-102051000D01*
G37*
G36*
X156051000Y-102051000D02*
X151949000Y-102051000D01*
X151949000Y-91949000D01*
X156051000Y-91949000D01*
X156051000Y-102051000D01*
X156051000Y-102051000D01*
G37*
G36*
X145051000Y-102051000D02*
X140949000Y-102051000D01*
X140949000Y-91949000D01*
X145051000Y-91949000D01*
X145051000Y-102051000D01*
X145051000Y-102051000D01*
G37*
G36*
X105051000Y-67551000D02*
X100949000Y-67551000D01*
X100949000Y-57449000D01*
X105051000Y-57449000D01*
X105051000Y-67551000D01*
X105051000Y-67551000D01*
G37*
G36*
X145051000Y-67551000D02*
X140949000Y-67551000D01*
X140949000Y-57449000D01*
X145051000Y-57449000D01*
X145051000Y-67551000D01*
X145051000Y-67551000D01*
G37*
G36*
X156051000Y-67551000D02*
X151949000Y-67551000D01*
X151949000Y-57449000D01*
X156051000Y-57449000D01*
X156051000Y-67551000D01*
X156051000Y-67551000D01*
G37*
G36*
X116051000Y-67551000D02*
X111949000Y-67551000D01*
X111949000Y-57449000D01*
X116051000Y-57449000D01*
X116051000Y-67551000D01*
X116051000Y-67551000D01*
G37*
G36*
X136051000Y-67551000D02*
X131949000Y-67551000D01*
X131949000Y-57449000D01*
X136051000Y-57449000D01*
X136051000Y-67551000D01*
X136051000Y-67551000D01*
G37*
G36*
X85051000Y-67551000D02*
X80949000Y-67551000D01*
X80949000Y-57449000D01*
X85051000Y-57449000D01*
X85051000Y-67551000D01*
X85051000Y-67551000D01*
G37*
G36*
X96051000Y-67551000D02*
X91949000Y-67551000D01*
X91949000Y-57449000D01*
X96051000Y-57449000D01*
X96051000Y-67551000D01*
X96051000Y-67551000D01*
G37*
G36*
X125051000Y-67551000D02*
X120949000Y-67551000D01*
X120949000Y-57449000D01*
X125051000Y-57449000D01*
X125051000Y-67551000D01*
X125051000Y-67551000D01*
G37*
G36*
X110051000Y-65551000D02*
X108949000Y-65551000D01*
X108949000Y-60449000D01*
X110051000Y-60449000D01*
X110051000Y-65551000D01*
X110051000Y-65551000D01*
G37*
G36*
X108051000Y-65551000D02*
X106949000Y-65551000D01*
X106949000Y-60449000D01*
X108051000Y-60449000D01*
X108051000Y-65551000D01*
X108051000Y-65551000D01*
G37*
G36*
X88051000Y-65551000D02*
X86949000Y-65551000D01*
X86949000Y-60449000D01*
X88051000Y-60449000D01*
X88051000Y-65551000D01*
X88051000Y-65551000D01*
G37*
G36*
X90051000Y-65551000D02*
X88949000Y-65551000D01*
X88949000Y-60449000D01*
X90051000Y-60449000D01*
X90051000Y-65551000D01*
X90051000Y-65551000D01*
G37*
G36*
X128051000Y-65551000D02*
X126949000Y-65551000D01*
X126949000Y-60449000D01*
X128051000Y-60449000D01*
X128051000Y-65551000D01*
X128051000Y-65551000D01*
G37*
G36*
X150051000Y-65551000D02*
X148949000Y-65551000D01*
X148949000Y-60449000D01*
X150051000Y-60449000D01*
X150051000Y-65551000D01*
X150051000Y-65551000D01*
G37*
G36*
X148051000Y-65551000D02*
X146949000Y-65551000D01*
X146949000Y-60449000D01*
X148051000Y-60449000D01*
X148051000Y-65551000D01*
X148051000Y-65551000D01*
G37*
G36*
X130051000Y-65551000D02*
X128949000Y-65551000D01*
X128949000Y-60449000D01*
X130051000Y-60449000D01*
X130051000Y-65551000D01*
X130051000Y-65551000D01*
G37*
G36*
X80049327Y-52880736D02*
X80149210Y-52900604D01*
X80431474Y-53017521D01*
X80685505Y-53187259D01*
X80901541Y-53403295D01*
X81071279Y-53657326D01*
X81188196Y-53939590D01*
X81247800Y-54239240D01*
X81247800Y-54544760D01*
X81188196Y-54844410D01*
X81071279Y-55126674D01*
X80901541Y-55380705D01*
X80685505Y-55596741D01*
X80431474Y-55766479D01*
X80149210Y-55883396D01*
X80049327Y-55903264D01*
X79849562Y-55943000D01*
X79544038Y-55943000D01*
X79344273Y-55903264D01*
X79244390Y-55883396D01*
X78962126Y-55766479D01*
X78708095Y-55596741D01*
X78492059Y-55380705D01*
X78322321Y-55126674D01*
X78205404Y-54844410D01*
X78145800Y-54544760D01*
X78145800Y-54239240D01*
X78205404Y-53939590D01*
X78322321Y-53657326D01*
X78492059Y-53403295D01*
X78708095Y-53187259D01*
X78962126Y-53017521D01*
X79244390Y-52900604D01*
X79344273Y-52880736D01*
X79544038Y-52841000D01*
X79849562Y-52841000D01*
X80049327Y-52880736D01*
X80049327Y-52880736D01*
G37*
G36*
X97519578Y-48372171D02*
X97622737Y-48403463D01*
X97717807Y-48454280D01*
X97801135Y-48522665D01*
X97869520Y-48605993D01*
X97920337Y-48701063D01*
X97951629Y-48804222D01*
X97962800Y-48917641D01*
X97962800Y-50256359D01*
X97951629Y-50369778D01*
X97920337Y-50472937D01*
X97869520Y-50568007D01*
X97801135Y-50651335D01*
X97717807Y-50719720D01*
X97622737Y-50770537D01*
X97519578Y-50801829D01*
X97406159Y-50813000D01*
X91417441Y-50813000D01*
X91304022Y-50801829D01*
X91200863Y-50770537D01*
X91105793Y-50719720D01*
X91022465Y-50651335D01*
X90954080Y-50568007D01*
X90903263Y-50472937D01*
X90871971Y-50369778D01*
X90860800Y-50256359D01*
X90860800Y-48917641D01*
X90871971Y-48804222D01*
X90903263Y-48701063D01*
X90954080Y-48605993D01*
X91022465Y-48522665D01*
X91105793Y-48454280D01*
X91200863Y-48403463D01*
X91304022Y-48372171D01*
X91417441Y-48361000D01*
X97406159Y-48361000D01*
X97519578Y-48372171D01*
X97519578Y-48372171D01*
G37*
G36*
X147248957Y-43179299D02*
X147404284Y-43243637D01*
X147544078Y-43337045D01*
X147662955Y-43455922D01*
X147756363Y-43595716D01*
X147820701Y-43751043D01*
X147853500Y-43915936D01*
X147853500Y-44084064D01*
X147820701Y-44248957D01*
X147756363Y-44404284D01*
X147662955Y-44544078D01*
X147544078Y-44662955D01*
X147404284Y-44756363D01*
X147248957Y-44820701D01*
X147084064Y-44853500D01*
X146915936Y-44853500D01*
X146751043Y-44820701D01*
X146595716Y-44756363D01*
X146455922Y-44662955D01*
X146337045Y-44544078D01*
X146243637Y-44404284D01*
X146179299Y-44248957D01*
X146146500Y-44084064D01*
X146146500Y-43915936D01*
X146179299Y-43751043D01*
X146243637Y-43595716D01*
X146337045Y-43455922D01*
X146455922Y-43337045D01*
X146595716Y-43243637D01*
X146751043Y-43179299D01*
X146915936Y-43146500D01*
X147084064Y-43146500D01*
X147248957Y-43179299D01*
X147248957Y-43179299D01*
G37*
G36*
X141248957Y-43179299D02*
X141404284Y-43243637D01*
X141544078Y-43337045D01*
X141662955Y-43455922D01*
X141756363Y-43595716D01*
X141820701Y-43751043D01*
X141853500Y-43915936D01*
X141853500Y-44084064D01*
X141820701Y-44248957D01*
X141756363Y-44404284D01*
X141662955Y-44544078D01*
X141544078Y-44662955D01*
X141404284Y-44756363D01*
X141248957Y-44820701D01*
X141084064Y-44853500D01*
X140915936Y-44853500D01*
X140751043Y-44820701D01*
X140595716Y-44756363D01*
X140455922Y-44662955D01*
X140337045Y-44544078D01*
X140243637Y-44404284D01*
X140179299Y-44248957D01*
X140146500Y-44084064D01*
X140146500Y-43915936D01*
X140179299Y-43751043D01*
X140243637Y-43595716D01*
X140337045Y-43455922D01*
X140455922Y-43337045D01*
X140595716Y-43243637D01*
X140751043Y-43179299D01*
X140915936Y-43146500D01*
X141084064Y-43146500D01*
X141248957Y-43179299D01*
X141248957Y-43179299D01*
G37*
G36*
X153248957Y-43179299D02*
X153404284Y-43243637D01*
X153544078Y-43337045D01*
X153662955Y-43455922D01*
X153756363Y-43595716D01*
X153820701Y-43751043D01*
X153853500Y-43915936D01*
X153853500Y-44084064D01*
X153820701Y-44248957D01*
X153756363Y-44404284D01*
X153662955Y-44544078D01*
X153544078Y-44662955D01*
X153404284Y-44756363D01*
X153248957Y-44820701D01*
X153084064Y-44853500D01*
X152915936Y-44853500D01*
X152751043Y-44820701D01*
X152595716Y-44756363D01*
X152455922Y-44662955D01*
X152337045Y-44544078D01*
X152243637Y-44404284D01*
X152179299Y-44248957D01*
X152146500Y-44084064D01*
X152146500Y-43915936D01*
X152179299Y-43751043D01*
X152243637Y-43595716D01*
X152337045Y-43455922D01*
X152455922Y-43337045D01*
X152595716Y-43243637D01*
X152751043Y-43179299D01*
X152915936Y-43146500D01*
X153084064Y-43146500D01*
X153248957Y-43179299D01*
X153248957Y-43179299D01*
G37*
G36*
X150248957Y-43179299D02*
X150404284Y-43243637D01*
X150544078Y-43337045D01*
X150662955Y-43455922D01*
X150756363Y-43595716D01*
X150820701Y-43751043D01*
X150853500Y-43915936D01*
X150853500Y-44084064D01*
X150820701Y-44248957D01*
X150756363Y-44404284D01*
X150662955Y-44544078D01*
X150544078Y-44662955D01*
X150404284Y-44756363D01*
X150248957Y-44820701D01*
X150084064Y-44853500D01*
X149915936Y-44853500D01*
X149751043Y-44820701D01*
X149595716Y-44756363D01*
X149455922Y-44662955D01*
X149337045Y-44544078D01*
X149243637Y-44404284D01*
X149179299Y-44248957D01*
X149146500Y-44084064D01*
X149146500Y-43915936D01*
X149179299Y-43751043D01*
X149243637Y-43595716D01*
X149337045Y-43455922D01*
X149455922Y-43337045D01*
X149595716Y-43243637D01*
X149751043Y-43179299D01*
X149915936Y-43146500D01*
X150084064Y-43146500D01*
X150248957Y-43179299D01*
X150248957Y-43179299D01*
G37*
G36*
X144248957Y-43179299D02*
X144404284Y-43243637D01*
X144544078Y-43337045D01*
X144662955Y-43455922D01*
X144756363Y-43595716D01*
X144820701Y-43751043D01*
X144853500Y-43915936D01*
X144853500Y-44084064D01*
X144820701Y-44248957D01*
X144756363Y-44404284D01*
X144662955Y-44544078D01*
X144544078Y-44662955D01*
X144404284Y-44756363D01*
X144248957Y-44820701D01*
X144084064Y-44853500D01*
X143915936Y-44853500D01*
X143751043Y-44820701D01*
X143595716Y-44756363D01*
X143455922Y-44662955D01*
X143337045Y-44544078D01*
X143243637Y-44404284D01*
X143179299Y-44248957D01*
X143146500Y-44084064D01*
X143146500Y-43915936D01*
X143179299Y-43751043D01*
X143243637Y-43595716D01*
X143337045Y-43455922D01*
X143455922Y-43337045D01*
X143595716Y-43243637D01*
X143751043Y-43179299D01*
X143915936Y-43146500D01*
X144084064Y-43146500D01*
X144248957Y-43179299D01*
X144248957Y-43179299D01*
G37*
G36*
X97519578Y-40892171D02*
X97622737Y-40923463D01*
X97717807Y-40974280D01*
X97801135Y-41042665D01*
X97869520Y-41125993D01*
X97920337Y-41221063D01*
X97951629Y-41324222D01*
X97962800Y-41437641D01*
X97962800Y-42776359D01*
X97951629Y-42889778D01*
X97920337Y-42992937D01*
X97869520Y-43088007D01*
X97801135Y-43171335D01*
X97717807Y-43239720D01*
X97622737Y-43290537D01*
X97519578Y-43321829D01*
X97406159Y-43333000D01*
X91417441Y-43333000D01*
X91304022Y-43321829D01*
X91200863Y-43290537D01*
X91105793Y-43239720D01*
X91022465Y-43171335D01*
X90954080Y-43088007D01*
X90903263Y-42992937D01*
X90871971Y-42889778D01*
X90860800Y-42776359D01*
X90860800Y-41437641D01*
X90871971Y-41324222D01*
X90903263Y-41221063D01*
X90954080Y-41125993D01*
X91022465Y-41042665D01*
X91105793Y-40974280D01*
X91200863Y-40923463D01*
X91304022Y-40892171D01*
X91417441Y-40881000D01*
X97406159Y-40881000D01*
X97519578Y-40892171D01*
X97519578Y-40892171D01*
G37*
G36*
X105286462Y-41064381D02*
X105321377Y-41074973D01*
X105353565Y-41092178D01*
X105381773Y-41115327D01*
X105404922Y-41143535D01*
X105422127Y-41175723D01*
X105432719Y-41210638D01*
X105436900Y-41253095D01*
X105436900Y-42719305D01*
X105432719Y-42761762D01*
X105422127Y-42796677D01*
X105404922Y-42828865D01*
X105381773Y-42857073D01*
X105353565Y-42880222D01*
X105321377Y-42897427D01*
X105286462Y-42908019D01*
X105244005Y-42912200D01*
X104102795Y-42912200D01*
X104060338Y-42908019D01*
X104025423Y-42897427D01*
X103993235Y-42880222D01*
X103965027Y-42857073D01*
X103941878Y-42828865D01*
X103924673Y-42796677D01*
X103914081Y-42761762D01*
X103909900Y-42719305D01*
X103909900Y-41253095D01*
X103914081Y-41210638D01*
X103924673Y-41175723D01*
X103941878Y-41143535D01*
X103965027Y-41115327D01*
X103993235Y-41092178D01*
X104025423Y-41074973D01*
X104060338Y-41064381D01*
X104102795Y-41060200D01*
X105244005Y-41060200D01*
X105286462Y-41064381D01*
X105286462Y-41064381D01*
G37*
G36*
X102311462Y-41064381D02*
X102346377Y-41074973D01*
X102378565Y-41092178D01*
X102406773Y-41115327D01*
X102429922Y-41143535D01*
X102447127Y-41175723D01*
X102457719Y-41210638D01*
X102461900Y-41253095D01*
X102461900Y-42719305D01*
X102457719Y-42761762D01*
X102447127Y-42796677D01*
X102429922Y-42828865D01*
X102406773Y-42857073D01*
X102378565Y-42880222D01*
X102346377Y-42897427D01*
X102311462Y-42908019D01*
X102269005Y-42912200D01*
X101127795Y-42912200D01*
X101085338Y-42908019D01*
X101050423Y-42897427D01*
X101018235Y-42880222D01*
X100990027Y-42857073D01*
X100966878Y-42828865D01*
X100949673Y-42796677D01*
X100939081Y-42761762D01*
X100934900Y-42719305D01*
X100934900Y-41253095D01*
X100939081Y-41210638D01*
X100949673Y-41175723D01*
X100966878Y-41143535D01*
X100990027Y-41115327D01*
X101018235Y-41092178D01*
X101050423Y-41074973D01*
X101085338Y-41064381D01*
X101127795Y-41060200D01*
X102269005Y-41060200D01*
X102311462Y-41064381D01*
X102311462Y-41064381D01*
G37*
G36*
X108991662Y-40937381D02*
X109026577Y-40947973D01*
X109058765Y-40965178D01*
X109086973Y-40988327D01*
X109110122Y-41016535D01*
X109127327Y-41048723D01*
X109137919Y-41083638D01*
X109142100Y-41126095D01*
X109142100Y-42592305D01*
X109137919Y-42634762D01*
X109127327Y-42669677D01*
X109110122Y-42701865D01*
X109086973Y-42730073D01*
X109058765Y-42753222D01*
X109026577Y-42770427D01*
X108991662Y-42781019D01*
X108949205Y-42785200D01*
X107807995Y-42785200D01*
X107765538Y-42781019D01*
X107730623Y-42770427D01*
X107698435Y-42753222D01*
X107670227Y-42730073D01*
X107647078Y-42701865D01*
X107629873Y-42669677D01*
X107619281Y-42634762D01*
X107615100Y-42592305D01*
X107615100Y-41126095D01*
X107619281Y-41083638D01*
X107629873Y-41048723D01*
X107647078Y-41016535D01*
X107670227Y-40988327D01*
X107698435Y-40965178D01*
X107730623Y-40947973D01*
X107765538Y-40937381D01*
X107807995Y-40933200D01*
X108949205Y-40933200D01*
X108991662Y-40937381D01*
X108991662Y-40937381D01*
G37*
G36*
X111966662Y-40937381D02*
X112001577Y-40947973D01*
X112033765Y-40965178D01*
X112061973Y-40988327D01*
X112085122Y-41016535D01*
X112102327Y-41048723D01*
X112112919Y-41083638D01*
X112117100Y-41126095D01*
X112117100Y-42592305D01*
X112112919Y-42634762D01*
X112102327Y-42669677D01*
X112085122Y-42701865D01*
X112061973Y-42730073D01*
X112033765Y-42753222D01*
X112001577Y-42770427D01*
X111966662Y-42781019D01*
X111924205Y-42785200D01*
X110782995Y-42785200D01*
X110740538Y-42781019D01*
X110705623Y-42770427D01*
X110673435Y-42753222D01*
X110645227Y-42730073D01*
X110622078Y-42701865D01*
X110604873Y-42669677D01*
X110594281Y-42634762D01*
X110590100Y-42592305D01*
X110590100Y-41126095D01*
X110594281Y-41083638D01*
X110604873Y-41048723D01*
X110622078Y-41016535D01*
X110645227Y-40988327D01*
X110673435Y-40965178D01*
X110705623Y-40947973D01*
X110740538Y-40937381D01*
X110782995Y-40933200D01*
X111924205Y-40933200D01*
X111966662Y-40937381D01*
X111966662Y-40937381D01*
G37*
G36*
X143355739Y-38114048D02*
X143609702Y-38164564D01*
X143896516Y-38283367D01*
X144154642Y-38455841D01*
X144374159Y-38675358D01*
X144546633Y-38933484D01*
X144665436Y-39220298D01*
X144726000Y-39524778D01*
X144726000Y-39835222D01*
X144665436Y-40139702D01*
X144546633Y-40426516D01*
X144374159Y-40684642D01*
X144154642Y-40904159D01*
X143896516Y-41076633D01*
X143609702Y-41195436D01*
X143355739Y-41245952D01*
X143305223Y-41256000D01*
X142994777Y-41256000D01*
X142944261Y-41245952D01*
X142690298Y-41195436D01*
X142403484Y-41076633D01*
X142145358Y-40904159D01*
X141925841Y-40684642D01*
X141753367Y-40426516D01*
X141634564Y-40139702D01*
X141574000Y-39835222D01*
X141574000Y-39524778D01*
X141634564Y-39220298D01*
X141753367Y-38933484D01*
X141925841Y-38675358D01*
X142145358Y-38455841D01*
X142403484Y-38283367D01*
X142690298Y-38164564D01*
X142944261Y-38114048D01*
X142994777Y-38104000D01*
X143305223Y-38104000D01*
X143355739Y-38114048D01*
X143355739Y-38114048D01*
G37*
G36*
X151055739Y-38114048D02*
X151309702Y-38164564D01*
X151596516Y-38283367D01*
X151854642Y-38455841D01*
X152074159Y-38675358D01*
X152246633Y-38933484D01*
X152365436Y-39220298D01*
X152426000Y-39524778D01*
X152426000Y-39835222D01*
X152365436Y-40139702D01*
X152246633Y-40426516D01*
X152074159Y-40684642D01*
X151854642Y-40904159D01*
X151596516Y-41076633D01*
X151309702Y-41195436D01*
X151055739Y-41245952D01*
X151005223Y-41256000D01*
X150694777Y-41256000D01*
X150644261Y-41245952D01*
X150390298Y-41195436D01*
X150103484Y-41076633D01*
X149845358Y-40904159D01*
X149625841Y-40684642D01*
X149453367Y-40426516D01*
X149334564Y-40139702D01*
X149274000Y-39835222D01*
X149274000Y-39524778D01*
X149334564Y-39220298D01*
X149453367Y-38933484D01*
X149625841Y-38675358D01*
X149845358Y-38455841D01*
X150103484Y-38283367D01*
X150390298Y-38164564D01*
X150644261Y-38114048D01*
X150694777Y-38104000D01*
X151005223Y-38104000D01*
X151055739Y-38114048D01*
X151055739Y-38114048D01*
G37*
G36*
X80049327Y-35790736D02*
X80149210Y-35810604D01*
X80431474Y-35927521D01*
X80685505Y-36097259D01*
X80901541Y-36313295D01*
X81071279Y-36567326D01*
X81188196Y-36849590D01*
X81247800Y-37149240D01*
X81247800Y-37454760D01*
X81188196Y-37754410D01*
X81071279Y-38036674D01*
X80901541Y-38290705D01*
X80685505Y-38506741D01*
X80431474Y-38676479D01*
X80149210Y-38793396D01*
X80049327Y-38813264D01*
X79849562Y-38853000D01*
X79544038Y-38853000D01*
X79344273Y-38813264D01*
X79244390Y-38793396D01*
X78962126Y-38676479D01*
X78708095Y-38506741D01*
X78492059Y-38290705D01*
X78322321Y-38036674D01*
X78205404Y-37754410D01*
X78145800Y-37454760D01*
X78145800Y-37149240D01*
X78205404Y-36849590D01*
X78322321Y-36567326D01*
X78492059Y-36313295D01*
X78708095Y-36097259D01*
X78962126Y-35927521D01*
X79244390Y-35810604D01*
X79344273Y-35790736D01*
X79544038Y-35751000D01*
X79849562Y-35751000D01*
X80049327Y-35790736D01*
X80049327Y-35790736D01*
G37*
M02*
