G04 #@! TF.GenerationSoftware,KiCad,Pcbnew,(5.0.2)-1*
G04 #@! TF.CreationDate,2022-03-15T14:53:39+05:30*
G04 #@! TF.ProjectId,4ESC_board,34455343-5f62-46f6-9172-642e6b696361,rev?*
G04 #@! TF.SameCoordinates,Original*
G04 #@! TF.FileFunction,Legend,Top*
G04 #@! TF.FilePolarity,Positive*
%FSLAX46Y46*%
G04 Gerber Fmt 4.6, Leading zero omitted, Abs format (unit mm)*
G04 Created by KiCad (PCBNEW (5.0.2)-1) date 03/15/22 14:53:39*
%MOMM*%
%LPD*%
G01*
G04 APERTURE LIST*
%ADD10C,0.300000*%
%ADD11C,0.150000*%
%ADD12C,0.100000*%
%ADD13C,0.200000*%
%ADD14C,0.120000*%
%ADD15C,0.127000*%
%ADD16C,0.400000*%
%ADD17C,0.010000*%
%ADD18C,0.254000*%
%ADD19C,0.500000*%
G04 APERTURE END LIST*
D10*
X136940476Y-127321428D02*
X137773809Y-127321428D01*
X138130952Y-128630952D02*
X136940476Y-128630952D01*
X136940476Y-126130952D01*
X138130952Y-126130952D01*
X139083333Y-128511904D02*
X139440476Y-128630952D01*
X140035714Y-128630952D01*
X140273809Y-128511904D01*
X140392857Y-128392857D01*
X140511904Y-128154761D01*
X140511904Y-127916666D01*
X140392857Y-127678571D01*
X140273809Y-127559523D01*
X140035714Y-127440476D01*
X139559523Y-127321428D01*
X139321428Y-127202380D01*
X139202380Y-127083333D01*
X139083333Y-126845238D01*
X139083333Y-126607142D01*
X139202380Y-126369047D01*
X139321428Y-126250000D01*
X139559523Y-126130952D01*
X140154761Y-126130952D01*
X140511904Y-126250000D01*
X143011904Y-128392857D02*
X142892857Y-128511904D01*
X142535714Y-128630952D01*
X142297619Y-128630952D01*
X141940476Y-128511904D01*
X141702380Y-128273809D01*
X141583333Y-128035714D01*
X141464285Y-127559523D01*
X141464285Y-127202380D01*
X141583333Y-126726190D01*
X141702380Y-126488095D01*
X141940476Y-126250000D01*
X142297619Y-126130952D01*
X142535714Y-126130952D01*
X142892857Y-126250000D01*
X143011904Y-126369047D01*
X146821428Y-127321428D02*
X147178571Y-127440476D01*
X147297619Y-127559523D01*
X147416666Y-127797619D01*
X147416666Y-128154761D01*
X147297619Y-128392857D01*
X147178571Y-128511904D01*
X146940476Y-128630952D01*
X145988095Y-128630952D01*
X145988095Y-126130952D01*
X146821428Y-126130952D01*
X147059523Y-126250000D01*
X147178571Y-126369047D01*
X147297619Y-126607142D01*
X147297619Y-126845238D01*
X147178571Y-127083333D01*
X147059523Y-127202380D01*
X146821428Y-127321428D01*
X145988095Y-127321428D01*
X148964285Y-126130952D02*
X149440476Y-126130952D01*
X149678571Y-126250000D01*
X149916666Y-126488095D01*
X150035714Y-126964285D01*
X150035714Y-127797619D01*
X149916666Y-128273809D01*
X149678571Y-128511904D01*
X149440476Y-128630952D01*
X148964285Y-128630952D01*
X148726190Y-128511904D01*
X148488095Y-128273809D01*
X148369047Y-127797619D01*
X148369047Y-126964285D01*
X148488095Y-126488095D01*
X148726190Y-126250000D01*
X148964285Y-126130952D01*
X150988095Y-127916666D02*
X152178571Y-127916666D01*
X150750000Y-128630952D02*
X151583333Y-126130952D01*
X152416666Y-128630952D01*
X154678571Y-128630952D02*
X153845238Y-127440476D01*
X153250000Y-128630952D02*
X153250000Y-126130952D01*
X154202380Y-126130952D01*
X154440476Y-126250000D01*
X154559523Y-126369047D01*
X154678571Y-126607142D01*
X154678571Y-126964285D01*
X154559523Y-127202380D01*
X154440476Y-127321428D01*
X154202380Y-127440476D01*
X153250000Y-127440476D01*
X155750000Y-128630952D02*
X155750000Y-126130952D01*
X156345238Y-126130952D01*
X156702380Y-126250000D01*
X156940476Y-126488095D01*
X157059523Y-126726190D01*
X157178571Y-127202380D01*
X157178571Y-127559523D01*
X157059523Y-128035714D01*
X156940476Y-128273809D01*
X156702380Y-128511904D01*
X156345238Y-128630952D01*
X155750000Y-128630952D01*
X166506971Y-87948321D02*
X166506971Y-87662607D01*
X166435542Y-87519750D01*
X166364114Y-87448321D01*
X166149828Y-87305464D01*
X165864114Y-87234035D01*
X165292685Y-87234035D01*
X165149828Y-87305464D01*
X165078400Y-87376893D01*
X165006971Y-87519750D01*
X165006971Y-87805464D01*
X165078400Y-87948321D01*
X165149828Y-88019750D01*
X165292685Y-88091178D01*
X165649828Y-88091178D01*
X165792685Y-88019750D01*
X165864114Y-87948321D01*
X165935542Y-87805464D01*
X165935542Y-87519750D01*
X165864114Y-87376893D01*
X165792685Y-87305464D01*
X165649828Y-87234035D01*
X165006971Y-85948321D02*
X165006971Y-86234035D01*
X165078400Y-86376893D01*
X165149828Y-86448321D01*
X165364114Y-86591178D01*
X165649828Y-86662607D01*
X166221257Y-86662607D01*
X166364114Y-86591178D01*
X166435542Y-86519750D01*
X166506971Y-86376893D01*
X166506971Y-86091178D01*
X166435542Y-85948321D01*
X166364114Y-85876893D01*
X166221257Y-85805464D01*
X165864114Y-85805464D01*
X165721257Y-85876893D01*
X165649828Y-85948321D01*
X165578400Y-86091178D01*
X165578400Y-86376893D01*
X165649828Y-86519750D01*
X165721257Y-86591178D01*
X165864114Y-86662607D01*
X166364114Y-85162607D02*
X166435542Y-85091178D01*
X166506971Y-85162607D01*
X166435542Y-85234035D01*
X166364114Y-85162607D01*
X166506971Y-85162607D01*
X165006971Y-84591178D02*
X165006971Y-83591178D01*
X166506971Y-84234035D01*
X166506971Y-82948321D02*
X166506971Y-82662607D01*
X166435542Y-82519750D01*
X166364114Y-82448321D01*
X166149828Y-82305464D01*
X165864114Y-82234035D01*
X165292685Y-82234035D01*
X165149828Y-82305464D01*
X165078400Y-82376893D01*
X165006971Y-82519750D01*
X165006971Y-82805464D01*
X165078400Y-82948321D01*
X165149828Y-83019750D01*
X165292685Y-83091178D01*
X165649828Y-83091178D01*
X165792685Y-83019750D01*
X165864114Y-82948321D01*
X165935542Y-82805464D01*
X165935542Y-82519750D01*
X165864114Y-82376893D01*
X165792685Y-82305464D01*
X165649828Y-82234035D01*
X166506971Y-81519750D02*
X166506971Y-81234035D01*
X166435542Y-81091178D01*
X166364114Y-81019750D01*
X166149828Y-80876893D01*
X165864114Y-80805464D01*
X165292685Y-80805464D01*
X165149828Y-80876893D01*
X165078400Y-80948321D01*
X165006971Y-81091178D01*
X165006971Y-81376893D01*
X165078400Y-81519750D01*
X165149828Y-81591178D01*
X165292685Y-81662607D01*
X165649828Y-81662607D01*
X165792685Y-81591178D01*
X165864114Y-81519750D01*
X165935542Y-81376893D01*
X165935542Y-81091178D01*
X165864114Y-80948321D01*
X165792685Y-80876893D01*
X165649828Y-80805464D01*
X166506971Y-79019750D02*
X165506971Y-79019750D01*
X165649828Y-79019750D02*
X165578400Y-78948321D01*
X165506971Y-78805464D01*
X165506971Y-78591178D01*
X165578400Y-78448321D01*
X165721257Y-78376893D01*
X166506971Y-78376893D01*
X165721257Y-78376893D02*
X165578400Y-78305464D01*
X165506971Y-78162607D01*
X165506971Y-77948321D01*
X165578400Y-77805464D01*
X165721257Y-77734035D01*
X166506971Y-77734035D01*
X166506971Y-77019750D02*
X165506971Y-77019750D01*
X165649828Y-77019750D02*
X165578400Y-76948321D01*
X165506971Y-76805464D01*
X165506971Y-76591178D01*
X165578400Y-76448321D01*
X165721257Y-76376893D01*
X166506971Y-76376893D01*
X165721257Y-76376893D02*
X165578400Y-76305464D01*
X165506971Y-76162607D01*
X165506971Y-75948321D01*
X165578400Y-75805464D01*
X165721257Y-75734035D01*
X166506971Y-75734035D01*
X163728400Y-130276600D02*
X163728400Y-33477187D01*
X158216600Y-130276600D02*
X164314821Y-130276600D01*
X158216600Y-33477187D02*
X164314821Y-33477187D01*
X163728400Y-33477187D02*
X164314821Y-34603691D01*
X163728400Y-33477187D02*
X163141979Y-34603691D01*
X163728400Y-130276600D02*
X164314821Y-129150096D01*
X163728400Y-130276600D02*
X163141979Y-129150096D01*
X111114628Y-141291227D02*
X110971771Y-141219799D01*
X110900342Y-141148370D01*
X110828914Y-141005513D01*
X110828914Y-140934084D01*
X110900342Y-140791227D01*
X110971771Y-140719799D01*
X111114628Y-140648370D01*
X111400342Y-140648370D01*
X111543200Y-140719799D01*
X111614628Y-140791227D01*
X111686057Y-140934084D01*
X111686057Y-141005513D01*
X111614628Y-141148370D01*
X111543200Y-141219799D01*
X111400342Y-141291227D01*
X111114628Y-141291227D01*
X110971771Y-141362656D01*
X110900342Y-141434084D01*
X110828914Y-141576941D01*
X110828914Y-141862656D01*
X110900342Y-142005513D01*
X110971771Y-142076941D01*
X111114628Y-142148370D01*
X111400342Y-142148370D01*
X111543200Y-142076941D01*
X111614628Y-142005513D01*
X111686057Y-141862656D01*
X111686057Y-141576941D01*
X111614628Y-141434084D01*
X111543200Y-141362656D01*
X111400342Y-141291227D01*
X112257485Y-140791227D02*
X112328914Y-140719799D01*
X112471771Y-140648370D01*
X112828914Y-140648370D01*
X112971771Y-140719799D01*
X113043200Y-140791227D01*
X113114628Y-140934084D01*
X113114628Y-141076941D01*
X113043200Y-141291227D01*
X112186057Y-142148370D01*
X113114628Y-142148370D01*
X113757485Y-142005513D02*
X113828914Y-142076941D01*
X113757485Y-142148370D01*
X113686057Y-142076941D01*
X113757485Y-142005513D01*
X113757485Y-142148370D01*
X114328914Y-140648370D02*
X115257485Y-140648370D01*
X114757485Y-141219799D01*
X114971771Y-141219799D01*
X115114628Y-141291227D01*
X115186057Y-141362656D01*
X115257485Y-141505513D01*
X115257485Y-141862656D01*
X115186057Y-142005513D01*
X115114628Y-142076941D01*
X114971771Y-142148370D01*
X114543200Y-142148370D01*
X114400342Y-142076941D01*
X114328914Y-142005513D01*
X116543200Y-141148370D02*
X116543200Y-142148370D01*
X116186057Y-140576941D02*
X115828914Y-141648370D01*
X116757485Y-141648370D01*
X117186057Y-140648370D02*
X118186057Y-140648370D01*
X117543200Y-142148370D01*
X119900342Y-142148370D02*
X119900342Y-141148370D01*
X119900342Y-141291227D02*
X119971771Y-141219799D01*
X120114628Y-141148370D01*
X120328914Y-141148370D01*
X120471771Y-141219799D01*
X120543200Y-141362656D01*
X120543200Y-142148370D01*
X120543200Y-141362656D02*
X120614628Y-141219799D01*
X120757485Y-141148370D01*
X120971771Y-141148370D01*
X121114628Y-141219799D01*
X121186057Y-141362656D01*
X121186057Y-142148370D01*
X121900342Y-142148370D02*
X121900342Y-141148370D01*
X121900342Y-141291227D02*
X121971771Y-141219799D01*
X122114628Y-141148370D01*
X122328914Y-141148370D01*
X122471771Y-141219799D01*
X122543200Y-141362656D01*
X122543200Y-142148370D01*
X122543200Y-141362656D02*
X122614628Y-141219799D01*
X122757485Y-141148370D01*
X122971771Y-141148370D01*
X123114628Y-141219799D01*
X123186057Y-141362656D01*
X123186057Y-142148370D01*
X75869800Y-139369799D02*
X158216600Y-139369799D01*
X75869800Y-130302000D02*
X75869800Y-139956220D01*
X158216600Y-130302000D02*
X158216600Y-139956220D01*
X158216600Y-139369799D02*
X157090096Y-139956220D01*
X158216600Y-139369799D02*
X157090096Y-138783378D01*
X75869800Y-139369799D02*
X76996304Y-139956220D01*
X75869800Y-139369799D02*
X76996304Y-138783378D01*
D11*
G04 #@! TO.C,U4*
X140000000Y-95000000D02*
X157000000Y-95000000D01*
X157000000Y-95000000D02*
X157000000Y-63000000D01*
X157000000Y-63000000D02*
X140000000Y-63000000D01*
X140000000Y-63000000D02*
X140000000Y-95000000D01*
G04 #@! TO.C,U3*
X120000000Y-95000000D02*
X137000000Y-95000000D01*
X137000000Y-95000000D02*
X137000000Y-63000000D01*
X137000000Y-63000000D02*
X120000000Y-63000000D01*
X120000000Y-63000000D02*
X120000000Y-95000000D01*
G04 #@! TO.C,U2*
X100000000Y-95000000D02*
X117000000Y-95000000D01*
X117000000Y-95000000D02*
X117000000Y-63000000D01*
X117000000Y-63000000D02*
X100000000Y-63000000D01*
X100000000Y-63000000D02*
X100000000Y-95000000D01*
G04 #@! TO.C,U1*
X80000000Y-95000000D02*
X97000000Y-95000000D01*
X97000000Y-95000000D02*
X97000000Y-63000000D01*
X97000000Y-63000000D02*
X80000000Y-63000000D01*
X80000000Y-63000000D02*
X80000000Y-95000000D01*
D12*
G04 #@! TO.C,C2*
X154000000Y-44980000D02*
X156320000Y-44980000D01*
X156320000Y-44980000D02*
X156320000Y-35080000D01*
X156320000Y-35080000D02*
X137680000Y-35080000D01*
X137680000Y-35080000D02*
X137680000Y-44980000D01*
X137680000Y-44980000D02*
X139500000Y-44980000D01*
X140000000Y-44980000D02*
X139500000Y-44980000D01*
X141000000Y-45280000D02*
X141000000Y-45280000D01*
X141000000Y-45380000D02*
X141000000Y-45380000D01*
X141000000Y-45380000D02*
G75*
G03X141000000Y-45280000I0J50000D01*
G01*
X141000000Y-45280000D02*
G75*
G03X141000000Y-45380000I0J-50000D01*
G01*
G04 #@! TO.C,C3*
X108722000Y-114096800D02*
X105222000Y-114096800D01*
X105222000Y-114096800D02*
X105222000Y-114096800D01*
X105222000Y-114096800D02*
X108722000Y-114096800D01*
X108722000Y-114096800D02*
X108722000Y-114096800D01*
X105222000Y-128526800D02*
X130222000Y-128526800D01*
X130222000Y-128526800D02*
X130222000Y-128526800D01*
X130222000Y-128526800D02*
X105222000Y-128526800D01*
X105222000Y-128526800D02*
X105222000Y-128526800D01*
X130222000Y-114096800D02*
X126722000Y-114096800D01*
X126722000Y-114096800D02*
X126722000Y-114096800D01*
X126722000Y-114096800D02*
X130222000Y-114096800D01*
X130222000Y-114096800D02*
X130222000Y-114096800D01*
X105222000Y-114096800D02*
X105222000Y-114096800D01*
X105222000Y-114096800D02*
X105222000Y-128526800D01*
X105222000Y-128526800D02*
X105222000Y-128526800D01*
X105222000Y-128526800D02*
X105222000Y-114096800D01*
X130222000Y-128526800D02*
X130222000Y-128526800D01*
X130222000Y-128526800D02*
X130222000Y-114096800D01*
X130222000Y-114096800D02*
X130222000Y-114096800D01*
X130222000Y-114096800D02*
X130222000Y-128526800D01*
D13*
X134122000Y-114096800D02*
X134122000Y-114096800D01*
X134222000Y-114096800D02*
X134222000Y-114096800D01*
X134122000Y-114096800D02*
X134122000Y-114096800D01*
X134222000Y-114096800D02*
G75*
G02X134122000Y-114096800I-50000J0D01*
G01*
X134122000Y-114096800D02*
G75*
G02X134222000Y-114096800I50000J0D01*
G01*
X134222000Y-114096800D02*
G75*
G02X134122000Y-114096800I-50000J0D01*
G01*
D14*
G04 #@! TO.C,D1*
X105645900Y-40851200D02*
X101585900Y-40851200D01*
X105645900Y-43121200D02*
X105645900Y-40851200D01*
X101585900Y-43121200D02*
X105645900Y-43121200D01*
G04 #@! TO.C,R1*
X110468164Y-42769200D02*
X109264036Y-42769200D01*
X110468164Y-40949200D02*
X109264036Y-40949200D01*
D15*
G04 #@! TO.C,C1*
X91676800Y-44877000D02*
X91676800Y-46690000D01*
X91676800Y-35307000D02*
X91676800Y-39787000D01*
X91676800Y-51907000D02*
X91676800Y-56387000D01*
D16*
X99167800Y-49595000D02*
G75*
G03X99167800Y-49595000I-200000J0D01*
G01*
D15*
X91676800Y-56387000D02*
X76921800Y-56387000D01*
X76921800Y-35307000D02*
X91676800Y-35307000D01*
X76921800Y-56387000D02*
X76921800Y-35307000D01*
D17*
G04 #@! TO.C,G\002A\002A\002A*
G36*
X79919374Y-128177479D02*
X79927254Y-128192890D01*
X79938808Y-128222168D01*
X79955387Y-128267530D01*
X79963046Y-128288780D01*
X79979858Y-128336879D01*
X79993304Y-128378099D01*
X80002241Y-128408716D01*
X80005527Y-128425009D01*
X80005303Y-128426460D01*
X79993833Y-128429825D01*
X79967918Y-128432244D01*
X79933413Y-128433653D01*
X79896174Y-128433987D01*
X79862056Y-128433181D01*
X79836915Y-128431172D01*
X79826932Y-128428426D01*
X79827814Y-128417123D01*
X79834663Y-128391075D01*
X79846258Y-128354541D01*
X79856806Y-128324286D01*
X79873216Y-128278750D01*
X79888313Y-128236780D01*
X79899937Y-128204387D01*
X79904269Y-128192260D01*
X79909232Y-128179382D01*
X79913817Y-128173716D01*
X79919374Y-128177479D01*
X79919374Y-128177479D01*
G37*
X79919374Y-128177479D02*
X79927254Y-128192890D01*
X79938808Y-128222168D01*
X79955387Y-128267530D01*
X79963046Y-128288780D01*
X79979858Y-128336879D01*
X79993304Y-128378099D01*
X80002241Y-128408716D01*
X80005527Y-128425009D01*
X80005303Y-128426460D01*
X79993833Y-128429825D01*
X79967918Y-128432244D01*
X79933413Y-128433653D01*
X79896174Y-128433987D01*
X79862056Y-128433181D01*
X79836915Y-128431172D01*
X79826932Y-128428426D01*
X79827814Y-128417123D01*
X79834663Y-128391075D01*
X79846258Y-128354541D01*
X79856806Y-128324286D01*
X79873216Y-128278750D01*
X79888313Y-128236780D01*
X79899937Y-128204387D01*
X79904269Y-128192260D01*
X79909232Y-128179382D01*
X79913817Y-128173716D01*
X79919374Y-128177479D01*
G36*
X95379852Y-128325635D02*
X95415928Y-128356488D01*
X95429907Y-128376186D01*
X95441478Y-128398723D01*
X95443409Y-128414585D01*
X95433520Y-128424912D01*
X95409628Y-128430843D01*
X95369552Y-128433516D01*
X95319038Y-128434080D01*
X95272450Y-128433378D01*
X95233756Y-128431472D01*
X95207215Y-128428661D01*
X95197204Y-128425545D01*
X95197914Y-128410007D01*
X95208943Y-128385765D01*
X95226638Y-128358871D01*
X95247346Y-128335374D01*
X95256147Y-128327912D01*
X95295468Y-128310098D01*
X95338200Y-128309755D01*
X95379852Y-128325635D01*
X95379852Y-128325635D01*
G37*
X95379852Y-128325635D02*
X95415928Y-128356488D01*
X95429907Y-128376186D01*
X95441478Y-128398723D01*
X95443409Y-128414585D01*
X95433520Y-128424912D01*
X95409628Y-128430843D01*
X95369552Y-128433516D01*
X95319038Y-128434080D01*
X95272450Y-128433378D01*
X95233756Y-128431472D01*
X95207215Y-128428661D01*
X95197204Y-128425545D01*
X95197914Y-128410007D01*
X95208943Y-128385765D01*
X95226638Y-128358871D01*
X95247346Y-128335374D01*
X95256147Y-128327912D01*
X95295468Y-128310098D01*
X95338200Y-128309755D01*
X95379852Y-128325635D01*
G36*
X93083692Y-128325635D02*
X93119768Y-128356488D01*
X93133747Y-128376186D01*
X93145318Y-128398723D01*
X93147249Y-128414585D01*
X93137360Y-128424912D01*
X93113468Y-128430843D01*
X93073392Y-128433516D01*
X93022878Y-128434080D01*
X92976290Y-128433378D01*
X92937596Y-128431472D01*
X92911055Y-128428661D01*
X92901044Y-128425545D01*
X92901754Y-128410007D01*
X92912783Y-128385765D01*
X92930478Y-128358871D01*
X92951186Y-128335374D01*
X92959987Y-128327912D01*
X92999308Y-128310098D01*
X93042040Y-128309755D01*
X93083692Y-128325635D01*
X93083692Y-128325635D01*
G37*
X93083692Y-128325635D02*
X93119768Y-128356488D01*
X93133747Y-128376186D01*
X93145318Y-128398723D01*
X93147249Y-128414585D01*
X93137360Y-128424912D01*
X93113468Y-128430843D01*
X93073392Y-128433516D01*
X93022878Y-128434080D01*
X92976290Y-128433378D01*
X92937596Y-128431472D01*
X92911055Y-128428661D01*
X92901044Y-128425545D01*
X92901754Y-128410007D01*
X92912783Y-128385765D01*
X92930478Y-128358871D01*
X92951186Y-128335374D01*
X92959987Y-128327912D01*
X92999308Y-128310098D01*
X93042040Y-128309755D01*
X93083692Y-128325635D01*
G36*
X91143132Y-128325635D02*
X91179208Y-128356488D01*
X91193187Y-128376186D01*
X91204758Y-128398723D01*
X91206689Y-128414585D01*
X91196800Y-128424912D01*
X91172908Y-128430843D01*
X91132832Y-128433516D01*
X91082318Y-128434080D01*
X91035730Y-128433378D01*
X90997036Y-128431472D01*
X90970495Y-128428661D01*
X90960484Y-128425545D01*
X90961194Y-128410007D01*
X90972223Y-128385765D01*
X90989918Y-128358871D01*
X91010626Y-128335374D01*
X91019427Y-128327912D01*
X91058748Y-128310098D01*
X91101480Y-128309755D01*
X91143132Y-128325635D01*
X91143132Y-128325635D01*
G37*
X91143132Y-128325635D02*
X91179208Y-128356488D01*
X91193187Y-128376186D01*
X91204758Y-128398723D01*
X91206689Y-128414585D01*
X91196800Y-128424912D01*
X91172908Y-128430843D01*
X91132832Y-128433516D01*
X91082318Y-128434080D01*
X91035730Y-128433378D01*
X90997036Y-128431472D01*
X90970495Y-128428661D01*
X90960484Y-128425545D01*
X90961194Y-128410007D01*
X90972223Y-128385765D01*
X90989918Y-128358871D01*
X91010626Y-128335374D01*
X91019427Y-128327912D01*
X91058748Y-128310098D01*
X91101480Y-128309755D01*
X91143132Y-128325635D01*
G36*
X90233002Y-128537222D02*
X90223764Y-128582657D01*
X90198995Y-128620823D01*
X90162943Y-128649088D01*
X90119861Y-128664821D01*
X90073999Y-128665390D01*
X90042319Y-128655261D01*
X90019884Y-128634396D01*
X90011557Y-128604087D01*
X90018919Y-128570886D01*
X90021018Y-128566864D01*
X90040256Y-128545653D01*
X90072695Y-128529509D01*
X90120862Y-128517472D01*
X90169540Y-128510480D01*
X90233040Y-128503204D01*
X90233002Y-128537222D01*
X90233002Y-128537222D01*
G37*
X90233002Y-128537222D02*
X90223764Y-128582657D01*
X90198995Y-128620823D01*
X90162943Y-128649088D01*
X90119861Y-128664821D01*
X90073999Y-128665390D01*
X90042319Y-128655261D01*
X90019884Y-128634396D01*
X90011557Y-128604087D01*
X90018919Y-128570886D01*
X90021018Y-128566864D01*
X90040256Y-128545653D01*
X90072695Y-128529509D01*
X90120862Y-128517472D01*
X90169540Y-128510480D01*
X90233040Y-128503204D01*
X90233002Y-128537222D01*
G36*
X88440572Y-128325635D02*
X88476648Y-128356488D01*
X88490627Y-128376186D01*
X88502198Y-128398723D01*
X88504129Y-128414585D01*
X88494240Y-128424912D01*
X88470348Y-128430843D01*
X88430272Y-128433516D01*
X88379758Y-128434080D01*
X88333170Y-128433378D01*
X88294476Y-128431472D01*
X88267935Y-128428661D01*
X88257924Y-128425545D01*
X88258634Y-128410007D01*
X88269663Y-128385765D01*
X88287358Y-128358871D01*
X88308066Y-128335374D01*
X88316867Y-128327912D01*
X88356188Y-128310098D01*
X88398920Y-128309755D01*
X88440572Y-128325635D01*
X88440572Y-128325635D01*
G37*
X88440572Y-128325635D02*
X88476648Y-128356488D01*
X88490627Y-128376186D01*
X88502198Y-128398723D01*
X88504129Y-128414585D01*
X88494240Y-128424912D01*
X88470348Y-128430843D01*
X88430272Y-128433516D01*
X88379758Y-128434080D01*
X88333170Y-128433378D01*
X88294476Y-128431472D01*
X88267935Y-128428661D01*
X88257924Y-128425545D01*
X88258634Y-128410007D01*
X88269663Y-128385765D01*
X88287358Y-128358871D01*
X88308066Y-128335374D01*
X88316867Y-128327912D01*
X88356188Y-128310098D01*
X88398920Y-128309755D01*
X88440572Y-128325635D01*
G36*
X87802181Y-128311298D02*
X87840982Y-128338149D01*
X87866673Y-128369289D01*
X87880197Y-128395016D01*
X87887723Y-128422253D01*
X87890801Y-128458320D01*
X87891160Y-128484880D01*
X87886772Y-128545814D01*
X87872500Y-128591919D01*
X87846682Y-128626945D01*
X87818840Y-128648141D01*
X87773410Y-128666431D01*
X87729074Y-128664441D01*
X87686010Y-128642190D01*
X87674468Y-128632571D01*
X87640080Y-128589935D01*
X87619347Y-128539479D01*
X87611726Y-128485178D01*
X87616677Y-128431012D01*
X87633658Y-128380957D01*
X87662127Y-128338992D01*
X87701542Y-128309093D01*
X87719529Y-128301640D01*
X87759865Y-128298285D01*
X87802181Y-128311298D01*
X87802181Y-128311298D01*
G37*
X87802181Y-128311298D02*
X87840982Y-128338149D01*
X87866673Y-128369289D01*
X87880197Y-128395016D01*
X87887723Y-128422253D01*
X87890801Y-128458320D01*
X87891160Y-128484880D01*
X87886772Y-128545814D01*
X87872500Y-128591919D01*
X87846682Y-128626945D01*
X87818840Y-128648141D01*
X87773410Y-128666431D01*
X87729074Y-128664441D01*
X87686010Y-128642190D01*
X87674468Y-128632571D01*
X87640080Y-128589935D01*
X87619347Y-128539479D01*
X87611726Y-128485178D01*
X87616677Y-128431012D01*
X87633658Y-128380957D01*
X87662127Y-128338992D01*
X87701542Y-128309093D01*
X87719529Y-128301640D01*
X87759865Y-128298285D01*
X87802181Y-128311298D01*
G36*
X84312963Y-128304506D02*
X84353787Y-128320973D01*
X84388434Y-128351898D01*
X84414406Y-128395340D01*
X84429202Y-128449359D01*
X84431680Y-128484880D01*
X84424530Y-128543761D01*
X84404774Y-128593435D01*
X84374954Y-128631947D01*
X84337608Y-128657342D01*
X84295277Y-128667664D01*
X84250503Y-128660959D01*
X84221470Y-128646657D01*
X84185639Y-128612502D01*
X84161690Y-128566658D01*
X84149605Y-128513774D01*
X84149363Y-128458497D01*
X84160947Y-128405476D01*
X84184337Y-128359358D01*
X84219515Y-128324793D01*
X84222780Y-128322703D01*
X84268461Y-128304436D01*
X84312963Y-128304506D01*
X84312963Y-128304506D01*
G37*
X84312963Y-128304506D02*
X84353787Y-128320973D01*
X84388434Y-128351898D01*
X84414406Y-128395340D01*
X84429202Y-128449359D01*
X84431680Y-128484880D01*
X84424530Y-128543761D01*
X84404774Y-128593435D01*
X84374954Y-128631947D01*
X84337608Y-128657342D01*
X84295277Y-128667664D01*
X84250503Y-128660959D01*
X84221470Y-128646657D01*
X84185639Y-128612502D01*
X84161690Y-128566658D01*
X84149605Y-128513774D01*
X84149363Y-128458497D01*
X84160947Y-128405476D01*
X84184337Y-128359358D01*
X84219515Y-128324793D01*
X84222780Y-128322703D01*
X84268461Y-128304436D01*
X84312963Y-128304506D01*
G36*
X82788963Y-128304506D02*
X82829787Y-128320973D01*
X82864434Y-128351898D01*
X82890406Y-128395340D01*
X82905202Y-128449359D01*
X82907680Y-128484880D01*
X82900530Y-128543761D01*
X82880774Y-128593435D01*
X82850954Y-128631947D01*
X82813608Y-128657342D01*
X82771277Y-128667664D01*
X82726503Y-128660959D01*
X82697470Y-128646657D01*
X82661639Y-128612502D01*
X82637690Y-128566658D01*
X82625605Y-128513774D01*
X82625363Y-128458497D01*
X82636947Y-128405476D01*
X82660337Y-128359358D01*
X82695515Y-128324793D01*
X82698780Y-128322703D01*
X82744461Y-128304436D01*
X82788963Y-128304506D01*
X82788963Y-128304506D01*
G37*
X82788963Y-128304506D02*
X82829787Y-128320973D01*
X82864434Y-128351898D01*
X82890406Y-128395340D01*
X82905202Y-128449359D01*
X82907680Y-128484880D01*
X82900530Y-128543761D01*
X82880774Y-128593435D01*
X82850954Y-128631947D01*
X82813608Y-128657342D01*
X82771277Y-128667664D01*
X82726503Y-128660959D01*
X82697470Y-128646657D01*
X82661639Y-128612502D01*
X82637690Y-128566658D01*
X82625605Y-128513774D01*
X82625363Y-128458497D01*
X82636947Y-128405476D01*
X82660337Y-128359358D01*
X82695515Y-128324793D01*
X82698780Y-128322703D01*
X82744461Y-128304436D01*
X82788963Y-128304506D01*
G36*
X81559603Y-128304506D02*
X81600427Y-128320973D01*
X81635074Y-128351898D01*
X81661046Y-128395340D01*
X81675842Y-128449359D01*
X81678320Y-128484880D01*
X81671170Y-128543761D01*
X81651414Y-128593435D01*
X81621594Y-128631947D01*
X81584248Y-128657342D01*
X81541917Y-128667664D01*
X81497143Y-128660959D01*
X81468110Y-128646657D01*
X81432279Y-128612502D01*
X81408330Y-128566658D01*
X81396245Y-128513774D01*
X81396003Y-128458497D01*
X81407587Y-128405476D01*
X81430977Y-128359358D01*
X81466155Y-128324793D01*
X81469420Y-128322703D01*
X81515101Y-128304436D01*
X81559603Y-128304506D01*
X81559603Y-128304506D01*
G37*
X81559603Y-128304506D02*
X81600427Y-128320973D01*
X81635074Y-128351898D01*
X81661046Y-128395340D01*
X81675842Y-128449359D01*
X81678320Y-128484880D01*
X81671170Y-128543761D01*
X81651414Y-128593435D01*
X81621594Y-128631947D01*
X81584248Y-128657342D01*
X81541917Y-128667664D01*
X81497143Y-128660959D01*
X81468110Y-128646657D01*
X81432279Y-128612502D01*
X81408330Y-128566658D01*
X81396245Y-128513774D01*
X81396003Y-128458497D01*
X81407587Y-128405476D01*
X81430977Y-128359358D01*
X81466155Y-128324793D01*
X81469420Y-128322703D01*
X81515101Y-128304436D01*
X81559603Y-128304506D01*
G36*
X97497440Y-129114800D02*
X77502560Y-129114800D01*
X77502560Y-128727529D01*
X79575200Y-128727529D01*
X79576671Y-128739742D01*
X79584186Y-128746125D01*
X79602390Y-128748105D01*
X79635932Y-128747109D01*
X79638561Y-128746984D01*
X79701923Y-128743960D01*
X79781421Y-128535680D01*
X79911904Y-128535680D01*
X79967021Y-128535520D01*
X80005872Y-128536809D01*
X80032477Y-128542197D01*
X80050854Y-128554336D01*
X80065022Y-128575875D01*
X80079000Y-128609466D01*
X80096749Y-128657600D01*
X80128920Y-128743960D01*
X80192551Y-128746988D01*
X80229653Y-128747590D01*
X80251029Y-128744450D01*
X80261057Y-128736775D01*
X80262182Y-128734381D01*
X80260804Y-128719605D01*
X80252840Y-128690014D01*
X80239519Y-128649548D01*
X80222066Y-128602151D01*
X80216977Y-128589113D01*
X80197181Y-128538817D01*
X80172137Y-128474912D01*
X80143932Y-128402741D01*
X80114653Y-128327646D01*
X80086388Y-128254968D01*
X80082953Y-128246120D01*
X80071001Y-128215640D01*
X80342280Y-128215640D01*
X80342280Y-128434080D01*
X80342413Y-128506976D01*
X80342974Y-128562526D01*
X80344204Y-128603703D01*
X80346343Y-128633480D01*
X80349631Y-128654829D01*
X80354309Y-128670723D01*
X80360619Y-128684136D01*
X80362842Y-128688080D01*
X80395824Y-128725903D01*
X80441900Y-128752259D01*
X80496828Y-128766275D01*
X80556364Y-128767082D01*
X80616266Y-128753809D01*
X80638689Y-128744685D01*
X80669508Y-128731403D01*
X80686953Y-128727329D01*
X80695359Y-128731712D01*
X80696790Y-128734624D01*
X80710432Y-128744644D01*
X80742158Y-128748858D01*
X80753441Y-128749040D01*
X80804560Y-128749040D01*
X80804560Y-128256280D01*
X80885840Y-128256280D01*
X80886723Y-128283961D01*
X80892575Y-128297331D01*
X80908200Y-128302398D01*
X80923940Y-128303926D01*
X80962040Y-128307080D01*
X80972200Y-128700012D01*
X81001164Y-128724920D01*
X81017550Y-128737360D01*
X81034592Y-128744515D01*
X81058049Y-128747519D01*
X81093680Y-128747503D01*
X81112924Y-128746894D01*
X81153708Y-128745196D01*
X81178454Y-128742622D01*
X81191429Y-128737610D01*
X81196906Y-128728596D01*
X81198994Y-128715405D01*
X81195666Y-128683020D01*
X81176809Y-128663730D01*
X81144033Y-128657600D01*
X81113451Y-128651674D01*
X81099557Y-128637947D01*
X81095021Y-128619382D01*
X81091743Y-128586001D01*
X81089700Y-128542283D01*
X81088869Y-128492704D01*
X81089126Y-128456063D01*
X81265180Y-128456063D01*
X81266317Y-128529905D01*
X81282584Y-128603769D01*
X81313128Y-128666584D01*
X81356449Y-128716161D01*
X81411048Y-128750307D01*
X81419434Y-128753704D01*
X81454941Y-128762011D01*
X81502170Y-128766166D01*
X81554549Y-128766346D01*
X81605506Y-128762730D01*
X81648469Y-128755495D01*
X81673451Y-128746816D01*
X81726798Y-128707621D01*
X81767774Y-128654543D01*
X81795363Y-128590552D01*
X81800310Y-128563558D01*
X81913718Y-128563558D01*
X81913771Y-128629637D01*
X81914595Y-128679252D01*
X81916261Y-128714327D01*
X81918843Y-128736784D01*
X81922411Y-128748547D01*
X81924524Y-128750978D01*
X81942009Y-128755581D01*
X81970722Y-128757164D01*
X81983120Y-128756766D01*
X82028840Y-128754120D01*
X82033920Y-128576320D01*
X82036230Y-128507984D01*
X82038941Y-128456773D01*
X82042401Y-128419494D01*
X82046959Y-128392953D01*
X82052965Y-128373954D01*
X82056951Y-128365671D01*
X82085428Y-128331444D01*
X82123852Y-128308958D01*
X82166346Y-128300258D01*
X82207033Y-128307389D01*
X82214458Y-128310906D01*
X82230055Y-128320978D01*
X82241981Y-128334171D01*
X82250824Y-128353255D01*
X82257172Y-128380998D01*
X82261615Y-128420171D01*
X82264739Y-128473544D01*
X82267134Y-128543885D01*
X82267600Y-128561080D01*
X82272680Y-128754120D01*
X82374280Y-128754120D01*
X82376964Y-128535680D01*
X82377709Y-128462294D01*
X82377716Y-128456063D01*
X82494540Y-128456063D01*
X82495677Y-128529905D01*
X82511944Y-128603769D01*
X82542488Y-128666584D01*
X82585809Y-128716161D01*
X82640408Y-128750307D01*
X82648794Y-128753704D01*
X82684301Y-128762011D01*
X82731530Y-128766166D01*
X82783909Y-128766346D01*
X82834866Y-128762730D01*
X82877829Y-128755495D01*
X82902811Y-128746816D01*
X82956158Y-128707621D01*
X82997134Y-128654543D01*
X83013533Y-128616506D01*
X83142758Y-128616506D01*
X83143164Y-128662951D01*
X83144334Y-128696312D01*
X83146399Y-128718999D01*
X83149487Y-128733424D01*
X83153730Y-128741998D01*
X83158360Y-128746500D01*
X83189201Y-128757948D01*
X83225301Y-128755737D01*
X83243627Y-128748682D01*
X83250855Y-128743477D01*
X83256061Y-128734776D01*
X83259574Y-128719551D01*
X83261723Y-128694771D01*
X83262835Y-128657407D01*
X83263240Y-128604429D01*
X83263280Y-128567305D01*
X83263436Y-128504103D01*
X83264168Y-128457735D01*
X83265868Y-128424714D01*
X83268931Y-128401553D01*
X83273749Y-128384766D01*
X83280716Y-128370867D01*
X83286454Y-128361922D01*
X83311506Y-128333546D01*
X83341955Y-128310034D01*
X83345379Y-128308090D01*
X83370829Y-128296235D01*
X83389528Y-128294929D01*
X83410807Y-128303010D01*
X83429026Y-128313353D01*
X83442781Y-128326438D01*
X83452692Y-128345062D01*
X83459378Y-128372021D01*
X83463460Y-128410114D01*
X83465556Y-128462135D01*
X83466286Y-128530883D01*
X83466330Y-128553677D01*
X83466480Y-128739315D01*
X83491102Y-128750534D01*
X83519247Y-128756560D01*
X83552062Y-128754936D01*
X83588400Y-128748119D01*
X83588437Y-128568239D01*
X83588647Y-128502522D01*
X83589458Y-128453767D01*
X83591195Y-128418621D01*
X83594179Y-128393729D01*
X83598734Y-128375735D01*
X83605182Y-128361285D01*
X83608980Y-128354728D01*
X83638360Y-128321635D01*
X83674824Y-128302353D01*
X83713441Y-128297825D01*
X83749283Y-128308996D01*
X83767992Y-128324269D01*
X83774511Y-128333576D01*
X83779507Y-128347124D01*
X83783290Y-128367795D01*
X83786168Y-128398471D01*
X83788452Y-128442032D01*
X83790450Y-128501360D01*
X83791600Y-128544108D01*
X83796680Y-128743506D01*
X83824620Y-128753314D01*
X83864776Y-128757159D01*
X83880500Y-128753303D01*
X83908440Y-128743484D01*
X83911072Y-128530362D01*
X83911787Y-128457506D01*
X83911787Y-128456063D01*
X84018540Y-128456063D01*
X84019677Y-128529905D01*
X84035944Y-128603769D01*
X84066488Y-128666584D01*
X84109809Y-128716161D01*
X84164408Y-128750307D01*
X84172794Y-128753704D01*
X84208301Y-128762011D01*
X84255530Y-128766166D01*
X84307909Y-128766346D01*
X84358866Y-128762730D01*
X84401829Y-128755495D01*
X84426811Y-128746816D01*
X84480158Y-128707621D01*
X84521134Y-128654543D01*
X84548723Y-128590552D01*
X84561907Y-128518617D01*
X84559671Y-128441708D01*
X84549190Y-128389435D01*
X84523040Y-128322710D01*
X84484246Y-128271164D01*
X84431481Y-128233101D01*
X84424072Y-128229322D01*
X84382170Y-128215640D01*
X84670440Y-128215640D01*
X84670440Y-128434080D01*
X84670573Y-128506976D01*
X84671134Y-128562526D01*
X84672364Y-128603703D01*
X84674503Y-128633480D01*
X84677791Y-128654829D01*
X84682469Y-128670723D01*
X84688779Y-128684136D01*
X84691002Y-128688080D01*
X84723984Y-128725903D01*
X84770060Y-128752259D01*
X84824988Y-128766275D01*
X84884524Y-128767082D01*
X84944426Y-128753809D01*
X84966849Y-128744685D01*
X84997668Y-128731403D01*
X85015113Y-128727329D01*
X85023519Y-128731712D01*
X85024950Y-128734624D01*
X85038592Y-128744644D01*
X85070318Y-128748858D01*
X85081601Y-128749040D01*
X85132720Y-128749040D01*
X85132720Y-128611656D01*
X85234930Y-128611656D01*
X85238772Y-128642586D01*
X85254176Y-128679322D01*
X85283327Y-128715262D01*
X85320376Y-128744234D01*
X85347034Y-128756787D01*
X85372765Y-128761677D01*
X85412444Y-128764914D01*
X85459735Y-128766080D01*
X85483240Y-128765781D01*
X85535801Y-128763493D01*
X85573779Y-128759134D01*
X85602877Y-128751716D01*
X85627871Y-128740739D01*
X85670103Y-128711715D01*
X85695920Y-128675135D01*
X85708544Y-128626148D01*
X85709462Y-128617812D01*
X85709020Y-128569555D01*
X85696315Y-128530090D01*
X85669613Y-128497742D01*
X85627181Y-128470836D01*
X85567287Y-128447696D01*
X85519517Y-128434224D01*
X85456289Y-128416525D01*
X85411775Y-128399957D01*
X85384491Y-128383433D01*
X85372953Y-128365865D01*
X85375675Y-128346167D01*
X85382698Y-128334051D01*
X85408328Y-128313564D01*
X85443803Y-128304902D01*
X85482972Y-128307366D01*
X85519679Y-128320255D01*
X85547773Y-128342868D01*
X85554797Y-128353646D01*
X85565543Y-128370851D01*
X85579089Y-128379692D01*
X85601993Y-128382908D01*
X85625740Y-128383280D01*
X85681360Y-128383280D01*
X85681322Y-128350260D01*
X85672723Y-128309303D01*
X85650216Y-128268827D01*
X85618600Y-128237244D01*
X85615732Y-128235296D01*
X85581170Y-128220419D01*
X85533261Y-128209909D01*
X85478648Y-128204473D01*
X85423971Y-128204820D01*
X85381762Y-128210327D01*
X85338527Y-128222589D01*
X85305911Y-128240853D01*
X85282702Y-128261386D01*
X85261462Y-128284152D01*
X85250014Y-128303485D01*
X85245354Y-128327354D01*
X85244480Y-128362780D01*
X85245488Y-128399147D01*
X85250263Y-128422830D01*
X85261426Y-128441433D01*
X85277500Y-128458542D01*
X85298755Y-128476100D01*
X85325940Y-128491229D01*
X85362667Y-128505335D01*
X85412547Y-128519825D01*
X85473080Y-128534685D01*
X85522795Y-128551019D01*
X85557345Y-128572390D01*
X85575407Y-128597114D01*
X85575660Y-128623506D01*
X85560631Y-128646248D01*
X85526933Y-128667089D01*
X85485293Y-128674716D01*
X85441518Y-128670158D01*
X85401412Y-128654447D01*
X85370780Y-128628615D01*
X85360149Y-128610644D01*
X85350115Y-128590203D01*
X85337843Y-128580068D01*
X85316497Y-128576646D01*
X85294824Y-128576320D01*
X85259169Y-128579002D01*
X85240256Y-128589538D01*
X85234930Y-128611656D01*
X85132720Y-128611656D01*
X85132720Y-128209545D01*
X85074300Y-128212592D01*
X85015880Y-128215640D01*
X85010800Y-128393940D01*
X85008591Y-128460972D01*
X85006094Y-128510850D01*
X85002950Y-128546741D01*
X84998798Y-128571812D01*
X84993280Y-128589228D01*
X84987387Y-128600165D01*
X84963814Y-128626617D01*
X84932773Y-128649811D01*
X84901750Y-128664769D01*
X84885835Y-128667722D01*
X84857834Y-128661430D01*
X84827997Y-128645969D01*
X84805640Y-128626612D01*
X84801298Y-128619875D01*
X84798279Y-128604327D01*
X84795146Y-128571984D01*
X84792131Y-128526371D01*
X84789467Y-128471010D01*
X84787387Y-128409426D01*
X84787367Y-128408680D01*
X84782200Y-128215640D01*
X84670440Y-128215640D01*
X84382170Y-128215640D01*
X84370082Y-128211693D01*
X84306262Y-128204466D01*
X84240195Y-128207566D01*
X84179460Y-128220919D01*
X84152280Y-128232000D01*
X84100345Y-128268840D01*
X84059891Y-128320379D01*
X84032196Y-128383745D01*
X84018540Y-128456063D01*
X83911787Y-128456063D01*
X83911774Y-128401973D01*
X83910847Y-128360776D01*
X83908824Y-128330926D01*
X83905521Y-128309433D01*
X83900754Y-128293309D01*
X83895832Y-128282402D01*
X83875027Y-128248922D01*
X83850418Y-128226448D01*
X83817715Y-128213030D01*
X83772628Y-128206721D01*
X83726564Y-128205480D01*
X83681141Y-128205955D01*
X83650444Y-128208179D01*
X83628884Y-128213350D01*
X83610874Y-128222666D01*
X83595785Y-128233512D01*
X83571787Y-128249975D01*
X83557981Y-128253667D01*
X83550856Y-128247588D01*
X83527895Y-128226357D01*
X83490621Y-128210944D01*
X83444352Y-128201922D01*
X83394405Y-128199864D01*
X83346099Y-128205341D01*
X83304751Y-128218926D01*
X83301266Y-128220720D01*
X83273573Y-128235010D01*
X83259229Y-128239756D01*
X83253870Y-128235370D01*
X83253120Y-128225269D01*
X83249093Y-128216023D01*
X83234114Y-128212060D01*
X83203839Y-128212345D01*
X83199780Y-128212569D01*
X83146440Y-128215640D01*
X83143718Y-128474720D01*
X83142986Y-128554565D01*
X83142758Y-128616506D01*
X83013533Y-128616506D01*
X83024723Y-128590552D01*
X83037907Y-128518617D01*
X83035671Y-128441708D01*
X83025190Y-128389435D01*
X82999040Y-128322710D01*
X82960246Y-128271164D01*
X82907481Y-128233101D01*
X82900072Y-128229322D01*
X82846082Y-128211693D01*
X82782262Y-128204466D01*
X82716195Y-128207566D01*
X82655460Y-128220919D01*
X82628280Y-128232000D01*
X82576345Y-128268840D01*
X82535891Y-128320379D01*
X82508196Y-128383745D01*
X82494540Y-128456063D01*
X82377716Y-128456063D01*
X82377776Y-128406258D01*
X82376981Y-128364607D01*
X82375135Y-128334376D01*
X82372052Y-128312600D01*
X82367546Y-128296315D01*
X82361429Y-128282556D01*
X82360972Y-128281680D01*
X82331387Y-128245886D01*
X82287916Y-128219575D01*
X82235094Y-128203652D01*
X82177457Y-128199019D01*
X82119539Y-128206582D01*
X82071929Y-128224049D01*
X82044462Y-128237407D01*
X82029905Y-128241718D01*
X82023199Y-128237422D01*
X82020204Y-128228540D01*
X82013782Y-128216950D01*
X81998934Y-128212072D01*
X81970130Y-128212266D01*
X81966137Y-128212510D01*
X81917080Y-128215640D01*
X81914364Y-128479092D01*
X81913718Y-128563558D01*
X81800310Y-128563558D01*
X81808547Y-128518617D01*
X81806311Y-128441708D01*
X81795830Y-128389435D01*
X81769680Y-128322710D01*
X81730886Y-128271164D01*
X81678121Y-128233101D01*
X81670712Y-128229322D01*
X81616722Y-128211693D01*
X81552902Y-128204466D01*
X81486835Y-128207566D01*
X81426100Y-128220919D01*
X81398920Y-128232000D01*
X81346985Y-128268840D01*
X81306531Y-128320379D01*
X81278836Y-128383745D01*
X81265180Y-128456063D01*
X81089126Y-128456063D01*
X81089227Y-128441742D01*
X81090750Y-128393875D01*
X81093415Y-128353580D01*
X81097200Y-128325335D01*
X81101232Y-128314191D01*
X81118922Y-128306104D01*
X81146521Y-128302095D01*
X81151347Y-128302000D01*
X81182536Y-128295760D01*
X81198136Y-128276730D01*
X81198462Y-128244443D01*
X81196443Y-128235226D01*
X81188808Y-128218610D01*
X81172797Y-128211666D01*
X81151838Y-128210560D01*
X81121073Y-128207588D01*
X81102107Y-128196251D01*
X81092327Y-128172920D01*
X81090469Y-128150325D01*
X86139369Y-128150325D01*
X86139527Y-128217846D01*
X86140319Y-128303588D01*
X86140371Y-128308130D01*
X86141410Y-128391871D01*
X86142507Y-128457861D01*
X86143863Y-128508666D01*
X86145679Y-128546853D01*
X86148158Y-128574991D01*
X86151500Y-128595645D01*
X86155908Y-128611384D01*
X86161584Y-128624775D01*
X86165901Y-128633161D01*
X86195800Y-128678153D01*
X86233602Y-128713258D01*
X86282799Y-128740677D01*
X86346885Y-128762607D01*
X86387480Y-128772622D01*
X86440949Y-128778024D01*
X86503812Y-128773852D01*
X86536839Y-128768108D01*
X86606166Y-128747192D01*
X86660723Y-128716135D01*
X86695345Y-128683741D01*
X86712996Y-128661673D01*
X86727058Y-128638371D01*
X86737926Y-128611295D01*
X86745997Y-128577908D01*
X86747923Y-128563558D01*
X86902278Y-128563558D01*
X86902331Y-128629637D01*
X86903155Y-128679252D01*
X86904821Y-128714327D01*
X86907403Y-128736784D01*
X86910971Y-128748547D01*
X86913084Y-128750978D01*
X86930569Y-128755581D01*
X86959282Y-128757164D01*
X86971680Y-128756766D01*
X87017400Y-128754120D01*
X87022480Y-128576320D01*
X87024790Y-128507984D01*
X87027501Y-128456773D01*
X87030961Y-128419494D01*
X87035519Y-128392953D01*
X87041525Y-128373954D01*
X87045511Y-128365671D01*
X87073988Y-128331444D01*
X87112412Y-128308958D01*
X87154906Y-128300258D01*
X87195593Y-128307389D01*
X87203018Y-128310906D01*
X87218615Y-128320978D01*
X87230541Y-128334171D01*
X87239384Y-128353255D01*
X87245732Y-128380998D01*
X87250175Y-128420171D01*
X87253299Y-128473544D01*
X87255694Y-128543885D01*
X87256160Y-128561080D01*
X87261240Y-128754120D01*
X87362840Y-128754120D01*
X87365524Y-128535680D01*
X87366269Y-128462294D01*
X87366294Y-128440836D01*
X87484974Y-128440836D01*
X87485508Y-128518674D01*
X87489029Y-128545692D01*
X87509388Y-128620279D01*
X87544057Y-128680611D01*
X87592872Y-128726469D01*
X87647907Y-128754869D01*
X87685633Y-128763149D01*
X87733935Y-128765945D01*
X87785020Y-128763583D01*
X87831093Y-128756389D01*
X87862036Y-128745946D01*
X87883899Y-128736747D01*
X87897208Y-128738796D01*
X87904260Y-128745073D01*
X87925854Y-128755942D01*
X87957041Y-128758692D01*
X87988639Y-128752969D01*
X87998507Y-128748682D01*
X88003742Y-128745098D01*
X88007955Y-128739169D01*
X88011257Y-128728849D01*
X88013759Y-128712090D01*
X88015571Y-128686845D01*
X88016804Y-128651067D01*
X88017569Y-128602709D01*
X88017976Y-128539724D01*
X88018123Y-128465986D01*
X88122658Y-128465986D01*
X88127745Y-128548712D01*
X88129825Y-128560579D01*
X88151674Y-128633641D01*
X88186616Y-128691193D01*
X88234456Y-128733075D01*
X88295003Y-128759125D01*
X88368063Y-128769179D01*
X88378294Y-128769303D01*
X88421133Y-128767713D01*
X88461692Y-128763624D01*
X88488337Y-128758589D01*
X88533273Y-128738073D01*
X88573734Y-128705202D01*
X88605506Y-128664859D01*
X88624380Y-128621926D01*
X88627760Y-128596966D01*
X88625378Y-128584962D01*
X88614988Y-128578759D01*
X88591719Y-128576523D01*
X88572883Y-128576320D01*
X88540438Y-128577273D01*
X88521098Y-128582407D01*
X88507663Y-128595130D01*
X88496732Y-128612378D01*
X88465631Y-128647761D01*
X88426286Y-128667482D01*
X88382913Y-128671930D01*
X88339726Y-128661493D01*
X88300941Y-128636563D01*
X88270772Y-128597527D01*
X88267590Y-128591200D01*
X88257894Y-128569516D01*
X88253683Y-128553251D01*
X88257149Y-128541574D01*
X88270485Y-128533654D01*
X88295884Y-128528659D01*
X88335539Y-128525760D01*
X88391644Y-128524125D01*
X88447012Y-128523210D01*
X88632840Y-128520440D01*
X88632840Y-128453663D01*
X88624199Y-128381615D01*
X88599222Y-128318042D01*
X88559328Y-128265720D01*
X88521721Y-128236298D01*
X88494117Y-128220528D01*
X88473687Y-128212762D01*
X88729360Y-128212762D01*
X88729360Y-128479208D01*
X88729608Y-128550835D01*
X88730308Y-128615694D01*
X88731391Y-128671037D01*
X88732789Y-128714118D01*
X88734434Y-128742190D01*
X88736133Y-128752426D01*
X88750776Y-128757060D01*
X88777103Y-128758967D01*
X88806658Y-128758094D01*
X88830981Y-128754390D01*
X88835209Y-128753032D01*
X88841585Y-128747863D01*
X88846072Y-128736033D01*
X88848988Y-128714511D01*
X88850654Y-128680267D01*
X88851386Y-128630269D01*
X88851503Y-128598092D01*
X88853384Y-128517220D01*
X88859524Y-128453933D01*
X88871069Y-128405737D01*
X88889168Y-128370135D01*
X88914970Y-128344634D01*
X88949624Y-128326738D01*
X88980813Y-128317133D01*
X89029080Y-128304924D01*
X89032150Y-128252662D01*
X89033660Y-128226952D01*
X89067872Y-128226952D01*
X89069344Y-128240220D01*
X89076302Y-128269565D01*
X89087753Y-128311799D01*
X89102707Y-128363739D01*
X89120172Y-128422199D01*
X89139157Y-128483995D01*
X89158672Y-128545940D01*
X89177725Y-128604851D01*
X89195324Y-128657542D01*
X89210480Y-128700827D01*
X89222201Y-128731523D01*
X89229495Y-128746443D01*
X89229540Y-128746500D01*
X89245434Y-128753858D01*
X89273396Y-128758044D01*
X89305378Y-128758745D01*
X89333333Y-128755652D01*
X89346285Y-128751006D01*
X89352794Y-128738986D01*
X89363053Y-128710617D01*
X89375989Y-128669290D01*
X89390529Y-128618396D01*
X89402417Y-128573758D01*
X89446143Y-128404391D01*
X89489251Y-128573687D01*
X89504112Y-128629749D01*
X89518253Y-128678916D01*
X89530608Y-128717789D01*
X89540111Y-128742970D01*
X89544879Y-128750935D01*
X89565045Y-128756920D01*
X89594800Y-128758918D01*
X89626187Y-128757236D01*
X89651245Y-128752176D01*
X89660988Y-128746500D01*
X89670244Y-128728556D01*
X89680169Y-128701583D01*
X89681195Y-128698240D01*
X89687411Y-128678137D01*
X89698748Y-128642107D01*
X89714121Y-128593573D01*
X89716642Y-128585644D01*
X89879884Y-128585644D01*
X89882165Y-128640350D01*
X89893541Y-128677110D01*
X89916186Y-128715732D01*
X89950220Y-128742147D01*
X89996651Y-128758878D01*
X90040968Y-128764530D01*
X90093838Y-128763395D01*
X90146698Y-128756298D01*
X90190983Y-128744060D01*
X90202065Y-128739132D01*
X90226355Y-128727493D01*
X90240036Y-128725301D01*
X90250500Y-128732570D01*
X90256407Y-128739259D01*
X90287696Y-128760868D01*
X90329668Y-128767799D01*
X90363974Y-128763191D01*
X90388577Y-128754869D01*
X90399734Y-128741343D01*
X90403834Y-128716002D01*
X90403936Y-128689698D01*
X90396055Y-128675678D01*
X90380974Y-128667993D01*
X90354960Y-128658102D01*
X90354960Y-128484126D01*
X90354382Y-128410011D01*
X90352162Y-128353228D01*
X90347569Y-128310810D01*
X90339871Y-128279788D01*
X90328338Y-128257196D01*
X90327478Y-128256280D01*
X90446400Y-128256280D01*
X90447283Y-128283961D01*
X90453135Y-128297331D01*
X90468760Y-128302398D01*
X90484500Y-128303926D01*
X90522600Y-128307080D01*
X90532760Y-128700012D01*
X90561724Y-128724920D01*
X90578110Y-128737360D01*
X90595152Y-128744515D01*
X90618609Y-128747519D01*
X90654240Y-128747503D01*
X90673484Y-128746894D01*
X90714268Y-128745196D01*
X90739014Y-128742622D01*
X90751989Y-128737610D01*
X90757466Y-128728596D01*
X90759554Y-128715405D01*
X90756226Y-128683020D01*
X90737369Y-128663730D01*
X90704593Y-128657600D01*
X90674011Y-128651674D01*
X90660117Y-128637947D01*
X90655581Y-128619382D01*
X90652303Y-128586001D01*
X90650260Y-128542283D01*
X90649429Y-128492704D01*
X90649616Y-128465986D01*
X90825218Y-128465986D01*
X90830305Y-128548712D01*
X90832385Y-128560579D01*
X90854234Y-128633641D01*
X90889176Y-128691193D01*
X90937016Y-128733075D01*
X90997563Y-128759125D01*
X91070623Y-128769179D01*
X91080854Y-128769303D01*
X91123693Y-128767713D01*
X91164252Y-128763624D01*
X91190897Y-128758589D01*
X91235833Y-128738073D01*
X91276294Y-128705202D01*
X91308066Y-128664859D01*
X91326940Y-128621926D01*
X91330320Y-128596966D01*
X91327938Y-128584962D01*
X91317548Y-128578759D01*
X91294279Y-128576523D01*
X91275443Y-128576320D01*
X91242998Y-128577273D01*
X91223658Y-128582407D01*
X91210223Y-128595130D01*
X91199292Y-128612378D01*
X91168191Y-128647761D01*
X91128846Y-128667482D01*
X91085473Y-128671930D01*
X91042286Y-128661493D01*
X91003501Y-128636563D01*
X90973332Y-128597527D01*
X90970150Y-128591200D01*
X90960454Y-128569516D01*
X90956243Y-128553251D01*
X90959709Y-128541574D01*
X90973045Y-128533654D01*
X90998444Y-128528659D01*
X91038099Y-128525760D01*
X91094204Y-128524125D01*
X91149572Y-128523210D01*
X91335400Y-128520440D01*
X91335400Y-128453663D01*
X91326759Y-128381615D01*
X91301782Y-128318042D01*
X91261888Y-128265720D01*
X91224281Y-128236298D01*
X91196677Y-128220528D01*
X91176247Y-128212762D01*
X91431920Y-128212762D01*
X91431920Y-128479208D01*
X91432168Y-128550835D01*
X91432868Y-128615694D01*
X91433951Y-128671037D01*
X91435349Y-128714118D01*
X91436994Y-128742190D01*
X91438693Y-128752426D01*
X91453336Y-128757060D01*
X91479663Y-128758967D01*
X91509218Y-128758094D01*
X91533541Y-128754390D01*
X91537769Y-128753032D01*
X91544145Y-128747863D01*
X91548632Y-128736033D01*
X91551548Y-128714511D01*
X91553214Y-128680267D01*
X91553946Y-128630269D01*
X91554063Y-128598092D01*
X91555944Y-128517220D01*
X91562084Y-128453933D01*
X91573629Y-128405737D01*
X91591728Y-128370135D01*
X91617530Y-128344634D01*
X91652184Y-128326738D01*
X91683373Y-128317133D01*
X91731640Y-128304924D01*
X91734710Y-128252662D01*
X91737781Y-128200400D01*
X91685783Y-128200400D01*
X91638121Y-128204319D01*
X91600847Y-128218221D01*
X91566540Y-128244080D01*
X91543680Y-128264902D01*
X91543680Y-128238538D01*
X91539008Y-128217883D01*
X91521188Y-128207429D01*
X91514504Y-128205766D01*
X91482799Y-128203257D01*
X91458624Y-128206060D01*
X91431920Y-128212762D01*
X91176247Y-128212762D01*
X91172455Y-128211321D01*
X91144345Y-128207004D01*
X91105076Y-128205905D01*
X91092356Y-128205939D01*
X91042767Y-128207790D01*
X91006522Y-128213500D01*
X90976817Y-128224288D01*
X90969640Y-128227908D01*
X90910213Y-128270125D01*
X90865869Y-128325004D01*
X90837305Y-128390854D01*
X90825218Y-128465986D01*
X90649616Y-128465986D01*
X90649787Y-128441742D01*
X90651310Y-128393875D01*
X90653975Y-128353580D01*
X90657760Y-128325335D01*
X90661792Y-128314191D01*
X90679482Y-128306104D01*
X90707081Y-128302095D01*
X90711907Y-128302000D01*
X90743096Y-128295760D01*
X90758696Y-128276730D01*
X90759022Y-128244443D01*
X90757003Y-128235226D01*
X90749368Y-128218610D01*
X90733357Y-128211666D01*
X90712398Y-128210560D01*
X90681633Y-128207588D01*
X90662667Y-128196251D01*
X90652887Y-128172920D01*
X90649682Y-128133963D01*
X90649600Y-128123255D01*
X90648117Y-128084674D01*
X90641210Y-128062111D01*
X90625192Y-128051336D01*
X90596375Y-128048122D01*
X90583973Y-128048000D01*
X90557800Y-128051013D01*
X90541017Y-128062445D01*
X90531346Y-128085883D01*
X90526511Y-128124915D01*
X90525680Y-128139829D01*
X90522600Y-128205480D01*
X90484500Y-128208633D01*
X90460859Y-128211621D01*
X90449824Y-128219368D01*
X90446592Y-128237883D01*
X90446400Y-128256280D01*
X90327478Y-128256280D01*
X90312238Y-128240065D01*
X90291295Y-128225699D01*
X90259060Y-128213652D01*
X90213057Y-128205336D01*
X90159538Y-128201003D01*
X90104755Y-128200904D01*
X90054958Y-128205290D01*
X90016401Y-128214413D01*
X90015857Y-128214619D01*
X89963912Y-128242239D01*
X89930277Y-128278521D01*
X89914789Y-128323667D01*
X89913638Y-128340100D01*
X89913000Y-128388360D01*
X89961160Y-128391452D01*
X89990836Y-128392318D01*
X90007684Y-128387494D01*
X90019100Y-128373274D01*
X90026379Y-128358774D01*
X90052559Y-128324196D01*
X90088809Y-128302377D01*
X90129858Y-128294210D01*
X90170440Y-128300589D01*
X90205284Y-128322405D01*
X90210180Y-128327623D01*
X90228308Y-128354476D01*
X90230612Y-128376540D01*
X90216071Y-128394810D01*
X90183667Y-128410280D01*
X90132379Y-128423944D01*
X90106040Y-128429185D01*
X90034095Y-128444553D01*
X89979787Y-128461200D01*
X89940433Y-128480416D01*
X89913349Y-128503493D01*
X89896674Y-128529874D01*
X89879884Y-128585644D01*
X89716642Y-128585644D01*
X89732445Y-128535955D01*
X89752636Y-128472677D01*
X89759624Y-128450821D01*
X89782712Y-128377652D01*
X89799602Y-128321529D01*
X89810821Y-128280322D01*
X89816897Y-128251901D01*
X89818358Y-128234137D01*
X89815731Y-128224901D01*
X89815618Y-128224761D01*
X89798130Y-128215621D01*
X89770221Y-128211223D01*
X89740151Y-128211683D01*
X89716182Y-128217117D01*
X89707859Y-128223260D01*
X89702496Y-128236869D01*
X89692813Y-128266571D01*
X89679887Y-128308867D01*
X89664792Y-128360260D01*
X89652433Y-128403600D01*
X89636815Y-128457143D01*
X89622724Y-128501859D01*
X89611133Y-128534944D01*
X89603015Y-128553594D01*
X89599569Y-128556000D01*
X89595174Y-128541129D01*
X89586880Y-128510446D01*
X89575715Y-128467850D01*
X89562709Y-128417242D01*
X89556668Y-128393440D01*
X89542909Y-128340249D01*
X89530133Y-128293109D01*
X89519466Y-128256010D01*
X89512032Y-128232943D01*
X89510114Y-128228340D01*
X89498755Y-128217232D01*
X89476435Y-128211779D01*
X89445882Y-128210560D01*
X89411589Y-128212779D01*
X89388787Y-128218685D01*
X89383335Y-128222895D01*
X89378492Y-128236436D01*
X89369842Y-128266241D01*
X89358336Y-128308816D01*
X89344922Y-128360670D01*
X89333544Y-128406127D01*
X89291376Y-128577024D01*
X89243186Y-128406494D01*
X89226837Y-128350002D01*
X89211619Y-128299921D01*
X89198642Y-128259714D01*
X89189017Y-128232849D01*
X89184453Y-128223262D01*
X89167145Y-128214301D01*
X89139379Y-128210357D01*
X89108639Y-128211194D01*
X89082409Y-128216575D01*
X89068172Y-128226263D01*
X89067872Y-128226952D01*
X89033660Y-128226952D01*
X89035221Y-128200400D01*
X88983223Y-128200400D01*
X88935561Y-128204319D01*
X88898287Y-128218221D01*
X88863980Y-128244080D01*
X88841120Y-128264902D01*
X88841120Y-128238538D01*
X88836448Y-128217883D01*
X88818628Y-128207429D01*
X88811944Y-128205766D01*
X88780239Y-128203257D01*
X88756064Y-128206060D01*
X88729360Y-128212762D01*
X88473687Y-128212762D01*
X88469895Y-128211321D01*
X88441785Y-128207004D01*
X88402516Y-128205905D01*
X88389796Y-128205939D01*
X88340207Y-128207790D01*
X88303962Y-128213500D01*
X88274257Y-128224288D01*
X88267080Y-128227908D01*
X88207653Y-128270125D01*
X88163309Y-128325004D01*
X88134745Y-128390854D01*
X88122658Y-128465986D01*
X88018123Y-128465986D01*
X88018135Y-128460065D01*
X88018160Y-128384954D01*
X88017957Y-128282963D01*
X88017320Y-128199893D01*
X88016200Y-128134350D01*
X88014552Y-128084939D01*
X88012329Y-128050266D01*
X88010754Y-128038452D01*
X92084211Y-128038452D01*
X92086862Y-128053218D01*
X92095514Y-128084363D01*
X92109231Y-128129165D01*
X92127078Y-128184903D01*
X92148119Y-128248855D01*
X92171419Y-128318300D01*
X92196043Y-128390516D01*
X92221055Y-128462784D01*
X92245521Y-128532380D01*
X92268505Y-128596583D01*
X92289072Y-128652674D01*
X92306287Y-128697929D01*
X92319213Y-128729627D01*
X92326917Y-128745048D01*
X92327161Y-128745359D01*
X92344678Y-128753953D01*
X92374450Y-128758391D01*
X92408829Y-128758607D01*
X92440168Y-128754536D01*
X92460335Y-128746500D01*
X92468022Y-128733774D01*
X92481218Y-128704529D01*
X92498845Y-128661468D01*
X92519826Y-128607293D01*
X92543084Y-128544709D01*
X92564561Y-128484880D01*
X92571243Y-128465986D01*
X92765778Y-128465986D01*
X92770865Y-128548712D01*
X92772945Y-128560579D01*
X92794794Y-128633641D01*
X92829736Y-128691193D01*
X92877576Y-128733075D01*
X92938123Y-128759125D01*
X93011183Y-128769179D01*
X93021414Y-128769303D01*
X93064253Y-128767713D01*
X93104812Y-128763624D01*
X93131457Y-128758589D01*
X93176393Y-128738073D01*
X93216854Y-128705202D01*
X93248626Y-128664859D01*
X93267500Y-128621926D01*
X93270880Y-128596966D01*
X93268498Y-128584962D01*
X93258108Y-128578759D01*
X93234839Y-128576523D01*
X93216003Y-128576320D01*
X93183558Y-128577273D01*
X93164218Y-128582407D01*
X93150783Y-128595130D01*
X93139852Y-128612378D01*
X93108751Y-128647761D01*
X93069406Y-128667482D01*
X93026033Y-128671930D01*
X92982846Y-128661493D01*
X92944061Y-128636563D01*
X92913892Y-128597527D01*
X92910710Y-128591200D01*
X92901014Y-128569516D01*
X92896803Y-128553251D01*
X92900269Y-128541574D01*
X92913605Y-128533654D01*
X92939004Y-128528659D01*
X92978659Y-128525760D01*
X93034764Y-128524125D01*
X93090132Y-128523210D01*
X93275960Y-128520440D01*
X93275960Y-128453663D01*
X93267319Y-128381615D01*
X93264967Y-128375627D01*
X93371438Y-128375627D01*
X93371651Y-128450448D01*
X93372384Y-128522847D01*
X93373634Y-128590022D01*
X93375401Y-128649170D01*
X93377682Y-128697488D01*
X93380475Y-128732174D01*
X93383778Y-128750423D01*
X93385180Y-128752471D01*
X93409592Y-128757197D01*
X93442155Y-128758097D01*
X93471050Y-128755099D01*
X93478329Y-128753032D01*
X93484433Y-128748114D01*
X93488814Y-128736848D01*
X93491747Y-128716345D01*
X93493511Y-128683712D01*
X93494381Y-128636061D01*
X93494623Y-128582852D01*
X93495608Y-128505731D01*
X93498920Y-128446060D01*
X93505445Y-128401022D01*
X93516070Y-128367797D01*
X93531684Y-128343568D01*
X93553172Y-128325516D01*
X93580065Y-128311420D01*
X93609476Y-128299702D01*
X93630059Y-128296765D01*
X93650998Y-128301982D01*
X93660828Y-128305918D01*
X93687289Y-128321127D01*
X93705649Y-128338957D01*
X93706942Y-128341111D01*
X93711059Y-128359307D01*
X93714317Y-128395542D01*
X93716597Y-128447551D01*
X93717778Y-128513067D01*
X93717920Y-128548220D01*
X93718136Y-128618728D01*
X93719250Y-128671487D01*
X93721955Y-128709065D01*
X93726948Y-128734032D01*
X93734922Y-128748956D01*
X93746574Y-128756408D01*
X93762599Y-128758956D01*
X93775001Y-128759200D01*
X93796199Y-128759154D01*
X93812192Y-128757348D01*
X93823710Y-128751277D01*
X93831480Y-128738437D01*
X93836232Y-128716325D01*
X93838693Y-128682436D01*
X93839593Y-128634266D01*
X93839617Y-128610094D01*
X93983750Y-128610094D01*
X93984007Y-128665364D01*
X93984632Y-128708463D01*
X93985604Y-128736516D01*
X93986661Y-128746325D01*
X93999287Y-128754585D01*
X94024044Y-128758608D01*
X94053179Y-128758345D01*
X94078938Y-128753745D01*
X94091808Y-128747008D01*
X94095979Y-128736138D01*
X94099200Y-128711878D01*
X94101541Y-128672747D01*
X94103070Y-128617262D01*
X94103855Y-128543942D01*
X94104000Y-128484092D01*
X94103992Y-128470646D01*
X94211880Y-128470646D01*
X94212211Y-128527806D01*
X94217259Y-128578901D01*
X94224677Y-128610211D01*
X94255117Y-128668949D01*
X94299927Y-128714856D01*
X94356982Y-128746970D01*
X94424161Y-128764329D01*
X94499339Y-128765970D01*
X94551340Y-128758186D01*
X94603801Y-128738081D01*
X94649897Y-128703931D01*
X94685896Y-128659982D01*
X94708068Y-128610480D01*
X94713376Y-128573780D01*
X94712340Y-128557749D01*
X94705572Y-128549435D01*
X94688077Y-128546308D01*
X94658195Y-128545840D01*
X94602790Y-128545840D01*
X94582885Y-128590838D01*
X94554953Y-128633595D01*
X94517223Y-128658790D01*
X94470648Y-128665862D01*
X94457157Y-128664656D01*
X94425509Y-128656380D01*
X94399596Y-128643006D01*
X94396770Y-128640681D01*
X94364194Y-128598414D01*
X94344287Y-128545416D01*
X94343007Y-128534817D01*
X94837252Y-128534817D01*
X94837346Y-128603972D01*
X94837710Y-128662126D01*
X94838328Y-128706885D01*
X94839187Y-128735858D01*
X94840148Y-128746446D01*
X94853160Y-128754807D01*
X94880956Y-128758969D01*
X94890723Y-128759200D01*
X94922836Y-128756676D01*
X94940930Y-128747747D01*
X94946922Y-128739547D01*
X94950019Y-128723328D01*
X94952618Y-128687824D01*
X94954689Y-128634066D01*
X94956203Y-128563082D01*
X94957130Y-128475905D01*
X94957160Y-128465986D01*
X95061938Y-128465986D01*
X95067025Y-128548712D01*
X95069105Y-128560579D01*
X95090954Y-128633641D01*
X95125896Y-128691193D01*
X95173736Y-128733075D01*
X95234283Y-128759125D01*
X95307343Y-128769179D01*
X95317574Y-128769303D01*
X95360413Y-128767713D01*
X95400972Y-128763624D01*
X95427617Y-128758589D01*
X95472553Y-128738073D01*
X95513014Y-128705202D01*
X95544786Y-128664859D01*
X95563660Y-128621926D01*
X95567040Y-128596966D01*
X95564658Y-128584962D01*
X95554268Y-128578759D01*
X95530999Y-128576523D01*
X95512163Y-128576320D01*
X95479718Y-128577273D01*
X95460378Y-128582407D01*
X95446943Y-128595130D01*
X95436012Y-128612378D01*
X95404911Y-128647761D01*
X95365566Y-128667482D01*
X95322193Y-128671930D01*
X95279006Y-128661493D01*
X95240221Y-128636563D01*
X95210052Y-128597527D01*
X95206870Y-128591200D01*
X95197174Y-128569516D01*
X95192963Y-128553251D01*
X95196429Y-128541574D01*
X95209765Y-128533654D01*
X95235164Y-128528659D01*
X95274819Y-128525760D01*
X95330924Y-128524125D01*
X95386292Y-128523210D01*
X95572120Y-128520440D01*
X95572120Y-128453663D01*
X95563479Y-128381615D01*
X95538502Y-128318042D01*
X95498608Y-128265720D01*
X95461001Y-128236298D01*
X95433397Y-128220528D01*
X95409175Y-128211321D01*
X95381065Y-128207004D01*
X95341796Y-128205905D01*
X95329076Y-128205939D01*
X95279487Y-128207790D01*
X95243242Y-128213500D01*
X95213537Y-128224288D01*
X95206360Y-128227908D01*
X95146933Y-128270125D01*
X95102589Y-128325004D01*
X95074025Y-128390854D01*
X95061938Y-128465986D01*
X94957160Y-128465986D01*
X94957440Y-128375031D01*
X94957451Y-128278425D01*
X94957232Y-128200227D01*
X94956402Y-128138525D01*
X94954579Y-128091410D01*
X94951382Y-128056969D01*
X94946431Y-128033290D01*
X94939345Y-128018464D01*
X94929742Y-128010579D01*
X94917241Y-128007722D01*
X94901462Y-128007984D01*
X94884530Y-128009279D01*
X94840600Y-128012440D01*
X94837927Y-128373066D01*
X94837441Y-128457051D01*
X94837252Y-128534817D01*
X94343007Y-128534817D01*
X94337225Y-128486978D01*
X94343183Y-128428395D01*
X94362334Y-128374959D01*
X94386838Y-128339937D01*
X94425649Y-128310595D01*
X94468579Y-128298360D01*
X94511251Y-128302810D01*
X94549287Y-128323519D01*
X94577438Y-128358415D01*
X94589183Y-128378016D01*
X94601653Y-128388479D01*
X94621291Y-128392666D01*
X94654538Y-128393439D01*
X94656279Y-128393440D01*
X94716258Y-128393440D01*
X94710257Y-128356455D01*
X94693630Y-128307140D01*
X94663139Y-128262560D01*
X94623845Y-128229720D01*
X94615446Y-128225211D01*
X94576810Y-128212720D01*
X94525717Y-128204707D01*
X94469629Y-128201634D01*
X94416007Y-128203962D01*
X94377954Y-128210529D01*
X94332242Y-128231653D01*
X94288466Y-128267509D01*
X94251777Y-128312765D01*
X94227324Y-128362090D01*
X94225290Y-128368601D01*
X94216246Y-128415039D01*
X94211880Y-128470646D01*
X94103992Y-128470646D01*
X94103947Y-128401993D01*
X94103394Y-128338010D01*
X94101750Y-128289936D01*
X94098423Y-128255568D01*
X94092820Y-128232700D01*
X94084350Y-128219128D01*
X94072421Y-128212646D01*
X94056440Y-128211050D01*
X94035817Y-128212135D01*
X94031090Y-128212479D01*
X93987160Y-128215640D01*
X93984440Y-128474545D01*
X93983887Y-128545529D01*
X93983750Y-128610094D01*
X93839617Y-128610094D01*
X93839660Y-128569311D01*
X93839616Y-128537132D01*
X93839353Y-128464884D01*
X93838571Y-128409784D01*
X93837018Y-128368661D01*
X93834445Y-128338345D01*
X93830602Y-128315666D01*
X93825237Y-128297452D01*
X93819597Y-128283781D01*
X93792009Y-128243672D01*
X93751223Y-128217077D01*
X93696183Y-128203535D01*
X93632811Y-128202168D01*
X93590995Y-128206530D01*
X93552600Y-128214148D01*
X93527420Y-128222755D01*
X93494400Y-128239482D01*
X93494400Y-128135613D01*
X93493108Y-128079479D01*
X93489325Y-128040747D01*
X93483189Y-128020729D01*
X93482207Y-128019551D01*
X93477660Y-128017520D01*
X93982080Y-128017520D01*
X93982080Y-128071706D01*
X93983257Y-128103325D01*
X93986279Y-128126005D01*
X93988853Y-128132666D01*
X94004995Y-128138123D01*
X94032225Y-128139399D01*
X94061848Y-128136953D01*
X94085169Y-128131242D01*
X94091808Y-128127248D01*
X94100423Y-128107898D01*
X94103862Y-128078066D01*
X94101526Y-128047070D01*
X94097832Y-128033590D01*
X94087592Y-128023432D01*
X94064251Y-128018470D01*
X94036872Y-128017520D01*
X93982080Y-128017520D01*
X93477660Y-128017520D01*
X93462151Y-128010593D01*
X93432543Y-128007724D01*
X93403218Y-128010944D01*
X93384672Y-128019551D01*
X93381190Y-128032835D01*
X93378242Y-128063318D01*
X93375826Y-128108198D01*
X93373940Y-128164672D01*
X93372581Y-128229937D01*
X93371748Y-128301190D01*
X93371438Y-128375627D01*
X93264967Y-128375627D01*
X93242342Y-128318042D01*
X93202448Y-128265720D01*
X93164841Y-128236298D01*
X93137237Y-128220528D01*
X93113015Y-128211321D01*
X93084905Y-128207004D01*
X93045636Y-128205905D01*
X93032916Y-128205939D01*
X92983327Y-128207790D01*
X92947082Y-128213500D01*
X92917377Y-128224288D01*
X92910200Y-128227908D01*
X92850773Y-128270125D01*
X92806429Y-128325004D01*
X92777865Y-128390854D01*
X92765778Y-128465986D01*
X92571243Y-128465986D01*
X92590262Y-128412216D01*
X92615527Y-128340959D01*
X92639011Y-128274892D01*
X92659368Y-128217794D01*
X92675254Y-128173448D01*
X92682956Y-128152117D01*
X92696564Y-128110554D01*
X92706204Y-128073067D01*
X92710330Y-128045988D01*
X92710212Y-128040357D01*
X92706125Y-128022905D01*
X92695240Y-128014095D01*
X92671676Y-128010211D01*
X92661280Y-128009453D01*
X92627441Y-128010493D01*
X92602490Y-128017267D01*
X92598776Y-128019613D01*
X92591319Y-128032414D01*
X92578663Y-128061984D01*
X92561776Y-128105727D01*
X92541623Y-128161049D01*
X92519173Y-128225356D01*
X92495391Y-128296054D01*
X92492594Y-128304540D01*
X92469304Y-128374765D01*
X92447883Y-128438255D01*
X92429183Y-128492570D01*
X92414058Y-128535271D01*
X92403359Y-128563917D01*
X92397939Y-128576068D01*
X92397617Y-128576319D01*
X92393149Y-128567054D01*
X92383344Y-128540912D01*
X92369056Y-128500366D01*
X92351141Y-128447892D01*
X92330455Y-128385964D01*
X92307853Y-128317057D01*
X92305937Y-128311161D01*
X92282732Y-128240513D01*
X92260873Y-128175497D01*
X92241320Y-128118844D01*
X92225030Y-128073283D01*
X92212960Y-128041543D01*
X92206069Y-128026355D01*
X92205952Y-128026183D01*
X92193273Y-128014154D01*
X92173463Y-128009090D01*
X92140135Y-128009373D01*
X92139654Y-128009401D01*
X92108620Y-128012169D01*
X92092482Y-128017697D01*
X92085815Y-128028826D01*
X92084211Y-128038452D01*
X88010754Y-128038452D01*
X88009484Y-128028937D01*
X88005971Y-128019555D01*
X88005967Y-128019551D01*
X87987755Y-128010942D01*
X87961084Y-128007360D01*
X87961078Y-128007360D01*
X87933814Y-128008066D01*
X87915515Y-128012437D01*
X87904396Y-128023850D01*
X87898669Y-128045682D01*
X87896546Y-128081311D01*
X87896240Y-128129870D01*
X87896240Y-128240046D01*
X87853060Y-128220446D01*
X87797043Y-128204206D01*
X87732662Y-128200061D01*
X87667761Y-128207849D01*
X87614402Y-128225384D01*
X87564426Y-128259456D01*
X87525491Y-128308524D01*
X87498654Y-128369885D01*
X87484974Y-128440836D01*
X87366294Y-128440836D01*
X87366336Y-128406258D01*
X87365541Y-128364607D01*
X87363695Y-128334376D01*
X87360612Y-128312600D01*
X87356106Y-128296315D01*
X87349989Y-128282556D01*
X87349532Y-128281680D01*
X87319947Y-128245886D01*
X87276476Y-128219575D01*
X87223654Y-128203652D01*
X87166017Y-128199019D01*
X87108099Y-128206582D01*
X87060489Y-128224049D01*
X87033022Y-128237407D01*
X87018465Y-128241718D01*
X87011759Y-128237422D01*
X87008764Y-128228540D01*
X87002342Y-128216950D01*
X86987494Y-128212072D01*
X86958690Y-128212266D01*
X86954697Y-128212510D01*
X86905640Y-128215640D01*
X86902924Y-128479092D01*
X86902278Y-128563558D01*
X86747923Y-128563558D01*
X86751667Y-128535671D01*
X86755332Y-128482045D01*
X86757387Y-128414490D01*
X86758229Y-128330469D01*
X86758320Y-128280029D01*
X86758320Y-128017907D01*
X86734491Y-128011926D01*
X86708351Y-128008766D01*
X86675550Y-128008868D01*
X86670991Y-128009193D01*
X86631320Y-128012440D01*
X86626240Y-128281680D01*
X86624586Y-128363584D01*
X86622941Y-128427752D01*
X86621086Y-128476767D01*
X86618808Y-128513210D01*
X86615889Y-128539665D01*
X86612113Y-128558714D01*
X86607266Y-128572939D01*
X86601130Y-128584923D01*
X86600840Y-128585417D01*
X86569099Y-128626733D01*
X86529879Y-128652158D01*
X86478505Y-128664466D01*
X86465558Y-128665656D01*
X86402873Y-128661912D01*
X86350606Y-128641167D01*
X86309630Y-128603821D01*
X86299603Y-128589335D01*
X86292347Y-128576993D01*
X86286693Y-128564375D01*
X86282403Y-128548829D01*
X86279241Y-128527707D01*
X86276969Y-128498359D01*
X86275351Y-128458133D01*
X86274148Y-128404380D01*
X86273125Y-128334451D01*
X86272538Y-128286962D01*
X86271158Y-128198462D01*
X86269344Y-128128973D01*
X86267022Y-128077189D01*
X86264118Y-128041806D01*
X86260560Y-128021516D01*
X86257298Y-128015338D01*
X86237179Y-128009761D01*
X86206660Y-128007900D01*
X86175306Y-128009678D01*
X86152679Y-128015019D01*
X86150531Y-128016185D01*
X86146474Y-128022539D01*
X86143399Y-128037133D01*
X86141236Y-128061965D01*
X86139916Y-128099030D01*
X86139369Y-128150325D01*
X81090469Y-128150325D01*
X81089122Y-128133963D01*
X81089040Y-128123255D01*
X81087557Y-128084674D01*
X81080650Y-128062111D01*
X81064632Y-128051336D01*
X81035815Y-128048122D01*
X81023413Y-128048000D01*
X80997240Y-128051013D01*
X80980457Y-128062445D01*
X80970786Y-128085883D01*
X80965951Y-128124915D01*
X80965120Y-128139829D01*
X80962040Y-128205480D01*
X80923940Y-128208633D01*
X80900299Y-128211621D01*
X80889264Y-128219368D01*
X80886032Y-128237883D01*
X80885840Y-128256280D01*
X80804560Y-128256280D01*
X80804560Y-128209545D01*
X80746140Y-128212592D01*
X80687720Y-128215640D01*
X80682640Y-128393940D01*
X80680431Y-128460972D01*
X80677934Y-128510850D01*
X80674790Y-128546741D01*
X80670638Y-128571812D01*
X80665120Y-128589228D01*
X80659227Y-128600165D01*
X80635654Y-128626617D01*
X80604613Y-128649811D01*
X80573590Y-128664769D01*
X80557675Y-128667722D01*
X80529674Y-128661430D01*
X80499837Y-128645969D01*
X80477480Y-128626612D01*
X80473138Y-128619875D01*
X80470119Y-128604327D01*
X80466986Y-128571984D01*
X80463971Y-128526371D01*
X80461307Y-128471010D01*
X80459227Y-128409426D01*
X80459207Y-128408680D01*
X80454040Y-128215640D01*
X80342280Y-128215640D01*
X80071001Y-128215640D01*
X80058516Y-128183805D01*
X80035961Y-128127487D01*
X80016488Y-128080069D01*
X80001299Y-128044457D01*
X79991595Y-128023554D01*
X79989267Y-128019632D01*
X79971674Y-128011593D01*
X79935995Y-128008899D01*
X79911947Y-128009472D01*
X79845493Y-128012440D01*
X79740708Y-128281680D01*
X79711823Y-128355864D01*
X79683724Y-128427968D01*
X79657727Y-128494617D01*
X79635149Y-128552436D01*
X79617309Y-128598050D01*
X79605561Y-128627984D01*
X79591214Y-128667086D01*
X79580524Y-128701338D01*
X79575393Y-128724500D01*
X79575200Y-128727529D01*
X77502560Y-128727529D01*
X77502560Y-127600960D01*
X79229760Y-127600960D01*
X80753760Y-127600960D01*
X80753977Y-127481580D01*
X80754708Y-127442570D01*
X80756650Y-127387252D01*
X80759584Y-127319589D01*
X80763293Y-127243542D01*
X80767559Y-127163073D01*
X80772165Y-127082145D01*
X80776893Y-127004718D01*
X80781525Y-126934756D01*
X80785845Y-126876220D01*
X80789552Y-126833880D01*
X80795215Y-126780693D01*
X80802650Y-126715425D01*
X80810898Y-126646130D01*
X80819001Y-126580862D01*
X80825808Y-126529080D01*
X80831551Y-126487153D01*
X80836584Y-126450206D01*
X80839962Y-126425173D01*
X80840330Y-126422400D01*
X80846715Y-126378873D01*
X80856014Y-126321516D01*
X80867155Y-126256392D01*
X80879065Y-126189565D01*
X80890673Y-126127097D01*
X80900907Y-126075050D01*
X80905894Y-126051560D01*
X80913217Y-126017819D01*
X80919031Y-125989644D01*
X80920782Y-125980440D01*
X80924872Y-125961596D01*
X80932645Y-125929035D01*
X80942670Y-125888703D01*
X80946469Y-125873760D01*
X80956978Y-125832103D01*
X80965793Y-125796125D01*
X80971464Y-125771773D01*
X80972442Y-125767080D01*
X80977751Y-125745093D01*
X80987933Y-125707789D01*
X81001806Y-125659245D01*
X81018186Y-125603539D01*
X81035890Y-125544750D01*
X81053508Y-125487680D01*
X81066753Y-125445344D01*
X81078537Y-125407627D01*
X81086897Y-125380815D01*
X81088646Y-125375183D01*
X81099130Y-125344311D01*
X81115457Y-125299648D01*
X81135691Y-125246171D01*
X81157893Y-125188861D01*
X81180127Y-125132697D01*
X81200454Y-125082658D01*
X81216939Y-125043724D01*
X81222052Y-125032311D01*
X81236741Y-124999788D01*
X81247321Y-124975218D01*
X81251591Y-124963715D01*
X81251600Y-124963587D01*
X81255903Y-124952936D01*
X81267644Y-124927719D01*
X81285064Y-124891491D01*
X81306405Y-124847807D01*
X81329911Y-124800223D01*
X81353825Y-124752292D01*
X81376388Y-124707571D01*
X81395844Y-124669614D01*
X81410436Y-124641976D01*
X81411887Y-124639320D01*
X81433715Y-124601573D01*
X81457389Y-124563480D01*
X81467627Y-124548061D01*
X81484066Y-124521641D01*
X81494048Y-124500762D01*
X81495440Y-124494721D01*
X81501780Y-124482789D01*
X81505600Y-124481840D01*
X81515399Y-124474053D01*
X81515760Y-124471268D01*
X81521158Y-124456248D01*
X81534234Y-124434345D01*
X81535052Y-124433168D01*
X81548637Y-124413052D01*
X81569815Y-124380865D01*
X81595263Y-124341679D01*
X81612943Y-124314200D01*
X81639675Y-124273640D01*
X81669975Y-124229496D01*
X81701157Y-124185471D01*
X81730535Y-124145269D01*
X81755425Y-124112593D01*
X81773140Y-124091148D01*
X81778705Y-124085600D01*
X81787872Y-124075498D01*
X81805508Y-124054220D01*
X81825136Y-124029720D01*
X81849646Y-124001071D01*
X81886121Y-123961502D01*
X81931642Y-123913922D01*
X81983286Y-123861243D01*
X82038134Y-123806375D01*
X82093266Y-123752229D01*
X82145760Y-123701715D01*
X82192696Y-123657745D01*
X82231154Y-123623228D01*
X82243754Y-123612517D01*
X82429933Y-123464204D01*
X82611568Y-123331973D01*
X82787820Y-123216357D01*
X82957853Y-123117887D01*
X83120829Y-123037094D01*
X83210846Y-122998918D01*
X83386890Y-122938770D01*
X83560777Y-122898760D01*
X83697620Y-122881290D01*
X83781440Y-122874445D01*
X83781491Y-123294602D01*
X83781496Y-123348848D01*
X83781499Y-123422123D01*
X83781502Y-123513135D01*
X83781503Y-123620593D01*
X83781503Y-123743205D01*
X83781502Y-123879681D01*
X83781500Y-124028728D01*
X83781497Y-124189056D01*
X83781492Y-124359373D01*
X83781487Y-124538388D01*
X83781481Y-124724809D01*
X83781474Y-124917345D01*
X83781466Y-125114705D01*
X83781457Y-125315597D01*
X83781447Y-125518731D01*
X83781440Y-125651101D01*
X83781337Y-127587443D01*
X84895591Y-127594201D01*
X85111018Y-127595430D01*
X85328555Y-127596520D01*
X85547142Y-127597474D01*
X85765717Y-127598291D01*
X85983217Y-127598974D01*
X86198580Y-127599522D01*
X86410746Y-127599937D01*
X86618652Y-127600221D01*
X86821236Y-127600373D01*
X87017437Y-127600396D01*
X87206192Y-127600289D01*
X87386440Y-127600055D01*
X87557119Y-127599694D01*
X87717166Y-127599207D01*
X87865521Y-127598596D01*
X88001122Y-127597861D01*
X88122906Y-127597003D01*
X88229811Y-127596023D01*
X88320777Y-127594923D01*
X88394740Y-127593703D01*
X88450640Y-127592364D01*
X88487414Y-127590908D01*
X88490600Y-127590719D01*
X88600501Y-127582834D01*
X88712552Y-127572992D01*
X88822987Y-127561636D01*
X88928043Y-127549212D01*
X89023954Y-127536162D01*
X89106957Y-127522932D01*
X89171320Y-127510402D01*
X89207080Y-127502653D01*
X89248507Y-127493898D01*
X89262760Y-127490941D01*
X89302708Y-127481904D01*
X89358620Y-127468093D01*
X89426953Y-127450428D01*
X89504163Y-127429828D01*
X89586707Y-127407211D01*
X89603465Y-127402549D01*
X89688273Y-127377426D01*
X89785919Y-127346044D01*
X89891896Y-127310041D01*
X90001694Y-127271056D01*
X90110806Y-127230729D01*
X90214724Y-127190699D01*
X90308939Y-127152607D01*
X90388945Y-127118090D01*
X90401881Y-127112203D01*
X90507608Y-127062747D01*
X90607989Y-127014132D01*
X90700371Y-126967718D01*
X90782101Y-126924868D01*
X90850529Y-126886944D01*
X90903002Y-126855307D01*
X90905922Y-126853419D01*
X90929886Y-126838525D01*
X90945992Y-126829772D01*
X90948904Y-126828800D01*
X90961634Y-126823192D01*
X90988331Y-126807533D01*
X91026420Y-126783573D01*
X91073324Y-126753060D01*
X91126468Y-126717742D01*
X91183275Y-126679367D01*
X91241169Y-126639684D01*
X91297575Y-126600442D01*
X91349917Y-126563389D01*
X91395617Y-126530274D01*
X91432101Y-126502844D01*
X91449470Y-126489043D01*
X91465043Y-126476291D01*
X91491829Y-126454427D01*
X91525279Y-126427161D01*
X91543680Y-126412177D01*
X91589745Y-126373001D01*
X91646539Y-126322071D01*
X91710896Y-126262458D01*
X91779647Y-126197232D01*
X91849626Y-126129464D01*
X91861060Y-126118164D01*
X92209160Y-126118164D01*
X92209160Y-127541795D01*
X92233145Y-127561217D01*
X92259357Y-127573300D01*
X92297563Y-127580351D01*
X92341210Y-127582381D01*
X92383749Y-127579400D01*
X92418630Y-127571420D01*
X92437193Y-127560886D01*
X92453152Y-127536648D01*
X92463092Y-127507546D01*
X92464098Y-127491811D01*
X92464963Y-127457533D01*
X92465679Y-127406490D01*
X92466238Y-127340458D01*
X92466633Y-127261214D01*
X92466855Y-127170535D01*
X92466898Y-127070199D01*
X92466753Y-126961981D01*
X92466412Y-126847660D01*
X92466198Y-126796056D01*
X92463161Y-126118164D01*
X92808600Y-126118164D01*
X92808600Y-127541795D01*
X92832585Y-127561217D01*
X92858797Y-127573300D01*
X92897003Y-127580351D01*
X92940650Y-127582381D01*
X92983189Y-127579400D01*
X93018070Y-127571420D01*
X93036633Y-127560886D01*
X93052592Y-127536648D01*
X93062532Y-127507546D01*
X93063538Y-127491811D01*
X93064403Y-127457533D01*
X93065119Y-127406490D01*
X93065678Y-127340458D01*
X93066073Y-127261214D01*
X93066295Y-127170535D01*
X93066338Y-127070199D01*
X93066193Y-126961981D01*
X93065852Y-126847660D01*
X93065638Y-126796056D01*
X93062947Y-126195543D01*
X93244390Y-126195543D01*
X93251397Y-126235209D01*
X93265942Y-126266359D01*
X93281185Y-126280237D01*
X93297191Y-126283478D01*
X93330255Y-126286258D01*
X93377116Y-126288426D01*
X93434514Y-126289830D01*
X93497981Y-126290320D01*
X93560219Y-126290625D01*
X93616115Y-126291477D01*
X93662245Y-126292776D01*
X93695185Y-126294424D01*
X93711511Y-126296322D01*
X93712009Y-126296487D01*
X93715356Y-126299343D01*
X93718209Y-126306139D01*
X93720607Y-126318364D01*
X93722588Y-126337512D01*
X93724192Y-126365072D01*
X93725456Y-126402536D01*
X93726419Y-126451395D01*
X93727121Y-126513141D01*
X93727599Y-126589264D01*
X93727892Y-126681257D01*
X93728040Y-126790609D01*
X93728080Y-126916708D01*
X93728080Y-127530763D01*
X93753018Y-127555701D01*
X93768313Y-127568685D01*
X93785732Y-127576212D01*
X93811147Y-127579717D01*
X93850430Y-127580635D01*
X93855080Y-127580640D01*
X93895979Y-127579892D01*
X93922456Y-127576693D01*
X93940380Y-127569609D01*
X93955625Y-127557203D01*
X93957141Y-127555701D01*
X93982080Y-127530763D01*
X93982080Y-126922733D01*
X93982182Y-126788132D01*
X93982503Y-126672705D01*
X93983067Y-126575307D01*
X93983894Y-126494794D01*
X93985009Y-126430019D01*
X93986433Y-126379839D01*
X93988189Y-126343109D01*
X93990299Y-126318683D01*
X93992786Y-126305417D01*
X93994271Y-126302512D01*
X94006329Y-126297882D01*
X94032975Y-126294428D01*
X94075649Y-126292071D01*
X94135794Y-126290729D01*
X94211586Y-126290320D01*
X94289621Y-126290158D01*
X94349688Y-126288983D01*
X94394140Y-126285755D01*
X94425328Y-126279436D01*
X94445605Y-126268987D01*
X94457323Y-126253372D01*
X94462834Y-126231551D01*
X94464491Y-126202486D01*
X94464615Y-126178633D01*
X94465113Y-126155391D01*
X94465563Y-126135594D01*
X94464465Y-126118968D01*
X94462517Y-126112520D01*
X94651542Y-126112520D01*
X94652622Y-127534920D01*
X94678597Y-127557780D01*
X94696770Y-127570552D01*
X94718859Y-127577561D01*
X94751335Y-127580348D01*
X94774560Y-127580640D01*
X94814674Y-127579506D01*
X94841282Y-127574988D01*
X94861127Y-127565408D01*
X94873053Y-127556136D01*
X94901560Y-127531633D01*
X94907678Y-127053083D01*
X95005170Y-126961584D01*
X95041854Y-126928021D01*
X95073450Y-126900739D01*
X95096988Y-126882183D01*
X95109499Y-126874798D01*
X95110438Y-126874889D01*
X95117862Y-126883937D01*
X95135800Y-126907750D01*
X95162959Y-126944559D01*
X95198046Y-126992590D01*
X95239770Y-127050072D01*
X95286836Y-127115232D01*
X95337954Y-127186300D01*
X95358556Y-127215023D01*
X95428641Y-127312134D01*
X95488797Y-127394065D01*
X95538772Y-127460489D01*
X95578314Y-127511077D01*
X95607171Y-127545502D01*
X95625090Y-127563436D01*
X95628185Y-127565495D01*
X95660619Y-127575044D01*
X95712182Y-127579925D01*
X95749415Y-127580640D01*
X95795068Y-127580003D01*
X95825231Y-127577515D01*
X95844711Y-127572304D01*
X95858315Y-127563501D01*
X95861680Y-127560320D01*
X95876866Y-127538675D01*
X95882000Y-127520861D01*
X95879117Y-127508709D01*
X95869855Y-127489474D01*
X95853292Y-127461788D01*
X95828508Y-127424282D01*
X95794582Y-127375589D01*
X95750593Y-127314340D01*
X95695619Y-127239166D01*
X95658955Y-127189480D01*
X95615817Y-127131096D01*
X95569394Y-127068148D01*
X95521533Y-127003151D01*
X95474079Y-126938618D01*
X95428879Y-126877065D01*
X95387778Y-126821005D01*
X95352622Y-126772954D01*
X95325258Y-126735424D01*
X95307531Y-126710932D01*
X95304221Y-126706296D01*
X95297959Y-126694055D01*
X95300326Y-126681846D01*
X95313652Y-126664946D01*
X95335263Y-126643441D01*
X95353838Y-126625567D01*
X95384825Y-126595749D01*
X95425993Y-126556134D01*
X95475113Y-126508867D01*
X95529954Y-126456094D01*
X95588287Y-126399962D01*
X95610781Y-126378316D01*
X95678684Y-126312750D01*
X95732992Y-126259496D01*
X95774895Y-126216925D01*
X95805580Y-126183407D01*
X95826237Y-126157315D01*
X95838055Y-126137018D01*
X95842222Y-126120887D01*
X95839927Y-126107294D01*
X95832359Y-126094609D01*
X95824545Y-126085380D01*
X95804482Y-126075050D01*
X95770011Y-126068363D01*
X95726712Y-126065317D01*
X95680167Y-126065910D01*
X95635958Y-126070140D01*
X95599667Y-126078004D01*
X95582280Y-126085475D01*
X95568740Y-126096402D01*
X95542432Y-126120077D01*
X95505005Y-126154929D01*
X95458110Y-126199386D01*
X95403397Y-126251878D01*
X95342516Y-126310835D01*
X95277117Y-126374685D01*
X95235434Y-126415637D01*
X95169119Y-126480809D01*
X95107243Y-126541358D01*
X95051306Y-126595834D01*
X95002808Y-126642789D01*
X94963248Y-126680774D01*
X94934127Y-126708341D01*
X94916944Y-126724041D01*
X94912854Y-126727200D01*
X94911236Y-126717470D01*
X94909771Y-126690003D01*
X94908516Y-126647380D01*
X94907529Y-126592184D01*
X94906867Y-126526996D01*
X94906588Y-126454399D01*
X94906583Y-126445260D01*
X94906169Y-126360841D01*
X94905017Y-126285383D01*
X94903210Y-126221321D01*
X94900828Y-126171089D01*
X94897955Y-126137121D01*
X94895812Y-126124736D01*
X94884689Y-126098141D01*
X94866473Y-126080829D01*
X94837389Y-126071070D01*
X94793662Y-126067133D01*
X94769385Y-126066800D01*
X94729661Y-126068321D01*
X94703135Y-126074049D01*
X94682833Y-126085729D01*
X94678057Y-126089660D01*
X94651542Y-126112520D01*
X94462517Y-126112520D01*
X94460317Y-126105238D01*
X94451620Y-126094130D01*
X94436873Y-126085368D01*
X94414576Y-126078678D01*
X94383227Y-126073784D01*
X94341328Y-126070413D01*
X94287376Y-126068289D01*
X94219873Y-126067138D01*
X94137316Y-126066684D01*
X94038207Y-126066653D01*
X93921043Y-126066771D01*
X93853954Y-126066800D01*
X93732689Y-126066823D01*
X93630114Y-126066928D01*
X93544597Y-126067172D01*
X93474507Y-126067608D01*
X93418214Y-126068291D01*
X93374086Y-126069277D01*
X93340494Y-126070619D01*
X93315805Y-126072374D01*
X93298390Y-126074595D01*
X93286616Y-126077338D01*
X93278854Y-126080657D01*
X93273473Y-126084608D01*
X93271612Y-126086387D01*
X93254197Y-126115038D01*
X93245223Y-126153455D01*
X93244390Y-126195543D01*
X93062947Y-126195543D01*
X93062600Y-126118152D01*
X93039462Y-126095016D01*
X93025047Y-126083141D01*
X93007569Y-126076149D01*
X92981494Y-126072809D01*
X92941285Y-126071886D01*
X92935630Y-126071880D01*
X92893481Y-126072608D01*
X92866087Y-126075616D01*
X92847909Y-126082137D01*
X92833410Y-126093406D01*
X92831768Y-126095022D01*
X92808600Y-126118164D01*
X92463161Y-126118164D01*
X92463160Y-126118152D01*
X92440022Y-126095016D01*
X92425607Y-126083141D01*
X92408129Y-126076149D01*
X92382054Y-126072809D01*
X92341845Y-126071886D01*
X92336190Y-126071880D01*
X92294041Y-126072608D01*
X92266647Y-126075616D01*
X92248469Y-126082137D01*
X92233970Y-126093406D01*
X92232328Y-126095022D01*
X92209160Y-126118164D01*
X91861060Y-126118164D01*
X91917664Y-126062224D01*
X91980594Y-125998583D01*
X92035249Y-125941612D01*
X92078461Y-125894382D01*
X92082160Y-125890166D01*
X92118801Y-125848304D01*
X92152553Y-125809963D01*
X92180253Y-125778724D01*
X92198736Y-125758164D01*
X92202017Y-125754607D01*
X92222619Y-125729962D01*
X92245437Y-125699053D01*
X92251627Y-125689940D01*
X92268368Y-125666442D01*
X92280891Y-125652080D01*
X92284170Y-125650016D01*
X92292842Y-125642156D01*
X92308450Y-125622185D01*
X92320920Y-125604318D01*
X92339189Y-125578995D01*
X92353594Y-125562476D01*
X92359020Y-125558822D01*
X92366316Y-125550884D01*
X92366640Y-125547684D01*
X92372428Y-125534657D01*
X92387693Y-125510629D01*
X92409281Y-125480519D01*
X92412031Y-125476882D01*
X92439412Y-125439826D01*
X92466011Y-125402105D01*
X92484379Y-125374495D01*
X92502000Y-125347280D01*
X92516188Y-125326576D01*
X92520542Y-125320836D01*
X92528976Y-125308564D01*
X92545633Y-125282693D01*
X92568176Y-125246984D01*
X92594270Y-125205199D01*
X92621580Y-125161099D01*
X92647768Y-125118447D01*
X92670499Y-125081005D01*
X92687438Y-125052534D01*
X92691374Y-125045720D01*
X92705505Y-125020609D01*
X92724837Y-124985839D01*
X92742245Y-124954280D01*
X92760497Y-124921733D01*
X92775792Y-124895672D01*
X92784596Y-124882057D01*
X92795584Y-124864251D01*
X92813516Y-124830671D01*
X92837070Y-124784104D01*
X92864925Y-124727338D01*
X92895759Y-124663163D01*
X92928250Y-124594367D01*
X92961077Y-124523737D01*
X92992919Y-124454063D01*
X93022453Y-124388132D01*
X93048359Y-124328733D01*
X93060957Y-124298960D01*
X93088257Y-124233338D01*
X93107752Y-124186117D01*
X93119568Y-124156991D01*
X93123560Y-124146560D01*
X93128358Y-124134350D01*
X93135903Y-124116080D01*
X93154943Y-124070538D01*
X93167420Y-124040379D01*
X93174677Y-124022268D01*
X93178055Y-124012866D01*
X93178882Y-124009167D01*
X93182652Y-123997482D01*
X93191615Y-123974604D01*
X93194563Y-123967470D01*
X93204526Y-123940668D01*
X93209710Y-123920940D01*
X93209920Y-123918412D01*
X93215109Y-123901361D01*
X93216987Y-123899039D01*
X93225768Y-123883154D01*
X93226752Y-123879565D01*
X93230746Y-123866500D01*
X93240296Y-123837359D01*
X93254353Y-123795285D01*
X93271865Y-123743419D01*
X93291782Y-123684902D01*
X93294732Y-123676271D01*
X93314710Y-123617672D01*
X93332256Y-123565856D01*
X93346368Y-123523808D01*
X93356046Y-123494516D01*
X93360288Y-123480966D01*
X93360396Y-123480452D01*
X93363309Y-123468971D01*
X93370611Y-123443444D01*
X93380757Y-123409259D01*
X93381384Y-123407181D01*
X93397689Y-123352644D01*
X93412756Y-123301411D01*
X93425437Y-123257454D01*
X93434588Y-123224746D01*
X93439063Y-123207261D01*
X93439162Y-123206760D01*
X93442661Y-123192748D01*
X93450238Y-123164599D01*
X93460431Y-123127722D01*
X93463360Y-123117263D01*
X93474285Y-123077684D01*
X93483212Y-123044120D01*
X93488533Y-123022644D01*
X93489073Y-123020078D01*
X93493141Y-123001235D01*
X93500336Y-122969825D01*
X93508101Y-122936855D01*
X93518732Y-122891247D01*
X93529538Y-122843287D01*
X93535561Y-122815600D01*
X93544522Y-122773655D01*
X93553708Y-122731019D01*
X93557405Y-122714000D01*
X93564214Y-122681451D01*
X93569373Y-122654445D01*
X93570450Y-122647960D01*
X93573995Y-122627209D01*
X93579985Y-122594598D01*
X93585296Y-122566680D01*
X93607863Y-122444961D01*
X93626309Y-122333393D01*
X93641927Y-122223236D01*
X93656010Y-122105748D01*
X93662681Y-122043440D01*
X93677010Y-121892353D01*
X93687167Y-121753255D01*
X93693581Y-121618343D01*
X93696679Y-121479814D01*
X93697101Y-121416060D01*
X93697600Y-121210320D01*
X92163440Y-121210320D01*
X92163062Y-121339860D01*
X92162254Y-121395842D01*
X92160242Y-121467311D01*
X92157235Y-121549480D01*
X92153444Y-121637565D01*
X92149081Y-121726781D01*
X92144354Y-121812342D01*
X92139475Y-121889464D01*
X92137932Y-121911360D01*
X92133317Y-121966786D01*
X92126734Y-122035198D01*
X92118937Y-122109446D01*
X92110679Y-122182379D01*
X92102714Y-122246845D01*
X92102072Y-122251720D01*
X92096282Y-122295559D01*
X92090926Y-122336247D01*
X92087052Y-122365829D01*
X92086696Y-122368560D01*
X92080795Y-122409461D01*
X92072088Y-122464185D01*
X92061551Y-122527113D01*
X92050162Y-122592628D01*
X92038898Y-122655109D01*
X92028737Y-122708941D01*
X92020656Y-122748503D01*
X92020423Y-122749560D01*
X92013048Y-122783310D01*
X92007052Y-122811489D01*
X92005177Y-122820680D01*
X92000211Y-122843681D01*
X91993011Y-122874765D01*
X91991364Y-122881640D01*
X91982619Y-122918895D01*
X91973377Y-122959728D01*
X91971555Y-122968000D01*
X91962762Y-123005545D01*
X91951738Y-123049193D01*
X91946298Y-123069600D01*
X91923091Y-123153913D01*
X91904858Y-123218671D01*
X91891612Y-123263832D01*
X91883364Y-123289356D01*
X91881891Y-123293120D01*
X91874428Y-123316535D01*
X91873037Y-123323600D01*
X91868490Y-123340437D01*
X91858778Y-123369836D01*
X91846205Y-123404880D01*
X91833633Y-123438946D01*
X91824080Y-123465298D01*
X91819575Y-123478338D01*
X91819548Y-123478433D01*
X91810077Y-123508217D01*
X91794987Y-123551266D01*
X91776362Y-123602041D01*
X91756285Y-123655002D01*
X91736839Y-123704610D01*
X91720108Y-123745325D01*
X91713474Y-123760480D01*
X91694188Y-123803695D01*
X91673671Y-123850608D01*
X91664568Y-123871799D01*
X91651292Y-123901092D01*
X91631057Y-123943421D01*
X91606293Y-123993801D01*
X91579431Y-124047247D01*
X91570453Y-124064839D01*
X91544935Y-124114698D01*
X91521981Y-124159671D01*
X91503537Y-124195932D01*
X91491552Y-124219658D01*
X91488788Y-124225220D01*
X91477612Y-124242586D01*
X91470020Y-124248080D01*
X91463142Y-124256366D01*
X91462400Y-124262553D01*
X91457848Y-124277744D01*
X91454780Y-124280333D01*
X91446193Y-124290580D01*
X91432274Y-124313295D01*
X91421760Y-124332650D01*
X91404131Y-124364055D01*
X91387223Y-124390103D01*
X91379822Y-124399471D01*
X91363230Y-124423666D01*
X91356278Y-124439441D01*
X91347798Y-124456746D01*
X91341426Y-124461520D01*
X91332069Y-124469733D01*
X91321246Y-124488593D01*
X91307244Y-124512948D01*
X91282321Y-124549853D01*
X91248718Y-124596377D01*
X91208676Y-124649587D01*
X91164436Y-124706555D01*
X91118241Y-124764348D01*
X91072332Y-124820036D01*
X91029429Y-124870143D01*
X90974208Y-124929797D01*
X90905943Y-124998229D01*
X90828078Y-125072342D01*
X90744059Y-125149041D01*
X90657332Y-125225230D01*
X90571342Y-125297814D01*
X90489536Y-125363698D01*
X90427503Y-125410912D01*
X90402519Y-125430369D01*
X90373114Y-125454662D01*
X90364895Y-125461712D01*
X90333143Y-125488400D01*
X90298335Y-125516459D01*
X90289646Y-125523240D01*
X90259691Y-125546617D01*
X90231660Y-125568872D01*
X90223831Y-125575199D01*
X90149517Y-125633187D01*
X90065566Y-125694335D01*
X89976786Y-125755436D01*
X89887988Y-125813284D01*
X89803981Y-125864673D01*
X89729576Y-125906396D01*
X89717961Y-125912434D01*
X89604164Y-125964328D01*
X89480872Y-126009229D01*
X89356372Y-126044403D01*
X89257680Y-126064310D01*
X89140840Y-126082894D01*
X89143421Y-123653333D01*
X89146003Y-121223772D01*
X88793781Y-121217046D01*
X88691341Y-121215325D01*
X88574863Y-121213767D01*
X88450628Y-121212431D01*
X88324919Y-121211373D01*
X88204017Y-121210654D01*
X88094205Y-121210331D01*
X88071453Y-121210319D01*
X87701347Y-121210319D01*
X87708229Y-122020579D01*
X87709294Y-122154452D01*
X87710219Y-122287840D01*
X87710997Y-122418545D01*
X87711620Y-122544371D01*
X87712081Y-122663118D01*
X87712374Y-122772588D01*
X87712490Y-122870583D01*
X87712422Y-122954905D01*
X87712164Y-123023355D01*
X87711708Y-123073737D01*
X87711695Y-123074680D01*
X87710918Y-123135222D01*
X87710271Y-123197640D01*
X87709756Y-123263225D01*
X87709375Y-123333269D01*
X87709133Y-123409065D01*
X87709030Y-123491904D01*
X87709070Y-123583079D01*
X87709255Y-123683880D01*
X87709588Y-123795602D01*
X87710071Y-123919535D01*
X87710708Y-124056971D01*
X87711500Y-124209203D01*
X87712450Y-124377523D01*
X87713561Y-124563222D01*
X87714835Y-124767594D01*
X87715215Y-124827280D01*
X87716018Y-124965323D01*
X87716662Y-125101406D01*
X87717145Y-125233617D01*
X87717467Y-125360044D01*
X87717628Y-125478772D01*
X87717626Y-125587891D01*
X87717462Y-125685487D01*
X87717134Y-125769649D01*
X87716643Y-125838462D01*
X87715987Y-125890016D01*
X87715515Y-125911860D01*
X87710140Y-126107440D01*
X85203840Y-126107440D01*
X85203840Y-121210320D01*
X85043820Y-121210667D01*
X84915797Y-121212563D01*
X84776377Y-121217505D01*
X84629802Y-121225163D01*
X84480316Y-121235207D01*
X84332162Y-121247306D01*
X84189584Y-121261131D01*
X84056824Y-121276350D01*
X83938126Y-121292634D01*
X83888120Y-121300610D01*
X83803175Y-121315025D01*
X83732323Y-121327426D01*
X83670456Y-121338848D01*
X83612465Y-121350323D01*
X83553240Y-121362886D01*
X83487674Y-121377571D01*
X83410658Y-121395412D01*
X83354720Y-121408558D01*
X83282983Y-121426523D01*
X83202252Y-121448525D01*
X83116005Y-121473457D01*
X83027720Y-121500213D01*
X82940875Y-121527688D01*
X82858947Y-121554775D01*
X82785416Y-121580369D01*
X82723759Y-121603362D01*
X82677454Y-121622650D01*
X82668920Y-121626649D01*
X82647939Y-121635855D01*
X82616601Y-121648603D01*
X82596527Y-121656431D01*
X82530553Y-121683481D01*
X82452063Y-121718519D01*
X82365433Y-121759347D01*
X82275038Y-121803769D01*
X82185253Y-121849586D01*
X82100454Y-121894601D01*
X82025015Y-121936617D01*
X81963311Y-121973436D01*
X81955245Y-121978544D01*
X81926671Y-121996430D01*
X81905619Y-122008874D01*
X81897259Y-122012960D01*
X81886249Y-122018584D01*
X81861578Y-122034159D01*
X81826055Y-122057734D01*
X81782490Y-122087360D01*
X81733694Y-122121088D01*
X81682475Y-122156968D01*
X81631645Y-122193051D01*
X81584012Y-122227387D01*
X81542388Y-122258026D01*
X81523560Y-122272224D01*
X81465825Y-122317958D01*
X81399093Y-122373619D01*
X81326623Y-122436246D01*
X81251673Y-122502882D01*
X81177503Y-122570565D01*
X81107371Y-122636336D01*
X81044536Y-122697236D01*
X80992255Y-122750305D01*
X80966002Y-122778613D01*
X80931695Y-122816623D01*
X80900428Y-122850762D01*
X80875730Y-122877208D01*
X80861455Y-122891833D01*
X80843568Y-122910754D01*
X80819210Y-122938803D01*
X80799480Y-122962725D01*
X80771483Y-122996295D01*
X80742568Y-123029051D01*
X80726158Y-123046511D01*
X80708085Y-123066028D01*
X80699150Y-123077987D01*
X80699271Y-123079760D01*
X80696918Y-123086506D01*
X80684265Y-123103555D01*
X80676072Y-123113335D01*
X80650266Y-123144401D01*
X80624852Y-123176731D01*
X80621680Y-123180946D01*
X80605813Y-123202135D01*
X80588207Y-123225467D01*
X80565354Y-123255574D01*
X80533747Y-123297088D01*
X80532901Y-123298200D01*
X80523177Y-123311973D01*
X80506651Y-123336254D01*
X80494708Y-123354080D01*
X80476772Y-123380506D01*
X80463365Y-123399344D01*
X80458926Y-123404880D01*
X80451330Y-123415262D01*
X80435795Y-123438435D01*
X80415241Y-123470014D01*
X80408144Y-123481080D01*
X80386350Y-123514209D01*
X80368206Y-123540011D01*
X80356765Y-123554201D01*
X80355026Y-123555586D01*
X80347418Y-123567187D01*
X80347360Y-123568374D01*
X80341818Y-123581412D01*
X80327665Y-123604351D01*
X80316880Y-123619852D01*
X80299295Y-123646656D01*
X80288283Y-123668309D01*
X80286400Y-123675644D01*
X80280390Y-123688156D01*
X80276240Y-123689360D01*
X80266369Y-123696475D01*
X80266080Y-123698680D01*
X80261220Y-123711175D01*
X80248268Y-123736385D01*
X80229668Y-123769647D01*
X80222173Y-123782500D01*
X80156551Y-123897884D01*
X80088898Y-124024154D01*
X80022725Y-124154410D01*
X79961539Y-124281750D01*
X79910480Y-124395480D01*
X79901952Y-124414635D01*
X79887857Y-124445641D01*
X79871187Y-124481916D01*
X79870551Y-124483292D01*
X79855273Y-124517762D01*
X79844154Y-124545540D01*
X79839400Y-124561077D01*
X79839360Y-124561723D01*
X79834713Y-124576957D01*
X79823158Y-124601291D01*
X79819171Y-124608605D01*
X79806672Y-124631633D01*
X79799957Y-124645525D01*
X79799566Y-124647014D01*
X79796683Y-124657105D01*
X79788893Y-124678252D01*
X79788228Y-124679960D01*
X79760311Y-124752346D01*
X79731033Y-124830040D01*
X79701404Y-124910192D01*
X79672436Y-124989951D01*
X79645142Y-125066467D01*
X79620532Y-125136892D01*
X79599618Y-125198374D01*
X79583411Y-125248064D01*
X79572923Y-125283113D01*
X79570058Y-125294640D01*
X79564111Y-125314643D01*
X79554655Y-125340360D01*
X79544651Y-125368796D01*
X79533461Y-125405421D01*
X79528974Y-125421640D01*
X79520078Y-125454576D01*
X79507776Y-125499405D01*
X79494176Y-125548462D01*
X79488450Y-125568960D01*
X79471227Y-125630549D01*
X79458650Y-125675803D01*
X79449848Y-125707942D01*
X79443950Y-125730187D01*
X79440082Y-125745758D01*
X79437577Y-125756920D01*
X79432417Y-125779934D01*
X79425149Y-125811034D01*
X79423515Y-125817880D01*
X79416382Y-125848517D01*
X79406961Y-125890123D01*
X79397264Y-125933806D01*
X79397064Y-125934720D01*
X79387428Y-125978344D01*
X79378092Y-126020087D01*
X79371045Y-126051061D01*
X79370929Y-126051560D01*
X79363256Y-126087381D01*
X79353284Y-126137819D01*
X79342008Y-126197441D01*
X79330426Y-126260813D01*
X79319533Y-126322499D01*
X79310326Y-126377068D01*
X79304799Y-126412240D01*
X79277976Y-126606983D01*
X79257605Y-126788698D01*
X79243209Y-126963462D01*
X79234313Y-127137349D01*
X79230442Y-127316434D01*
X79230199Y-127364740D01*
X79229760Y-127600960D01*
X77502560Y-127600960D01*
X77502560Y-120885200D01*
X97497440Y-120885200D01*
X97497440Y-129114800D01*
X97497440Y-129114800D01*
G37*
X97497440Y-129114800D02*
X77502560Y-129114800D01*
X77502560Y-128727529D01*
X79575200Y-128727529D01*
X79576671Y-128739742D01*
X79584186Y-128746125D01*
X79602390Y-128748105D01*
X79635932Y-128747109D01*
X79638561Y-128746984D01*
X79701923Y-128743960D01*
X79781421Y-128535680D01*
X79911904Y-128535680D01*
X79967021Y-128535520D01*
X80005872Y-128536809D01*
X80032477Y-128542197D01*
X80050854Y-128554336D01*
X80065022Y-128575875D01*
X80079000Y-128609466D01*
X80096749Y-128657600D01*
X80128920Y-128743960D01*
X80192551Y-128746988D01*
X80229653Y-128747590D01*
X80251029Y-128744450D01*
X80261057Y-128736775D01*
X80262182Y-128734381D01*
X80260804Y-128719605D01*
X80252840Y-128690014D01*
X80239519Y-128649548D01*
X80222066Y-128602151D01*
X80216977Y-128589113D01*
X80197181Y-128538817D01*
X80172137Y-128474912D01*
X80143932Y-128402741D01*
X80114653Y-128327646D01*
X80086388Y-128254968D01*
X80082953Y-128246120D01*
X80071001Y-128215640D01*
X80342280Y-128215640D01*
X80342280Y-128434080D01*
X80342413Y-128506976D01*
X80342974Y-128562526D01*
X80344204Y-128603703D01*
X80346343Y-128633480D01*
X80349631Y-128654829D01*
X80354309Y-128670723D01*
X80360619Y-128684136D01*
X80362842Y-128688080D01*
X80395824Y-128725903D01*
X80441900Y-128752259D01*
X80496828Y-128766275D01*
X80556364Y-128767082D01*
X80616266Y-128753809D01*
X80638689Y-128744685D01*
X80669508Y-128731403D01*
X80686953Y-128727329D01*
X80695359Y-128731712D01*
X80696790Y-128734624D01*
X80710432Y-128744644D01*
X80742158Y-128748858D01*
X80753441Y-128749040D01*
X80804560Y-128749040D01*
X80804560Y-128256280D01*
X80885840Y-128256280D01*
X80886723Y-128283961D01*
X80892575Y-128297331D01*
X80908200Y-128302398D01*
X80923940Y-128303926D01*
X80962040Y-128307080D01*
X80972200Y-128700012D01*
X81001164Y-128724920D01*
X81017550Y-128737360D01*
X81034592Y-128744515D01*
X81058049Y-128747519D01*
X81093680Y-128747503D01*
X81112924Y-128746894D01*
X81153708Y-128745196D01*
X81178454Y-128742622D01*
X81191429Y-128737610D01*
X81196906Y-128728596D01*
X81198994Y-128715405D01*
X81195666Y-128683020D01*
X81176809Y-128663730D01*
X81144033Y-128657600D01*
X81113451Y-128651674D01*
X81099557Y-128637947D01*
X81095021Y-128619382D01*
X81091743Y-128586001D01*
X81089700Y-128542283D01*
X81088869Y-128492704D01*
X81089126Y-128456063D01*
X81265180Y-128456063D01*
X81266317Y-128529905D01*
X81282584Y-128603769D01*
X81313128Y-128666584D01*
X81356449Y-128716161D01*
X81411048Y-128750307D01*
X81419434Y-128753704D01*
X81454941Y-128762011D01*
X81502170Y-128766166D01*
X81554549Y-128766346D01*
X81605506Y-128762730D01*
X81648469Y-128755495D01*
X81673451Y-128746816D01*
X81726798Y-128707621D01*
X81767774Y-128654543D01*
X81795363Y-128590552D01*
X81800310Y-128563558D01*
X81913718Y-128563558D01*
X81913771Y-128629637D01*
X81914595Y-128679252D01*
X81916261Y-128714327D01*
X81918843Y-128736784D01*
X81922411Y-128748547D01*
X81924524Y-128750978D01*
X81942009Y-128755581D01*
X81970722Y-128757164D01*
X81983120Y-128756766D01*
X82028840Y-128754120D01*
X82033920Y-128576320D01*
X82036230Y-128507984D01*
X82038941Y-128456773D01*
X82042401Y-128419494D01*
X82046959Y-128392953D01*
X82052965Y-128373954D01*
X82056951Y-128365671D01*
X82085428Y-128331444D01*
X82123852Y-128308958D01*
X82166346Y-128300258D01*
X82207033Y-128307389D01*
X82214458Y-128310906D01*
X82230055Y-128320978D01*
X82241981Y-128334171D01*
X82250824Y-128353255D01*
X82257172Y-128380998D01*
X82261615Y-128420171D01*
X82264739Y-128473544D01*
X82267134Y-128543885D01*
X82267600Y-128561080D01*
X82272680Y-128754120D01*
X82374280Y-128754120D01*
X82376964Y-128535680D01*
X82377709Y-128462294D01*
X82377716Y-128456063D01*
X82494540Y-128456063D01*
X82495677Y-128529905D01*
X82511944Y-128603769D01*
X82542488Y-128666584D01*
X82585809Y-128716161D01*
X82640408Y-128750307D01*
X82648794Y-128753704D01*
X82684301Y-128762011D01*
X82731530Y-128766166D01*
X82783909Y-128766346D01*
X82834866Y-128762730D01*
X82877829Y-128755495D01*
X82902811Y-128746816D01*
X82956158Y-128707621D01*
X82997134Y-128654543D01*
X83013533Y-128616506D01*
X83142758Y-128616506D01*
X83143164Y-128662951D01*
X83144334Y-128696312D01*
X83146399Y-128718999D01*
X83149487Y-128733424D01*
X83153730Y-128741998D01*
X83158360Y-128746500D01*
X83189201Y-128757948D01*
X83225301Y-128755737D01*
X83243627Y-128748682D01*
X83250855Y-128743477D01*
X83256061Y-128734776D01*
X83259574Y-128719551D01*
X83261723Y-128694771D01*
X83262835Y-128657407D01*
X83263240Y-128604429D01*
X83263280Y-128567305D01*
X83263436Y-128504103D01*
X83264168Y-128457735D01*
X83265868Y-128424714D01*
X83268931Y-128401553D01*
X83273749Y-128384766D01*
X83280716Y-128370867D01*
X83286454Y-128361922D01*
X83311506Y-128333546D01*
X83341955Y-128310034D01*
X83345379Y-128308090D01*
X83370829Y-128296235D01*
X83389528Y-128294929D01*
X83410807Y-128303010D01*
X83429026Y-128313353D01*
X83442781Y-128326438D01*
X83452692Y-128345062D01*
X83459378Y-128372021D01*
X83463460Y-128410114D01*
X83465556Y-128462135D01*
X83466286Y-128530883D01*
X83466330Y-128553677D01*
X83466480Y-128739315D01*
X83491102Y-128750534D01*
X83519247Y-128756560D01*
X83552062Y-128754936D01*
X83588400Y-128748119D01*
X83588437Y-128568239D01*
X83588647Y-128502522D01*
X83589458Y-128453767D01*
X83591195Y-128418621D01*
X83594179Y-128393729D01*
X83598734Y-128375735D01*
X83605182Y-128361285D01*
X83608980Y-128354728D01*
X83638360Y-128321635D01*
X83674824Y-128302353D01*
X83713441Y-128297825D01*
X83749283Y-128308996D01*
X83767992Y-128324269D01*
X83774511Y-128333576D01*
X83779507Y-128347124D01*
X83783290Y-128367795D01*
X83786168Y-128398471D01*
X83788452Y-128442032D01*
X83790450Y-128501360D01*
X83791600Y-128544108D01*
X83796680Y-128743506D01*
X83824620Y-128753314D01*
X83864776Y-128757159D01*
X83880500Y-128753303D01*
X83908440Y-128743484D01*
X83911072Y-128530362D01*
X83911787Y-128457506D01*
X83911787Y-128456063D01*
X84018540Y-128456063D01*
X84019677Y-128529905D01*
X84035944Y-128603769D01*
X84066488Y-128666584D01*
X84109809Y-128716161D01*
X84164408Y-128750307D01*
X84172794Y-128753704D01*
X84208301Y-128762011D01*
X84255530Y-128766166D01*
X84307909Y-128766346D01*
X84358866Y-128762730D01*
X84401829Y-128755495D01*
X84426811Y-128746816D01*
X84480158Y-128707621D01*
X84521134Y-128654543D01*
X84548723Y-128590552D01*
X84561907Y-128518617D01*
X84559671Y-128441708D01*
X84549190Y-128389435D01*
X84523040Y-128322710D01*
X84484246Y-128271164D01*
X84431481Y-128233101D01*
X84424072Y-128229322D01*
X84382170Y-128215640D01*
X84670440Y-128215640D01*
X84670440Y-128434080D01*
X84670573Y-128506976D01*
X84671134Y-128562526D01*
X84672364Y-128603703D01*
X84674503Y-128633480D01*
X84677791Y-128654829D01*
X84682469Y-128670723D01*
X84688779Y-128684136D01*
X84691002Y-128688080D01*
X84723984Y-128725903D01*
X84770060Y-128752259D01*
X84824988Y-128766275D01*
X84884524Y-128767082D01*
X84944426Y-128753809D01*
X84966849Y-128744685D01*
X84997668Y-128731403D01*
X85015113Y-128727329D01*
X85023519Y-128731712D01*
X85024950Y-128734624D01*
X85038592Y-128744644D01*
X85070318Y-128748858D01*
X85081601Y-128749040D01*
X85132720Y-128749040D01*
X85132720Y-128611656D01*
X85234930Y-128611656D01*
X85238772Y-128642586D01*
X85254176Y-128679322D01*
X85283327Y-128715262D01*
X85320376Y-128744234D01*
X85347034Y-128756787D01*
X85372765Y-128761677D01*
X85412444Y-128764914D01*
X85459735Y-128766080D01*
X85483240Y-128765781D01*
X85535801Y-128763493D01*
X85573779Y-128759134D01*
X85602877Y-128751716D01*
X85627871Y-128740739D01*
X85670103Y-128711715D01*
X85695920Y-128675135D01*
X85708544Y-128626148D01*
X85709462Y-128617812D01*
X85709020Y-128569555D01*
X85696315Y-128530090D01*
X85669613Y-128497742D01*
X85627181Y-128470836D01*
X85567287Y-128447696D01*
X85519517Y-128434224D01*
X85456289Y-128416525D01*
X85411775Y-128399957D01*
X85384491Y-128383433D01*
X85372953Y-128365865D01*
X85375675Y-128346167D01*
X85382698Y-128334051D01*
X85408328Y-128313564D01*
X85443803Y-128304902D01*
X85482972Y-128307366D01*
X85519679Y-128320255D01*
X85547773Y-128342868D01*
X85554797Y-128353646D01*
X85565543Y-128370851D01*
X85579089Y-128379692D01*
X85601993Y-128382908D01*
X85625740Y-128383280D01*
X85681360Y-128383280D01*
X85681322Y-128350260D01*
X85672723Y-128309303D01*
X85650216Y-128268827D01*
X85618600Y-128237244D01*
X85615732Y-128235296D01*
X85581170Y-128220419D01*
X85533261Y-128209909D01*
X85478648Y-128204473D01*
X85423971Y-128204820D01*
X85381762Y-128210327D01*
X85338527Y-128222589D01*
X85305911Y-128240853D01*
X85282702Y-128261386D01*
X85261462Y-128284152D01*
X85250014Y-128303485D01*
X85245354Y-128327354D01*
X85244480Y-128362780D01*
X85245488Y-128399147D01*
X85250263Y-128422830D01*
X85261426Y-128441433D01*
X85277500Y-128458542D01*
X85298755Y-128476100D01*
X85325940Y-128491229D01*
X85362667Y-128505335D01*
X85412547Y-128519825D01*
X85473080Y-128534685D01*
X85522795Y-128551019D01*
X85557345Y-128572390D01*
X85575407Y-128597114D01*
X85575660Y-128623506D01*
X85560631Y-128646248D01*
X85526933Y-128667089D01*
X85485293Y-128674716D01*
X85441518Y-128670158D01*
X85401412Y-128654447D01*
X85370780Y-128628615D01*
X85360149Y-128610644D01*
X85350115Y-128590203D01*
X85337843Y-128580068D01*
X85316497Y-128576646D01*
X85294824Y-128576320D01*
X85259169Y-128579002D01*
X85240256Y-128589538D01*
X85234930Y-128611656D01*
X85132720Y-128611656D01*
X85132720Y-128209545D01*
X85074300Y-128212592D01*
X85015880Y-128215640D01*
X85010800Y-128393940D01*
X85008591Y-128460972D01*
X85006094Y-128510850D01*
X85002950Y-128546741D01*
X84998798Y-128571812D01*
X84993280Y-128589228D01*
X84987387Y-128600165D01*
X84963814Y-128626617D01*
X84932773Y-128649811D01*
X84901750Y-128664769D01*
X84885835Y-128667722D01*
X84857834Y-128661430D01*
X84827997Y-128645969D01*
X84805640Y-128626612D01*
X84801298Y-128619875D01*
X84798279Y-128604327D01*
X84795146Y-128571984D01*
X84792131Y-128526371D01*
X84789467Y-128471010D01*
X84787387Y-128409426D01*
X84787367Y-128408680D01*
X84782200Y-128215640D01*
X84670440Y-128215640D01*
X84382170Y-128215640D01*
X84370082Y-128211693D01*
X84306262Y-128204466D01*
X84240195Y-128207566D01*
X84179460Y-128220919D01*
X84152280Y-128232000D01*
X84100345Y-128268840D01*
X84059891Y-128320379D01*
X84032196Y-128383745D01*
X84018540Y-128456063D01*
X83911787Y-128456063D01*
X83911774Y-128401973D01*
X83910847Y-128360776D01*
X83908824Y-128330926D01*
X83905521Y-128309433D01*
X83900754Y-128293309D01*
X83895832Y-128282402D01*
X83875027Y-128248922D01*
X83850418Y-128226448D01*
X83817715Y-128213030D01*
X83772628Y-128206721D01*
X83726564Y-128205480D01*
X83681141Y-128205955D01*
X83650444Y-128208179D01*
X83628884Y-128213350D01*
X83610874Y-128222666D01*
X83595785Y-128233512D01*
X83571787Y-128249975D01*
X83557981Y-128253667D01*
X83550856Y-128247588D01*
X83527895Y-128226357D01*
X83490621Y-128210944D01*
X83444352Y-128201922D01*
X83394405Y-128199864D01*
X83346099Y-128205341D01*
X83304751Y-128218926D01*
X83301266Y-128220720D01*
X83273573Y-128235010D01*
X83259229Y-128239756D01*
X83253870Y-128235370D01*
X83253120Y-128225269D01*
X83249093Y-128216023D01*
X83234114Y-128212060D01*
X83203839Y-128212345D01*
X83199780Y-128212569D01*
X83146440Y-128215640D01*
X83143718Y-128474720D01*
X83142986Y-128554565D01*
X83142758Y-128616506D01*
X83013533Y-128616506D01*
X83024723Y-128590552D01*
X83037907Y-128518617D01*
X83035671Y-128441708D01*
X83025190Y-128389435D01*
X82999040Y-128322710D01*
X82960246Y-128271164D01*
X82907481Y-128233101D01*
X82900072Y-128229322D01*
X82846082Y-128211693D01*
X82782262Y-128204466D01*
X82716195Y-128207566D01*
X82655460Y-128220919D01*
X82628280Y-128232000D01*
X82576345Y-128268840D01*
X82535891Y-128320379D01*
X82508196Y-128383745D01*
X82494540Y-128456063D01*
X82377716Y-128456063D01*
X82377776Y-128406258D01*
X82376981Y-128364607D01*
X82375135Y-128334376D01*
X82372052Y-128312600D01*
X82367546Y-128296315D01*
X82361429Y-128282556D01*
X82360972Y-128281680D01*
X82331387Y-128245886D01*
X82287916Y-128219575D01*
X82235094Y-128203652D01*
X82177457Y-128199019D01*
X82119539Y-128206582D01*
X82071929Y-128224049D01*
X82044462Y-128237407D01*
X82029905Y-128241718D01*
X82023199Y-128237422D01*
X82020204Y-128228540D01*
X82013782Y-128216950D01*
X81998934Y-128212072D01*
X81970130Y-128212266D01*
X81966137Y-128212510D01*
X81917080Y-128215640D01*
X81914364Y-128479092D01*
X81913718Y-128563558D01*
X81800310Y-128563558D01*
X81808547Y-128518617D01*
X81806311Y-128441708D01*
X81795830Y-128389435D01*
X81769680Y-128322710D01*
X81730886Y-128271164D01*
X81678121Y-128233101D01*
X81670712Y-128229322D01*
X81616722Y-128211693D01*
X81552902Y-128204466D01*
X81486835Y-128207566D01*
X81426100Y-128220919D01*
X81398920Y-128232000D01*
X81346985Y-128268840D01*
X81306531Y-128320379D01*
X81278836Y-128383745D01*
X81265180Y-128456063D01*
X81089126Y-128456063D01*
X81089227Y-128441742D01*
X81090750Y-128393875D01*
X81093415Y-128353580D01*
X81097200Y-128325335D01*
X81101232Y-128314191D01*
X81118922Y-128306104D01*
X81146521Y-128302095D01*
X81151347Y-128302000D01*
X81182536Y-128295760D01*
X81198136Y-128276730D01*
X81198462Y-128244443D01*
X81196443Y-128235226D01*
X81188808Y-128218610D01*
X81172797Y-128211666D01*
X81151838Y-128210560D01*
X81121073Y-128207588D01*
X81102107Y-128196251D01*
X81092327Y-128172920D01*
X81090469Y-128150325D01*
X86139369Y-128150325D01*
X86139527Y-128217846D01*
X86140319Y-128303588D01*
X86140371Y-128308130D01*
X86141410Y-128391871D01*
X86142507Y-128457861D01*
X86143863Y-128508666D01*
X86145679Y-128546853D01*
X86148158Y-128574991D01*
X86151500Y-128595645D01*
X86155908Y-128611384D01*
X86161584Y-128624775D01*
X86165901Y-128633161D01*
X86195800Y-128678153D01*
X86233602Y-128713258D01*
X86282799Y-128740677D01*
X86346885Y-128762607D01*
X86387480Y-128772622D01*
X86440949Y-128778024D01*
X86503812Y-128773852D01*
X86536839Y-128768108D01*
X86606166Y-128747192D01*
X86660723Y-128716135D01*
X86695345Y-128683741D01*
X86712996Y-128661673D01*
X86727058Y-128638371D01*
X86737926Y-128611295D01*
X86745997Y-128577908D01*
X86747923Y-128563558D01*
X86902278Y-128563558D01*
X86902331Y-128629637D01*
X86903155Y-128679252D01*
X86904821Y-128714327D01*
X86907403Y-128736784D01*
X86910971Y-128748547D01*
X86913084Y-128750978D01*
X86930569Y-128755581D01*
X86959282Y-128757164D01*
X86971680Y-128756766D01*
X87017400Y-128754120D01*
X87022480Y-128576320D01*
X87024790Y-128507984D01*
X87027501Y-128456773D01*
X87030961Y-128419494D01*
X87035519Y-128392953D01*
X87041525Y-128373954D01*
X87045511Y-128365671D01*
X87073988Y-128331444D01*
X87112412Y-128308958D01*
X87154906Y-128300258D01*
X87195593Y-128307389D01*
X87203018Y-128310906D01*
X87218615Y-128320978D01*
X87230541Y-128334171D01*
X87239384Y-128353255D01*
X87245732Y-128380998D01*
X87250175Y-128420171D01*
X87253299Y-128473544D01*
X87255694Y-128543885D01*
X87256160Y-128561080D01*
X87261240Y-128754120D01*
X87362840Y-128754120D01*
X87365524Y-128535680D01*
X87366269Y-128462294D01*
X87366294Y-128440836D01*
X87484974Y-128440836D01*
X87485508Y-128518674D01*
X87489029Y-128545692D01*
X87509388Y-128620279D01*
X87544057Y-128680611D01*
X87592872Y-128726469D01*
X87647907Y-128754869D01*
X87685633Y-128763149D01*
X87733935Y-128765945D01*
X87785020Y-128763583D01*
X87831093Y-128756389D01*
X87862036Y-128745946D01*
X87883899Y-128736747D01*
X87897208Y-128738796D01*
X87904260Y-128745073D01*
X87925854Y-128755942D01*
X87957041Y-128758692D01*
X87988639Y-128752969D01*
X87998507Y-128748682D01*
X88003742Y-128745098D01*
X88007955Y-128739169D01*
X88011257Y-128728849D01*
X88013759Y-128712090D01*
X88015571Y-128686845D01*
X88016804Y-128651067D01*
X88017569Y-128602709D01*
X88017976Y-128539724D01*
X88018123Y-128465986D01*
X88122658Y-128465986D01*
X88127745Y-128548712D01*
X88129825Y-128560579D01*
X88151674Y-128633641D01*
X88186616Y-128691193D01*
X88234456Y-128733075D01*
X88295003Y-128759125D01*
X88368063Y-128769179D01*
X88378294Y-128769303D01*
X88421133Y-128767713D01*
X88461692Y-128763624D01*
X88488337Y-128758589D01*
X88533273Y-128738073D01*
X88573734Y-128705202D01*
X88605506Y-128664859D01*
X88624380Y-128621926D01*
X88627760Y-128596966D01*
X88625378Y-128584962D01*
X88614988Y-128578759D01*
X88591719Y-128576523D01*
X88572883Y-128576320D01*
X88540438Y-128577273D01*
X88521098Y-128582407D01*
X88507663Y-128595130D01*
X88496732Y-128612378D01*
X88465631Y-128647761D01*
X88426286Y-128667482D01*
X88382913Y-128671930D01*
X88339726Y-128661493D01*
X88300941Y-128636563D01*
X88270772Y-128597527D01*
X88267590Y-128591200D01*
X88257894Y-128569516D01*
X88253683Y-128553251D01*
X88257149Y-128541574D01*
X88270485Y-128533654D01*
X88295884Y-128528659D01*
X88335539Y-128525760D01*
X88391644Y-128524125D01*
X88447012Y-128523210D01*
X88632840Y-128520440D01*
X88632840Y-128453663D01*
X88624199Y-128381615D01*
X88599222Y-128318042D01*
X88559328Y-128265720D01*
X88521721Y-128236298D01*
X88494117Y-128220528D01*
X88473687Y-128212762D01*
X88729360Y-128212762D01*
X88729360Y-128479208D01*
X88729608Y-128550835D01*
X88730308Y-128615694D01*
X88731391Y-128671037D01*
X88732789Y-128714118D01*
X88734434Y-128742190D01*
X88736133Y-128752426D01*
X88750776Y-128757060D01*
X88777103Y-128758967D01*
X88806658Y-128758094D01*
X88830981Y-128754390D01*
X88835209Y-128753032D01*
X88841585Y-128747863D01*
X88846072Y-128736033D01*
X88848988Y-128714511D01*
X88850654Y-128680267D01*
X88851386Y-128630269D01*
X88851503Y-128598092D01*
X88853384Y-128517220D01*
X88859524Y-128453933D01*
X88871069Y-128405737D01*
X88889168Y-128370135D01*
X88914970Y-128344634D01*
X88949624Y-128326738D01*
X88980813Y-128317133D01*
X89029080Y-128304924D01*
X89032150Y-128252662D01*
X89033660Y-128226952D01*
X89067872Y-128226952D01*
X89069344Y-128240220D01*
X89076302Y-128269565D01*
X89087753Y-128311799D01*
X89102707Y-128363739D01*
X89120172Y-128422199D01*
X89139157Y-128483995D01*
X89158672Y-128545940D01*
X89177725Y-128604851D01*
X89195324Y-128657542D01*
X89210480Y-128700827D01*
X89222201Y-128731523D01*
X89229495Y-128746443D01*
X89229540Y-128746500D01*
X89245434Y-128753858D01*
X89273396Y-128758044D01*
X89305378Y-128758745D01*
X89333333Y-128755652D01*
X89346285Y-128751006D01*
X89352794Y-128738986D01*
X89363053Y-128710617D01*
X89375989Y-128669290D01*
X89390529Y-128618396D01*
X89402417Y-128573758D01*
X89446143Y-128404391D01*
X89489251Y-128573687D01*
X89504112Y-128629749D01*
X89518253Y-128678916D01*
X89530608Y-128717789D01*
X89540111Y-128742970D01*
X89544879Y-128750935D01*
X89565045Y-128756920D01*
X89594800Y-128758918D01*
X89626187Y-128757236D01*
X89651245Y-128752176D01*
X89660988Y-128746500D01*
X89670244Y-128728556D01*
X89680169Y-128701583D01*
X89681195Y-128698240D01*
X89687411Y-128678137D01*
X89698748Y-128642107D01*
X89714121Y-128593573D01*
X89716642Y-128585644D01*
X89879884Y-128585644D01*
X89882165Y-128640350D01*
X89893541Y-128677110D01*
X89916186Y-128715732D01*
X89950220Y-128742147D01*
X89996651Y-128758878D01*
X90040968Y-128764530D01*
X90093838Y-128763395D01*
X90146698Y-128756298D01*
X90190983Y-128744060D01*
X90202065Y-128739132D01*
X90226355Y-128727493D01*
X90240036Y-128725301D01*
X90250500Y-128732570D01*
X90256407Y-128739259D01*
X90287696Y-128760868D01*
X90329668Y-128767799D01*
X90363974Y-128763191D01*
X90388577Y-128754869D01*
X90399734Y-128741343D01*
X90403834Y-128716002D01*
X90403936Y-128689698D01*
X90396055Y-128675678D01*
X90380974Y-128667993D01*
X90354960Y-128658102D01*
X90354960Y-128484126D01*
X90354382Y-128410011D01*
X90352162Y-128353228D01*
X90347569Y-128310810D01*
X90339871Y-128279788D01*
X90328338Y-128257196D01*
X90327478Y-128256280D01*
X90446400Y-128256280D01*
X90447283Y-128283961D01*
X90453135Y-128297331D01*
X90468760Y-128302398D01*
X90484500Y-128303926D01*
X90522600Y-128307080D01*
X90532760Y-128700012D01*
X90561724Y-128724920D01*
X90578110Y-128737360D01*
X90595152Y-128744515D01*
X90618609Y-128747519D01*
X90654240Y-128747503D01*
X90673484Y-128746894D01*
X90714268Y-128745196D01*
X90739014Y-128742622D01*
X90751989Y-128737610D01*
X90757466Y-128728596D01*
X90759554Y-128715405D01*
X90756226Y-128683020D01*
X90737369Y-128663730D01*
X90704593Y-128657600D01*
X90674011Y-128651674D01*
X90660117Y-128637947D01*
X90655581Y-128619382D01*
X90652303Y-128586001D01*
X90650260Y-128542283D01*
X90649429Y-128492704D01*
X90649616Y-128465986D01*
X90825218Y-128465986D01*
X90830305Y-128548712D01*
X90832385Y-128560579D01*
X90854234Y-128633641D01*
X90889176Y-128691193D01*
X90937016Y-128733075D01*
X90997563Y-128759125D01*
X91070623Y-128769179D01*
X91080854Y-128769303D01*
X91123693Y-128767713D01*
X91164252Y-128763624D01*
X91190897Y-128758589D01*
X91235833Y-128738073D01*
X91276294Y-128705202D01*
X91308066Y-128664859D01*
X91326940Y-128621926D01*
X91330320Y-128596966D01*
X91327938Y-128584962D01*
X91317548Y-128578759D01*
X91294279Y-128576523D01*
X91275443Y-128576320D01*
X91242998Y-128577273D01*
X91223658Y-128582407D01*
X91210223Y-128595130D01*
X91199292Y-128612378D01*
X91168191Y-128647761D01*
X91128846Y-128667482D01*
X91085473Y-128671930D01*
X91042286Y-128661493D01*
X91003501Y-128636563D01*
X90973332Y-128597527D01*
X90970150Y-128591200D01*
X90960454Y-128569516D01*
X90956243Y-128553251D01*
X90959709Y-128541574D01*
X90973045Y-128533654D01*
X90998444Y-128528659D01*
X91038099Y-128525760D01*
X91094204Y-128524125D01*
X91149572Y-128523210D01*
X91335400Y-128520440D01*
X91335400Y-128453663D01*
X91326759Y-128381615D01*
X91301782Y-128318042D01*
X91261888Y-128265720D01*
X91224281Y-128236298D01*
X91196677Y-128220528D01*
X91176247Y-128212762D01*
X91431920Y-128212762D01*
X91431920Y-128479208D01*
X91432168Y-128550835D01*
X91432868Y-128615694D01*
X91433951Y-128671037D01*
X91435349Y-128714118D01*
X91436994Y-128742190D01*
X91438693Y-128752426D01*
X91453336Y-128757060D01*
X91479663Y-128758967D01*
X91509218Y-128758094D01*
X91533541Y-128754390D01*
X91537769Y-128753032D01*
X91544145Y-128747863D01*
X91548632Y-128736033D01*
X91551548Y-128714511D01*
X91553214Y-128680267D01*
X91553946Y-128630269D01*
X91554063Y-128598092D01*
X91555944Y-128517220D01*
X91562084Y-128453933D01*
X91573629Y-128405737D01*
X91591728Y-128370135D01*
X91617530Y-128344634D01*
X91652184Y-128326738D01*
X91683373Y-128317133D01*
X91731640Y-128304924D01*
X91734710Y-128252662D01*
X91737781Y-128200400D01*
X91685783Y-128200400D01*
X91638121Y-128204319D01*
X91600847Y-128218221D01*
X91566540Y-128244080D01*
X91543680Y-128264902D01*
X91543680Y-128238538D01*
X91539008Y-128217883D01*
X91521188Y-128207429D01*
X91514504Y-128205766D01*
X91482799Y-128203257D01*
X91458624Y-128206060D01*
X91431920Y-128212762D01*
X91176247Y-128212762D01*
X91172455Y-128211321D01*
X91144345Y-128207004D01*
X91105076Y-128205905D01*
X91092356Y-128205939D01*
X91042767Y-128207790D01*
X91006522Y-128213500D01*
X90976817Y-128224288D01*
X90969640Y-128227908D01*
X90910213Y-128270125D01*
X90865869Y-128325004D01*
X90837305Y-128390854D01*
X90825218Y-128465986D01*
X90649616Y-128465986D01*
X90649787Y-128441742D01*
X90651310Y-128393875D01*
X90653975Y-128353580D01*
X90657760Y-128325335D01*
X90661792Y-128314191D01*
X90679482Y-128306104D01*
X90707081Y-128302095D01*
X90711907Y-128302000D01*
X90743096Y-128295760D01*
X90758696Y-128276730D01*
X90759022Y-128244443D01*
X90757003Y-128235226D01*
X90749368Y-128218610D01*
X90733357Y-128211666D01*
X90712398Y-128210560D01*
X90681633Y-128207588D01*
X90662667Y-128196251D01*
X90652887Y-128172920D01*
X90649682Y-128133963D01*
X90649600Y-128123255D01*
X90648117Y-128084674D01*
X90641210Y-128062111D01*
X90625192Y-128051336D01*
X90596375Y-128048122D01*
X90583973Y-128048000D01*
X90557800Y-128051013D01*
X90541017Y-128062445D01*
X90531346Y-128085883D01*
X90526511Y-128124915D01*
X90525680Y-128139829D01*
X90522600Y-128205480D01*
X90484500Y-128208633D01*
X90460859Y-128211621D01*
X90449824Y-128219368D01*
X90446592Y-128237883D01*
X90446400Y-128256280D01*
X90327478Y-128256280D01*
X90312238Y-128240065D01*
X90291295Y-128225699D01*
X90259060Y-128213652D01*
X90213057Y-128205336D01*
X90159538Y-128201003D01*
X90104755Y-128200904D01*
X90054958Y-128205290D01*
X90016401Y-128214413D01*
X90015857Y-128214619D01*
X89963912Y-128242239D01*
X89930277Y-128278521D01*
X89914789Y-128323667D01*
X89913638Y-128340100D01*
X89913000Y-128388360D01*
X89961160Y-128391452D01*
X89990836Y-128392318D01*
X90007684Y-128387494D01*
X90019100Y-128373274D01*
X90026379Y-128358774D01*
X90052559Y-128324196D01*
X90088809Y-128302377D01*
X90129858Y-128294210D01*
X90170440Y-128300589D01*
X90205284Y-128322405D01*
X90210180Y-128327623D01*
X90228308Y-128354476D01*
X90230612Y-128376540D01*
X90216071Y-128394810D01*
X90183667Y-128410280D01*
X90132379Y-128423944D01*
X90106040Y-128429185D01*
X90034095Y-128444553D01*
X89979787Y-128461200D01*
X89940433Y-128480416D01*
X89913349Y-128503493D01*
X89896674Y-128529874D01*
X89879884Y-128585644D01*
X89716642Y-128585644D01*
X89732445Y-128535955D01*
X89752636Y-128472677D01*
X89759624Y-128450821D01*
X89782712Y-128377652D01*
X89799602Y-128321529D01*
X89810821Y-128280322D01*
X89816897Y-128251901D01*
X89818358Y-128234137D01*
X89815731Y-128224901D01*
X89815618Y-128224761D01*
X89798130Y-128215621D01*
X89770221Y-128211223D01*
X89740151Y-128211683D01*
X89716182Y-128217117D01*
X89707859Y-128223260D01*
X89702496Y-128236869D01*
X89692813Y-128266571D01*
X89679887Y-128308867D01*
X89664792Y-128360260D01*
X89652433Y-128403600D01*
X89636815Y-128457143D01*
X89622724Y-128501859D01*
X89611133Y-128534944D01*
X89603015Y-128553594D01*
X89599569Y-128556000D01*
X89595174Y-128541129D01*
X89586880Y-128510446D01*
X89575715Y-128467850D01*
X89562709Y-128417242D01*
X89556668Y-128393440D01*
X89542909Y-128340249D01*
X89530133Y-128293109D01*
X89519466Y-128256010D01*
X89512032Y-128232943D01*
X89510114Y-128228340D01*
X89498755Y-128217232D01*
X89476435Y-128211779D01*
X89445882Y-128210560D01*
X89411589Y-128212779D01*
X89388787Y-128218685D01*
X89383335Y-128222895D01*
X89378492Y-128236436D01*
X89369842Y-128266241D01*
X89358336Y-128308816D01*
X89344922Y-128360670D01*
X89333544Y-128406127D01*
X89291376Y-128577024D01*
X89243186Y-128406494D01*
X89226837Y-128350002D01*
X89211619Y-128299921D01*
X89198642Y-128259714D01*
X89189017Y-128232849D01*
X89184453Y-128223262D01*
X89167145Y-128214301D01*
X89139379Y-128210357D01*
X89108639Y-128211194D01*
X89082409Y-128216575D01*
X89068172Y-128226263D01*
X89067872Y-128226952D01*
X89033660Y-128226952D01*
X89035221Y-128200400D01*
X88983223Y-128200400D01*
X88935561Y-128204319D01*
X88898287Y-128218221D01*
X88863980Y-128244080D01*
X88841120Y-128264902D01*
X88841120Y-128238538D01*
X88836448Y-128217883D01*
X88818628Y-128207429D01*
X88811944Y-128205766D01*
X88780239Y-128203257D01*
X88756064Y-128206060D01*
X88729360Y-128212762D01*
X88473687Y-128212762D01*
X88469895Y-128211321D01*
X88441785Y-128207004D01*
X88402516Y-128205905D01*
X88389796Y-128205939D01*
X88340207Y-128207790D01*
X88303962Y-128213500D01*
X88274257Y-128224288D01*
X88267080Y-128227908D01*
X88207653Y-128270125D01*
X88163309Y-128325004D01*
X88134745Y-128390854D01*
X88122658Y-128465986D01*
X88018123Y-128465986D01*
X88018135Y-128460065D01*
X88018160Y-128384954D01*
X88017957Y-128282963D01*
X88017320Y-128199893D01*
X88016200Y-128134350D01*
X88014552Y-128084939D01*
X88012329Y-128050266D01*
X88010754Y-128038452D01*
X92084211Y-128038452D01*
X92086862Y-128053218D01*
X92095514Y-128084363D01*
X92109231Y-128129165D01*
X92127078Y-128184903D01*
X92148119Y-128248855D01*
X92171419Y-128318300D01*
X92196043Y-128390516D01*
X92221055Y-128462784D01*
X92245521Y-128532380D01*
X92268505Y-128596583D01*
X92289072Y-128652674D01*
X92306287Y-128697929D01*
X92319213Y-128729627D01*
X92326917Y-128745048D01*
X92327161Y-128745359D01*
X92344678Y-128753953D01*
X92374450Y-128758391D01*
X92408829Y-128758607D01*
X92440168Y-128754536D01*
X92460335Y-128746500D01*
X92468022Y-128733774D01*
X92481218Y-128704529D01*
X92498845Y-128661468D01*
X92519826Y-128607293D01*
X92543084Y-128544709D01*
X92564561Y-128484880D01*
X92571243Y-128465986D01*
X92765778Y-128465986D01*
X92770865Y-128548712D01*
X92772945Y-128560579D01*
X92794794Y-128633641D01*
X92829736Y-128691193D01*
X92877576Y-128733075D01*
X92938123Y-128759125D01*
X93011183Y-128769179D01*
X93021414Y-128769303D01*
X93064253Y-128767713D01*
X93104812Y-128763624D01*
X93131457Y-128758589D01*
X93176393Y-128738073D01*
X93216854Y-128705202D01*
X93248626Y-128664859D01*
X93267500Y-128621926D01*
X93270880Y-128596966D01*
X93268498Y-128584962D01*
X93258108Y-128578759D01*
X93234839Y-128576523D01*
X93216003Y-128576320D01*
X93183558Y-128577273D01*
X93164218Y-128582407D01*
X93150783Y-128595130D01*
X93139852Y-128612378D01*
X93108751Y-128647761D01*
X93069406Y-128667482D01*
X93026033Y-128671930D01*
X92982846Y-128661493D01*
X92944061Y-128636563D01*
X92913892Y-128597527D01*
X92910710Y-128591200D01*
X92901014Y-128569516D01*
X92896803Y-128553251D01*
X92900269Y-128541574D01*
X92913605Y-128533654D01*
X92939004Y-128528659D01*
X92978659Y-128525760D01*
X93034764Y-128524125D01*
X93090132Y-128523210D01*
X93275960Y-128520440D01*
X93275960Y-128453663D01*
X93267319Y-128381615D01*
X93264967Y-128375627D01*
X93371438Y-128375627D01*
X93371651Y-128450448D01*
X93372384Y-128522847D01*
X93373634Y-128590022D01*
X93375401Y-128649170D01*
X93377682Y-128697488D01*
X93380475Y-128732174D01*
X93383778Y-128750423D01*
X93385180Y-128752471D01*
X93409592Y-128757197D01*
X93442155Y-128758097D01*
X93471050Y-128755099D01*
X93478329Y-128753032D01*
X93484433Y-128748114D01*
X93488814Y-128736848D01*
X93491747Y-128716345D01*
X93493511Y-128683712D01*
X93494381Y-128636061D01*
X93494623Y-128582852D01*
X93495608Y-128505731D01*
X93498920Y-128446060D01*
X93505445Y-128401022D01*
X93516070Y-128367797D01*
X93531684Y-128343568D01*
X93553172Y-128325516D01*
X93580065Y-128311420D01*
X93609476Y-128299702D01*
X93630059Y-128296765D01*
X93650998Y-128301982D01*
X93660828Y-128305918D01*
X93687289Y-128321127D01*
X93705649Y-128338957D01*
X93706942Y-128341111D01*
X93711059Y-128359307D01*
X93714317Y-128395542D01*
X93716597Y-128447551D01*
X93717778Y-128513067D01*
X93717920Y-128548220D01*
X93718136Y-128618728D01*
X93719250Y-128671487D01*
X93721955Y-128709065D01*
X93726948Y-128734032D01*
X93734922Y-128748956D01*
X93746574Y-128756408D01*
X93762599Y-128758956D01*
X93775001Y-128759200D01*
X93796199Y-128759154D01*
X93812192Y-128757348D01*
X93823710Y-128751277D01*
X93831480Y-128738437D01*
X93836232Y-128716325D01*
X93838693Y-128682436D01*
X93839593Y-128634266D01*
X93839617Y-128610094D01*
X93983750Y-128610094D01*
X93984007Y-128665364D01*
X93984632Y-128708463D01*
X93985604Y-128736516D01*
X93986661Y-128746325D01*
X93999287Y-128754585D01*
X94024044Y-128758608D01*
X94053179Y-128758345D01*
X94078938Y-128753745D01*
X94091808Y-128747008D01*
X94095979Y-128736138D01*
X94099200Y-128711878D01*
X94101541Y-128672747D01*
X94103070Y-128617262D01*
X94103855Y-128543942D01*
X94104000Y-128484092D01*
X94103992Y-128470646D01*
X94211880Y-128470646D01*
X94212211Y-128527806D01*
X94217259Y-128578901D01*
X94224677Y-128610211D01*
X94255117Y-128668949D01*
X94299927Y-128714856D01*
X94356982Y-128746970D01*
X94424161Y-128764329D01*
X94499339Y-128765970D01*
X94551340Y-128758186D01*
X94603801Y-128738081D01*
X94649897Y-128703931D01*
X94685896Y-128659982D01*
X94708068Y-128610480D01*
X94713376Y-128573780D01*
X94712340Y-128557749D01*
X94705572Y-128549435D01*
X94688077Y-128546308D01*
X94658195Y-128545840D01*
X94602790Y-128545840D01*
X94582885Y-128590838D01*
X94554953Y-128633595D01*
X94517223Y-128658790D01*
X94470648Y-128665862D01*
X94457157Y-128664656D01*
X94425509Y-128656380D01*
X94399596Y-128643006D01*
X94396770Y-128640681D01*
X94364194Y-128598414D01*
X94344287Y-128545416D01*
X94343007Y-128534817D01*
X94837252Y-128534817D01*
X94837346Y-128603972D01*
X94837710Y-128662126D01*
X94838328Y-128706885D01*
X94839187Y-128735858D01*
X94840148Y-128746446D01*
X94853160Y-128754807D01*
X94880956Y-128758969D01*
X94890723Y-128759200D01*
X94922836Y-128756676D01*
X94940930Y-128747747D01*
X94946922Y-128739547D01*
X94950019Y-128723328D01*
X94952618Y-128687824D01*
X94954689Y-128634066D01*
X94956203Y-128563082D01*
X94957130Y-128475905D01*
X94957160Y-128465986D01*
X95061938Y-128465986D01*
X95067025Y-128548712D01*
X95069105Y-128560579D01*
X95090954Y-128633641D01*
X95125896Y-128691193D01*
X95173736Y-128733075D01*
X95234283Y-128759125D01*
X95307343Y-128769179D01*
X95317574Y-128769303D01*
X95360413Y-128767713D01*
X95400972Y-128763624D01*
X95427617Y-128758589D01*
X95472553Y-128738073D01*
X95513014Y-128705202D01*
X95544786Y-128664859D01*
X95563660Y-128621926D01*
X95567040Y-128596966D01*
X95564658Y-128584962D01*
X95554268Y-128578759D01*
X95530999Y-128576523D01*
X95512163Y-128576320D01*
X95479718Y-128577273D01*
X95460378Y-128582407D01*
X95446943Y-128595130D01*
X95436012Y-128612378D01*
X95404911Y-128647761D01*
X95365566Y-128667482D01*
X95322193Y-128671930D01*
X95279006Y-128661493D01*
X95240221Y-128636563D01*
X95210052Y-128597527D01*
X95206870Y-128591200D01*
X95197174Y-128569516D01*
X95192963Y-128553251D01*
X95196429Y-128541574D01*
X95209765Y-128533654D01*
X95235164Y-128528659D01*
X95274819Y-128525760D01*
X95330924Y-128524125D01*
X95386292Y-128523210D01*
X95572120Y-128520440D01*
X95572120Y-128453663D01*
X95563479Y-128381615D01*
X95538502Y-128318042D01*
X95498608Y-128265720D01*
X95461001Y-128236298D01*
X95433397Y-128220528D01*
X95409175Y-128211321D01*
X95381065Y-128207004D01*
X95341796Y-128205905D01*
X95329076Y-128205939D01*
X95279487Y-128207790D01*
X95243242Y-128213500D01*
X95213537Y-128224288D01*
X95206360Y-128227908D01*
X95146933Y-128270125D01*
X95102589Y-128325004D01*
X95074025Y-128390854D01*
X95061938Y-128465986D01*
X94957160Y-128465986D01*
X94957440Y-128375031D01*
X94957451Y-128278425D01*
X94957232Y-128200227D01*
X94956402Y-128138525D01*
X94954579Y-128091410D01*
X94951382Y-128056969D01*
X94946431Y-128033290D01*
X94939345Y-128018464D01*
X94929742Y-128010579D01*
X94917241Y-128007722D01*
X94901462Y-128007984D01*
X94884530Y-128009279D01*
X94840600Y-128012440D01*
X94837927Y-128373066D01*
X94837441Y-128457051D01*
X94837252Y-128534817D01*
X94343007Y-128534817D01*
X94337225Y-128486978D01*
X94343183Y-128428395D01*
X94362334Y-128374959D01*
X94386838Y-128339937D01*
X94425649Y-128310595D01*
X94468579Y-128298360D01*
X94511251Y-128302810D01*
X94549287Y-128323519D01*
X94577438Y-128358415D01*
X94589183Y-128378016D01*
X94601653Y-128388479D01*
X94621291Y-128392666D01*
X94654538Y-128393439D01*
X94656279Y-128393440D01*
X94716258Y-128393440D01*
X94710257Y-128356455D01*
X94693630Y-128307140D01*
X94663139Y-128262560D01*
X94623845Y-128229720D01*
X94615446Y-128225211D01*
X94576810Y-128212720D01*
X94525717Y-128204707D01*
X94469629Y-128201634D01*
X94416007Y-128203962D01*
X94377954Y-128210529D01*
X94332242Y-128231653D01*
X94288466Y-128267509D01*
X94251777Y-128312765D01*
X94227324Y-128362090D01*
X94225290Y-128368601D01*
X94216246Y-128415039D01*
X94211880Y-128470646D01*
X94103992Y-128470646D01*
X94103947Y-128401993D01*
X94103394Y-128338010D01*
X94101750Y-128289936D01*
X94098423Y-128255568D01*
X94092820Y-128232700D01*
X94084350Y-128219128D01*
X94072421Y-128212646D01*
X94056440Y-128211050D01*
X94035817Y-128212135D01*
X94031090Y-128212479D01*
X93987160Y-128215640D01*
X93984440Y-128474545D01*
X93983887Y-128545529D01*
X93983750Y-128610094D01*
X93839617Y-128610094D01*
X93839660Y-128569311D01*
X93839616Y-128537132D01*
X93839353Y-128464884D01*
X93838571Y-128409784D01*
X93837018Y-128368661D01*
X93834445Y-128338345D01*
X93830602Y-128315666D01*
X93825237Y-128297452D01*
X93819597Y-128283781D01*
X93792009Y-128243672D01*
X93751223Y-128217077D01*
X93696183Y-128203535D01*
X93632811Y-128202168D01*
X93590995Y-128206530D01*
X93552600Y-128214148D01*
X93527420Y-128222755D01*
X93494400Y-128239482D01*
X93494400Y-128135613D01*
X93493108Y-128079479D01*
X93489325Y-128040747D01*
X93483189Y-128020729D01*
X93482207Y-128019551D01*
X93477660Y-128017520D01*
X93982080Y-128017520D01*
X93982080Y-128071706D01*
X93983257Y-128103325D01*
X93986279Y-128126005D01*
X93988853Y-128132666D01*
X94004995Y-128138123D01*
X94032225Y-128139399D01*
X94061848Y-128136953D01*
X94085169Y-128131242D01*
X94091808Y-128127248D01*
X94100423Y-128107898D01*
X94103862Y-128078066D01*
X94101526Y-128047070D01*
X94097832Y-128033590D01*
X94087592Y-128023432D01*
X94064251Y-128018470D01*
X94036872Y-128017520D01*
X93982080Y-128017520D01*
X93477660Y-128017520D01*
X93462151Y-128010593D01*
X93432543Y-128007724D01*
X93403218Y-128010944D01*
X93384672Y-128019551D01*
X93381190Y-128032835D01*
X93378242Y-128063318D01*
X93375826Y-128108198D01*
X93373940Y-128164672D01*
X93372581Y-128229937D01*
X93371748Y-128301190D01*
X93371438Y-128375627D01*
X93264967Y-128375627D01*
X93242342Y-128318042D01*
X93202448Y-128265720D01*
X93164841Y-128236298D01*
X93137237Y-128220528D01*
X93113015Y-128211321D01*
X93084905Y-128207004D01*
X93045636Y-128205905D01*
X93032916Y-128205939D01*
X92983327Y-128207790D01*
X92947082Y-128213500D01*
X92917377Y-128224288D01*
X92910200Y-128227908D01*
X92850773Y-128270125D01*
X92806429Y-128325004D01*
X92777865Y-128390854D01*
X92765778Y-128465986D01*
X92571243Y-128465986D01*
X92590262Y-128412216D01*
X92615527Y-128340959D01*
X92639011Y-128274892D01*
X92659368Y-128217794D01*
X92675254Y-128173448D01*
X92682956Y-128152117D01*
X92696564Y-128110554D01*
X92706204Y-128073067D01*
X92710330Y-128045988D01*
X92710212Y-128040357D01*
X92706125Y-128022905D01*
X92695240Y-128014095D01*
X92671676Y-128010211D01*
X92661280Y-128009453D01*
X92627441Y-128010493D01*
X92602490Y-128017267D01*
X92598776Y-128019613D01*
X92591319Y-128032414D01*
X92578663Y-128061984D01*
X92561776Y-128105727D01*
X92541623Y-128161049D01*
X92519173Y-128225356D01*
X92495391Y-128296054D01*
X92492594Y-128304540D01*
X92469304Y-128374765D01*
X92447883Y-128438255D01*
X92429183Y-128492570D01*
X92414058Y-128535271D01*
X92403359Y-128563917D01*
X92397939Y-128576068D01*
X92397617Y-128576319D01*
X92393149Y-128567054D01*
X92383344Y-128540912D01*
X92369056Y-128500366D01*
X92351141Y-128447892D01*
X92330455Y-128385964D01*
X92307853Y-128317057D01*
X92305937Y-128311161D01*
X92282732Y-128240513D01*
X92260873Y-128175497D01*
X92241320Y-128118844D01*
X92225030Y-128073283D01*
X92212960Y-128041543D01*
X92206069Y-128026355D01*
X92205952Y-128026183D01*
X92193273Y-128014154D01*
X92173463Y-128009090D01*
X92140135Y-128009373D01*
X92139654Y-128009401D01*
X92108620Y-128012169D01*
X92092482Y-128017697D01*
X92085815Y-128028826D01*
X92084211Y-128038452D01*
X88010754Y-128038452D01*
X88009484Y-128028937D01*
X88005971Y-128019555D01*
X88005967Y-128019551D01*
X87987755Y-128010942D01*
X87961084Y-128007360D01*
X87961078Y-128007360D01*
X87933814Y-128008066D01*
X87915515Y-128012437D01*
X87904396Y-128023850D01*
X87898669Y-128045682D01*
X87896546Y-128081311D01*
X87896240Y-128129870D01*
X87896240Y-128240046D01*
X87853060Y-128220446D01*
X87797043Y-128204206D01*
X87732662Y-128200061D01*
X87667761Y-128207849D01*
X87614402Y-128225384D01*
X87564426Y-128259456D01*
X87525491Y-128308524D01*
X87498654Y-128369885D01*
X87484974Y-128440836D01*
X87366294Y-128440836D01*
X87366336Y-128406258D01*
X87365541Y-128364607D01*
X87363695Y-128334376D01*
X87360612Y-128312600D01*
X87356106Y-128296315D01*
X87349989Y-128282556D01*
X87349532Y-128281680D01*
X87319947Y-128245886D01*
X87276476Y-128219575D01*
X87223654Y-128203652D01*
X87166017Y-128199019D01*
X87108099Y-128206582D01*
X87060489Y-128224049D01*
X87033022Y-128237407D01*
X87018465Y-128241718D01*
X87011759Y-128237422D01*
X87008764Y-128228540D01*
X87002342Y-128216950D01*
X86987494Y-128212072D01*
X86958690Y-128212266D01*
X86954697Y-128212510D01*
X86905640Y-128215640D01*
X86902924Y-128479092D01*
X86902278Y-128563558D01*
X86747923Y-128563558D01*
X86751667Y-128535671D01*
X86755332Y-128482045D01*
X86757387Y-128414490D01*
X86758229Y-128330469D01*
X86758320Y-128280029D01*
X86758320Y-128017907D01*
X86734491Y-128011926D01*
X86708351Y-128008766D01*
X86675550Y-128008868D01*
X86670991Y-128009193D01*
X86631320Y-128012440D01*
X86626240Y-128281680D01*
X86624586Y-128363584D01*
X86622941Y-128427752D01*
X86621086Y-128476767D01*
X86618808Y-128513210D01*
X86615889Y-128539665D01*
X86612113Y-128558714D01*
X86607266Y-128572939D01*
X86601130Y-128584923D01*
X86600840Y-128585417D01*
X86569099Y-128626733D01*
X86529879Y-128652158D01*
X86478505Y-128664466D01*
X86465558Y-128665656D01*
X86402873Y-128661912D01*
X86350606Y-128641167D01*
X86309630Y-128603821D01*
X86299603Y-128589335D01*
X86292347Y-128576993D01*
X86286693Y-128564375D01*
X86282403Y-128548829D01*
X86279241Y-128527707D01*
X86276969Y-128498359D01*
X86275351Y-128458133D01*
X86274148Y-128404380D01*
X86273125Y-128334451D01*
X86272538Y-128286962D01*
X86271158Y-128198462D01*
X86269344Y-128128973D01*
X86267022Y-128077189D01*
X86264118Y-128041806D01*
X86260560Y-128021516D01*
X86257298Y-128015338D01*
X86237179Y-128009761D01*
X86206660Y-128007900D01*
X86175306Y-128009678D01*
X86152679Y-128015019D01*
X86150531Y-128016185D01*
X86146474Y-128022539D01*
X86143399Y-128037133D01*
X86141236Y-128061965D01*
X86139916Y-128099030D01*
X86139369Y-128150325D01*
X81090469Y-128150325D01*
X81089122Y-128133963D01*
X81089040Y-128123255D01*
X81087557Y-128084674D01*
X81080650Y-128062111D01*
X81064632Y-128051336D01*
X81035815Y-128048122D01*
X81023413Y-128048000D01*
X80997240Y-128051013D01*
X80980457Y-128062445D01*
X80970786Y-128085883D01*
X80965951Y-128124915D01*
X80965120Y-128139829D01*
X80962040Y-128205480D01*
X80923940Y-128208633D01*
X80900299Y-128211621D01*
X80889264Y-128219368D01*
X80886032Y-128237883D01*
X80885840Y-128256280D01*
X80804560Y-128256280D01*
X80804560Y-128209545D01*
X80746140Y-128212592D01*
X80687720Y-128215640D01*
X80682640Y-128393940D01*
X80680431Y-128460972D01*
X80677934Y-128510850D01*
X80674790Y-128546741D01*
X80670638Y-128571812D01*
X80665120Y-128589228D01*
X80659227Y-128600165D01*
X80635654Y-128626617D01*
X80604613Y-128649811D01*
X80573590Y-128664769D01*
X80557675Y-128667722D01*
X80529674Y-128661430D01*
X80499837Y-128645969D01*
X80477480Y-128626612D01*
X80473138Y-128619875D01*
X80470119Y-128604327D01*
X80466986Y-128571984D01*
X80463971Y-128526371D01*
X80461307Y-128471010D01*
X80459227Y-128409426D01*
X80459207Y-128408680D01*
X80454040Y-128215640D01*
X80342280Y-128215640D01*
X80071001Y-128215640D01*
X80058516Y-128183805D01*
X80035961Y-128127487D01*
X80016488Y-128080069D01*
X80001299Y-128044457D01*
X79991595Y-128023554D01*
X79989267Y-128019632D01*
X79971674Y-128011593D01*
X79935995Y-128008899D01*
X79911947Y-128009472D01*
X79845493Y-128012440D01*
X79740708Y-128281680D01*
X79711823Y-128355864D01*
X79683724Y-128427968D01*
X79657727Y-128494617D01*
X79635149Y-128552436D01*
X79617309Y-128598050D01*
X79605561Y-128627984D01*
X79591214Y-128667086D01*
X79580524Y-128701338D01*
X79575393Y-128724500D01*
X79575200Y-128727529D01*
X77502560Y-128727529D01*
X77502560Y-127600960D01*
X79229760Y-127600960D01*
X80753760Y-127600960D01*
X80753977Y-127481580D01*
X80754708Y-127442570D01*
X80756650Y-127387252D01*
X80759584Y-127319589D01*
X80763293Y-127243542D01*
X80767559Y-127163073D01*
X80772165Y-127082145D01*
X80776893Y-127004718D01*
X80781525Y-126934756D01*
X80785845Y-126876220D01*
X80789552Y-126833880D01*
X80795215Y-126780693D01*
X80802650Y-126715425D01*
X80810898Y-126646130D01*
X80819001Y-126580862D01*
X80825808Y-126529080D01*
X80831551Y-126487153D01*
X80836584Y-126450206D01*
X80839962Y-126425173D01*
X80840330Y-126422400D01*
X80846715Y-126378873D01*
X80856014Y-126321516D01*
X80867155Y-126256392D01*
X80879065Y-126189565D01*
X80890673Y-126127097D01*
X80900907Y-126075050D01*
X80905894Y-126051560D01*
X80913217Y-126017819D01*
X80919031Y-125989644D01*
X80920782Y-125980440D01*
X80924872Y-125961596D01*
X80932645Y-125929035D01*
X80942670Y-125888703D01*
X80946469Y-125873760D01*
X80956978Y-125832103D01*
X80965793Y-125796125D01*
X80971464Y-125771773D01*
X80972442Y-125767080D01*
X80977751Y-125745093D01*
X80987933Y-125707789D01*
X81001806Y-125659245D01*
X81018186Y-125603539D01*
X81035890Y-125544750D01*
X81053508Y-125487680D01*
X81066753Y-125445344D01*
X81078537Y-125407627D01*
X81086897Y-125380815D01*
X81088646Y-125375183D01*
X81099130Y-125344311D01*
X81115457Y-125299648D01*
X81135691Y-125246171D01*
X81157893Y-125188861D01*
X81180127Y-125132697D01*
X81200454Y-125082658D01*
X81216939Y-125043724D01*
X81222052Y-125032311D01*
X81236741Y-124999788D01*
X81247321Y-124975218D01*
X81251591Y-124963715D01*
X81251600Y-124963587D01*
X81255903Y-124952936D01*
X81267644Y-124927719D01*
X81285064Y-124891491D01*
X81306405Y-124847807D01*
X81329911Y-124800223D01*
X81353825Y-124752292D01*
X81376388Y-124707571D01*
X81395844Y-124669614D01*
X81410436Y-124641976D01*
X81411887Y-124639320D01*
X81433715Y-124601573D01*
X81457389Y-124563480D01*
X81467627Y-124548061D01*
X81484066Y-124521641D01*
X81494048Y-124500762D01*
X81495440Y-124494721D01*
X81501780Y-124482789D01*
X81505600Y-124481840D01*
X81515399Y-124474053D01*
X81515760Y-124471268D01*
X81521158Y-124456248D01*
X81534234Y-124434345D01*
X81535052Y-124433168D01*
X81548637Y-124413052D01*
X81569815Y-124380865D01*
X81595263Y-124341679D01*
X81612943Y-124314200D01*
X81639675Y-124273640D01*
X81669975Y-124229496D01*
X81701157Y-124185471D01*
X81730535Y-124145269D01*
X81755425Y-124112593D01*
X81773140Y-124091148D01*
X81778705Y-124085600D01*
X81787872Y-124075498D01*
X81805508Y-124054220D01*
X81825136Y-124029720D01*
X81849646Y-124001071D01*
X81886121Y-123961502D01*
X81931642Y-123913922D01*
X81983286Y-123861243D01*
X82038134Y-123806375D01*
X82093266Y-123752229D01*
X82145760Y-123701715D01*
X82192696Y-123657745D01*
X82231154Y-123623228D01*
X82243754Y-123612517D01*
X82429933Y-123464204D01*
X82611568Y-123331973D01*
X82787820Y-123216357D01*
X82957853Y-123117887D01*
X83120829Y-123037094D01*
X83210846Y-122998918D01*
X83386890Y-122938770D01*
X83560777Y-122898760D01*
X83697620Y-122881290D01*
X83781440Y-122874445D01*
X83781491Y-123294602D01*
X83781496Y-123348848D01*
X83781499Y-123422123D01*
X83781502Y-123513135D01*
X83781503Y-123620593D01*
X83781503Y-123743205D01*
X83781502Y-123879681D01*
X83781500Y-124028728D01*
X83781497Y-124189056D01*
X83781492Y-124359373D01*
X83781487Y-124538388D01*
X83781481Y-124724809D01*
X83781474Y-124917345D01*
X83781466Y-125114705D01*
X83781457Y-125315597D01*
X83781447Y-125518731D01*
X83781440Y-125651101D01*
X83781337Y-127587443D01*
X84895591Y-127594201D01*
X85111018Y-127595430D01*
X85328555Y-127596520D01*
X85547142Y-127597474D01*
X85765717Y-127598291D01*
X85983217Y-127598974D01*
X86198580Y-127599522D01*
X86410746Y-127599937D01*
X86618652Y-127600221D01*
X86821236Y-127600373D01*
X87017437Y-127600396D01*
X87206192Y-127600289D01*
X87386440Y-127600055D01*
X87557119Y-127599694D01*
X87717166Y-127599207D01*
X87865521Y-127598596D01*
X88001122Y-127597861D01*
X88122906Y-127597003D01*
X88229811Y-127596023D01*
X88320777Y-127594923D01*
X88394740Y-127593703D01*
X88450640Y-127592364D01*
X88487414Y-127590908D01*
X88490600Y-127590719D01*
X88600501Y-127582834D01*
X88712552Y-127572992D01*
X88822987Y-127561636D01*
X88928043Y-127549212D01*
X89023954Y-127536162D01*
X89106957Y-127522932D01*
X89171320Y-127510402D01*
X89207080Y-127502653D01*
X89248507Y-127493898D01*
X89262760Y-127490941D01*
X89302708Y-127481904D01*
X89358620Y-127468093D01*
X89426953Y-127450428D01*
X89504163Y-127429828D01*
X89586707Y-127407211D01*
X89603465Y-127402549D01*
X89688273Y-127377426D01*
X89785919Y-127346044D01*
X89891896Y-127310041D01*
X90001694Y-127271056D01*
X90110806Y-127230729D01*
X90214724Y-127190699D01*
X90308939Y-127152607D01*
X90388945Y-127118090D01*
X90401881Y-127112203D01*
X90507608Y-127062747D01*
X90607989Y-127014132D01*
X90700371Y-126967718D01*
X90782101Y-126924868D01*
X90850529Y-126886944D01*
X90903002Y-126855307D01*
X90905922Y-126853419D01*
X90929886Y-126838525D01*
X90945992Y-126829772D01*
X90948904Y-126828800D01*
X90961634Y-126823192D01*
X90988331Y-126807533D01*
X91026420Y-126783573D01*
X91073324Y-126753060D01*
X91126468Y-126717742D01*
X91183275Y-126679367D01*
X91241169Y-126639684D01*
X91297575Y-126600442D01*
X91349917Y-126563389D01*
X91395617Y-126530274D01*
X91432101Y-126502844D01*
X91449470Y-126489043D01*
X91465043Y-126476291D01*
X91491829Y-126454427D01*
X91525279Y-126427161D01*
X91543680Y-126412177D01*
X91589745Y-126373001D01*
X91646539Y-126322071D01*
X91710896Y-126262458D01*
X91779647Y-126197232D01*
X91849626Y-126129464D01*
X91861060Y-126118164D01*
X92209160Y-126118164D01*
X92209160Y-127541795D01*
X92233145Y-127561217D01*
X92259357Y-127573300D01*
X92297563Y-127580351D01*
X92341210Y-127582381D01*
X92383749Y-127579400D01*
X92418630Y-127571420D01*
X92437193Y-127560886D01*
X92453152Y-127536648D01*
X92463092Y-127507546D01*
X92464098Y-127491811D01*
X92464963Y-127457533D01*
X92465679Y-127406490D01*
X92466238Y-127340458D01*
X92466633Y-127261214D01*
X92466855Y-127170535D01*
X92466898Y-127070199D01*
X92466753Y-126961981D01*
X92466412Y-126847660D01*
X92466198Y-126796056D01*
X92463161Y-126118164D01*
X92808600Y-126118164D01*
X92808600Y-127541795D01*
X92832585Y-127561217D01*
X92858797Y-127573300D01*
X92897003Y-127580351D01*
X92940650Y-127582381D01*
X92983189Y-127579400D01*
X93018070Y-127571420D01*
X93036633Y-127560886D01*
X93052592Y-127536648D01*
X93062532Y-127507546D01*
X93063538Y-127491811D01*
X93064403Y-127457533D01*
X93065119Y-127406490D01*
X93065678Y-127340458D01*
X93066073Y-127261214D01*
X93066295Y-127170535D01*
X93066338Y-127070199D01*
X93066193Y-126961981D01*
X93065852Y-126847660D01*
X93065638Y-126796056D01*
X93062947Y-126195543D01*
X93244390Y-126195543D01*
X93251397Y-126235209D01*
X93265942Y-126266359D01*
X93281185Y-126280237D01*
X93297191Y-126283478D01*
X93330255Y-126286258D01*
X93377116Y-126288426D01*
X93434514Y-126289830D01*
X93497981Y-126290320D01*
X93560219Y-126290625D01*
X93616115Y-126291477D01*
X93662245Y-126292776D01*
X93695185Y-126294424D01*
X93711511Y-126296322D01*
X93712009Y-126296487D01*
X93715356Y-126299343D01*
X93718209Y-126306139D01*
X93720607Y-126318364D01*
X93722588Y-126337512D01*
X93724192Y-126365072D01*
X93725456Y-126402536D01*
X93726419Y-126451395D01*
X93727121Y-126513141D01*
X93727599Y-126589264D01*
X93727892Y-126681257D01*
X93728040Y-126790609D01*
X93728080Y-126916708D01*
X93728080Y-127530763D01*
X93753018Y-127555701D01*
X93768313Y-127568685D01*
X93785732Y-127576212D01*
X93811147Y-127579717D01*
X93850430Y-127580635D01*
X93855080Y-127580640D01*
X93895979Y-127579892D01*
X93922456Y-127576693D01*
X93940380Y-127569609D01*
X93955625Y-127557203D01*
X93957141Y-127555701D01*
X93982080Y-127530763D01*
X93982080Y-126922733D01*
X93982182Y-126788132D01*
X93982503Y-126672705D01*
X93983067Y-126575307D01*
X93983894Y-126494794D01*
X93985009Y-126430019D01*
X93986433Y-126379839D01*
X93988189Y-126343109D01*
X93990299Y-126318683D01*
X93992786Y-126305417D01*
X93994271Y-126302512D01*
X94006329Y-126297882D01*
X94032975Y-126294428D01*
X94075649Y-126292071D01*
X94135794Y-126290729D01*
X94211586Y-126290320D01*
X94289621Y-126290158D01*
X94349688Y-126288983D01*
X94394140Y-126285755D01*
X94425328Y-126279436D01*
X94445605Y-126268987D01*
X94457323Y-126253372D01*
X94462834Y-126231551D01*
X94464491Y-126202486D01*
X94464615Y-126178633D01*
X94465113Y-126155391D01*
X94465563Y-126135594D01*
X94464465Y-126118968D01*
X94462517Y-126112520D01*
X94651542Y-126112520D01*
X94652622Y-127534920D01*
X94678597Y-127557780D01*
X94696770Y-127570552D01*
X94718859Y-127577561D01*
X94751335Y-127580348D01*
X94774560Y-127580640D01*
X94814674Y-127579506D01*
X94841282Y-127574988D01*
X94861127Y-127565408D01*
X94873053Y-127556136D01*
X94901560Y-127531633D01*
X94907678Y-127053083D01*
X95005170Y-126961584D01*
X95041854Y-126928021D01*
X95073450Y-126900739D01*
X95096988Y-126882183D01*
X95109499Y-126874798D01*
X95110438Y-126874889D01*
X95117862Y-126883937D01*
X95135800Y-126907750D01*
X95162959Y-126944559D01*
X95198046Y-126992590D01*
X95239770Y-127050072D01*
X95286836Y-127115232D01*
X95337954Y-127186300D01*
X95358556Y-127215023D01*
X95428641Y-127312134D01*
X95488797Y-127394065D01*
X95538772Y-127460489D01*
X95578314Y-127511077D01*
X95607171Y-127545502D01*
X95625090Y-127563436D01*
X95628185Y-127565495D01*
X95660619Y-127575044D01*
X95712182Y-127579925D01*
X95749415Y-127580640D01*
X95795068Y-127580003D01*
X95825231Y-127577515D01*
X95844711Y-127572304D01*
X95858315Y-127563501D01*
X95861680Y-127560320D01*
X95876866Y-127538675D01*
X95882000Y-127520861D01*
X95879117Y-127508709D01*
X95869855Y-127489474D01*
X95853292Y-127461788D01*
X95828508Y-127424282D01*
X95794582Y-127375589D01*
X95750593Y-127314340D01*
X95695619Y-127239166D01*
X95658955Y-127189480D01*
X95615817Y-127131096D01*
X95569394Y-127068148D01*
X95521533Y-127003151D01*
X95474079Y-126938618D01*
X95428879Y-126877065D01*
X95387778Y-126821005D01*
X95352622Y-126772954D01*
X95325258Y-126735424D01*
X95307531Y-126710932D01*
X95304221Y-126706296D01*
X95297959Y-126694055D01*
X95300326Y-126681846D01*
X95313652Y-126664946D01*
X95335263Y-126643441D01*
X95353838Y-126625567D01*
X95384825Y-126595749D01*
X95425993Y-126556134D01*
X95475113Y-126508867D01*
X95529954Y-126456094D01*
X95588287Y-126399962D01*
X95610781Y-126378316D01*
X95678684Y-126312750D01*
X95732992Y-126259496D01*
X95774895Y-126216925D01*
X95805580Y-126183407D01*
X95826237Y-126157315D01*
X95838055Y-126137018D01*
X95842222Y-126120887D01*
X95839927Y-126107294D01*
X95832359Y-126094609D01*
X95824545Y-126085380D01*
X95804482Y-126075050D01*
X95770011Y-126068363D01*
X95726712Y-126065317D01*
X95680167Y-126065910D01*
X95635958Y-126070140D01*
X95599667Y-126078004D01*
X95582280Y-126085475D01*
X95568740Y-126096402D01*
X95542432Y-126120077D01*
X95505005Y-126154929D01*
X95458110Y-126199386D01*
X95403397Y-126251878D01*
X95342516Y-126310835D01*
X95277117Y-126374685D01*
X95235434Y-126415637D01*
X95169119Y-126480809D01*
X95107243Y-126541358D01*
X95051306Y-126595834D01*
X95002808Y-126642789D01*
X94963248Y-126680774D01*
X94934127Y-126708341D01*
X94916944Y-126724041D01*
X94912854Y-126727200D01*
X94911236Y-126717470D01*
X94909771Y-126690003D01*
X94908516Y-126647380D01*
X94907529Y-126592184D01*
X94906867Y-126526996D01*
X94906588Y-126454399D01*
X94906583Y-126445260D01*
X94906169Y-126360841D01*
X94905017Y-126285383D01*
X94903210Y-126221321D01*
X94900828Y-126171089D01*
X94897955Y-126137121D01*
X94895812Y-126124736D01*
X94884689Y-126098141D01*
X94866473Y-126080829D01*
X94837389Y-126071070D01*
X94793662Y-126067133D01*
X94769385Y-126066800D01*
X94729661Y-126068321D01*
X94703135Y-126074049D01*
X94682833Y-126085729D01*
X94678057Y-126089660D01*
X94651542Y-126112520D01*
X94462517Y-126112520D01*
X94460317Y-126105238D01*
X94451620Y-126094130D01*
X94436873Y-126085368D01*
X94414576Y-126078678D01*
X94383227Y-126073784D01*
X94341328Y-126070413D01*
X94287376Y-126068289D01*
X94219873Y-126067138D01*
X94137316Y-126066684D01*
X94038207Y-126066653D01*
X93921043Y-126066771D01*
X93853954Y-126066800D01*
X93732689Y-126066823D01*
X93630114Y-126066928D01*
X93544597Y-126067172D01*
X93474507Y-126067608D01*
X93418214Y-126068291D01*
X93374086Y-126069277D01*
X93340494Y-126070619D01*
X93315805Y-126072374D01*
X93298390Y-126074595D01*
X93286616Y-126077338D01*
X93278854Y-126080657D01*
X93273473Y-126084608D01*
X93271612Y-126086387D01*
X93254197Y-126115038D01*
X93245223Y-126153455D01*
X93244390Y-126195543D01*
X93062947Y-126195543D01*
X93062600Y-126118152D01*
X93039462Y-126095016D01*
X93025047Y-126083141D01*
X93007569Y-126076149D01*
X92981494Y-126072809D01*
X92941285Y-126071886D01*
X92935630Y-126071880D01*
X92893481Y-126072608D01*
X92866087Y-126075616D01*
X92847909Y-126082137D01*
X92833410Y-126093406D01*
X92831768Y-126095022D01*
X92808600Y-126118164D01*
X92463161Y-126118164D01*
X92463160Y-126118152D01*
X92440022Y-126095016D01*
X92425607Y-126083141D01*
X92408129Y-126076149D01*
X92382054Y-126072809D01*
X92341845Y-126071886D01*
X92336190Y-126071880D01*
X92294041Y-126072608D01*
X92266647Y-126075616D01*
X92248469Y-126082137D01*
X92233970Y-126093406D01*
X92232328Y-126095022D01*
X92209160Y-126118164D01*
X91861060Y-126118164D01*
X91917664Y-126062224D01*
X91980594Y-125998583D01*
X92035249Y-125941612D01*
X92078461Y-125894382D01*
X92082160Y-125890166D01*
X92118801Y-125848304D01*
X92152553Y-125809963D01*
X92180253Y-125778724D01*
X92198736Y-125758164D01*
X92202017Y-125754607D01*
X92222619Y-125729962D01*
X92245437Y-125699053D01*
X92251627Y-125689940D01*
X92268368Y-125666442D01*
X92280891Y-125652080D01*
X92284170Y-125650016D01*
X92292842Y-125642156D01*
X92308450Y-125622185D01*
X92320920Y-125604318D01*
X92339189Y-125578995D01*
X92353594Y-125562476D01*
X92359020Y-125558822D01*
X92366316Y-125550884D01*
X92366640Y-125547684D01*
X92372428Y-125534657D01*
X92387693Y-125510629D01*
X92409281Y-125480519D01*
X92412031Y-125476882D01*
X92439412Y-125439826D01*
X92466011Y-125402105D01*
X92484379Y-125374495D01*
X92502000Y-125347280D01*
X92516188Y-125326576D01*
X92520542Y-125320836D01*
X92528976Y-125308564D01*
X92545633Y-125282693D01*
X92568176Y-125246984D01*
X92594270Y-125205199D01*
X92621580Y-125161099D01*
X92647768Y-125118447D01*
X92670499Y-125081005D01*
X92687438Y-125052534D01*
X92691374Y-125045720D01*
X92705505Y-125020609D01*
X92724837Y-124985839D01*
X92742245Y-124954280D01*
X92760497Y-124921733D01*
X92775792Y-124895672D01*
X92784596Y-124882057D01*
X92795584Y-124864251D01*
X92813516Y-124830671D01*
X92837070Y-124784104D01*
X92864925Y-124727338D01*
X92895759Y-124663163D01*
X92928250Y-124594367D01*
X92961077Y-124523737D01*
X92992919Y-124454063D01*
X93022453Y-124388132D01*
X93048359Y-124328733D01*
X93060957Y-124298960D01*
X93088257Y-124233338D01*
X93107752Y-124186117D01*
X93119568Y-124156991D01*
X93123560Y-124146560D01*
X93128358Y-124134350D01*
X93135903Y-124116080D01*
X93154943Y-124070538D01*
X93167420Y-124040379D01*
X93174677Y-124022268D01*
X93178055Y-124012866D01*
X93178882Y-124009167D01*
X93182652Y-123997482D01*
X93191615Y-123974604D01*
X93194563Y-123967470D01*
X93204526Y-123940668D01*
X93209710Y-123920940D01*
X93209920Y-123918412D01*
X93215109Y-123901361D01*
X93216987Y-123899039D01*
X93225768Y-123883154D01*
X93226752Y-123879565D01*
X93230746Y-123866500D01*
X93240296Y-123837359D01*
X93254353Y-123795285D01*
X93271865Y-123743419D01*
X93291782Y-123684902D01*
X93294732Y-123676271D01*
X93314710Y-123617672D01*
X93332256Y-123565856D01*
X93346368Y-123523808D01*
X93356046Y-123494516D01*
X93360288Y-123480966D01*
X93360396Y-123480452D01*
X93363309Y-123468971D01*
X93370611Y-123443444D01*
X93380757Y-123409259D01*
X93381384Y-123407181D01*
X93397689Y-123352644D01*
X93412756Y-123301411D01*
X93425437Y-123257454D01*
X93434588Y-123224746D01*
X93439063Y-123207261D01*
X93439162Y-123206760D01*
X93442661Y-123192748D01*
X93450238Y-123164599D01*
X93460431Y-123127722D01*
X93463360Y-123117263D01*
X93474285Y-123077684D01*
X93483212Y-123044120D01*
X93488533Y-123022644D01*
X93489073Y-123020078D01*
X93493141Y-123001235D01*
X93500336Y-122969825D01*
X93508101Y-122936855D01*
X93518732Y-122891247D01*
X93529538Y-122843287D01*
X93535561Y-122815600D01*
X93544522Y-122773655D01*
X93553708Y-122731019D01*
X93557405Y-122714000D01*
X93564214Y-122681451D01*
X93569373Y-122654445D01*
X93570450Y-122647960D01*
X93573995Y-122627209D01*
X93579985Y-122594598D01*
X93585296Y-122566680D01*
X93607863Y-122444961D01*
X93626309Y-122333393D01*
X93641927Y-122223236D01*
X93656010Y-122105748D01*
X93662681Y-122043440D01*
X93677010Y-121892353D01*
X93687167Y-121753255D01*
X93693581Y-121618343D01*
X93696679Y-121479814D01*
X93697101Y-121416060D01*
X93697600Y-121210320D01*
X92163440Y-121210320D01*
X92163062Y-121339860D01*
X92162254Y-121395842D01*
X92160242Y-121467311D01*
X92157235Y-121549480D01*
X92153444Y-121637565D01*
X92149081Y-121726781D01*
X92144354Y-121812342D01*
X92139475Y-121889464D01*
X92137932Y-121911360D01*
X92133317Y-121966786D01*
X92126734Y-122035198D01*
X92118937Y-122109446D01*
X92110679Y-122182379D01*
X92102714Y-122246845D01*
X92102072Y-122251720D01*
X92096282Y-122295559D01*
X92090926Y-122336247D01*
X92087052Y-122365829D01*
X92086696Y-122368560D01*
X92080795Y-122409461D01*
X92072088Y-122464185D01*
X92061551Y-122527113D01*
X92050162Y-122592628D01*
X92038898Y-122655109D01*
X92028737Y-122708941D01*
X92020656Y-122748503D01*
X92020423Y-122749560D01*
X92013048Y-122783310D01*
X92007052Y-122811489D01*
X92005177Y-122820680D01*
X92000211Y-122843681D01*
X91993011Y-122874765D01*
X91991364Y-122881640D01*
X91982619Y-122918895D01*
X91973377Y-122959728D01*
X91971555Y-122968000D01*
X91962762Y-123005545D01*
X91951738Y-123049193D01*
X91946298Y-123069600D01*
X91923091Y-123153913D01*
X91904858Y-123218671D01*
X91891612Y-123263832D01*
X91883364Y-123289356D01*
X91881891Y-123293120D01*
X91874428Y-123316535D01*
X91873037Y-123323600D01*
X91868490Y-123340437D01*
X91858778Y-123369836D01*
X91846205Y-123404880D01*
X91833633Y-123438946D01*
X91824080Y-123465298D01*
X91819575Y-123478338D01*
X91819548Y-123478433D01*
X91810077Y-123508217D01*
X91794987Y-123551266D01*
X91776362Y-123602041D01*
X91756285Y-123655002D01*
X91736839Y-123704610D01*
X91720108Y-123745325D01*
X91713474Y-123760480D01*
X91694188Y-123803695D01*
X91673671Y-123850608D01*
X91664568Y-123871799D01*
X91651292Y-123901092D01*
X91631057Y-123943421D01*
X91606293Y-123993801D01*
X91579431Y-124047247D01*
X91570453Y-124064839D01*
X91544935Y-124114698D01*
X91521981Y-124159671D01*
X91503537Y-124195932D01*
X91491552Y-124219658D01*
X91488788Y-124225220D01*
X91477612Y-124242586D01*
X91470020Y-124248080D01*
X91463142Y-124256366D01*
X91462400Y-124262553D01*
X91457848Y-124277744D01*
X91454780Y-124280333D01*
X91446193Y-124290580D01*
X91432274Y-124313295D01*
X91421760Y-124332650D01*
X91404131Y-124364055D01*
X91387223Y-124390103D01*
X91379822Y-124399471D01*
X91363230Y-124423666D01*
X91356278Y-124439441D01*
X91347798Y-124456746D01*
X91341426Y-124461520D01*
X91332069Y-124469733D01*
X91321246Y-124488593D01*
X91307244Y-124512948D01*
X91282321Y-124549853D01*
X91248718Y-124596377D01*
X91208676Y-124649587D01*
X91164436Y-124706555D01*
X91118241Y-124764348D01*
X91072332Y-124820036D01*
X91029429Y-124870143D01*
X90974208Y-124929797D01*
X90905943Y-124998229D01*
X90828078Y-125072342D01*
X90744059Y-125149041D01*
X90657332Y-125225230D01*
X90571342Y-125297814D01*
X90489536Y-125363698D01*
X90427503Y-125410912D01*
X90402519Y-125430369D01*
X90373114Y-125454662D01*
X90364895Y-125461712D01*
X90333143Y-125488400D01*
X90298335Y-125516459D01*
X90289646Y-125523240D01*
X90259691Y-125546617D01*
X90231660Y-125568872D01*
X90223831Y-125575199D01*
X90149517Y-125633187D01*
X90065566Y-125694335D01*
X89976786Y-125755436D01*
X89887988Y-125813284D01*
X89803981Y-125864673D01*
X89729576Y-125906396D01*
X89717961Y-125912434D01*
X89604164Y-125964328D01*
X89480872Y-126009229D01*
X89356372Y-126044403D01*
X89257680Y-126064310D01*
X89140840Y-126082894D01*
X89143421Y-123653333D01*
X89146003Y-121223772D01*
X88793781Y-121217046D01*
X88691341Y-121215325D01*
X88574863Y-121213767D01*
X88450628Y-121212431D01*
X88324919Y-121211373D01*
X88204017Y-121210654D01*
X88094205Y-121210331D01*
X88071453Y-121210319D01*
X87701347Y-121210319D01*
X87708229Y-122020579D01*
X87709294Y-122154452D01*
X87710219Y-122287840D01*
X87710997Y-122418545D01*
X87711620Y-122544371D01*
X87712081Y-122663118D01*
X87712374Y-122772588D01*
X87712490Y-122870583D01*
X87712422Y-122954905D01*
X87712164Y-123023355D01*
X87711708Y-123073737D01*
X87711695Y-123074680D01*
X87710918Y-123135222D01*
X87710271Y-123197640D01*
X87709756Y-123263225D01*
X87709375Y-123333269D01*
X87709133Y-123409065D01*
X87709030Y-123491904D01*
X87709070Y-123583079D01*
X87709255Y-123683880D01*
X87709588Y-123795602D01*
X87710071Y-123919535D01*
X87710708Y-124056971D01*
X87711500Y-124209203D01*
X87712450Y-124377523D01*
X87713561Y-124563222D01*
X87714835Y-124767594D01*
X87715215Y-124827280D01*
X87716018Y-124965323D01*
X87716662Y-125101406D01*
X87717145Y-125233617D01*
X87717467Y-125360044D01*
X87717628Y-125478772D01*
X87717626Y-125587891D01*
X87717462Y-125685487D01*
X87717134Y-125769649D01*
X87716643Y-125838462D01*
X87715987Y-125890016D01*
X87715515Y-125911860D01*
X87710140Y-126107440D01*
X85203840Y-126107440D01*
X85203840Y-121210320D01*
X85043820Y-121210667D01*
X84915797Y-121212563D01*
X84776377Y-121217505D01*
X84629802Y-121225163D01*
X84480316Y-121235207D01*
X84332162Y-121247306D01*
X84189584Y-121261131D01*
X84056824Y-121276350D01*
X83938126Y-121292634D01*
X83888120Y-121300610D01*
X83803175Y-121315025D01*
X83732323Y-121327426D01*
X83670456Y-121338848D01*
X83612465Y-121350323D01*
X83553240Y-121362886D01*
X83487674Y-121377571D01*
X83410658Y-121395412D01*
X83354720Y-121408558D01*
X83282983Y-121426523D01*
X83202252Y-121448525D01*
X83116005Y-121473457D01*
X83027720Y-121500213D01*
X82940875Y-121527688D01*
X82858947Y-121554775D01*
X82785416Y-121580369D01*
X82723759Y-121603362D01*
X82677454Y-121622650D01*
X82668920Y-121626649D01*
X82647939Y-121635855D01*
X82616601Y-121648603D01*
X82596527Y-121656431D01*
X82530553Y-121683481D01*
X82452063Y-121718519D01*
X82365433Y-121759347D01*
X82275038Y-121803769D01*
X82185253Y-121849586D01*
X82100454Y-121894601D01*
X82025015Y-121936617D01*
X81963311Y-121973436D01*
X81955245Y-121978544D01*
X81926671Y-121996430D01*
X81905619Y-122008874D01*
X81897259Y-122012960D01*
X81886249Y-122018584D01*
X81861578Y-122034159D01*
X81826055Y-122057734D01*
X81782490Y-122087360D01*
X81733694Y-122121088D01*
X81682475Y-122156968D01*
X81631645Y-122193051D01*
X81584012Y-122227387D01*
X81542388Y-122258026D01*
X81523560Y-122272224D01*
X81465825Y-122317958D01*
X81399093Y-122373619D01*
X81326623Y-122436246D01*
X81251673Y-122502882D01*
X81177503Y-122570565D01*
X81107371Y-122636336D01*
X81044536Y-122697236D01*
X80992255Y-122750305D01*
X80966002Y-122778613D01*
X80931695Y-122816623D01*
X80900428Y-122850762D01*
X80875730Y-122877208D01*
X80861455Y-122891833D01*
X80843568Y-122910754D01*
X80819210Y-122938803D01*
X80799480Y-122962725D01*
X80771483Y-122996295D01*
X80742568Y-123029051D01*
X80726158Y-123046511D01*
X80708085Y-123066028D01*
X80699150Y-123077987D01*
X80699271Y-123079760D01*
X80696918Y-123086506D01*
X80684265Y-123103555D01*
X80676072Y-123113335D01*
X80650266Y-123144401D01*
X80624852Y-123176731D01*
X80621680Y-123180946D01*
X80605813Y-123202135D01*
X80588207Y-123225467D01*
X80565354Y-123255574D01*
X80533747Y-123297088D01*
X80532901Y-123298200D01*
X80523177Y-123311973D01*
X80506651Y-123336254D01*
X80494708Y-123354080D01*
X80476772Y-123380506D01*
X80463365Y-123399344D01*
X80458926Y-123404880D01*
X80451330Y-123415262D01*
X80435795Y-123438435D01*
X80415241Y-123470014D01*
X80408144Y-123481080D01*
X80386350Y-123514209D01*
X80368206Y-123540011D01*
X80356765Y-123554201D01*
X80355026Y-123555586D01*
X80347418Y-123567187D01*
X80347360Y-123568374D01*
X80341818Y-123581412D01*
X80327665Y-123604351D01*
X80316880Y-123619852D01*
X80299295Y-123646656D01*
X80288283Y-123668309D01*
X80286400Y-123675644D01*
X80280390Y-123688156D01*
X80276240Y-123689360D01*
X80266369Y-123696475D01*
X80266080Y-123698680D01*
X80261220Y-123711175D01*
X80248268Y-123736385D01*
X80229668Y-123769647D01*
X80222173Y-123782500D01*
X80156551Y-123897884D01*
X80088898Y-124024154D01*
X80022725Y-124154410D01*
X79961539Y-124281750D01*
X79910480Y-124395480D01*
X79901952Y-124414635D01*
X79887857Y-124445641D01*
X79871187Y-124481916D01*
X79870551Y-124483292D01*
X79855273Y-124517762D01*
X79844154Y-124545540D01*
X79839400Y-124561077D01*
X79839360Y-124561723D01*
X79834713Y-124576957D01*
X79823158Y-124601291D01*
X79819171Y-124608605D01*
X79806672Y-124631633D01*
X79799957Y-124645525D01*
X79799566Y-124647014D01*
X79796683Y-124657105D01*
X79788893Y-124678252D01*
X79788228Y-124679960D01*
X79760311Y-124752346D01*
X79731033Y-124830040D01*
X79701404Y-124910192D01*
X79672436Y-124989951D01*
X79645142Y-125066467D01*
X79620532Y-125136892D01*
X79599618Y-125198374D01*
X79583411Y-125248064D01*
X79572923Y-125283113D01*
X79570058Y-125294640D01*
X79564111Y-125314643D01*
X79554655Y-125340360D01*
X79544651Y-125368796D01*
X79533461Y-125405421D01*
X79528974Y-125421640D01*
X79520078Y-125454576D01*
X79507776Y-125499405D01*
X79494176Y-125548462D01*
X79488450Y-125568960D01*
X79471227Y-125630549D01*
X79458650Y-125675803D01*
X79449848Y-125707942D01*
X79443950Y-125730187D01*
X79440082Y-125745758D01*
X79437577Y-125756920D01*
X79432417Y-125779934D01*
X79425149Y-125811034D01*
X79423515Y-125817880D01*
X79416382Y-125848517D01*
X79406961Y-125890123D01*
X79397264Y-125933806D01*
X79397064Y-125934720D01*
X79387428Y-125978344D01*
X79378092Y-126020087D01*
X79371045Y-126051061D01*
X79370929Y-126051560D01*
X79363256Y-126087381D01*
X79353284Y-126137819D01*
X79342008Y-126197441D01*
X79330426Y-126260813D01*
X79319533Y-126322499D01*
X79310326Y-126377068D01*
X79304799Y-126412240D01*
X79277976Y-126606983D01*
X79257605Y-126788698D01*
X79243209Y-126963462D01*
X79234313Y-127137349D01*
X79230442Y-127316434D01*
X79230199Y-127364740D01*
X79229760Y-127600960D01*
X77502560Y-127600960D01*
X77502560Y-120885200D01*
X97497440Y-120885200D01*
X97497440Y-129114800D01*
G04 #@! TO.C,U4*
D11*
X155452380Y-79761904D02*
X156261904Y-79761904D01*
X156357142Y-79714285D01*
X156404761Y-79666666D01*
X156452380Y-79571428D01*
X156452380Y-79380952D01*
X156404761Y-79285714D01*
X156357142Y-79238095D01*
X156261904Y-79190476D01*
X155452380Y-79190476D01*
X155785714Y-78285714D02*
X156452380Y-78285714D01*
X155404761Y-78523809D02*
X156119047Y-78761904D01*
X156119047Y-78142857D01*
G04 #@! TO.C,U3*
X135452380Y-79761904D02*
X136261904Y-79761904D01*
X136357142Y-79714285D01*
X136404761Y-79666666D01*
X136452380Y-79571428D01*
X136452380Y-79380952D01*
X136404761Y-79285714D01*
X136357142Y-79238095D01*
X136261904Y-79190476D01*
X135452380Y-79190476D01*
X135452380Y-78809523D02*
X135452380Y-78190476D01*
X135833333Y-78523809D01*
X135833333Y-78380952D01*
X135880952Y-78285714D01*
X135928571Y-78238095D01*
X136023809Y-78190476D01*
X136261904Y-78190476D01*
X136357142Y-78238095D01*
X136404761Y-78285714D01*
X136452380Y-78380952D01*
X136452380Y-78666666D01*
X136404761Y-78761904D01*
X136357142Y-78809523D01*
G04 #@! TO.C,U2*
X115452380Y-79761904D02*
X116261904Y-79761904D01*
X116357142Y-79714285D01*
X116404761Y-79666666D01*
X116452380Y-79571428D01*
X116452380Y-79380952D01*
X116404761Y-79285714D01*
X116357142Y-79238095D01*
X116261904Y-79190476D01*
X115452380Y-79190476D01*
X115547619Y-78761904D02*
X115500000Y-78714285D01*
X115452380Y-78619047D01*
X115452380Y-78380952D01*
X115500000Y-78285714D01*
X115547619Y-78238095D01*
X115642857Y-78190476D01*
X115738095Y-78190476D01*
X115880952Y-78238095D01*
X116452380Y-78809523D01*
X116452380Y-78190476D01*
G04 #@! TO.C,U1*
X95452380Y-79761904D02*
X96261904Y-79761904D01*
X96357142Y-79714285D01*
X96404761Y-79666666D01*
X96452380Y-79571428D01*
X96452380Y-79380952D01*
X96404761Y-79285714D01*
X96357142Y-79238095D01*
X96261904Y-79190476D01*
X95452380Y-79190476D01*
X96452380Y-78190476D02*
X96452380Y-78761904D01*
X96452380Y-78476190D02*
X95452380Y-78476190D01*
X95595238Y-78571428D01*
X95690476Y-78666666D01*
X95738095Y-78761904D01*
G04 #@! TO.C,C2*
D18*
X146788333Y-40683571D02*
X146727857Y-40744047D01*
X146546428Y-40804523D01*
X146425476Y-40804523D01*
X146244047Y-40744047D01*
X146123095Y-40623095D01*
X146062619Y-40502142D01*
X146002142Y-40260238D01*
X146002142Y-40078809D01*
X146062619Y-39836904D01*
X146123095Y-39715952D01*
X146244047Y-39595000D01*
X146425476Y-39534523D01*
X146546428Y-39534523D01*
X146727857Y-39595000D01*
X146788333Y-39655476D01*
X147272142Y-39655476D02*
X147332619Y-39595000D01*
X147453571Y-39534523D01*
X147755952Y-39534523D01*
X147876904Y-39595000D01*
X147937380Y-39655476D01*
X147997857Y-39776428D01*
X147997857Y-39897380D01*
X147937380Y-40078809D01*
X147211666Y-40804523D01*
X147997857Y-40804523D01*
G04 #@! TO.C,C3*
X119510333Y-119882371D02*
X119449857Y-119942847D01*
X119268428Y-120003323D01*
X119147476Y-120003323D01*
X118966047Y-119942847D01*
X118845095Y-119821895D01*
X118784619Y-119700942D01*
X118724142Y-119459038D01*
X118724142Y-119277609D01*
X118784619Y-119035704D01*
X118845095Y-118914752D01*
X118966047Y-118793800D01*
X119147476Y-118733323D01*
X119268428Y-118733323D01*
X119449857Y-118793800D01*
X119510333Y-118854276D01*
X119933666Y-118733323D02*
X120719857Y-118733323D01*
X120296523Y-119217133D01*
X120477952Y-119217133D01*
X120598904Y-119277609D01*
X120659380Y-119338085D01*
X120719857Y-119459038D01*
X120719857Y-119761419D01*
X120659380Y-119882371D01*
X120598904Y-119942847D01*
X120477952Y-120003323D01*
X120115095Y-120003323D01*
X119994142Y-119942847D01*
X119933666Y-119882371D01*
G04 #@! TO.C,D1*
D11*
X102447804Y-44258580D02*
X102447804Y-43258580D01*
X102685900Y-43258580D01*
X102828757Y-43306200D01*
X102923995Y-43401438D01*
X102971614Y-43496676D01*
X103019233Y-43687152D01*
X103019233Y-43830009D01*
X102971614Y-44020485D01*
X102923995Y-44115723D01*
X102828757Y-44210961D01*
X102685900Y-44258580D01*
X102447804Y-44258580D01*
X103971614Y-44258580D02*
X103400185Y-44258580D01*
X103685900Y-44258580D02*
X103685900Y-43258580D01*
X103590661Y-43401438D01*
X103495423Y-43496676D01*
X103400185Y-43544295D01*
G04 #@! TO.C,R1*
X109699433Y-44131580D02*
X109366100Y-43655390D01*
X109128004Y-44131580D02*
X109128004Y-43131580D01*
X109508957Y-43131580D01*
X109604195Y-43179200D01*
X109651814Y-43226819D01*
X109699433Y-43322057D01*
X109699433Y-43464914D01*
X109651814Y-43560152D01*
X109604195Y-43607771D01*
X109508957Y-43655390D01*
X109128004Y-43655390D01*
X110651814Y-44131580D02*
X110080385Y-44131580D01*
X110366100Y-44131580D02*
X110366100Y-43131580D01*
X110270861Y-43274438D01*
X110175623Y-43369676D01*
X110080385Y-43417295D01*
G04 #@! TO.C,C1*
D19*
X94354935Y-37823636D02*
X94450260Y-37918961D01*
X94545584Y-38204935D01*
X94545584Y-38395584D01*
X94450260Y-38681558D01*
X94259610Y-38872208D01*
X94068961Y-38967533D01*
X93687662Y-39062857D01*
X93401688Y-39062857D01*
X93020389Y-38967533D01*
X92829739Y-38872208D01*
X92639090Y-38681558D01*
X92543765Y-38395584D01*
X92543765Y-38204935D01*
X92639090Y-37918961D01*
X92734415Y-37823636D01*
X94545584Y-35917142D02*
X94545584Y-37061038D01*
X94545584Y-36489090D02*
X92543765Y-36489090D01*
X92829739Y-36679739D01*
X93020389Y-36870389D01*
X93115714Y-37061038D01*
G04 #@! TD*
M02*
