G04 #@! TF.GenerationSoftware,KiCad,Pcbnew,(5.0.2)-1*
G04 #@! TF.CreationDate,2022-03-17T12:51:48+05:30*
G04 #@! TF.ProjectId,4ESC_board,34455343-5f62-46f6-9172-642e6b696361,rev?*
G04 #@! TF.SameCoordinates,Original*
G04 #@! TF.FileFunction,Soldermask,Top*
G04 #@! TF.FilePolarity,Negative*
%FSLAX46Y46*%
G04 Gerber Fmt 4.6, Leading zero omitted, Abs format (unit mm)*
G04 Created by KiCad (PCBNEW (5.0.2)-1) date 03/17/22 12:51:48*
%MOMM*%
%LPD*%
G01*
G04 APERTURE LIST*
%ADD10C,0.150000*%
%ADD11C,0.100000*%
G04 APERTURE END LIST*
D10*
G36*
X84500000Y-102000000D02*
X101500000Y-119000000D01*
X113500000Y-119000000D01*
X115000000Y-117500000D01*
X115000000Y-113000000D01*
X117500000Y-113000000D01*
X117500000Y-118500000D01*
X115000000Y-121000000D01*
X100000000Y-121000000D01*
X82000000Y-103000000D01*
X82000000Y-102000000D01*
X84500000Y-102000000D01*
G37*
X84500000Y-102000000D02*
X101500000Y-119000000D01*
X113500000Y-119000000D01*
X115000000Y-117500000D01*
X115000000Y-113000000D01*
X117500000Y-113000000D01*
X117500000Y-118500000D01*
X115000000Y-121000000D01*
X100000000Y-121000000D01*
X82000000Y-103000000D01*
X82000000Y-102000000D01*
X84500000Y-102000000D01*
G36*
X90000000Y-102000000D02*
X104000000Y-116000000D01*
X111000000Y-116000000D01*
X112000000Y-115000000D01*
X112000000Y-113000000D01*
X114500000Y-113000000D01*
X114500000Y-116000000D01*
X112500000Y-118000000D01*
X112000000Y-118500000D01*
X103000000Y-118500000D01*
X87500000Y-103000000D01*
X87500000Y-102000000D01*
X90000000Y-102000000D01*
G37*
X90000000Y-102000000D02*
X104000000Y-116000000D01*
X111000000Y-116000000D01*
X112000000Y-115000000D01*
X112000000Y-113000000D01*
X114500000Y-113000000D01*
X114500000Y-116000000D01*
X112500000Y-118000000D01*
X112000000Y-118500000D01*
X103000000Y-118500000D01*
X87500000Y-103000000D01*
X87500000Y-102000000D01*
X90000000Y-102000000D01*
G36*
X96000000Y-99500000D02*
X109500000Y-113000000D01*
X111000000Y-113000000D01*
X111000000Y-115000000D01*
X111000000Y-115500000D01*
X108500000Y-115500000D01*
X95000000Y-102000000D01*
X96000000Y-99500000D01*
G37*
X96000000Y-99500000D02*
X109500000Y-113000000D01*
X111000000Y-113000000D01*
X111000000Y-115000000D01*
X111000000Y-115500000D01*
X108500000Y-115500000D01*
X95000000Y-102000000D01*
X96000000Y-99500000D01*
G36*
X104000000Y-102000000D02*
X104000000Y-103500000D01*
X111500000Y-111000000D01*
X110000000Y-112500000D01*
X102000000Y-104500000D01*
X102000000Y-102000000D01*
X104000000Y-102000000D01*
G37*
X104000000Y-102000000D02*
X104000000Y-103500000D01*
X111500000Y-111000000D01*
X110000000Y-112500000D01*
X102000000Y-104500000D01*
X102000000Y-102000000D01*
X104000000Y-102000000D01*
G36*
X109500000Y-101500000D02*
X109500000Y-104500000D01*
X114500000Y-109500000D01*
X114500000Y-112000000D01*
X112000000Y-112000000D01*
X112000000Y-110500000D01*
X107500000Y-106000000D01*
X107500000Y-101500000D01*
X109500000Y-101500000D01*
G37*
X109500000Y-101500000D02*
X109500000Y-104500000D01*
X114500000Y-109500000D01*
X114500000Y-112000000D01*
X112000000Y-112000000D01*
X112000000Y-110500000D01*
X107500000Y-106000000D01*
X107500000Y-101500000D01*
X109500000Y-101500000D01*
G36*
X116000000Y-94500000D02*
X117500000Y-96000000D01*
X117500000Y-112000000D01*
X115000000Y-112000000D01*
X115000000Y-102000000D01*
X115000000Y-94500000D01*
X116000000Y-94500000D01*
G37*
X116000000Y-94500000D02*
X117500000Y-96000000D01*
X117500000Y-112000000D01*
X115000000Y-112000000D01*
X115000000Y-102000000D01*
X115000000Y-94500000D01*
X116000000Y-94500000D01*
G36*
X121000000Y-97500000D02*
X120500000Y-98000000D01*
X120500000Y-112000000D01*
X118000000Y-112000000D01*
X118000000Y-97500000D01*
X121000000Y-94500000D01*
X121000000Y-97500000D01*
G37*
X121000000Y-97500000D02*
X120500000Y-98000000D01*
X120500000Y-112000000D01*
X118000000Y-112000000D01*
X118000000Y-97500000D01*
X121000000Y-94500000D01*
X121000000Y-97500000D01*
G36*
X129500000Y-102000000D02*
X129500000Y-104000000D01*
X123000000Y-110500000D01*
X123000000Y-112000000D01*
X121000000Y-112000000D01*
X121000000Y-109500000D01*
X127500000Y-103000000D01*
X127500000Y-102000000D01*
X129500000Y-102000000D01*
G37*
X129500000Y-102000000D02*
X129500000Y-104000000D01*
X123000000Y-110500000D01*
X123000000Y-112000000D01*
X121000000Y-112000000D01*
X121000000Y-109500000D01*
X127500000Y-103000000D01*
X127500000Y-102000000D01*
X129500000Y-102000000D01*
G36*
X135000000Y-102000000D02*
X135000000Y-103000000D01*
X126000000Y-112000000D01*
X124000000Y-112000000D01*
X124000000Y-110500000D01*
X132000000Y-102500000D01*
X132000000Y-102000000D01*
X135000000Y-102000000D01*
G37*
X135000000Y-102000000D02*
X135000000Y-103000000D01*
X126000000Y-112000000D01*
X124000000Y-112000000D01*
X124000000Y-110500000D01*
X132000000Y-102500000D01*
X132000000Y-102000000D01*
X135000000Y-102000000D01*
G36*
X141000000Y-102500000D02*
X128500000Y-115000000D01*
X124000000Y-115000000D01*
X124000000Y-113000000D01*
X127000000Y-113000000D01*
X141000000Y-99000000D01*
X141000000Y-102500000D01*
G37*
X141000000Y-102500000D02*
X128500000Y-115000000D01*
X124000000Y-115000000D01*
X124000000Y-113000000D01*
X127000000Y-113000000D01*
X141000000Y-99000000D01*
X141000000Y-102500000D01*
G36*
X149500000Y-101500000D02*
X149500000Y-102500000D01*
X149500000Y-103000000D01*
X134000000Y-118500000D01*
X126000000Y-118500000D01*
X125500000Y-118000000D01*
X123000000Y-118000000D01*
X121000000Y-116000000D01*
X121000000Y-113000000D01*
X123500000Y-113000000D01*
X123500000Y-115500000D01*
X124000000Y-116000000D01*
X133000000Y-116000000D01*
X147000000Y-102000000D01*
X147000000Y-101500000D01*
X149500000Y-101500000D01*
G37*
X149500000Y-101500000D02*
X149500000Y-102500000D01*
X149500000Y-103000000D01*
X134000000Y-118500000D01*
X126000000Y-118500000D01*
X125500000Y-118000000D01*
X123000000Y-118000000D01*
X121000000Y-116000000D01*
X121000000Y-113000000D01*
X123500000Y-113000000D01*
X123500000Y-115500000D01*
X124000000Y-116000000D01*
X133000000Y-116000000D01*
X147000000Y-102000000D01*
X147000000Y-101500000D01*
X149500000Y-101500000D01*
G36*
X155000000Y-101500000D02*
X155000000Y-103000000D01*
X136500000Y-121500000D01*
X125000000Y-121500000D01*
X125000000Y-121000000D01*
X120000000Y-121000000D01*
X118000000Y-119000000D01*
X118000000Y-113000000D01*
X120500000Y-113000000D01*
X120500000Y-118000000D01*
X121000000Y-118500000D01*
X125500000Y-118500000D01*
X126000000Y-119000000D01*
X135500000Y-119000000D01*
X152000000Y-102500000D01*
X152000000Y-100500000D01*
X155000000Y-100500000D01*
X155000000Y-101500000D01*
G37*
X155000000Y-101500000D02*
X155000000Y-103000000D01*
X136500000Y-121500000D01*
X125000000Y-121500000D01*
X125000000Y-121000000D01*
X120000000Y-121000000D01*
X118000000Y-119000000D01*
X118000000Y-113000000D01*
X120500000Y-113000000D01*
X120500000Y-118000000D01*
X121000000Y-118500000D01*
X125500000Y-118500000D01*
X126000000Y-119000000D01*
X135500000Y-119000000D01*
X152000000Y-102500000D01*
X152000000Y-100500000D01*
X155000000Y-100500000D01*
X155000000Y-101500000D01*
D11*
G36*
X123414527Y-121115536D02*
X123514410Y-121135404D01*
X123796674Y-121252321D01*
X124050705Y-121422059D01*
X124266741Y-121638095D01*
X124436479Y-121892126D01*
X124553396Y-122174390D01*
X124613000Y-122474040D01*
X124613000Y-122779560D01*
X124553396Y-123079210D01*
X124436479Y-123361474D01*
X124266741Y-123615505D01*
X124050705Y-123831541D01*
X123796674Y-124001279D01*
X123514410Y-124118196D01*
X123414527Y-124138064D01*
X123214762Y-124177800D01*
X122909238Y-124177800D01*
X122709473Y-124138064D01*
X122609590Y-124118196D01*
X122327326Y-124001279D01*
X122073295Y-123831541D01*
X121857259Y-123615505D01*
X121687521Y-123361474D01*
X121570604Y-123079210D01*
X121511000Y-122779560D01*
X121511000Y-122474040D01*
X121570604Y-122174390D01*
X121687521Y-121892126D01*
X121857259Y-121638095D01*
X122073295Y-121422059D01*
X122327326Y-121252321D01*
X122609590Y-121135404D01*
X122709473Y-121115536D01*
X122909238Y-121075800D01*
X123214762Y-121075800D01*
X123414527Y-121115536D01*
X123414527Y-121115536D01*
G37*
G36*
X112734527Y-121115536D02*
X112834410Y-121135404D01*
X113116674Y-121252321D01*
X113370705Y-121422059D01*
X113586741Y-121638095D01*
X113756479Y-121892126D01*
X113873396Y-122174390D01*
X113933000Y-122474040D01*
X113933000Y-122779560D01*
X113873396Y-123079210D01*
X113756479Y-123361474D01*
X113586741Y-123615505D01*
X113370705Y-123831541D01*
X113116674Y-124001279D01*
X112834410Y-124118196D01*
X112734527Y-124138064D01*
X112534762Y-124177800D01*
X112229238Y-124177800D01*
X112029473Y-124138064D01*
X111929590Y-124118196D01*
X111647326Y-124001279D01*
X111393295Y-123831541D01*
X111177259Y-123615505D01*
X111007521Y-123361474D01*
X110890604Y-123079210D01*
X110831000Y-122779560D01*
X110831000Y-122474040D01*
X110890604Y-122174390D01*
X111007521Y-121892126D01*
X111177259Y-121638095D01*
X111393295Y-121422059D01*
X111647326Y-121252321D01*
X111929590Y-121135404D01*
X112029473Y-121115536D01*
X112229238Y-121075800D01*
X112534762Y-121075800D01*
X112734527Y-121115536D01*
X112734527Y-121115536D01*
G37*
G36*
X110460016Y-113312158D02*
X110460019Y-113312159D01*
X110460018Y-113312159D01*
X110608521Y-113373670D01*
X110742170Y-113462972D01*
X110855828Y-113576630D01*
X110945130Y-113710279D01*
X110996087Y-113833303D01*
X111006642Y-113858784D01*
X111038000Y-114016430D01*
X111038000Y-114177170D01*
X111006642Y-114334816D01*
X111006641Y-114334818D01*
X110945130Y-114483321D01*
X110855828Y-114616970D01*
X110742170Y-114730628D01*
X110608521Y-114819930D01*
X110485497Y-114870887D01*
X110460016Y-114881442D01*
X110302370Y-114912800D01*
X110141630Y-114912800D01*
X109983984Y-114881442D01*
X109958503Y-114870887D01*
X109835479Y-114819930D01*
X109701830Y-114730628D01*
X109588172Y-114616970D01*
X109498870Y-114483321D01*
X109437359Y-114334818D01*
X109437358Y-114334816D01*
X109406000Y-114177170D01*
X109406000Y-114016430D01*
X109437358Y-113858784D01*
X109447913Y-113833303D01*
X109498870Y-113710279D01*
X109588172Y-113576630D01*
X109701830Y-113462972D01*
X109835479Y-113373670D01*
X109983982Y-113312159D01*
X109983981Y-113312159D01*
X109983984Y-113312158D01*
X110141630Y-113280800D01*
X110302370Y-113280800D01*
X110460016Y-113312158D01*
X110460016Y-113312158D01*
G37*
G36*
X113460016Y-113312158D02*
X113460019Y-113312159D01*
X113460018Y-113312159D01*
X113608521Y-113373670D01*
X113742170Y-113462972D01*
X113855828Y-113576630D01*
X113945130Y-113710279D01*
X113996087Y-113833303D01*
X114006642Y-113858784D01*
X114038000Y-114016430D01*
X114038000Y-114177170D01*
X114006642Y-114334816D01*
X114006641Y-114334818D01*
X113945130Y-114483321D01*
X113855828Y-114616970D01*
X113742170Y-114730628D01*
X113608521Y-114819930D01*
X113485497Y-114870887D01*
X113460016Y-114881442D01*
X113302370Y-114912800D01*
X113141630Y-114912800D01*
X112983984Y-114881442D01*
X112958503Y-114870887D01*
X112835479Y-114819930D01*
X112701830Y-114730628D01*
X112588172Y-114616970D01*
X112498870Y-114483321D01*
X112437359Y-114334818D01*
X112437358Y-114334816D01*
X112406000Y-114177170D01*
X112406000Y-114016430D01*
X112437358Y-113858784D01*
X112447913Y-113833303D01*
X112498870Y-113710279D01*
X112588172Y-113576630D01*
X112701830Y-113462972D01*
X112835479Y-113373670D01*
X112983982Y-113312159D01*
X112983981Y-113312159D01*
X112983984Y-113312158D01*
X113141630Y-113280800D01*
X113302370Y-113280800D01*
X113460016Y-113312158D01*
X113460016Y-113312158D01*
G37*
G36*
X119460016Y-113312158D02*
X119460019Y-113312159D01*
X119460018Y-113312159D01*
X119608521Y-113373670D01*
X119742170Y-113462972D01*
X119855828Y-113576630D01*
X119945130Y-113710279D01*
X119996087Y-113833303D01*
X120006642Y-113858784D01*
X120038000Y-114016430D01*
X120038000Y-114177170D01*
X120006642Y-114334816D01*
X120006641Y-114334818D01*
X119945130Y-114483321D01*
X119855828Y-114616970D01*
X119742170Y-114730628D01*
X119608521Y-114819930D01*
X119485497Y-114870887D01*
X119460016Y-114881442D01*
X119302370Y-114912800D01*
X119141630Y-114912800D01*
X118983984Y-114881442D01*
X118958503Y-114870887D01*
X118835479Y-114819930D01*
X118701830Y-114730628D01*
X118588172Y-114616970D01*
X118498870Y-114483321D01*
X118437359Y-114334818D01*
X118437358Y-114334816D01*
X118406000Y-114177170D01*
X118406000Y-114016430D01*
X118437358Y-113858784D01*
X118447913Y-113833303D01*
X118498870Y-113710279D01*
X118588172Y-113576630D01*
X118701830Y-113462972D01*
X118835479Y-113373670D01*
X118983982Y-113312159D01*
X118983981Y-113312159D01*
X118983984Y-113312158D01*
X119141630Y-113280800D01*
X119302370Y-113280800D01*
X119460016Y-113312158D01*
X119460016Y-113312158D01*
G37*
G36*
X122460016Y-113312158D02*
X122460019Y-113312159D01*
X122460018Y-113312159D01*
X122608521Y-113373670D01*
X122742170Y-113462972D01*
X122855828Y-113576630D01*
X122945130Y-113710279D01*
X122996087Y-113833303D01*
X123006642Y-113858784D01*
X123038000Y-114016430D01*
X123038000Y-114177170D01*
X123006642Y-114334816D01*
X123006641Y-114334818D01*
X122945130Y-114483321D01*
X122855828Y-114616970D01*
X122742170Y-114730628D01*
X122608521Y-114819930D01*
X122485497Y-114870887D01*
X122460016Y-114881442D01*
X122302370Y-114912800D01*
X122141630Y-114912800D01*
X121983984Y-114881442D01*
X121958503Y-114870887D01*
X121835479Y-114819930D01*
X121701830Y-114730628D01*
X121588172Y-114616970D01*
X121498870Y-114483321D01*
X121437359Y-114334818D01*
X121437358Y-114334816D01*
X121406000Y-114177170D01*
X121406000Y-114016430D01*
X121437358Y-113858784D01*
X121447913Y-113833303D01*
X121498870Y-113710279D01*
X121588172Y-113576630D01*
X121701830Y-113462972D01*
X121835479Y-113373670D01*
X121983982Y-113312159D01*
X121983981Y-113312159D01*
X121983984Y-113312158D01*
X122141630Y-113280800D01*
X122302370Y-113280800D01*
X122460016Y-113312158D01*
X122460016Y-113312158D01*
G37*
G36*
X125460016Y-113312158D02*
X125460019Y-113312159D01*
X125460018Y-113312159D01*
X125608521Y-113373670D01*
X125742170Y-113462972D01*
X125855828Y-113576630D01*
X125945130Y-113710279D01*
X125996087Y-113833303D01*
X126006642Y-113858784D01*
X126038000Y-114016430D01*
X126038000Y-114177170D01*
X126006642Y-114334816D01*
X126006641Y-114334818D01*
X125945130Y-114483321D01*
X125855828Y-114616970D01*
X125742170Y-114730628D01*
X125608521Y-114819930D01*
X125485497Y-114870887D01*
X125460016Y-114881442D01*
X125302370Y-114912800D01*
X125141630Y-114912800D01*
X124983984Y-114881442D01*
X124958503Y-114870887D01*
X124835479Y-114819930D01*
X124701830Y-114730628D01*
X124588172Y-114616970D01*
X124498870Y-114483321D01*
X124437359Y-114334818D01*
X124437358Y-114334816D01*
X124406000Y-114177170D01*
X124406000Y-114016430D01*
X124437358Y-113858784D01*
X124447913Y-113833303D01*
X124498870Y-113710279D01*
X124588172Y-113576630D01*
X124701830Y-113462972D01*
X124835479Y-113373670D01*
X124983982Y-113312159D01*
X124983981Y-113312159D01*
X124983984Y-113312158D01*
X125141630Y-113280800D01*
X125302370Y-113280800D01*
X125460016Y-113312158D01*
X125460016Y-113312158D01*
G37*
G36*
X116460016Y-113312158D02*
X116460019Y-113312159D01*
X116460018Y-113312159D01*
X116608521Y-113373670D01*
X116742170Y-113462972D01*
X116855828Y-113576630D01*
X116945130Y-113710279D01*
X116996087Y-113833303D01*
X117006642Y-113858784D01*
X117038000Y-114016430D01*
X117038000Y-114177170D01*
X117006642Y-114334816D01*
X117006641Y-114334818D01*
X116945130Y-114483321D01*
X116855828Y-114616970D01*
X116742170Y-114730628D01*
X116608521Y-114819930D01*
X116485497Y-114870887D01*
X116460016Y-114881442D01*
X116302370Y-114912800D01*
X116141630Y-114912800D01*
X115983984Y-114881442D01*
X115958503Y-114870887D01*
X115835479Y-114819930D01*
X115701830Y-114730628D01*
X115588172Y-114616970D01*
X115498870Y-114483321D01*
X115437359Y-114334818D01*
X115437358Y-114334816D01*
X115406000Y-114177170D01*
X115406000Y-114016430D01*
X115437358Y-113858784D01*
X115447913Y-113833303D01*
X115498870Y-113710279D01*
X115588172Y-113576630D01*
X115701830Y-113462972D01*
X115835479Y-113373670D01*
X115983982Y-113312159D01*
X115983981Y-113312159D01*
X115983984Y-113312158D01*
X116141630Y-113280800D01*
X116302370Y-113280800D01*
X116460016Y-113312158D01*
X116460016Y-113312158D01*
G37*
G36*
X116460016Y-110312158D02*
X116460019Y-110312159D01*
X116460018Y-110312159D01*
X116608521Y-110373670D01*
X116742170Y-110462972D01*
X116855828Y-110576630D01*
X116945130Y-110710279D01*
X116996087Y-110833303D01*
X117006642Y-110858784D01*
X117038000Y-111016430D01*
X117038000Y-111177170D01*
X117006642Y-111334816D01*
X117006641Y-111334818D01*
X116945130Y-111483321D01*
X116855828Y-111616970D01*
X116742170Y-111730628D01*
X116608521Y-111819930D01*
X116485497Y-111870887D01*
X116460016Y-111881442D01*
X116302370Y-111912800D01*
X116141630Y-111912800D01*
X115983984Y-111881442D01*
X115958503Y-111870887D01*
X115835479Y-111819930D01*
X115701830Y-111730628D01*
X115588172Y-111616970D01*
X115498870Y-111483321D01*
X115437359Y-111334818D01*
X115437358Y-111334816D01*
X115406000Y-111177170D01*
X115406000Y-111016430D01*
X115437358Y-110858784D01*
X115447913Y-110833303D01*
X115498870Y-110710279D01*
X115588172Y-110576630D01*
X115701830Y-110462972D01*
X115835479Y-110373670D01*
X115983982Y-110312159D01*
X115983981Y-110312159D01*
X115983984Y-110312158D01*
X116141630Y-110280800D01*
X116302370Y-110280800D01*
X116460016Y-110312158D01*
X116460016Y-110312158D01*
G37*
G36*
X110460016Y-110312158D02*
X110460019Y-110312159D01*
X110460018Y-110312159D01*
X110608521Y-110373670D01*
X110742170Y-110462972D01*
X110855828Y-110576630D01*
X110945130Y-110710279D01*
X110996087Y-110833303D01*
X111006642Y-110858784D01*
X111038000Y-111016430D01*
X111038000Y-111177170D01*
X111006642Y-111334816D01*
X111006641Y-111334818D01*
X110945130Y-111483321D01*
X110855828Y-111616970D01*
X110742170Y-111730628D01*
X110608521Y-111819930D01*
X110485497Y-111870887D01*
X110460016Y-111881442D01*
X110302370Y-111912800D01*
X110141630Y-111912800D01*
X109983984Y-111881442D01*
X109958503Y-111870887D01*
X109835479Y-111819930D01*
X109701830Y-111730628D01*
X109588172Y-111616970D01*
X109498870Y-111483321D01*
X109437359Y-111334818D01*
X109437358Y-111334816D01*
X109406000Y-111177170D01*
X109406000Y-111016430D01*
X109437358Y-110858784D01*
X109447913Y-110833303D01*
X109498870Y-110710279D01*
X109588172Y-110576630D01*
X109701830Y-110462972D01*
X109835479Y-110373670D01*
X109983982Y-110312159D01*
X109983981Y-110312159D01*
X109983984Y-110312158D01*
X110141630Y-110280800D01*
X110302370Y-110280800D01*
X110460016Y-110312158D01*
X110460016Y-110312158D01*
G37*
G36*
X113460016Y-110312158D02*
X113460019Y-110312159D01*
X113460018Y-110312159D01*
X113608521Y-110373670D01*
X113742170Y-110462972D01*
X113855828Y-110576630D01*
X113945130Y-110710279D01*
X113996087Y-110833303D01*
X114006642Y-110858784D01*
X114038000Y-111016430D01*
X114038000Y-111177170D01*
X114006642Y-111334816D01*
X114006641Y-111334818D01*
X113945130Y-111483321D01*
X113855828Y-111616970D01*
X113742170Y-111730628D01*
X113608521Y-111819930D01*
X113485497Y-111870887D01*
X113460016Y-111881442D01*
X113302370Y-111912800D01*
X113141630Y-111912800D01*
X112983984Y-111881442D01*
X112958503Y-111870887D01*
X112835479Y-111819930D01*
X112701830Y-111730628D01*
X112588172Y-111616970D01*
X112498870Y-111483321D01*
X112437359Y-111334818D01*
X112437358Y-111334816D01*
X112406000Y-111177170D01*
X112406000Y-111016430D01*
X112437358Y-110858784D01*
X112447913Y-110833303D01*
X112498870Y-110710279D01*
X112588172Y-110576630D01*
X112701830Y-110462972D01*
X112835479Y-110373670D01*
X112983982Y-110312159D01*
X112983981Y-110312159D01*
X112983984Y-110312158D01*
X113141630Y-110280800D01*
X113302370Y-110280800D01*
X113460016Y-110312158D01*
X113460016Y-110312158D01*
G37*
G36*
X125460016Y-110312158D02*
X125460019Y-110312159D01*
X125460018Y-110312159D01*
X125608521Y-110373670D01*
X125742170Y-110462972D01*
X125855828Y-110576630D01*
X125945130Y-110710279D01*
X125996087Y-110833303D01*
X126006642Y-110858784D01*
X126038000Y-111016430D01*
X126038000Y-111177170D01*
X126006642Y-111334816D01*
X126006641Y-111334818D01*
X125945130Y-111483321D01*
X125855828Y-111616970D01*
X125742170Y-111730628D01*
X125608521Y-111819930D01*
X125485497Y-111870887D01*
X125460016Y-111881442D01*
X125302370Y-111912800D01*
X125141630Y-111912800D01*
X124983984Y-111881442D01*
X124958503Y-111870887D01*
X124835479Y-111819930D01*
X124701830Y-111730628D01*
X124588172Y-111616970D01*
X124498870Y-111483321D01*
X124437359Y-111334818D01*
X124437358Y-111334816D01*
X124406000Y-111177170D01*
X124406000Y-111016430D01*
X124437358Y-110858784D01*
X124447913Y-110833303D01*
X124498870Y-110710279D01*
X124588172Y-110576630D01*
X124701830Y-110462972D01*
X124835479Y-110373670D01*
X124983982Y-110312159D01*
X124983981Y-110312159D01*
X124983984Y-110312158D01*
X125141630Y-110280800D01*
X125302370Y-110280800D01*
X125460016Y-110312158D01*
X125460016Y-110312158D01*
G37*
G36*
X122460016Y-110312158D02*
X122460019Y-110312159D01*
X122460018Y-110312159D01*
X122608521Y-110373670D01*
X122742170Y-110462972D01*
X122855828Y-110576630D01*
X122945130Y-110710279D01*
X122996087Y-110833303D01*
X123006642Y-110858784D01*
X123038000Y-111016430D01*
X123038000Y-111177170D01*
X123006642Y-111334816D01*
X123006641Y-111334818D01*
X122945130Y-111483321D01*
X122855828Y-111616970D01*
X122742170Y-111730628D01*
X122608521Y-111819930D01*
X122485497Y-111870887D01*
X122460016Y-111881442D01*
X122302370Y-111912800D01*
X122141630Y-111912800D01*
X121983984Y-111881442D01*
X121958503Y-111870887D01*
X121835479Y-111819930D01*
X121701830Y-111730628D01*
X121588172Y-111616970D01*
X121498870Y-111483321D01*
X121437359Y-111334818D01*
X121437358Y-111334816D01*
X121406000Y-111177170D01*
X121406000Y-111016430D01*
X121437358Y-110858784D01*
X121447913Y-110833303D01*
X121498870Y-110710279D01*
X121588172Y-110576630D01*
X121701830Y-110462972D01*
X121835479Y-110373670D01*
X121983982Y-110312159D01*
X121983981Y-110312159D01*
X121983984Y-110312158D01*
X122141630Y-110280800D01*
X122302370Y-110280800D01*
X122460016Y-110312158D01*
X122460016Y-110312158D01*
G37*
G36*
X119460016Y-110312158D02*
X119460019Y-110312159D01*
X119460018Y-110312159D01*
X119608521Y-110373670D01*
X119742170Y-110462972D01*
X119855828Y-110576630D01*
X119945130Y-110710279D01*
X119996087Y-110833303D01*
X120006642Y-110858784D01*
X120038000Y-111016430D01*
X120038000Y-111177170D01*
X120006642Y-111334816D01*
X120006641Y-111334818D01*
X119945130Y-111483321D01*
X119855828Y-111616970D01*
X119742170Y-111730628D01*
X119608521Y-111819930D01*
X119485497Y-111870887D01*
X119460016Y-111881442D01*
X119302370Y-111912800D01*
X119141630Y-111912800D01*
X118983984Y-111881442D01*
X118958503Y-111870887D01*
X118835479Y-111819930D01*
X118701830Y-111730628D01*
X118588172Y-111616970D01*
X118498870Y-111483321D01*
X118437359Y-111334818D01*
X118437358Y-111334816D01*
X118406000Y-111177170D01*
X118406000Y-111016430D01*
X118437358Y-110858784D01*
X118447913Y-110833303D01*
X118498870Y-110710279D01*
X118588172Y-110576630D01*
X118701830Y-110462972D01*
X118835479Y-110373670D01*
X118983982Y-110312159D01*
X118983981Y-110312159D01*
X118983984Y-110312158D01*
X119141630Y-110280800D01*
X119302370Y-110280800D01*
X119460016Y-110312158D01*
X119460016Y-110312158D01*
G37*
G36*
X125051000Y-102051000D02*
X120949000Y-102051000D01*
X120949000Y-91949000D01*
X125051000Y-91949000D01*
X125051000Y-102051000D01*
X125051000Y-102051000D01*
G37*
G36*
X136051000Y-102051000D02*
X131949000Y-102051000D01*
X131949000Y-91949000D01*
X136051000Y-91949000D01*
X136051000Y-102051000D01*
X136051000Y-102051000D01*
G37*
G36*
X105051000Y-102051000D02*
X100949000Y-102051000D01*
X100949000Y-91949000D01*
X105051000Y-91949000D01*
X105051000Y-102051000D01*
X105051000Y-102051000D01*
G37*
G36*
X110551000Y-102051000D02*
X106449000Y-102051000D01*
X106449000Y-91949000D01*
X110551000Y-91949000D01*
X110551000Y-102051000D01*
X110551000Y-102051000D01*
G37*
G36*
X116051000Y-102051000D02*
X111949000Y-102051000D01*
X111949000Y-91949000D01*
X116051000Y-91949000D01*
X116051000Y-102051000D01*
X116051000Y-102051000D01*
G37*
G36*
X150551000Y-102051000D02*
X146449000Y-102051000D01*
X146449000Y-91949000D01*
X150551000Y-91949000D01*
X150551000Y-102051000D01*
X150551000Y-102051000D01*
G37*
G36*
X156051000Y-102051000D02*
X151949000Y-102051000D01*
X151949000Y-91949000D01*
X156051000Y-91949000D01*
X156051000Y-102051000D01*
X156051000Y-102051000D01*
G37*
G36*
X85051000Y-102051000D02*
X80949000Y-102051000D01*
X80949000Y-91949000D01*
X85051000Y-91949000D01*
X85051000Y-102051000D01*
X85051000Y-102051000D01*
G37*
G36*
X90551000Y-102051000D02*
X86449000Y-102051000D01*
X86449000Y-91949000D01*
X90551000Y-91949000D01*
X90551000Y-102051000D01*
X90551000Y-102051000D01*
G37*
G36*
X96051000Y-102051000D02*
X91949000Y-102051000D01*
X91949000Y-91949000D01*
X96051000Y-91949000D01*
X96051000Y-102051000D01*
X96051000Y-102051000D01*
G37*
G36*
X130551000Y-102051000D02*
X126449000Y-102051000D01*
X126449000Y-91949000D01*
X130551000Y-91949000D01*
X130551000Y-102051000D01*
X130551000Y-102051000D01*
G37*
G36*
X145051000Y-102051000D02*
X140949000Y-102051000D01*
X140949000Y-91949000D01*
X145051000Y-91949000D01*
X145051000Y-102051000D01*
X145051000Y-102051000D01*
G37*
G36*
X136051000Y-67551000D02*
X131949000Y-67551000D01*
X131949000Y-57449000D01*
X136051000Y-57449000D01*
X136051000Y-67551000D01*
X136051000Y-67551000D01*
G37*
G36*
X156051000Y-67551000D02*
X151949000Y-67551000D01*
X151949000Y-57449000D01*
X156051000Y-57449000D01*
X156051000Y-67551000D01*
X156051000Y-67551000D01*
G37*
G36*
X145051000Y-67551000D02*
X140949000Y-67551000D01*
X140949000Y-57449000D01*
X145051000Y-57449000D01*
X145051000Y-67551000D01*
X145051000Y-67551000D01*
G37*
G36*
X125051000Y-67551000D02*
X120949000Y-67551000D01*
X120949000Y-57449000D01*
X125051000Y-57449000D01*
X125051000Y-67551000D01*
X125051000Y-67551000D01*
G37*
G36*
X85051000Y-67551000D02*
X80949000Y-67551000D01*
X80949000Y-57449000D01*
X85051000Y-57449000D01*
X85051000Y-67551000D01*
X85051000Y-67551000D01*
G37*
G36*
X105051000Y-67551000D02*
X100949000Y-67551000D01*
X100949000Y-57449000D01*
X105051000Y-57449000D01*
X105051000Y-67551000D01*
X105051000Y-67551000D01*
G37*
G36*
X116051000Y-67551000D02*
X111949000Y-67551000D01*
X111949000Y-57449000D01*
X116051000Y-57449000D01*
X116051000Y-67551000D01*
X116051000Y-67551000D01*
G37*
G36*
X96051000Y-67551000D02*
X91949000Y-67551000D01*
X91949000Y-57449000D01*
X96051000Y-57449000D01*
X96051000Y-67551000D01*
X96051000Y-67551000D01*
G37*
G36*
X148051000Y-65551000D02*
X146949000Y-65551000D01*
X146949000Y-60449000D01*
X148051000Y-60449000D01*
X148051000Y-65551000D01*
X148051000Y-65551000D01*
G37*
G36*
X128051000Y-65551000D02*
X126949000Y-65551000D01*
X126949000Y-60449000D01*
X128051000Y-60449000D01*
X128051000Y-65551000D01*
X128051000Y-65551000D01*
G37*
G36*
X150051000Y-65551000D02*
X148949000Y-65551000D01*
X148949000Y-60449000D01*
X150051000Y-60449000D01*
X150051000Y-65551000D01*
X150051000Y-65551000D01*
G37*
G36*
X130051000Y-65551000D02*
X128949000Y-65551000D01*
X128949000Y-60449000D01*
X130051000Y-60449000D01*
X130051000Y-65551000D01*
X130051000Y-65551000D01*
G37*
G36*
X108051000Y-65551000D02*
X106949000Y-65551000D01*
X106949000Y-60449000D01*
X108051000Y-60449000D01*
X108051000Y-65551000D01*
X108051000Y-65551000D01*
G37*
G36*
X110051000Y-65551000D02*
X108949000Y-65551000D01*
X108949000Y-60449000D01*
X110051000Y-60449000D01*
X110051000Y-65551000D01*
X110051000Y-65551000D01*
G37*
G36*
X88051000Y-65551000D02*
X86949000Y-65551000D01*
X86949000Y-60449000D01*
X88051000Y-60449000D01*
X88051000Y-65551000D01*
X88051000Y-65551000D01*
G37*
G36*
X90051000Y-65551000D02*
X88949000Y-65551000D01*
X88949000Y-60449000D01*
X90051000Y-60449000D01*
X90051000Y-65551000D01*
X90051000Y-65551000D01*
G37*
G36*
X80049327Y-52880736D02*
X80149210Y-52900604D01*
X80431474Y-53017521D01*
X80685505Y-53187259D01*
X80901541Y-53403295D01*
X81071279Y-53657326D01*
X81188196Y-53939590D01*
X81247800Y-54239240D01*
X81247800Y-54544760D01*
X81188196Y-54844410D01*
X81071279Y-55126674D01*
X80901541Y-55380705D01*
X80685505Y-55596741D01*
X80431474Y-55766479D01*
X80149210Y-55883396D01*
X80049327Y-55903264D01*
X79849562Y-55943000D01*
X79544038Y-55943000D01*
X79344273Y-55903264D01*
X79244390Y-55883396D01*
X78962126Y-55766479D01*
X78708095Y-55596741D01*
X78492059Y-55380705D01*
X78322321Y-55126674D01*
X78205404Y-54844410D01*
X78145800Y-54544760D01*
X78145800Y-54239240D01*
X78205404Y-53939590D01*
X78322321Y-53657326D01*
X78492059Y-53403295D01*
X78708095Y-53187259D01*
X78962126Y-53017521D01*
X79244390Y-52900604D01*
X79344273Y-52880736D01*
X79544038Y-52841000D01*
X79849562Y-52841000D01*
X80049327Y-52880736D01*
X80049327Y-52880736D01*
G37*
G36*
X97519578Y-48372171D02*
X97622737Y-48403463D01*
X97717807Y-48454280D01*
X97801135Y-48522665D01*
X97869520Y-48605993D01*
X97920337Y-48701063D01*
X97951629Y-48804222D01*
X97962800Y-48917641D01*
X97962800Y-50256359D01*
X97951629Y-50369778D01*
X97920337Y-50472937D01*
X97869520Y-50568007D01*
X97801135Y-50651335D01*
X97717807Y-50719720D01*
X97622737Y-50770537D01*
X97519578Y-50801829D01*
X97406159Y-50813000D01*
X91417441Y-50813000D01*
X91304022Y-50801829D01*
X91200863Y-50770537D01*
X91105793Y-50719720D01*
X91022465Y-50651335D01*
X90954080Y-50568007D01*
X90903263Y-50472937D01*
X90871971Y-50369778D01*
X90860800Y-50256359D01*
X90860800Y-48917641D01*
X90871971Y-48804222D01*
X90903263Y-48701063D01*
X90954080Y-48605993D01*
X91022465Y-48522665D01*
X91105793Y-48454280D01*
X91200863Y-48403463D01*
X91304022Y-48372171D01*
X91417441Y-48361000D01*
X97406159Y-48361000D01*
X97519578Y-48372171D01*
X97519578Y-48372171D01*
G37*
G36*
X106426563Y-44260589D02*
X106617832Y-44339815D01*
X106789974Y-44454837D01*
X106936361Y-44601224D01*
X107051383Y-44773366D01*
X107130609Y-44964635D01*
X107170998Y-45167684D01*
X107170998Y-45374716D01*
X107130609Y-45577765D01*
X107047483Y-45778450D01*
X107045505Y-45782149D01*
X107038388Y-45805597D01*
X107035983Y-45829983D01*
X107038382Y-45854370D01*
X107045492Y-45877820D01*
X107047473Y-45881526D01*
X107130609Y-46082235D01*
X107170998Y-46285284D01*
X107170998Y-46492316D01*
X107130609Y-46695365D01*
X107051383Y-46886634D01*
X106936361Y-47058776D01*
X106789974Y-47205163D01*
X106617832Y-47320185D01*
X106426563Y-47399411D01*
X106223514Y-47439800D01*
X106016482Y-47439800D01*
X105813433Y-47399411D01*
X105622164Y-47320185D01*
X105450022Y-47205163D01*
X105303635Y-47058776D01*
X105188613Y-46886634D01*
X105109387Y-46695365D01*
X105068998Y-46492316D01*
X105068998Y-46285284D01*
X105109387Y-46082235D01*
X105192513Y-45881550D01*
X105194491Y-45877851D01*
X105201608Y-45854403D01*
X105204013Y-45830017D01*
X105201614Y-45805630D01*
X105194504Y-45782180D01*
X105192523Y-45778474D01*
X105109387Y-45577765D01*
X105068998Y-45374716D01*
X105068998Y-45167684D01*
X105109387Y-44964635D01*
X105188613Y-44773366D01*
X105303635Y-44601224D01*
X105450022Y-44454837D01*
X105622164Y-44339815D01*
X105813433Y-44260589D01*
X106016482Y-44220200D01*
X106223514Y-44220200D01*
X106426563Y-44260589D01*
X106426563Y-44260589D01*
G37*
G36*
X114426562Y-44260589D02*
X114617831Y-44339815D01*
X114789973Y-44454837D01*
X114936360Y-44601224D01*
X115051382Y-44773366D01*
X115130608Y-44964635D01*
X115170997Y-45167684D01*
X115170997Y-45374716D01*
X115130608Y-45577765D01*
X115047482Y-45778450D01*
X115045504Y-45782149D01*
X115038387Y-45805597D01*
X115035982Y-45829983D01*
X115038381Y-45854370D01*
X115045491Y-45877820D01*
X115047472Y-45881526D01*
X115130608Y-46082235D01*
X115170997Y-46285284D01*
X115170997Y-46492316D01*
X115130608Y-46695365D01*
X115051382Y-46886634D01*
X114936360Y-47058776D01*
X114789973Y-47205163D01*
X114617831Y-47320185D01*
X114426562Y-47399411D01*
X114223513Y-47439800D01*
X114016481Y-47439800D01*
X113813432Y-47399411D01*
X113622163Y-47320185D01*
X113450021Y-47205163D01*
X113303634Y-47058776D01*
X113188612Y-46886634D01*
X113109386Y-46695365D01*
X113068997Y-46492316D01*
X113068997Y-46285284D01*
X113109386Y-46082235D01*
X113192512Y-45881550D01*
X113194490Y-45877851D01*
X113201607Y-45854403D01*
X113204012Y-45830017D01*
X113201613Y-45805630D01*
X113194503Y-45782180D01*
X113192522Y-45778474D01*
X113109386Y-45577765D01*
X113068997Y-45374716D01*
X113068997Y-45167684D01*
X113109386Y-44964635D01*
X113188612Y-44773366D01*
X113303634Y-44601224D01*
X113450021Y-44454837D01*
X113622163Y-44339815D01*
X113813432Y-44260589D01*
X114016481Y-44220200D01*
X114223513Y-44220200D01*
X114426562Y-44260589D01*
X114426562Y-44260589D01*
G37*
G36*
X102726565Y-44260589D02*
X102917834Y-44339815D01*
X103089976Y-44454837D01*
X103236363Y-44601224D01*
X103351385Y-44773366D01*
X103430611Y-44964635D01*
X103471000Y-45167684D01*
X103471000Y-45374716D01*
X103430611Y-45577765D01*
X103347485Y-45778450D01*
X103345507Y-45782149D01*
X103338390Y-45805597D01*
X103335985Y-45829983D01*
X103338384Y-45854370D01*
X103345494Y-45877820D01*
X103347475Y-45881526D01*
X103430611Y-46082235D01*
X103471000Y-46285284D01*
X103471000Y-46492316D01*
X103430611Y-46695365D01*
X103351385Y-46886634D01*
X103236363Y-47058776D01*
X103089976Y-47205163D01*
X102917834Y-47320185D01*
X102726565Y-47399411D01*
X102523516Y-47439800D01*
X102316484Y-47439800D01*
X102113435Y-47399411D01*
X101922166Y-47320185D01*
X101750024Y-47205163D01*
X101603637Y-47058776D01*
X101488615Y-46886634D01*
X101409389Y-46695365D01*
X101369000Y-46492316D01*
X101369000Y-46285284D01*
X101409389Y-46082235D01*
X101492515Y-45881550D01*
X101494493Y-45877851D01*
X101501610Y-45854403D01*
X101504015Y-45830017D01*
X101501616Y-45805630D01*
X101494506Y-45782180D01*
X101492525Y-45778474D01*
X101409389Y-45577765D01*
X101369000Y-45374716D01*
X101369000Y-45167684D01*
X101409389Y-44964635D01*
X101488615Y-44773366D01*
X101603637Y-44601224D01*
X101750024Y-44454837D01*
X101922166Y-44339815D01*
X102113435Y-44260589D01*
X102316484Y-44220200D01*
X102523516Y-44220200D01*
X102726565Y-44260589D01*
X102726565Y-44260589D01*
G37*
G36*
X110726565Y-44260589D02*
X110917834Y-44339815D01*
X111089976Y-44454837D01*
X111236363Y-44601224D01*
X111351385Y-44773366D01*
X111430611Y-44964635D01*
X111471000Y-45167684D01*
X111471000Y-45374716D01*
X111430611Y-45577765D01*
X111347485Y-45778450D01*
X111345507Y-45782149D01*
X111338390Y-45805597D01*
X111335985Y-45829983D01*
X111338384Y-45854370D01*
X111345494Y-45877820D01*
X111347475Y-45881526D01*
X111430611Y-46082235D01*
X111471000Y-46285284D01*
X111471000Y-46492316D01*
X111430611Y-46695365D01*
X111351385Y-46886634D01*
X111236363Y-47058776D01*
X111089976Y-47205163D01*
X110917834Y-47320185D01*
X110726565Y-47399411D01*
X110523516Y-47439800D01*
X110316484Y-47439800D01*
X110113435Y-47399411D01*
X109922166Y-47320185D01*
X109750024Y-47205163D01*
X109603637Y-47058776D01*
X109488615Y-46886634D01*
X109409389Y-46695365D01*
X109369000Y-46492316D01*
X109369000Y-46285284D01*
X109409389Y-46082235D01*
X109492515Y-45881550D01*
X109494493Y-45877851D01*
X109501610Y-45854403D01*
X109504015Y-45830017D01*
X109501616Y-45805630D01*
X109494506Y-45782180D01*
X109492525Y-45778474D01*
X109409389Y-45577765D01*
X109369000Y-45374716D01*
X109369000Y-45167684D01*
X109409389Y-44964635D01*
X109488615Y-44773366D01*
X109603637Y-44601224D01*
X109750024Y-44454837D01*
X109922166Y-44339815D01*
X110113435Y-44260589D01*
X110316484Y-44220200D01*
X110523516Y-44220200D01*
X110726565Y-44260589D01*
X110726565Y-44260589D01*
G37*
G36*
X144248957Y-43179299D02*
X144404284Y-43243637D01*
X144544078Y-43337045D01*
X144662955Y-43455922D01*
X144756363Y-43595716D01*
X144820701Y-43751043D01*
X144853500Y-43915936D01*
X144853500Y-44084064D01*
X144820701Y-44248957D01*
X144756363Y-44404284D01*
X144662955Y-44544078D01*
X144544078Y-44662955D01*
X144404284Y-44756363D01*
X144248957Y-44820701D01*
X144084064Y-44853500D01*
X143915936Y-44853500D01*
X143751043Y-44820701D01*
X143595716Y-44756363D01*
X143455922Y-44662955D01*
X143337045Y-44544078D01*
X143243637Y-44404284D01*
X143179299Y-44248957D01*
X143146500Y-44084064D01*
X143146500Y-43915936D01*
X143179299Y-43751043D01*
X143243637Y-43595716D01*
X143337045Y-43455922D01*
X143455922Y-43337045D01*
X143595716Y-43243637D01*
X143751043Y-43179299D01*
X143915936Y-43146500D01*
X144084064Y-43146500D01*
X144248957Y-43179299D01*
X144248957Y-43179299D01*
G37*
G36*
X141248957Y-43179299D02*
X141404284Y-43243637D01*
X141544078Y-43337045D01*
X141662955Y-43455922D01*
X141756363Y-43595716D01*
X141820701Y-43751043D01*
X141853500Y-43915936D01*
X141853500Y-44084064D01*
X141820701Y-44248957D01*
X141756363Y-44404284D01*
X141662955Y-44544078D01*
X141544078Y-44662955D01*
X141404284Y-44756363D01*
X141248957Y-44820701D01*
X141084064Y-44853500D01*
X140915936Y-44853500D01*
X140751043Y-44820701D01*
X140595716Y-44756363D01*
X140455922Y-44662955D01*
X140337045Y-44544078D01*
X140243637Y-44404284D01*
X140179299Y-44248957D01*
X140146500Y-44084064D01*
X140146500Y-43915936D01*
X140179299Y-43751043D01*
X140243637Y-43595716D01*
X140337045Y-43455922D01*
X140455922Y-43337045D01*
X140595716Y-43243637D01*
X140751043Y-43179299D01*
X140915936Y-43146500D01*
X141084064Y-43146500D01*
X141248957Y-43179299D01*
X141248957Y-43179299D01*
G37*
G36*
X150248957Y-43179299D02*
X150404284Y-43243637D01*
X150544078Y-43337045D01*
X150662955Y-43455922D01*
X150756363Y-43595716D01*
X150820701Y-43751043D01*
X150853500Y-43915936D01*
X150853500Y-44084064D01*
X150820701Y-44248957D01*
X150756363Y-44404284D01*
X150662955Y-44544078D01*
X150544078Y-44662955D01*
X150404284Y-44756363D01*
X150248957Y-44820701D01*
X150084064Y-44853500D01*
X149915936Y-44853500D01*
X149751043Y-44820701D01*
X149595716Y-44756363D01*
X149455922Y-44662955D01*
X149337045Y-44544078D01*
X149243637Y-44404284D01*
X149179299Y-44248957D01*
X149146500Y-44084064D01*
X149146500Y-43915936D01*
X149179299Y-43751043D01*
X149243637Y-43595716D01*
X149337045Y-43455922D01*
X149455922Y-43337045D01*
X149595716Y-43243637D01*
X149751043Y-43179299D01*
X149915936Y-43146500D01*
X150084064Y-43146500D01*
X150248957Y-43179299D01*
X150248957Y-43179299D01*
G37*
G36*
X153248957Y-43179299D02*
X153404284Y-43243637D01*
X153544078Y-43337045D01*
X153662955Y-43455922D01*
X153756363Y-43595716D01*
X153820701Y-43751043D01*
X153853500Y-43915936D01*
X153853500Y-44084064D01*
X153820701Y-44248957D01*
X153756363Y-44404284D01*
X153662955Y-44544078D01*
X153544078Y-44662955D01*
X153404284Y-44756363D01*
X153248957Y-44820701D01*
X153084064Y-44853500D01*
X152915936Y-44853500D01*
X152751043Y-44820701D01*
X152595716Y-44756363D01*
X152455922Y-44662955D01*
X152337045Y-44544078D01*
X152243637Y-44404284D01*
X152179299Y-44248957D01*
X152146500Y-44084064D01*
X152146500Y-43915936D01*
X152179299Y-43751043D01*
X152243637Y-43595716D01*
X152337045Y-43455922D01*
X152455922Y-43337045D01*
X152595716Y-43243637D01*
X152751043Y-43179299D01*
X152915936Y-43146500D01*
X153084064Y-43146500D01*
X153248957Y-43179299D01*
X153248957Y-43179299D01*
G37*
G36*
X147248957Y-43179299D02*
X147404284Y-43243637D01*
X147544078Y-43337045D01*
X147662955Y-43455922D01*
X147756363Y-43595716D01*
X147820701Y-43751043D01*
X147853500Y-43915936D01*
X147853500Y-44084064D01*
X147820701Y-44248957D01*
X147756363Y-44404284D01*
X147662955Y-44544078D01*
X147544078Y-44662955D01*
X147404284Y-44756363D01*
X147248957Y-44820701D01*
X147084064Y-44853500D01*
X146915936Y-44853500D01*
X146751043Y-44820701D01*
X146595716Y-44756363D01*
X146455922Y-44662955D01*
X146337045Y-44544078D01*
X146243637Y-44404284D01*
X146179299Y-44248957D01*
X146146500Y-44084064D01*
X146146500Y-43915936D01*
X146179299Y-43751043D01*
X146243637Y-43595716D01*
X146337045Y-43455922D01*
X146455922Y-43337045D01*
X146595716Y-43243637D01*
X146751043Y-43179299D01*
X146915936Y-43146500D01*
X147084064Y-43146500D01*
X147248957Y-43179299D01*
X147248957Y-43179299D01*
G37*
G36*
X97519578Y-40892171D02*
X97622737Y-40923463D01*
X97717807Y-40974280D01*
X97801135Y-41042665D01*
X97869520Y-41125993D01*
X97920337Y-41221063D01*
X97951629Y-41324222D01*
X97962800Y-41437641D01*
X97962800Y-42776359D01*
X97951629Y-42889778D01*
X97920337Y-42992937D01*
X97869520Y-43088007D01*
X97801135Y-43171335D01*
X97717807Y-43239720D01*
X97622737Y-43290537D01*
X97519578Y-43321829D01*
X97406159Y-43333000D01*
X91417441Y-43333000D01*
X91304022Y-43321829D01*
X91200863Y-43290537D01*
X91105793Y-43239720D01*
X91022465Y-43171335D01*
X90954080Y-43088007D01*
X90903263Y-42992937D01*
X90871971Y-42889778D01*
X90860800Y-42776359D01*
X90860800Y-41437641D01*
X90871971Y-41324222D01*
X90903263Y-41221063D01*
X90954080Y-41125993D01*
X91022465Y-41042665D01*
X91105793Y-40974280D01*
X91200863Y-40923463D01*
X91304022Y-40892171D01*
X91417441Y-40881000D01*
X97406159Y-40881000D01*
X97519578Y-40892171D01*
X97519578Y-40892171D01*
G37*
G36*
X151055739Y-38114048D02*
X151309702Y-38164564D01*
X151596516Y-38283367D01*
X151854642Y-38455841D01*
X152074159Y-38675358D01*
X152246633Y-38933484D01*
X152365436Y-39220298D01*
X152426000Y-39524778D01*
X152426000Y-39835222D01*
X152365436Y-40139702D01*
X152246633Y-40426516D01*
X152074159Y-40684642D01*
X151854642Y-40904159D01*
X151596516Y-41076633D01*
X151309702Y-41195436D01*
X151055739Y-41245952D01*
X151005223Y-41256000D01*
X150694777Y-41256000D01*
X150644261Y-41245952D01*
X150390298Y-41195436D01*
X150103484Y-41076633D01*
X149845358Y-40904159D01*
X149625841Y-40684642D01*
X149453367Y-40426516D01*
X149334564Y-40139702D01*
X149274000Y-39835222D01*
X149274000Y-39524778D01*
X149334564Y-39220298D01*
X149453367Y-38933484D01*
X149625841Y-38675358D01*
X149845358Y-38455841D01*
X150103484Y-38283367D01*
X150390298Y-38164564D01*
X150644261Y-38114048D01*
X150694777Y-38104000D01*
X151005223Y-38104000D01*
X151055739Y-38114048D01*
X151055739Y-38114048D01*
G37*
G36*
X143355739Y-38114048D02*
X143609702Y-38164564D01*
X143896516Y-38283367D01*
X144154642Y-38455841D01*
X144374159Y-38675358D01*
X144546633Y-38933484D01*
X144665436Y-39220298D01*
X144726000Y-39524778D01*
X144726000Y-39835222D01*
X144665436Y-40139702D01*
X144546633Y-40426516D01*
X144374159Y-40684642D01*
X144154642Y-40904159D01*
X143896516Y-41076633D01*
X143609702Y-41195436D01*
X143355739Y-41245952D01*
X143305223Y-41256000D01*
X142994777Y-41256000D01*
X142944261Y-41245952D01*
X142690298Y-41195436D01*
X142403484Y-41076633D01*
X142145358Y-40904159D01*
X141925841Y-40684642D01*
X141753367Y-40426516D01*
X141634564Y-40139702D01*
X141574000Y-39835222D01*
X141574000Y-39524778D01*
X141634564Y-39220298D01*
X141753367Y-38933484D01*
X141925841Y-38675358D01*
X142145358Y-38455841D01*
X142403484Y-38283367D01*
X142690298Y-38164564D01*
X142944261Y-38114048D01*
X142994777Y-38104000D01*
X143305223Y-38104000D01*
X143355739Y-38114048D01*
X143355739Y-38114048D01*
G37*
G36*
X80049327Y-35790736D02*
X80149210Y-35810604D01*
X80431474Y-35927521D01*
X80685505Y-36097259D01*
X80901541Y-36313295D01*
X81071279Y-36567326D01*
X81188196Y-36849590D01*
X81200830Y-36913105D01*
X81238368Y-37101819D01*
X81247800Y-37149240D01*
X81247800Y-37454760D01*
X81188196Y-37754410D01*
X81071279Y-38036674D01*
X80901541Y-38290705D01*
X80685505Y-38506741D01*
X80431474Y-38676479D01*
X80149210Y-38793396D01*
X80049327Y-38813264D01*
X79849562Y-38853000D01*
X79544038Y-38853000D01*
X79344273Y-38813264D01*
X79244390Y-38793396D01*
X78962126Y-38676479D01*
X78708095Y-38506741D01*
X78492059Y-38290705D01*
X78322321Y-38036674D01*
X78205404Y-37754410D01*
X78145800Y-37454760D01*
X78145800Y-37149240D01*
X78155233Y-37101819D01*
X78192770Y-36913105D01*
X78205404Y-36849590D01*
X78322321Y-36567326D01*
X78492059Y-36313295D01*
X78708095Y-36097259D01*
X78962126Y-35927521D01*
X79244390Y-35810604D01*
X79344273Y-35790736D01*
X79544038Y-35751000D01*
X79849562Y-35751000D01*
X80049327Y-35790736D01*
X80049327Y-35790736D01*
G37*
G36*
X103573062Y-35268181D02*
X103607977Y-35278773D01*
X103640165Y-35295978D01*
X103668373Y-35319127D01*
X103691522Y-35347335D01*
X103708727Y-35379523D01*
X103719319Y-35414438D01*
X103723500Y-35456895D01*
X103723500Y-36923105D01*
X103719319Y-36965562D01*
X103708727Y-37000477D01*
X103691522Y-37032665D01*
X103668373Y-37060873D01*
X103640165Y-37084022D01*
X103607977Y-37101227D01*
X103573062Y-37111819D01*
X103530605Y-37116000D01*
X102389395Y-37116000D01*
X102346938Y-37111819D01*
X102312023Y-37101227D01*
X102279835Y-37084022D01*
X102251627Y-37060873D01*
X102228478Y-37032665D01*
X102211273Y-37000477D01*
X102200681Y-36965562D01*
X102196500Y-36923105D01*
X102196500Y-35456895D01*
X102200681Y-35414438D01*
X102211273Y-35379523D01*
X102228478Y-35347335D01*
X102251627Y-35319127D01*
X102279835Y-35295978D01*
X102312023Y-35278773D01*
X102346938Y-35268181D01*
X102389395Y-35264000D01*
X103530605Y-35264000D01*
X103573062Y-35268181D01*
X103573062Y-35268181D01*
G37*
G36*
X100598062Y-35268181D02*
X100632977Y-35278773D01*
X100665165Y-35295978D01*
X100693373Y-35319127D01*
X100716522Y-35347335D01*
X100733727Y-35379523D01*
X100744319Y-35414438D01*
X100748500Y-35456895D01*
X100748500Y-36923105D01*
X100744319Y-36965562D01*
X100733727Y-37000477D01*
X100716522Y-37032665D01*
X100693373Y-37060873D01*
X100665165Y-37084022D01*
X100632977Y-37101227D01*
X100598062Y-37111819D01*
X100555605Y-37116000D01*
X99414395Y-37116000D01*
X99371938Y-37111819D01*
X99337023Y-37101227D01*
X99304835Y-37084022D01*
X99276627Y-37060873D01*
X99253478Y-37032665D01*
X99236273Y-37000477D01*
X99225681Y-36965562D01*
X99221500Y-36923105D01*
X99221500Y-35456895D01*
X99225681Y-35414438D01*
X99236273Y-35379523D01*
X99253478Y-35347335D01*
X99276627Y-35319127D01*
X99304835Y-35295978D01*
X99337023Y-35278773D01*
X99371938Y-35268181D01*
X99414395Y-35264000D01*
X100555605Y-35264000D01*
X100598062Y-35268181D01*
X100598062Y-35268181D01*
G37*
G36*
X106428062Y-35258181D02*
X106462977Y-35268773D01*
X106495165Y-35285978D01*
X106523373Y-35309127D01*
X106546522Y-35337335D01*
X106563727Y-35369523D01*
X106574319Y-35404438D01*
X106578500Y-35446895D01*
X106578500Y-36913105D01*
X106574319Y-36955562D01*
X106563727Y-36990477D01*
X106546522Y-37022665D01*
X106523373Y-37050873D01*
X106495165Y-37074022D01*
X106462977Y-37091227D01*
X106428062Y-37101819D01*
X106385605Y-37106000D01*
X105244395Y-37106000D01*
X105201938Y-37101819D01*
X105167023Y-37091227D01*
X105134835Y-37074022D01*
X105106627Y-37050873D01*
X105083478Y-37022665D01*
X105066273Y-36990477D01*
X105055681Y-36955562D01*
X105051500Y-36913105D01*
X105051500Y-35446895D01*
X105055681Y-35404438D01*
X105066273Y-35369523D01*
X105083478Y-35337335D01*
X105106627Y-35309127D01*
X105134835Y-35285978D01*
X105167023Y-35268773D01*
X105201938Y-35258181D01*
X105244395Y-35254000D01*
X106385605Y-35254000D01*
X106428062Y-35258181D01*
X106428062Y-35258181D01*
G37*
G36*
X109403062Y-35258181D02*
X109437977Y-35268773D01*
X109470165Y-35285978D01*
X109498373Y-35309127D01*
X109521522Y-35337335D01*
X109538727Y-35369523D01*
X109549319Y-35404438D01*
X109553500Y-35446895D01*
X109553500Y-36913105D01*
X109549319Y-36955562D01*
X109538727Y-36990477D01*
X109521522Y-37022665D01*
X109498373Y-37050873D01*
X109470165Y-37074022D01*
X109437977Y-37091227D01*
X109403062Y-37101819D01*
X109360605Y-37106000D01*
X108219395Y-37106000D01*
X108176938Y-37101819D01*
X108142023Y-37091227D01*
X108109835Y-37074022D01*
X108081627Y-37050873D01*
X108058478Y-37022665D01*
X108041273Y-36990477D01*
X108030681Y-36955562D01*
X108026500Y-36913105D01*
X108026500Y-35446895D01*
X108030681Y-35404438D01*
X108041273Y-35369523D01*
X108058478Y-35337335D01*
X108081627Y-35309127D01*
X108109835Y-35285978D01*
X108142023Y-35268773D01*
X108176938Y-35258181D01*
X108219395Y-35254000D01*
X109360605Y-35254000D01*
X109403062Y-35258181D01*
X109403062Y-35258181D01*
G37*
M02*
