G04 #@! TF.GenerationSoftware,KiCad,Pcbnew,(5.0.2)-1*
G04 #@! TF.CreationDate,2022-03-15T14:53:39+05:30*
G04 #@! TF.ProjectId,4ESC_board,34455343-5f62-46f6-9172-642e6b696361,rev?*
G04 #@! TF.SameCoordinates,Original*
G04 #@! TF.FileFunction,Copper,L1,Top*
G04 #@! TF.FilePolarity,Positive*
%FSLAX46Y46*%
G04 Gerber Fmt 4.6, Leading zero omitted, Abs format (unit mm)*
G04 Created by KiCad (PCBNEW (5.0.2)-1) date 03/15/22 14:53:39*
%MOMM*%
%LPD*%
G01*
G04 APERTURE LIST*
G04 #@! TA.AperFunction,ComponentPad*
%ADD10R,4.000000X10.000000*%
G04 #@! TD*
G04 #@! TA.AperFunction,SMDPad,CuDef*
%ADD11R,1.000000X5.000000*%
G04 #@! TD*
G04 #@! TA.AperFunction,ComponentPad*
%ADD12C,1.605000*%
G04 #@! TD*
G04 #@! TA.AperFunction,ComponentPad*
%ADD13C,1.530000*%
G04 #@! TD*
G04 #@! TA.AperFunction,Conductor*
%ADD14C,0.100000*%
G04 #@! TD*
G04 #@! TA.AperFunction,SMDPad,CuDef*
%ADD15C,1.425000*%
G04 #@! TD*
G04 #@! TA.AperFunction,ComponentPad*
%ADD16C,2.350000*%
G04 #@! TD*
G04 #@! TA.AperFunction,Conductor*
%ADD17C,0.500000*%
G04 #@! TD*
G04 #@! TA.AperFunction,Conductor*
%ADD18C,2.000000*%
G04 #@! TD*
G04 APERTURE END LIST*
D10*
G04 #@! TO.P,U4,3*
G04 #@! TO.N,/TW4*
X143000000Y-97000000D03*
G04 #@! TO.P,U4,2*
G04 #@! TO.N,/TG4*
X148500000Y-97000000D03*
G04 #@! TO.P,U4,1*
G04 #@! TO.N,/TB4*
X154000000Y-97000000D03*
G04 #@! TO.P,U4,6*
G04 #@! TO.N,/VIN*
X143000000Y-62500000D03*
G04 #@! TO.P,U4,7*
G04 #@! TO.N,/GND*
X154000000Y-62500000D03*
D11*
G04 #@! TO.P,U4,4*
G04 #@! TO.N,/SPEED4*
X147500000Y-63000000D03*
G04 #@! TO.P,U4,5*
G04 #@! TO.N,/MGND*
X149500000Y-63000000D03*
G04 #@! TD*
D10*
G04 #@! TO.P,U3,3*
G04 #@! TO.N,/TW3*
X123000000Y-97000000D03*
G04 #@! TO.P,U3,2*
G04 #@! TO.N,/TG3*
X128500000Y-97000000D03*
G04 #@! TO.P,U3,1*
G04 #@! TO.N,/TB3*
X134000000Y-97000000D03*
G04 #@! TO.P,U3,6*
G04 #@! TO.N,/VIN*
X123000000Y-62500000D03*
G04 #@! TO.P,U3,7*
G04 #@! TO.N,/GND*
X134000000Y-62500000D03*
D11*
G04 #@! TO.P,U3,4*
G04 #@! TO.N,/SPEED3*
X127500000Y-63000000D03*
G04 #@! TO.P,U3,5*
G04 #@! TO.N,/MGND*
X129500000Y-63000000D03*
G04 #@! TD*
D10*
G04 #@! TO.P,U2,3*
G04 #@! TO.N,/TW2*
X103000000Y-97000000D03*
G04 #@! TO.P,U2,2*
G04 #@! TO.N,/TG2*
X108500000Y-97000000D03*
G04 #@! TO.P,U2,1*
G04 #@! TO.N,/TB2*
X114000000Y-97000000D03*
G04 #@! TO.P,U2,6*
G04 #@! TO.N,/VIN*
X103000000Y-62500000D03*
G04 #@! TO.P,U2,7*
G04 #@! TO.N,/GND*
X114000000Y-62500000D03*
D11*
G04 #@! TO.P,U2,4*
G04 #@! TO.N,/SPEED2*
X107500000Y-63000000D03*
G04 #@! TO.P,U2,5*
G04 #@! TO.N,/MGND*
X109500000Y-63000000D03*
G04 #@! TD*
D10*
G04 #@! TO.P,U1,3*
G04 #@! TO.N,/TW1*
X83000000Y-97000000D03*
G04 #@! TO.P,U1,2*
G04 #@! TO.N,/TG1*
X88500000Y-97000000D03*
G04 #@! TO.P,U1,1*
G04 #@! TO.N,/TB1*
X94000000Y-97000000D03*
G04 #@! TO.P,U1,6*
G04 #@! TO.N,/VIN*
X83000000Y-62500000D03*
G04 #@! TO.P,U1,7*
G04 #@! TO.N,/GND*
X94000000Y-62500000D03*
D11*
G04 #@! TO.P,U1,4*
G04 #@! TO.N,/SPEED1*
X87500000Y-63000000D03*
G04 #@! TO.P,U1,5*
G04 #@! TO.N,/MGND*
X89500000Y-63000000D03*
G04 #@! TD*
D12*
G04 #@! TO.P,C2,1*
G04 #@! TO.N,/SPEED1*
X141000000Y-44000000D03*
G04 #@! TO.P,C2,2*
G04 #@! TO.N,/SPEED2*
X144000000Y-44000000D03*
G04 #@! TO.P,C2,3*
G04 #@! TO.N,/SPEED3*
X147000000Y-44000000D03*
G04 #@! TO.P,C2,4*
G04 #@! TO.N,/SPEED4*
X150000000Y-44000000D03*
G04 #@! TO.P,C2,5*
G04 #@! TO.N,/MGND*
X153000000Y-44000000D03*
G04 #@! TD*
D13*
G04 #@! TO.P,C3,1*
G04 #@! TO.N,/TW4*
X125222000Y-114096800D03*
G04 #@! TO.P,C3,2*
G04 #@! TO.N,/TG4*
X122222000Y-114096800D03*
G04 #@! TO.P,C3,3*
G04 #@! TO.N,/TB4*
X119222000Y-114096800D03*
G04 #@! TO.P,C3,4*
G04 #@! TO.N,/TW1*
X116222000Y-114096800D03*
G04 #@! TO.P,C3,5*
G04 #@! TO.N,/TG1*
X113222000Y-114096800D03*
G04 #@! TO.P,C3,6*
G04 #@! TO.N,/TB1*
X110222000Y-114096800D03*
G04 #@! TO.P,C3,7*
G04 #@! TO.N,/TB3*
X125222000Y-111096800D03*
G04 #@! TO.P,C3,8*
G04 #@! TO.N,/TG3*
X122222000Y-111096800D03*
G04 #@! TO.P,C3,9*
G04 #@! TO.N,/TW3*
X119222000Y-111096800D03*
G04 #@! TO.P,C3,10*
G04 #@! TO.N,/TB2*
X116222000Y-111096800D03*
G04 #@! TO.P,C3,11*
G04 #@! TO.N,/TG2*
X113222000Y-111096800D03*
G04 #@! TO.P,C3,12*
G04 #@! TO.N,/TW2*
X110222000Y-111096800D03*
G04 #@! TD*
D14*
G04 #@! TO.N,/VIN*
G04 #@! TO.C,D1*
G36*
X102185404Y-41112404D02*
X102209673Y-41116004D01*
X102233471Y-41121965D01*
X102256571Y-41130230D01*
X102278749Y-41140720D01*
X102299793Y-41153333D01*
X102319498Y-41167947D01*
X102337677Y-41184423D01*
X102354153Y-41202602D01*
X102368767Y-41222307D01*
X102381380Y-41243351D01*
X102391870Y-41265529D01*
X102400135Y-41288629D01*
X102406096Y-41312427D01*
X102409696Y-41336696D01*
X102410900Y-41361200D01*
X102410900Y-42611200D01*
X102409696Y-42635704D01*
X102406096Y-42659973D01*
X102400135Y-42683771D01*
X102391870Y-42706871D01*
X102381380Y-42729049D01*
X102368767Y-42750093D01*
X102354153Y-42769798D01*
X102337677Y-42787977D01*
X102319498Y-42804453D01*
X102299793Y-42819067D01*
X102278749Y-42831680D01*
X102256571Y-42842170D01*
X102233471Y-42850435D01*
X102209673Y-42856396D01*
X102185404Y-42859996D01*
X102160900Y-42861200D01*
X101235900Y-42861200D01*
X101211396Y-42859996D01*
X101187127Y-42856396D01*
X101163329Y-42850435D01*
X101140229Y-42842170D01*
X101118051Y-42831680D01*
X101097007Y-42819067D01*
X101077302Y-42804453D01*
X101059123Y-42787977D01*
X101042647Y-42769798D01*
X101028033Y-42750093D01*
X101015420Y-42729049D01*
X101004930Y-42706871D01*
X100996665Y-42683771D01*
X100990704Y-42659973D01*
X100987104Y-42635704D01*
X100985900Y-42611200D01*
X100985900Y-41361200D01*
X100987104Y-41336696D01*
X100990704Y-41312427D01*
X100996665Y-41288629D01*
X101004930Y-41265529D01*
X101015420Y-41243351D01*
X101028033Y-41222307D01*
X101042647Y-41202602D01*
X101059123Y-41184423D01*
X101077302Y-41167947D01*
X101097007Y-41153333D01*
X101118051Y-41140720D01*
X101140229Y-41130230D01*
X101163329Y-41121965D01*
X101187127Y-41116004D01*
X101211396Y-41112404D01*
X101235900Y-41111200D01*
X102160900Y-41111200D01*
X102185404Y-41112404D01*
X102185404Y-41112404D01*
G37*
D15*
G04 #@! TD*
G04 #@! TO.P,D1,2*
G04 #@! TO.N,/VIN*
X101698400Y-41986200D03*
D14*
G04 #@! TO.N,Net-(D1-Pad1)*
G04 #@! TO.C,D1*
G36*
X105160404Y-41112404D02*
X105184673Y-41116004D01*
X105208471Y-41121965D01*
X105231571Y-41130230D01*
X105253749Y-41140720D01*
X105274793Y-41153333D01*
X105294498Y-41167947D01*
X105312677Y-41184423D01*
X105329153Y-41202602D01*
X105343767Y-41222307D01*
X105356380Y-41243351D01*
X105366870Y-41265529D01*
X105375135Y-41288629D01*
X105381096Y-41312427D01*
X105384696Y-41336696D01*
X105385900Y-41361200D01*
X105385900Y-42611200D01*
X105384696Y-42635704D01*
X105381096Y-42659973D01*
X105375135Y-42683771D01*
X105366870Y-42706871D01*
X105356380Y-42729049D01*
X105343767Y-42750093D01*
X105329153Y-42769798D01*
X105312677Y-42787977D01*
X105294498Y-42804453D01*
X105274793Y-42819067D01*
X105253749Y-42831680D01*
X105231571Y-42842170D01*
X105208471Y-42850435D01*
X105184673Y-42856396D01*
X105160404Y-42859996D01*
X105135900Y-42861200D01*
X104210900Y-42861200D01*
X104186396Y-42859996D01*
X104162127Y-42856396D01*
X104138329Y-42850435D01*
X104115229Y-42842170D01*
X104093051Y-42831680D01*
X104072007Y-42819067D01*
X104052302Y-42804453D01*
X104034123Y-42787977D01*
X104017647Y-42769798D01*
X104003033Y-42750093D01*
X103990420Y-42729049D01*
X103979930Y-42706871D01*
X103971665Y-42683771D01*
X103965704Y-42659973D01*
X103962104Y-42635704D01*
X103960900Y-42611200D01*
X103960900Y-41361200D01*
X103962104Y-41336696D01*
X103965704Y-41312427D01*
X103971665Y-41288629D01*
X103979930Y-41265529D01*
X103990420Y-41243351D01*
X104003033Y-41222307D01*
X104017647Y-41202602D01*
X104034123Y-41184423D01*
X104052302Y-41167947D01*
X104072007Y-41153333D01*
X104093051Y-41140720D01*
X104115229Y-41130230D01*
X104138329Y-41121965D01*
X104162127Y-41116004D01*
X104186396Y-41112404D01*
X104210900Y-41111200D01*
X105135900Y-41111200D01*
X105160404Y-41112404D01*
X105160404Y-41112404D01*
G37*
D15*
G04 #@! TD*
G04 #@! TO.P,D1,1*
G04 #@! TO.N,Net-(D1-Pad1)*
X104673400Y-41986200D03*
D14*
G04 #@! TO.N,/GND*
G04 #@! TO.C,R1*
G36*
X111840604Y-40985404D02*
X111864873Y-40989004D01*
X111888671Y-40994965D01*
X111911771Y-41003230D01*
X111933949Y-41013720D01*
X111954993Y-41026333D01*
X111974698Y-41040947D01*
X111992877Y-41057423D01*
X112009353Y-41075602D01*
X112023967Y-41095307D01*
X112036580Y-41116351D01*
X112047070Y-41138529D01*
X112055335Y-41161629D01*
X112061296Y-41185427D01*
X112064896Y-41209696D01*
X112066100Y-41234200D01*
X112066100Y-42484200D01*
X112064896Y-42508704D01*
X112061296Y-42532973D01*
X112055335Y-42556771D01*
X112047070Y-42579871D01*
X112036580Y-42602049D01*
X112023967Y-42623093D01*
X112009353Y-42642798D01*
X111992877Y-42660977D01*
X111974698Y-42677453D01*
X111954993Y-42692067D01*
X111933949Y-42704680D01*
X111911771Y-42715170D01*
X111888671Y-42723435D01*
X111864873Y-42729396D01*
X111840604Y-42732996D01*
X111816100Y-42734200D01*
X110891100Y-42734200D01*
X110866596Y-42732996D01*
X110842327Y-42729396D01*
X110818529Y-42723435D01*
X110795429Y-42715170D01*
X110773251Y-42704680D01*
X110752207Y-42692067D01*
X110732502Y-42677453D01*
X110714323Y-42660977D01*
X110697847Y-42642798D01*
X110683233Y-42623093D01*
X110670620Y-42602049D01*
X110660130Y-42579871D01*
X110651865Y-42556771D01*
X110645904Y-42532973D01*
X110642304Y-42508704D01*
X110641100Y-42484200D01*
X110641100Y-41234200D01*
X110642304Y-41209696D01*
X110645904Y-41185427D01*
X110651865Y-41161629D01*
X110660130Y-41138529D01*
X110670620Y-41116351D01*
X110683233Y-41095307D01*
X110697847Y-41075602D01*
X110714323Y-41057423D01*
X110732502Y-41040947D01*
X110752207Y-41026333D01*
X110773251Y-41013720D01*
X110795429Y-41003230D01*
X110818529Y-40994965D01*
X110842327Y-40989004D01*
X110866596Y-40985404D01*
X110891100Y-40984200D01*
X111816100Y-40984200D01*
X111840604Y-40985404D01*
X111840604Y-40985404D01*
G37*
D15*
G04 #@! TD*
G04 #@! TO.P,R1,1*
G04 #@! TO.N,/GND*
X111353600Y-41859200D03*
D14*
G04 #@! TO.N,Net-(D1-Pad1)*
G04 #@! TO.C,R1*
G36*
X108865604Y-40985404D02*
X108889873Y-40989004D01*
X108913671Y-40994965D01*
X108936771Y-41003230D01*
X108958949Y-41013720D01*
X108979993Y-41026333D01*
X108999698Y-41040947D01*
X109017877Y-41057423D01*
X109034353Y-41075602D01*
X109048967Y-41095307D01*
X109061580Y-41116351D01*
X109072070Y-41138529D01*
X109080335Y-41161629D01*
X109086296Y-41185427D01*
X109089896Y-41209696D01*
X109091100Y-41234200D01*
X109091100Y-42484200D01*
X109089896Y-42508704D01*
X109086296Y-42532973D01*
X109080335Y-42556771D01*
X109072070Y-42579871D01*
X109061580Y-42602049D01*
X109048967Y-42623093D01*
X109034353Y-42642798D01*
X109017877Y-42660977D01*
X108999698Y-42677453D01*
X108979993Y-42692067D01*
X108958949Y-42704680D01*
X108936771Y-42715170D01*
X108913671Y-42723435D01*
X108889873Y-42729396D01*
X108865604Y-42732996D01*
X108841100Y-42734200D01*
X107916100Y-42734200D01*
X107891596Y-42732996D01*
X107867327Y-42729396D01*
X107843529Y-42723435D01*
X107820429Y-42715170D01*
X107798251Y-42704680D01*
X107777207Y-42692067D01*
X107757502Y-42677453D01*
X107739323Y-42660977D01*
X107722847Y-42642798D01*
X107708233Y-42623093D01*
X107695620Y-42602049D01*
X107685130Y-42579871D01*
X107676865Y-42556771D01*
X107670904Y-42532973D01*
X107667304Y-42508704D01*
X107666100Y-42484200D01*
X107666100Y-41234200D01*
X107667304Y-41209696D01*
X107670904Y-41185427D01*
X107676865Y-41161629D01*
X107685130Y-41138529D01*
X107695620Y-41116351D01*
X107708233Y-41095307D01*
X107722847Y-41075602D01*
X107739323Y-41057423D01*
X107757502Y-41040947D01*
X107777207Y-41026333D01*
X107798251Y-41013720D01*
X107820429Y-41003230D01*
X107843529Y-40994965D01*
X107867327Y-40989004D01*
X107891596Y-40985404D01*
X107916100Y-40984200D01*
X108841100Y-40984200D01*
X108865604Y-40985404D01*
X108865604Y-40985404D01*
G37*
D15*
G04 #@! TD*
G04 #@! TO.P,R1,2*
G04 #@! TO.N,Net-(D1-Pad1)*
X108378600Y-41859200D03*
D14*
G04 #@! TO.N,/GND*
G04 #@! TO.C,C1*
G36*
X97381885Y-48414829D02*
X97438916Y-48423289D01*
X97494842Y-48437298D01*
X97549127Y-48456721D01*
X97601246Y-48481371D01*
X97650698Y-48511012D01*
X97697006Y-48545356D01*
X97739725Y-48584075D01*
X97778444Y-48626794D01*
X97812788Y-48673102D01*
X97842429Y-48722554D01*
X97867079Y-48774673D01*
X97886502Y-48828958D01*
X97900511Y-48884884D01*
X97908971Y-48941915D01*
X97911800Y-48999500D01*
X97911800Y-50174500D01*
X97908971Y-50232085D01*
X97900511Y-50289116D01*
X97886502Y-50345042D01*
X97867079Y-50399327D01*
X97842429Y-50451446D01*
X97812788Y-50500898D01*
X97778444Y-50547206D01*
X97739725Y-50589925D01*
X97697006Y-50628644D01*
X97650698Y-50662988D01*
X97601246Y-50692629D01*
X97549127Y-50717279D01*
X97494842Y-50736702D01*
X97438916Y-50750711D01*
X97381885Y-50759171D01*
X97324300Y-50762000D01*
X91499300Y-50762000D01*
X91441715Y-50759171D01*
X91384684Y-50750711D01*
X91328758Y-50736702D01*
X91274473Y-50717279D01*
X91222354Y-50692629D01*
X91172902Y-50662988D01*
X91126594Y-50628644D01*
X91083875Y-50589925D01*
X91045156Y-50547206D01*
X91010812Y-50500898D01*
X90981171Y-50451446D01*
X90956521Y-50399327D01*
X90937098Y-50345042D01*
X90923089Y-50289116D01*
X90914629Y-50232085D01*
X90911800Y-50174500D01*
X90911800Y-48999500D01*
X90914629Y-48941915D01*
X90923089Y-48884884D01*
X90937098Y-48828958D01*
X90956521Y-48774673D01*
X90981171Y-48722554D01*
X91010812Y-48673102D01*
X91045156Y-48626794D01*
X91083875Y-48584075D01*
X91126594Y-48545356D01*
X91172902Y-48511012D01*
X91222354Y-48481371D01*
X91274473Y-48456721D01*
X91328758Y-48437298D01*
X91384684Y-48423289D01*
X91441715Y-48414829D01*
X91499300Y-48412000D01*
X97324300Y-48412000D01*
X97381885Y-48414829D01*
X97381885Y-48414829D01*
G37*
D16*
G04 #@! TD*
G04 #@! TO.P,C1,2*
G04 #@! TO.N,/GND*
X94411800Y-49587000D03*
D14*
G04 #@! TO.N,/VIN*
G04 #@! TO.C,C1*
G36*
X97381885Y-40934829D02*
X97438916Y-40943289D01*
X97494842Y-40957298D01*
X97549127Y-40976721D01*
X97601246Y-41001371D01*
X97650698Y-41031012D01*
X97697006Y-41065356D01*
X97739725Y-41104075D01*
X97778444Y-41146794D01*
X97812788Y-41193102D01*
X97842429Y-41242554D01*
X97867079Y-41294673D01*
X97886502Y-41348958D01*
X97900511Y-41404884D01*
X97908971Y-41461915D01*
X97911800Y-41519500D01*
X97911800Y-42694500D01*
X97908971Y-42752085D01*
X97900511Y-42809116D01*
X97886502Y-42865042D01*
X97867079Y-42919327D01*
X97842429Y-42971446D01*
X97812788Y-43020898D01*
X97778444Y-43067206D01*
X97739725Y-43109925D01*
X97697006Y-43148644D01*
X97650698Y-43182988D01*
X97601246Y-43212629D01*
X97549127Y-43237279D01*
X97494842Y-43256702D01*
X97438916Y-43270711D01*
X97381885Y-43279171D01*
X97324300Y-43282000D01*
X91499300Y-43282000D01*
X91441715Y-43279171D01*
X91384684Y-43270711D01*
X91328758Y-43256702D01*
X91274473Y-43237279D01*
X91222354Y-43212629D01*
X91172902Y-43182988D01*
X91126594Y-43148644D01*
X91083875Y-43109925D01*
X91045156Y-43067206D01*
X91010812Y-43020898D01*
X90981171Y-42971446D01*
X90956521Y-42919327D01*
X90937098Y-42865042D01*
X90923089Y-42809116D01*
X90914629Y-42752085D01*
X90911800Y-42694500D01*
X90911800Y-41519500D01*
X90914629Y-41461915D01*
X90923089Y-41404884D01*
X90937098Y-41348958D01*
X90956521Y-41294673D01*
X90981171Y-41242554D01*
X91010812Y-41193102D01*
X91045156Y-41146794D01*
X91083875Y-41104075D01*
X91126594Y-41065356D01*
X91172902Y-41031012D01*
X91222354Y-41001371D01*
X91274473Y-40976721D01*
X91328758Y-40957298D01*
X91384684Y-40943289D01*
X91441715Y-40934829D01*
X91499300Y-40932000D01*
X97324300Y-40932000D01*
X97381885Y-40934829D01*
X97381885Y-40934829D01*
G37*
D16*
G04 #@! TD*
G04 #@! TO.P,C1,1*
G04 #@! TO.N,/VIN*
X94411800Y-42107000D03*
D17*
G04 #@! TO.N,/GND*
X94411800Y-49587000D02*
X100263000Y-49587000D01*
X100263000Y-49587000D02*
X103960000Y-45890000D01*
X108297800Y-45890000D02*
X103960000Y-45890000D01*
X111353600Y-41859200D02*
X111353600Y-42834200D01*
X111353600Y-42834200D02*
X108297800Y-45890000D01*
G04 #@! TO.N,/VIN*
X101577600Y-42107000D02*
X101698400Y-41986200D01*
X94411800Y-42107000D02*
X101577600Y-42107000D01*
G04 #@! TO.N,/SPEED1*
X87500000Y-58720000D02*
X87500000Y-63000000D01*
X132760000Y-44000000D02*
X125497990Y-51262010D01*
X141000000Y-44000000D02*
X132760000Y-44000000D01*
X125497990Y-51262010D02*
X106907990Y-51262010D01*
X106907990Y-51262010D02*
X103560000Y-54610000D01*
X103560000Y-54610000D02*
X91610000Y-54610000D01*
X91610000Y-54610000D02*
X87500000Y-58720000D01*
G04 #@! TO.N,/SPEED2*
X142865094Y-44000000D02*
X137205094Y-49660000D01*
X144000000Y-44000000D02*
X142865094Y-44000000D01*
X137205094Y-49660000D02*
X130910000Y-49660000D01*
X130910000Y-49660000D02*
X126850000Y-53720000D01*
X126850000Y-53720000D02*
X112700000Y-53720000D01*
X107500000Y-58920000D02*
X107500000Y-63000000D01*
X112700000Y-53720000D02*
X107500000Y-58920000D01*
G04 #@! TO.N,/SPEED3*
X138380000Y-52620000D02*
X133040000Y-52620000D01*
X147000000Y-44000000D02*
X138380000Y-52620000D01*
X127500000Y-58160000D02*
X127500000Y-63000000D01*
X133040000Y-52620000D02*
X127500000Y-58160000D01*
G04 #@! TO.N,/SPEED4*
X147500000Y-46500000D02*
X147500000Y-63000000D01*
X150000000Y-44000000D02*
X147500000Y-46500000D01*
G04 #@! TO.N,/MGND*
X149500000Y-47500000D02*
X149500000Y-63000000D01*
X153000000Y-44000000D02*
X149500000Y-47500000D01*
X89500000Y-63000000D02*
X89500000Y-72400000D01*
X89500000Y-72400000D02*
X93110000Y-76010000D01*
X149500000Y-71000000D02*
X149500000Y-63000000D01*
X144490000Y-76010000D02*
X149500000Y-71000000D01*
X129500000Y-75980000D02*
X129470000Y-76010000D01*
X109500000Y-75970000D02*
X109460000Y-76010000D01*
X108940000Y-76010000D02*
X109500000Y-75450000D01*
X108820000Y-76010000D02*
X108940000Y-76010000D01*
X109500000Y-75450000D02*
X109500000Y-75970000D01*
X109500000Y-63000000D02*
X109500000Y-75450000D01*
X108820000Y-76010000D02*
X109460000Y-76010000D01*
X93110000Y-76010000D02*
X108820000Y-76010000D01*
X109500000Y-75490000D02*
X110020000Y-76010000D01*
X109500000Y-75450000D02*
X109500000Y-75490000D01*
X109460000Y-76010000D02*
X110020000Y-76010000D01*
X128950000Y-76010000D02*
X129500000Y-75460000D01*
X128760000Y-76010000D02*
X128950000Y-76010000D01*
X129500000Y-75460000D02*
X129500000Y-75980000D01*
X129500000Y-63000000D02*
X129500000Y-75460000D01*
X128760000Y-76010000D02*
X129470000Y-76010000D01*
X110020000Y-76010000D02*
X128760000Y-76010000D01*
X129500000Y-75500000D02*
X130010000Y-76010000D01*
X129500000Y-75460000D02*
X129500000Y-75500000D01*
X129470000Y-76010000D02*
X130010000Y-76010000D01*
X130010000Y-76010000D02*
X144490000Y-76010000D01*
D18*
G04 #@! TO.N,/TB3*
X134000000Y-94000000D02*
X134000000Y-102318800D01*
X134000000Y-102318800D02*
X125222000Y-111096800D01*
G04 #@! TO.N,/TG3*
X122222000Y-110014927D02*
X122222000Y-111096800D01*
X122222000Y-109854146D02*
X122222000Y-110014927D01*
X128500000Y-94000000D02*
X128500000Y-103576146D01*
X128500000Y-103576146D02*
X122222000Y-109854146D01*
G04 #@! TO.N,/TW3*
X119222000Y-97778000D02*
X119222000Y-111096800D01*
X123000000Y-94000000D02*
X119222000Y-97778000D01*
G04 #@! TO.N,/TB2*
X116222000Y-96222000D02*
X116222000Y-111096800D01*
X114000000Y-94000000D02*
X116222000Y-96222000D01*
G04 #@! TO.N,/TG2*
X113222000Y-110014927D02*
X113222000Y-111096800D01*
X113222000Y-109854146D02*
X113222000Y-110014927D01*
X108500000Y-94000000D02*
X108500000Y-105132146D01*
X108500000Y-105132146D02*
X113222000Y-109854146D01*
G04 #@! TO.N,/TW2*
X103000000Y-103874800D02*
X110222000Y-111096800D01*
X103000000Y-94000000D02*
X103000000Y-103874800D01*
G04 #@! TO.N,/TW4*
X126303873Y-114096800D02*
X125222000Y-114096800D01*
X127503202Y-114096800D02*
X126303873Y-114096800D01*
X143000000Y-94000000D02*
X143000000Y-98600002D01*
X143000000Y-98600002D02*
X127503202Y-114096800D01*
G04 #@! TO.N,/TG4*
X122222000Y-115178673D02*
X122222000Y-114096800D01*
X122222000Y-115659000D02*
X122222000Y-115178673D01*
X123659810Y-117096810D02*
X122222000Y-115659000D01*
X133503192Y-117096810D02*
X123659810Y-117096810D01*
X148500000Y-94000000D02*
X148500000Y-102100002D01*
X148500000Y-102100002D02*
X133503192Y-117096810D01*
G04 #@! TO.N,/TB4*
X136003182Y-120096820D02*
X125526800Y-120096820D01*
X154000000Y-94000000D02*
X154000000Y-102100002D01*
X154000000Y-102100002D02*
X136003182Y-120096820D01*
X125526800Y-120096820D02*
X125712022Y-120096820D01*
X125267180Y-119837200D02*
X120446800Y-119837200D01*
X125526800Y-120096820D02*
X125267180Y-119837200D01*
X119222000Y-118612400D02*
X119222000Y-114096800D01*
X120446800Y-119837200D02*
X119222000Y-118612400D01*
G04 #@! TO.N,/TW1*
X116222000Y-117938798D02*
X116222000Y-114096800D01*
X83000000Y-102100002D02*
X100996818Y-120096820D01*
X83000000Y-94000000D02*
X83000000Y-102100002D01*
X100996818Y-120096820D02*
X109731978Y-120096820D01*
X109731978Y-120096820D02*
X109801999Y-120026799D01*
X109801999Y-120026799D02*
X114133999Y-120026799D01*
X114133999Y-120026799D02*
X116222000Y-117938798D01*
G04 #@! TO.N,/TG1*
X113222000Y-115178673D02*
X113222000Y-114096800D01*
X113222000Y-115454200D02*
X113222000Y-115178673D01*
X111579390Y-117096810D02*
X113222000Y-115454200D01*
X103496808Y-117096810D02*
X111579390Y-117096810D01*
X88500000Y-94000000D02*
X88500000Y-102100002D01*
X88500000Y-102100002D02*
X103496808Y-117096810D01*
G04 #@! TO.N,/TB1*
X109140127Y-114096800D02*
X110222000Y-114096800D01*
X108979346Y-114096800D02*
X109140127Y-114096800D01*
X94000000Y-94000000D02*
X94000000Y-99117454D01*
X94000000Y-99117454D02*
X108979346Y-114096800D01*
D17*
G04 #@! TO.N,Net-(D1-Pad1)*
X108251600Y-41986200D02*
X108378600Y-41859200D01*
X104673400Y-41986200D02*
X108251600Y-41986200D01*
G04 #@! TD*
M02*
